<?xml version="1.0" encoding="UTF-8"?>
<svg width="198px" height="198px" viewBox="0 0 198 198" version="1.1" xmlns="http://www.w3.org/2000/svg" xmlns:xlink="http://www.w3.org/1999/xlink">
    <title>Actuator2</title>
    <defs>
        <linearGradient x1="25.8319214%" y1="0%" x2="50%" y2="100%" id="linearGradient-1">
            <stop stop-color="#E3E6B7" offset="0%"></stop>
            <stop stop-color="#EEF0CC" offset="100%"></stop>
        </linearGradient>
    </defs>
    <g id="九大图" stroke="none" stroke-width="1" fill="none" fill-rule="evenodd">
        <g id="用例图图元SVG" transform="translate(-452.000000, -141.000000)">
            <g id="Actuator2" transform="translate(452.000000, 141.000000)">
                <g id="立方体">
                    <path d="M42.4355469,0.0330922107 L-2.55795385e-13,38.77199 L-2.55795385e-13,197.911663 L155.957031,197.911663 L197.358398,156.054757 L197.358398,0.0330922107 L42.4355469,0.0330922107 Z M146.06088,187.949239 L7,187.949239 L7,44.2233503 L151,44.2233503 L151,187.949239 L146.06088,187.949239 Z M13.4521484,37.1878173 L45.3105469,7.98662556 L184.982422,7.98662556 L153.131836,37.1878173 L13.4521484,37.1878173 Z M158.326172,185.331526 L158.326172,42.1052308 L191.273437,12.5232095 L191.273437,152.870707 L158.326172,185.331526 Z" id="形状" fill="#515151" fill-rule="nonzero"></path>
                    <polygon id="矩形" fill="url(#linearGradient-1)" points="7 44.2233503 151 44.2233503 151 188.954315 7 188.954315"></polygon>
                    <polygon id="路径" fill="#FFFBE4" points="13.4521484 37.1878173 45.3105469 7.98662556 184.982422 7.98662556 153.131836 37.1878173"></polygon>
                    <polygon id="路径" fill="#D8DE9E" points="158.326172 185.331526 158.326172 42.1052308 191.273437 12.5232095 191.273437 152.870707"></polygon>
                </g>
                <g id="编组-2" transform="translate(9.000000, 48.238579)" fill-rule="nonzero">
                    <g id="船舵">
                        <path d="M65,137.242379 L65,1.46828097 C65,-0.4826588 78,-0.4826588 78,1.46828097 L78,137.242379 C78,139.193319 65,139.193319 65,137.242379 Z" id="路径" fill="#4B4B4B"></path>
                        <path d="M22.1217521,31.6857982 C20.8758042,30.4339427 29.5743164,23.0168059 30.8202642,24.2686614 L117.850779,112.226655 C119.096727,113.47851 112.154301,120.614213 111.340621,120.614213 C110.798167,120.614213 81.0585442,90.9714082 22.1217521,31.6857982 Z" id="路径" fill="#4B4B4B"></path>
                        <path d="M134.585511,80.4111675 L3.41448931,80.4111675 C1.52969121,80.4111675 0,77.4843858 0,73.8781726 C0,70.2719594 1.52969121,67.3451777 3.41448931,67.3451777 L134.585511,67.3451777 C136.470309,67.3451777 138,70.2719594 138,73.8781726 C138,77.4843858 136.470309,80.4111675 134.585511,80.4111675 Z" id="路径" fill="#4B4B4B"></path>
                        <path d="M32.6383018,120.614213 C31.8260462,120.614213 23.8881847,113.068092 25.131951,111.814365 L111.599667,23.2727762 C112.843434,22.0190489 121.520719,28.9390184 119.766879,30.5928493 C62.2226645,90.6070919 33.1798055,120.614213 32.6383018,120.614213 Z" id="路径-2" fill="#4B4B4B"></path>
                        <path d="M70.5,21.1116751 C44.8180963,21.1116751 24,42.2604338 24,68.3502538 C24,94.4400738 44.8180963,115.588832 70.5,115.588832 C96.1819037,115.588832 117,94.4400738 117,68.3502538 C117,42.2604338 96.1819037,21.1116751 70.5,21.1116751 Z" id="形状" fill="#4B4B4B"></path>
                        <path d="M70.5,104.532995 C90.1061086,104.532995 106,88.5584239 106,68.8527919 C106,49.1471599 90.1061086,33.1725888 70.5,33.1725888 C50.8938914,33.1725888 35,49.1471599 35,68.8527919 C35,88.5584239 50.8938914,104.532995 70.5,104.532995 Z" id="路径" fill="#E5E8BB"></path>
                    </g>
                </g>
            </g>
        </g>
    </g>
</svg>