<?xml version="1.0" encoding="UTF-8"?>
<svg width="198px" height="198px" viewBox="0 0 198 198" version="1.1" xmlns="http://www.w3.org/2000/svg" xmlns:xlink="http://www.w3.org/1999/xlink">
    <title>BoundarySystem2</title>
    <defs>
        <linearGradient x1="25.8319214%" y1="0%" x2="50%" y2="100%" id="linearGradient-1">
            <stop stop-color="#E3E6B7" offset="0%"></stop>
            <stop stop-color="#EEF0CC" offset="100%"></stop>
        </linearGradient>
    </defs>
    <g id="九大图" stroke="none" stroke-width="1" fill="none" fill-rule="evenodd">
        <g id="用例图图元SVG" transform="translate(-1589.000000, -142.000000)">
            <g id="BoundarySystem2" transform="translate(1589.000000, 142.000000)">
                <g id="立方体">
                    <path d="M42.4355469,0.0330922107 L-2.55795385e-13,38.77199 L-2.55795385e-13,197.911663 L155.957031,197.911663 L197.358398,156.054757 L197.358398,0.0330922107 L42.4355469,0.0330922107 Z M146.06088,187.949239 L7,187.949239 L7,44.2233503 L151,44.2233503 L151,187.949239 L146.06088,187.949239 Z M13.4521484,37.1878173 L45.3105469,7.98662556 L184.982422,7.98662556 L153.131836,37.1878173 L13.4521484,37.1878173 Z M158.326172,185.331526 L158.326172,42.1052308 L191.273437,12.5232095 L191.273437,152.870707 L158.326172,185.331526 Z" id="形状" fill="#515151" fill-rule="nonzero"></path>
                    <polygon id="矩形" fill="url(#linearGradient-1)" points="7 44.2233503 151 44.2233503 151 188.954315 7 188.954315"></polygon>
                    <polygon id="路径" fill="#FFFBE4" points="13.4521484 37.1878173 45.3105469 7.98662556 184.982422 7.98662556 153.131836 37.1878173"></polygon>
                    <polygon id="路径" fill="#D8DE9E" points="158.326172 185.331526 158.326172 42.1052308 191.273437 12.5232095 191.273437 152.870707"></polygon>
                </g>
                <g id="编组-4" transform="translate(15.810547, 72.365482)" fill="#4B4B4B" fill-rule="nonzero">
                    <path d="M80.1894531,0.223350254 C55.7744785,0.223350254 35.9661029,19.9316836 35.9661029,44.2233503 C35.9661029,68.5150169 55.7744785,88.2233503 80.1894531,88.2233503 C104.604428,88.2233503 124.412803,68.5150169 124.412803,44.2233503 C124.412803,19.9316836 104.627461,0.223350254 80.1894531,0.223350254 Z" id="路径" transform="translate(80.189453, 44.223350) rotate(90.000000) translate(-80.189453, -44.223350) "></path>
                    <polygon id="路径" transform="translate(20.257812, 45.487548) rotate(-90.000000) translate(-20.257812, -45.487548) " points="65.7453601 25.555907 65.7453601 37.6145007 30.3815446 37.6145007 30.3815446 65.4191882 15.4871361 65.4191882 15.4871361 37.6145007 -25.2297351 37.6145007 -25.2297351 25.555907"></polygon>
                </g>
                <path d="M96.5,82.5888325 C105.757528,82.5888325 114.47368,86.1188871 121.024329,92.5419941 C127.574977,98.965101 131.175127,107.511549 131.175127,116.588832 C131.175127,125.666116 127.574977,134.212564 121.024329,140.635671 C114.47368,147.058778 105.757528,150.588832 96.5,150.588832 C87.242472,150.588832 78.5263199,147.058778 71.9756714,140.635671 C65.4250229,134.212564 61.8248731,125.666116 61.8248731,116.588832 C61.8248731,107.511549 65.4250229,98.965101 71.9756714,92.5419941 C78.5263199,86.1188871 87.242472,82.5888325 96.5,82.5888325" id="路径" fill="#E4E7BA" transform="translate(96.500000, 116.588832) rotate(90.000000) translate(-96.500000, -116.588832) "></path>
            </g>
        </g>
    </g>
</svg>