<?xml version="1.0" encoding="UTF-8"?>
<svg width="198px" height="198px" viewBox="0 0 198 198" version="1.1" xmlns="http://www.w3.org/2000/svg" xmlns:xlink="http://www.w3.org/1999/xlink">
    <title>立方体 2</title>
    <defs>
        <linearGradient x1="25.8319214%" y1="0%" x2="50%" y2="100%" id="linearGradient-1">
            <stop stop-color="#E3E6B7" offset="0%"></stop>
            <stop stop-color="#EEF0CC" offset="100%"></stop>
        </linearGradient>
    </defs>
    <g id="九大图" stroke="none" stroke-width="1" fill="none" fill-rule="evenodd">
        <g id="用例图图元SVG" transform="translate(-727.000000, -142.000000)">
            <g id="立方体-2" transform="translate(727.000000, 142.000000)">
                <g id="立方体">
                    <path d="M42.4355469,0.0330922107 L-2.55795385e-13,38.77199 L-2.55795385e-13,197.911663 L155.957031,197.911663 L197.358398,156.054757 L197.358398,0.0330922107 L42.4355469,0.0330922107 Z M146.06088,187.949239 L7,187.949239 L7,44.2233503 L151,44.2233503 L151,187.949239 L146.06088,187.949239 Z M13.4521484,37.1878173 L45.3105469,7.98662556 L184.982422,7.98662556 L153.131836,37.1878173 L13.4521484,37.1878173 Z M158.326172,185.331526 L158.326172,42.1052308 L191.273437,12.5232095 L191.273437,152.870707 L158.326172,185.331526 Z" id="形状" fill="#515151" fill-rule="nonzero"></path>
                    <polygon id="矩形" fill="url(#linearGradient-1)" points="7 44.2233503 151 44.2233503 151 188.954315 7 188.954315"></polygon>
                    <polygon id="路径" fill="#FFFBE4" points="13.4521484 37.1878173 45.3105469 7.98662556 184.982422 7.98662556 153.131836 37.1878173"></polygon>
                    <polygon id="路径" fill="#D8DE9E" points="158.326172 185.331526 158.326172 42.1052308 191.273437 12.5232095 191.273437 152.870707"></polygon>
                </g>
                <path d="M77.5,147.746193 C94.3446849,147.746193 108,134.021561 108,117.091371 C108,100.16118 94.3446849,86.4365482 77.5,86.4365482 C60.6553151,86.4365482 47,100.16118 47,117.091371 C47,134.021561 60.6553151,147.746193 77.5,147.746193 Z M90,82.2088072 L77.4074314,52.2639594 C77.4074314,52.2639594 65.5731779,82.6371195 66.0119039,82.4150316 C69.829954,80.4849823 73.9430095,79.4115576 78.2376068,79.4115576 C82.3620086,79.4115576 86.3086509,80.4268164 90,82.2088072 Z M92,82.7531264 C99.773139,86.0149248 106.166019,91.9788616 110.080833,99.5025381 C110.632561,98.0658851 118,68.3451777 118,68.3451777 L92,82.7531264 Z M113.932776,116.992796 C113.932776,121.447989 113.107993,125.700234 111.671335,129.654822 L140,113.373996 L111,102.517766 C112.885493,106.963296 113.932776,111.853378 113.932776,116.992796 Z M111.305383,130.659898 C107.664647,139.356888 100.707428,146.331476 92,150.002909 L124,161.817259 L111.305383,130.659898 Z M66,151.771607 L79.0726688,181.918782 L90,151.766497 C86.2321543,153.488463 82.2038585,154.472079 77.9942122,154.472079 C73.7884244,154.472079 69.7639871,153.491018 66,151.771607 Z M45.4059859,132.670051 L33,163.827411 L64,150.483877 C55.8718032,147.026798 49.2752826,140.652689 45.4059859,132.670051 Z M42.0815098,116.35509 C42.0815098,112.20974 42.8068151,108.240544 44.0808963,104.527919 L14,116.407154 L45,130.659898 C43.1234166,126.265636 42.0815098,121.43099 42.0815098,116.35509 Z M44.7810202,101.51269 C48.282598,93.8104183 54.3843572,87.5229661 62,83.7844811 C59.7850306,83.0665698 30,70.3553299 30,70.3553299 L44.7810202,101.51269 Z" id="形状" fill="#4B4B4B" fill-rule="nonzero"></path>
            </g>
        </g>
    </g>
</svg>