<?xml version="1.0" encoding="UTF-8"?>
<svg width="198px" height="198px" viewBox="0 0 198 198" version="1.1" xmlns="http://www.w3.org/2000/svg" xmlns:xlink="http://www.w3.org/1999/xlink">
    <title>Sensor</title>
    <defs>
        <linearGradient x1="25.8319214%" y1="0%" x2="50%" y2="100%" id="linearGradient-1">
            <stop stop-color="#E3E6B7" offset="0%"></stop>
            <stop stop-color="#EEF0CC" offset="100%"></stop>
        </linearGradient>
        <linearGradient x1="50%" y1="0%" x2="50%" y2="100%" id="linearGradient-2">
            <stop stop-color="#E7E9BD" offset="0%"></stop>
            <stop stop-color="#EBEEC6" offset="100%"></stop>
        </linearGradient>
    </defs>
    <g id="九大图" stroke="none" stroke-width="1" fill="none" fill-rule="evenodd">
        <g id="用例图图元SVG" transform="translate(-1002.000000, -142.000000)">
            <g id="Sensor" transform="translate(1002.000000, 142.000000)">
                <g id="立方体">
                    <path d="M42.4355469,0.0330922107 L-2.55795385e-13,38.77199 L-2.55795385e-13,197.911663 L155.957031,197.911663 L197.358398,156.054757 L197.358398,0.0330922107 L42.4355469,0.0330922107 Z M146.06088,187.949239 L7,187.949239 L7,44.2233503 L151,44.2233503 L151,187.949239 L146.06088,187.949239 Z M13.4521484,37.1878173 L45.3105469,7.98662556 L184.982422,7.98662556 L153.131836,37.1878173 L13.4521484,37.1878173 Z M158.326172,185.331526 L158.326172,42.1052308 L191.273437,12.5232095 L191.273437,152.870707 L158.326172,185.331526 Z" id="形状" fill="#515151" fill-rule="nonzero"></path>
                    <polygon id="矩形" fill="url(#linearGradient-1)" points="7 44.2233503 151 44.2233503 151 188.954315 7 188.954315"></polygon>
                    <polygon id="路径" fill="#FFFBE4" points="13.4521484 37.1878173 45.3105469 7.98662556 184.982422 7.98662556 153.131836 37.1878173"></polygon>
                    <polygon id="路径" fill="#D8DE9E" points="158.326172 185.331526 158.326172 42.1052308 191.273437 12.5232095 191.273437 152.870707"></polygon>
                </g>
                <path d="M162.915732,102.830208 C159.497407,94.7454562 154.607077,87.4953646 148.375586,81.2599585 C142.144094,75.0245525 134.898554,70.1311498 126.818878,66.7106777 C118.461156,63.1756443 109.563699,61.3753959 100.420907,61.3753959 C91.2781154,61.3753959 82.380658,63.1756443 74.022936,66.7106777 C65.9432596,70.1311498 58.6977199,75.0245525 52.4662286,81.2599585 C46.2347373,87.4953646 41.3444068,94.7454562 37.9260822,102.830208 C34.3769126,111.193181 32.5777944,120.096228 32.5777944,129.244763 C32.5777944,129.618849 32.5777944,131.234787 32.5777944,134.092575 L53.341121,134.092575 L168.231842,133.400031 C168.231842,131.012814 168.231842,129.627725 168.231842,129.244763 C168.247664,120.096228 166.448546,111.193181 162.915732,102.830208 Z M52.793341,133.794482 C54.9686385,133.794482 56.7186898,132.043331 56.7186898,129.866667 C56.7186898,127.690003 54.9686385,125.938852 52.793341,125.938852 L40.5429814,125.938852 C40.8046713,121.029084 41.6715192,116.282974 43.0617469,111.749621 L50.1764417,114.008115 C50.421776,114.089944 50.6671103,114.122676 50.9124446,114.122676 C51.9592043,114.122676 52.9241859,113.451674 53.2512983,112.404257 C53.6601888,111.111351 52.9405415,109.736616 51.6484476,109.327469 L44.6809533,107.118073 C47.1179407,101.013594 50.5199098,95.3837261 54.7069485,90.4575917 L60.4477712,95.2691649 C60.9057286,95.6455804 61.4618197,95.8419712 62.0179108,95.8419712 C62.7212024,95.8419712 63.4081385,95.5473851 63.8988071,94.9582128 C64.765655,93.9107955 64.63481,92.3724014 63.5880503,91.505009 L58.0271394,86.8407288 C62.6542999,82.2121929 68.0011496,78.3653486 73.8593798,75.4500657 L75.6912093,82.7165232 C75.9692548,83.8294041 76.9669477,84.5658694 78.0627742,84.5658694 C78.2590417,84.5658694 78.4553091,84.5495035 78.6679322,84.4840399 C79.9763818,84.156722 80.7778072,82.8147186 80.4506948,81.505447 L78.5697984,74.0425988 C78.5207316,73.8298421 78.4389535,73.6334514 78.3244641,73.4370606 C83.8526638,71.2440307 89.7733983,69.8365637 95.9721784,69.3783186 L95.9721784,82.7165232 C95.9721784,84.8931873 97.7222297,86.6443381 99.8975272,86.6443381 C102.072825,86.6443381 103.822876,84.8931873 103.822876,82.7165232 L103.822876,69.3292209 C110.708592,69.7220024 117.299907,71.2767625 123.384198,73.7971103 L121.241612,78.9032696 C120.718232,80.1470777 121.307034,81.5872765 122.550061,82.1109851 C122.860818,82.2419123 123.18793,82.3073758 123.498687,82.3073758 C124.463669,82.3073758 125.363228,81.7345695 125.755763,80.8017135 L127.832927,75.8592131 C133.426549,78.7396107 138.513147,82.4874007 142.912808,86.9061924 L138.954748,90.8503731 C137.989767,91.7995951 137.989767,93.3543551 138.938393,94.3199429 C139.412706,94.7945539 140.050575,95.0400423 140.672088,95.0400423 C141.293602,95.0400423 141.931471,94.7945539 142.405784,94.3199429 L146.232999,90.5230552 C150.191059,95.2037013 153.462183,100.506251 155.850104,106.267046 L150.060214,107.167171 C148.719054,107.379927 147.803139,108.640101 148.015762,109.965739 C148.212029,111.176815 149.242433,112.044207 150.436394,112.044207 C150.567239,112.044207 150.698084,112.027842 150.812573,112.011476 L157.5838,110.947692 C159.104872,115.693802 160.053498,120.718132 160.331544,125.889755 L147.018069,125.889755 C144.842772,125.889755 143.09272,127.640906 143.09272,129.81757 C143.09272,131.994234 144.600793,133.400031 146.776091,133.400031 L52.793341,133.794482 Z" id="形状" fill="#4B4B4B" fill-rule="nonzero" transform="translate(100.404870, 97.733986) rotate(48.000000) translate(-100.404870, -97.733986) "></path>
                <polygon id="矩形" fill="url(#linearGradient-2)" transform="translate(75.500000, 124.000000) rotate(3.000000) translate(-75.500000, -124.000000) " points="39.0585147 87.8576682 66.8785114 112.525562 111.941485 160.142332 65.8785114 133.525562"></polygon>
                <polygon id="路径" fill="#4B4B4B" transform="translate(91.530039, 103.592148) rotate(45.000000) translate(-91.530039, -103.592148) " points="90.9881999 88.0921485 98.0300394 119.092148 85.0300394 119.090477"></polygon>
            </g>
        </g>
    </g>
</svg>