<?xml version="1.0" encoding="UTF-8"?>
<svg width="198px" height="197px" viewBox="0 0 198 197" version="1.1" xmlns="http://www.w3.org/2000/svg" xmlns:xlink="http://www.w3.org/1999/xlink">
    <title>UserSystem2</title>
    <defs>
        <linearGradient x1="26.2502346%" y1="0%" x2="50%" y2="100%" id="linearGradient-1">
            <stop stop-color="#E3E6B7" offset="0%"></stop>
            <stop stop-color="#EEF0CC" offset="100%"></stop>
        </linearGradient>
    </defs>
    <g id="九大图" stroke="none" stroke-width="1" fill="none" fill-rule="evenodd">
        <g id="用例图图元SVG" transform="translate(-1277.000000, -142.000000)">
            <g id="UserSystem2" transform="translate(1277.000000, 142.000000)">
                <g id="立方体">
                    <path d="M42.4355469,0.0329250783 L-2.55795385e-13,38.5761719 L-2.55795385e-13,196.912109 L155.957031,196.912109 L197.358398,155.266602 L197.358398,0.0329250783 L42.4355469,0.0329250783 Z M146.06088,187 L7,187 L7,44 L151,44 L151,187 L146.06088,187 Z M13.4521484,37 L45.3105469,7.94628906 L184.982422,7.94628906 L153.131836,37 L13.4521484,37 Z M158.326172,184.395508 L158.326172,41.8925781 L191.273437,12.4599609 L191.273437,152.098633 L158.326172,184.395508 Z" id="形状" fill="#515151" fill-rule="nonzero"></path>
                    <polygon id="矩形" fill="url(#linearGradient-1)" points="7 43 151 43 151 189 7 189"></polygon>
                    <polygon id="路径" fill="#FFFBE4" points="13.4521484 37 45.3105469 7.94628906 184.982422 7.94628906 153.131836 37"></polygon>
                    <polygon id="路径" fill="#D8DE9E" points="158.326172 184.395508 158.326172 41.8925781 191.273437 12.4599609 191.273437 152.098633"></polygon>
                </g>
                <g id="编组" transform="translate(40.000000, 45.000000)" fill="#4B4B4B" fill-rule="nonzero">
                    <path d="M43.480957,0 C26.3663737,0 12.480957,13.8854167 12.480957,31 C12.480957,48.1145833 26.3663737,62 43.480957,62 C60.5955404,62 74.480957,48.1145833 74.480957,31 C74.480957,13.8854167 60.6116862,0 43.480957,0 Z" id="路径"></path>
                    <path d="M52.7036133,96.8779297 L49.944484,104.107668 L49.944484,117.399902 L87.09375,117.399902 L87.09375,127.946777 L49.944484,127.946777 L49.944484,140 L38.5610352,140 L38.5610352,127.946777 L0,127.946777 L0,117.399902 L37.669347,117.399902 L37.669347,104.107668 L34.4481132,95.9412811 L3.87548828,66.4931641 L11.7177734,59 C28.4541016,75.2353516 40.3388672,87.6967773 44.3496094,91.612793 C45.3707682,90.2840169 47.5016276,87.6108398 50.7421875,83.5932617 L74.612793,59 L83.3583984,67.1899414 L52.7036133,96.8779297 Z" id="路径" transform="translate(43.546875, 99.500000) rotate(-180.000000) translate(-43.546875, -99.500000) "></path>
                </g>
                <path d="M83.480957,55 C89.0875144,55 94.3662029,57.1803279 98.333416,61.147541 C102.300629,65.1147541 104.480957,70.3934426 104.480957,76 C104.480957,81.6065574 102.300629,86.8852459 98.333416,90.852459 C94.3662029,94.8196721 89.0875144,97 83.480957,97 C77.8743997,97 72.5957111,94.8196721 68.628498,90.852459 C64.6612849,86.8852459 62.480957,81.6065574 62.480957,76 C62.480957,70.3934426 64.6612849,65.1147541 68.628498,61.147541 C72.5957111,57.1803279 77.8743997,55 83.480957,55" id="路径" fill="#E7E9BE"></path>
            </g>
        </g>
    </g>
</svg>