<?xml version="1.0" encoding="UTF-8"?>
<svg width="16px" height="18px" viewBox="0 0 16 18" version="1.1" xmlns="http://www.w3.org/2000/svg" xmlns:xlink="http://www.w3.org/1999/xlink">
    <title>复制</title>
    <defs>
        <filter id="filter-1">
            <feColorMatrix in="SourceGraphic" type="matrix" values="0 0 0 0 0.505882 0 0 0 0 0.592157 0 0 0 0 0.658824 0 0 0 1.000000 0"></feColorMatrix>
        </filter>
        <filter id="filter-2">
            <feColorMatrix in="SourceGraphic" type="matrix" values="0 0 0 0 0.388235 0 0 0 0 0.415686 0 0 0 0 0.431373 0 0 0 1.000000 0"></feColorMatrix>
        </filter>
    </defs>
    <g id="工作界面" stroke="none" stroke-width="1" fill="none" fill-rule="evenodd">
        <g transform="translate(-304.000000, -148.000000)" id="工具栏">
            <g filter="url(#filter-1)">
                <g transform="translate(229.000000, 144.000000)">
                    <g filter="url(#filter-2)" id="复制">
                        <g transform="translate(72.000000, 2.000000)">
                            <rect id="矩形" fill="#000000" fill-rule="nonzero" opacity="0" x="0" y="0" width="21" height="21"></rect>
                            <path d="M13.6680502,5.85743017 L4.33298476,5.85743017 C3.59869581,5.85743017 3,6.43664804 3,7.14256983 L3,18.7148603 C3,19.4227933 3.60078186,20 4.33298476,20 L13.6680502,20 C14.4023391,20 15.0010349,19.4207821 15.0010349,18.7148603 L15.0010349,7.14256983 C15.0010349,6.43664804 14.4002531,5.85743017 13.6680502,5.85743017 Z M13.6680502,18.7148603 L4.33298476,18.7148603 L4.33298476,7.14256983 L13.6680502,7.14256983 L13.6680502,18.7148603 Z M17.6670044,2 L8.33193903,2 C7.59765009,2 6.99895427,2.57921788 6.99895427,3.28513966 L6.99895427,4.57027933 L8.33193903,4.57027933 L8.33193903,3.28513966 L17.6670044,3.28513966 L17.6670044,14.8574302 L16.3340197,14.8574302 L16.3340197,16.1425698 L17.6670044,16.1425698 C18.4012934,16.1425698 18.9999946,15.563352 18.9999946,14.8574302 L18.9999946,3.28513966 C19.0020752,2.57921788 18.4012934,2 17.6670044,2 Z" id="形状" fill="#000000" fill-rule="nonzero"></path>
                        </g>
                    </g>
                </g>
            </g>
        </g>
    </g>
</svg>