<?xml version="1.0" encoding="UTF-8"?>
<svg width="14px" height="6px" viewBox="0 0 10 3" version="1.1" xmlns="http://www.w3.org/2000/svg" xmlns:xlink="http://www.w3.org/1999/xlink">
    <title>3.0-更多</title>
    <g id="欢迎页" stroke="none" stroke-width="1" fill="none" fill-rule="evenodd">
        <g transform="translate(-907.000000, -599.000000)" id="3.0-更多">
            <g transform="translate(904.000000, 592.000000)">
                <rect id="矩形" fill="#2E3030" opacity="0" x="0" y="0" width="16" height="16"></rect>
                <path d="M2.99658203,8 C2.99658203,8.82842708 3.13845113,8.98925781 3.96687825,8.98925781 C4.79530533,8.98925781 5,8.82842708 5,8 C5,7.17157288 4.79530533,6.99560547 3.96687825,6.99560547 C3.13845113,6.99560547 2.99658203,7.17157288 2.99658203,8 Z M6.99377441,8 C6.99377441,8.82842708 7.16919251,9.02624512 7.99761963,9.02624512 C8.82604671,9.02624512 9.00146484,8.82842708 9.00146484,8 C9.00146484,7.17157288 8.82842708,7.01184082 8,7.01184082 C7.17157288,7.01184082 6.99377441,7.17157288 6.99377441,8 Z M10.9379883,8 C10.9379883,8.98522949 11.3986626,8.98278809 11.9606743,8.95849609 C12.522686,8.9342041 13,8.9609375 12.982666,7.97570801 C12.965332,6.99047852 12.522686,7.00805664 11.9606743,7.00805664 C11.3986626,7.00805664 10.9379883,7.01477051 10.9379883,8 Z" id="形状" fill="#2570A2"></path>
            </g>
        </g>
    </g>
</svg>