<?xml version="1.0" encoding="UTF-8"?>
<svg width="16px" height="14px" viewBox="0 0 16 14" version="1.1" xmlns="http://www.w3.org/2000/svg" xmlns:xlink="http://www.w3.org/1999/xlink">
    <title>编组 16</title>
    <defs>
        <linearGradient x1="50%" y1="100%" x2="50%" y2="0%" id="linearGradient-1">
            <stop stop-color="#F7E19F" offset="0%"></stop>
            <stop stop-color="#FBC550" offset="51.0399071%"></stop>
            <stop stop-color="#FDD644" offset="53.6080025%"></stop>
            <stop stop-color="#EBE3A3" offset="100%"></stop>
        </linearGradient>
        <linearGradient x1="50%" y1="100%" x2="50%" y2="0%" id="linearGradient-2">
            <stop stop-color="#F7E19F" offset="0%"></stop>
            <stop stop-color="#FBC550" offset="51.0399071%"></stop>
            <stop stop-color="#FDD644" offset="53.6080025%"></stop>
            <stop stop-color="#EBE3A3" offset="100%"></stop>
        </linearGradient>
        <filter id="filter-3">
            <feColorMatrix in="SourceGraphic" type="matrix" values="0 0 0 0 0.443137 0 0 0 0 0.443137 0 0 0 0 0.439216 0 0 0 1.000000 0"></feColorMatrix>
        </filter>
    </defs>
    <g id="工作界面" stroke="none" stroke-width="1" fill="none" fill-rule="evenodd">
        <g transform="translate(-65.000000, -236.000000)" id="编组-16">
            <g transform="translate(65.000000, 235.000000)">
                <rect id="矩形" fill="#000000" fill-rule="nonzero" opacity="0" x="0" y="0" width="16" height="16"></rect>
                <path d="M8,5 L0,5 L0,1.65616667 C0,1.29328333 0.31495302,1 0.704626398,1 L6.1797047,1 C6.49111409,1 6.76511857,1.1889 6.85408501,1.46726667 L8,5 Z" id="路径" fill="url(#linearGradient-1)"></path>
                <path d="M15.2953729,14 L0.7046271,14 C0.314947368,14 0,13.6705622 0,13.2629438 L0,3.73705622 C0,3.32943782 0.314947368,3 0.7046271,3 L15.2953729,3 C15.6850526,3 16,3.32943782 16,3.73705622 L16,13.2629438 C16,13.6686882 15.6832788,14 15.2953729,14 Z" id="路径" fill="url(#linearGradient-2)"></path>
                <g filter="url(#filter-3)" id="文件夹1">
                    <g transform="translate(0.000000, 1.000000)">
                        <path d="M14.5453746,2.03345331 L8.35773213,2.03345331 C7.98217936,2.03345331 7.67308025,1.74863842 7.63456078,1.38327014 C7.63371333,1.36595388 7.63254606,1.34874955 7.63109098,1.33160917 C7.63080317,1.32316689 7.63046738,1.31472463 7.63046738,1.30620239 L7.63046738,1.30866472 L7.62906027,1.30866472 C7.55592286,0.573754984 6.93580588,0 6.18180617,0 L1.45454545,0 C0.651361078,0 3.55271368e-15,0.651062578 3.55271368e-15,1.45446988 L3.55271368e-15,12.2147744 C3.55271368e-15,13.0180378 0.651329109,13.6692283 1.45454545,13.6692283 L14.5453746,13.6692283 C15.348543,13.6692283 15.9999041,13.0180378 15.9999041,12.2147744 L15.9999041,3.48793917 C15.9999041,2.68453187 15.348575,2.03345331 14.5453746,2.03345331 Z M15.2726553,12.2147744 C15.2726553,12.6164061 14.9469588,12.9419933 14.5453906,12.9419933 L1.45454545,12.9419933 C1.05284933,12.9419933 0.727280719,12.6164061 0.727280719,12.2147744 L0.727280719,4.21515811 L15.2726553,4.21515811 L15.2726553,12.2147744 Z M0.727280719,3.48793917 L0.727280719,1.45448586 C0.727280719,1.05291813 1.05284933,0.727250922 1.45454545,0.727250922 L6.18180619,0.727250922 C6.55759881,0.727250922 6.86679384,1.01236961 6.9050255,1.37799372 C6.90585697,1.39502217 6.90699225,1.41197069 6.90839934,1.42883925 C6.90870316,1.43736147 6.90905492,1.44588369 6.90905492,1.45448586 L6.91071786,1.45448586 C6.98500653,2.18821239 7.60457988,2.76068825 8.35771613,2.76068825 L14.5453906,2.76068825 C14.9469428,2.76068825 15.2726393,3.08635545 15.2726393,3.48793917 L0.727280719,3.48793917 L0.727280719,3.48793917 Z" id="形状" fill="#BDC8DA" fill-rule="nonzero"></path>
                    </g>
                </g>
            </g>
        </g>
    </g>
</svg>