<?xml version="1.0" encoding="UTF-8"?>
<svg width="35px" height="14px" viewBox="0 0 35 14" version="1.1" xmlns="http://www.w3.org/2000/svg" xmlns:xlink="http://www.w3.org/1999/xlink">
    <title>编组 5</title>
    <defs>
        <filter id="filter-1">
            <feColorMatrix in="SourceGraphic" type="matrix" values="0 0 0 0 0.444569 0 0 0 0 0.445356 0 0 0 0 0.449728 0 0 0 1.000000 0"></feColorMatrix>
        </filter>
    </defs>
    <g id="工作界面" stroke="none" stroke-width="1" fill="none" fill-rule="evenodd">
        <g transform="translate(-884.000000, -380.000000)" id="编组-5">
            <g filter="url(#filter-1)">
                <g transform="translate(901.500000, 388.000000) rotate(40.000000) translate(-901.500000, -388.000000) translate(889.000000, 376.000000)">
                    <path d="M21.9939575,1.69237103 L16.5038297,7.73149971 C16.2277408,8.0459406 16.2316892,8.54576015 16.5127041,8.85487587 C16.7937189,9.16399158 17.2481012,9.16833488 17.5339572,8.8646377 L23.024085,2.82550903 L23.024085,5.69922392 C23.024085,6.14180867 23.3502546,8.8646377 23.7526052,8.8646377 C24.1549558,8.8646377 24.4811446,6.14180867 24.4811446,5.69922392 L24.4811446,0.891000456 C24.4817082,0.678267879 24.4051407,0.474063442 24.2683902,0.323638111 C24.1316396,0.17321278 23.9459988,0.0889887919 23.7526052,0.089595309 L19.3814843,0.089595309 C18.9791337,0.089595309 15.4811446,0.448415707 15.4811446,0.891000456 C15.4811446,1.33358521 18.9791337,1.69237103 19.3814843,1.69237103 L21.9939575,1.69237103 Z" id="形状" stroke="#979797" fill="#3F51B5" fill-rule="nonzero"></path>
                    <path d="M2.39937375,20.8163824 C3.58037851,19.6353776 4.80368291,18.9439272 5.13175812,19.2720024 C5.45976157,19.6000059 4.76835425,20.8233533 3.58734948,22.0043581 C2.40634472,23.1853629 1.18304891,23.8767185 0.85504546,23.5487151 C0.526970256,23.2206399 1.21836898,21.9973871 2.39937375,20.8163824 Z M9.95965669,13.2560994 C11.1406615,12.0750947 12.3639142,11.3836959 12.6919894,11.7117711 C13.0199929,12.0397746 12.3286372,13.2630703 11.1476324,14.4440752 C9.96662762,15.62508 8.74328021,16.3164872 8.41527676,15.9884838 C8.0872532,15.6603569 8.77865193,14.4371042 9.95965669,13.2560994 Z" id="形状" stroke="#979797" fill="#3F51B5" fill-rule="nonzero"></path>
                </g>
            </g>
        </g>
    </g>
</svg>