<?xml version="1.0" encoding="UTF-8"?>
<svg width="18px" height="18px" viewBox="0 0 18 18" version="1.1" xmlns="http://www.w3.org/2000/svg" xmlns:xlink="http://www.w3.org/1999/xlink">
    <title>编组 17</title>
    <defs>
        <linearGradient x1="50%" y1="100%" x2="50%" y2="0%" id="linearGradient-1">
            <stop stop-color="#F7E19F" offset="0%"></stop>
            <stop stop-color="#FBC550" offset="51.0399071%"></stop>
            <stop stop-color="#FDD644" offset="53.6080025%"></stop>
            <stop stop-color="#EBE3A3" offset="100%"></stop>
        </linearGradient>
        <linearGradient x1="50%" y1="100%" x2="50%" y2="0%" id="linearGradient-2">
            <stop stop-color="#F7E19F" offset="0%"></stop>
            <stop stop-color="#FBC550" offset="51.0399071%"></stop>
            <stop stop-color="#FDD644" offset="53.6080025%"></stop>
            <stop stop-color="#EBE3A3" offset="100%"></stop>
        </linearGradient>
        <linearGradient x1="50%" y1="100%" x2="50%" y2="0%" id="linearGradient-3">
            <stop stop-color="#F7E19F" offset="0%"></stop>
            <stop stop-color="#FBC550" offset="51.0399071%"></stop>
            <stop stop-color="#FDD644" offset="53.6080025%"></stop>
            <stop stop-color="#EBE3A3" offset="100%"></stop>
        </linearGradient>
        <filter id="filter-4">
            <feColorMatrix in="SourceGraphic" type="matrix" values="0 0 0 0 0.253963 0 0 0 0 0.253963 0 0 0 0 0.242325 0 0 0 1.000000 0"></feColorMatrix>
        </filter>
        <filter id="filter-5">
            <feColorMatrix in="SourceGraphic" type="matrix" values="0 0 0 0 0.254902 0 0 0 0 0.254902 0 0 0 0 0.243137 0 0 0 1.000000 0"></feColorMatrix>
        </filter>
    </defs>
    <g id="工作界面" stroke="none" stroke-width="1" fill="none" fill-rule="evenodd">
        <g transform="translate(-379.000000, -113.000000)" id="编组-17">
            <g transform="translate(380.000000, 114.000000)">
                <g id="编组-7">
                    <g id="icon_未知文件">
                        <rect id="矩形" fill="#000000" fill-rule="nonzero" opacity="0" x="0" y="0" width="16" height="16"></rect>
                        <polygon id="路径" stroke="#968767" fill="url(#linearGradient-1)" points="15.7142857 15.7142857 0.285714281 15.7142857 0.285714281 0.285714281 12.6363197 0.285714281 14.5 1.5 15.7142857 3"></polygon>
                        <polygon id="路径" fill="#A6A394" fill-rule="nonzero" points="13 0 13 3 16 3"></polygon>
                    </g>
                </g>
                <g id="编组-16" transform="translate(3.000000, 2.000000)">
                    <g id="编组-6" fill="#000000" fill-rule="nonzero" opacity="0">
                        <g id="编组-2">
                            <rect id="矩形" x="0" y="0" width="7" height="7"></rect>
                        </g>
                    </g>
                    <path d="M4,3 L0,3 L0,1.32808333 C0,1.14664167 0.15747651,1 0.352313199,1 L3.08985235,1 C3.24555705,1 3.38255928,1.09445 3.42704251,1.23363333 L4,3 Z" id="路径" fill="url(#linearGradient-2)"></path>
                    <path d="M6.69172564,6 L0.308274356,6 C0.137789474,6 0,5.85025554 0,5.66497445 L0,1.33502555 C0,1.14974446 0.137789474,1 0.308274356,1 L6.69172564,1 C6.86221053,1 7,1.14974446 7,1.33502555 L7,5.66497445 C7,5.84940375 6.86143449,6 6.69172564,6 Z" id="路径" fill="url(#linearGradient-3)"></path>
                    <g filter="url(#filter-4)" id="文件夹1">
                        <g transform="translate(0.000000, 1.000000)">
                            <path d="M6.36360138,0.871479991 L3.6565078,0.871479991 C3.49220347,0.871479991 3.35697261,0.749416467 3.34012034,0.59283006 C3.33974958,0.585408804 3.3392389,0.57803552 3.33860231,0.570689645 C3.33847639,0.567071525 3.33832948,0.563453411 3.33832948,0.559801025 L3.33832948,0.560856308 L3.33771387,0.560856308 C3.30571625,0.245894993 3.03441507,0 2.7045402,0 L0.636363636,0 C0.284970472,0 1.55431223e-15,0.279026819 1.55431223e-15,0.623344232 L1.55431223e-15,5.23490331 C1.55431223e-15,5.57915905 0.284956485,5.85824069 0.636363636,5.85824069 L6.36360138,5.85824069 C6.71498755,5.85824069 6.99995803,5.57915904 6.99995803,5.23490331 L6.99995803,1.49483107 C6.99995803,1.15051366 6.71500154,0.871479991 6.36360138,0.871479991 Z M6.6817867,5.2349033 C6.6817867,5.40703117 6.53929447,5.54656857 6.36360838,5.54656857 L0.636363636,5.54656857 C0.460621581,5.54656857 0.318185314,5.40703118 0.318185314,5.2349033 L0.318185314,1.80649633 L6.6817867,1.80649633 L6.6817867,5.2349033 Z M0.318185314,1.49483107 L0.318185314,0.623351083 C0.318185314,0.451250625 0.460621581,0.311678967 0.636363636,0.311678967 L2.70454021,0.311678967 C2.86894948,0.311678967 3.00422231,0.43387269 3.02094866,0.590568737 C3.02131242,0.597866645 3.02180911,0.605130295 3.02242471,0.612359679 C3.02255763,0.616012058 3.02271153,0.619664437 3.02271153,0.623351083 L3.02343906,0.623351083 C3.05594036,0.93780531 3.3270037,1.18315211 3.6565008,1.18315211 L6.36360838,1.18315211 C6.53928747,1.18315211 6.68177971,1.32272377 6.68177971,1.49483107 L0.318185314,1.49483107 L0.318185314,1.49483107 Z" id="形状" fill="#BDC8DA" fill-rule="nonzero"></path>
                        </g>
                    </g>
                </g>
                <g id="编组-16" transform="translate(6.000000, 5.000000)">
                    <g id="编组-6" fill="#000000" fill-rule="nonzero" opacity="0">
                        <g id="编组-2">
                            <rect id="矩形" x="0" y="0" width="7" height="7"></rect>
                        </g>
                    </g>
                    <path d="M4,3 L0,3 L0,1.32808333 C0,1.14664167 0.15747651,1 0.352313199,1 L3.08985235,1 C3.24555705,1 3.38255928,1.09445 3.42704251,1.23363333 L4,3 Z" id="路径" fill="url(#linearGradient-2)"></path>
                    <path d="M6.69172564,6 L0.308274356,6 C0.137789474,6 0,5.85025554 0,5.66497445 L0,1.33502555 C0,1.14974446 0.137789474,1 0.308274356,1 L6.69172564,1 C6.86221053,1 7,1.14974446 7,1.33502555 L7,5.66497445 C7,5.84940375 6.86143449,6 6.69172564,6 Z" id="路径" fill="url(#linearGradient-3)"></path>
                    <g filter="url(#filter-5)" id="文件夹1">
                        <g transform="translate(0.000000, 1.000000)">
                            <path d="M6.36360138,0.871479991 L3.6565078,0.871479991 C3.49220347,0.871479991 3.35697261,0.749416467 3.34012034,0.59283006 C3.33974958,0.585408804 3.3392389,0.57803552 3.33860231,0.570689645 C3.33847639,0.567071525 3.33832948,0.563453411 3.33832948,0.559801025 L3.33832948,0.560856308 L3.33771387,0.560856308 C3.30571625,0.245894993 3.03441507,0 2.7045402,0 L0.636363636,0 C0.284970472,0 1.55431223e-15,0.279026819 1.55431223e-15,0.623344232 L1.55431223e-15,5.23490331 C1.55431223e-15,5.57915905 0.284956485,5.85824069 0.636363636,5.85824069 L6.36360138,5.85824069 C6.71498755,5.85824069 6.99995803,5.57915904 6.99995803,5.23490331 L6.99995803,1.49483107 C6.99995803,1.15051366 6.71500154,0.871479991 6.36360138,0.871479991 Z M6.6817867,5.2349033 C6.6817867,5.40703117 6.53929447,5.54656857 6.36360838,5.54656857 L0.636363636,5.54656857 C0.460621581,5.54656857 0.318185314,5.40703118 0.318185314,5.2349033 L0.318185314,1.80649633 L6.6817867,1.80649633 L6.6817867,5.2349033 Z M0.318185314,1.49483107 L0.318185314,0.623351083 C0.318185314,0.451250625 0.460621581,0.311678967 0.636363636,0.311678967 L2.70454021,0.311678967 C2.86894948,0.311678967 3.00422231,0.43387269 3.02094866,0.590568737 C3.02131242,0.597866645 3.02180911,0.605130295 3.02242471,0.612359679 C3.02255763,0.616012058 3.02271153,0.619664437 3.02271153,0.623351083 L3.02343906,0.623351083 C3.05594036,0.93780531 3.3270037,1.18315211 3.6565008,1.18315211 L6.36360838,1.18315211 C6.53928747,1.18315211 6.68177971,1.32272377 6.68177971,1.49483107 L0.318185314,1.49483107 L0.318185314,1.49483107 Z" id="形状" fill="#BDC8DA" fill-rule="nonzero"></path>
                        </g>
                    </g>
                </g>
            </g>
        </g>
    </g>
</svg>