<?xml version="1.0" encoding="UTF-8"?>
<svg width="17px" height="17px" viewBox="0 0 17 17" version="1.1" xmlns="http://www.w3.org/2000/svg" xmlns:xlink="http://www.w3.org/1999/xlink">
    <title>HI</title>
    <g id="欢迎页" stroke="none" stroke-width="1" fill="none" fill-rule="evenodd">
        <g transform="translate(-26.000000, -113.000000)" fill="#A4A191" id="HI">
            <g transform="translate(25.999878, 113.000000)">
                <path d="M8.34831647,8.50232029 L5.16075547,8.50901684 C5.15629107,8.50901684 5.15405897,8.50678481 5.15405897,8.50232029 L5.58263845,5.02011138 C5.58263845,5.01564701 5.58040636,5.01341482 5.57594196,5.01341482 L3.98885818,5.0178792 C3.98662597,5.0178792 3.98439377,5.02011138 3.98216157,5.02234357 L3,13.0001735 C3,13.004638 3.00223219,13.0068703 3.00669656,13.0068703 L4.59378039,13.0024057 C4.59601259,13.0024057 4.59824479,13.0001735 4.600477,12.9979417 L4.96878754,10.0112778 C4.96878754,10.0090456 4.97101964,10.0068133 4.97548404,10.0068133 L8.16304504,10.0001165 C8.16750922,10.0001165 8.16974154,10.0023488 8.16974154,10.0068133 L7.80143099,12.9912449 C7.80143099,12.9957094 7.80366286,12.9979417 7.80812749,12.9979417 L9.39521149,12.9934772 C9.39744336,12.9934772 9.39967567,12.9912449 9.40190798,12.9890126 L10.3840694,5.01118264 C10.3840694,5.00671827 10.3818371,5.00448608 10.3773729,5.00448608 L8.79028895,5.00895045 C8.78805663,5.00895045 8.78582476,5.01118264 8.78359245,5.01341482 L8.35501297,8.497856 C8.35501297,8.50008826 8.35278065,8.50232029 8.34831647,8.50232029 L8.34831647,8.50232029 Z M11.0068186,12.991219 L12.5939026,12.9867548 C12.5961348,12.9867548 12.598367,12.9845225 12.6005991,12.9822902 L13.2747192,7.50004372 C13.2747192,7.49557935 13.2724871,7.49334717 13.2680227,7.49334717 L11.6809387,7.49781154 C11.6787065,7.49781154 11.6764743,7.50004372 11.6742421,7.50227591 L11.0001221,12.9822902 C11.0001221,12.9867548 11.0045864,12.991219 11.0068186,12.991219 Z M14.9954898,17.0003242 L8.56679524,17.0003242 C3.53321721,17.0003242 -0.344088902,12.8886385 0.0242217031,7.86845373 C0.347888594,3.46881618 4.0198336,-3.41060513e-13 8.50206155,-3.41060513e-13 C13.1963479,-3.41060513e-13 17.002224,3.80587617 17.002224,8.50016212 C17.002224,10.3260902 16.4173913,12.0091574 15.446391,13.4020412 C14.8995055,14.187771 14.9954898,16.8507675 15.0021854,16.9936274 C15.0021854,16.998092 14.9999539,17.0003242 14.9954898,17.0003242 Z M12.7836419,5 C12.3416692,5 11.942108,5.33707109 11.8907677,5.75002542 C11.8394274,6.16297966 12.1563978,6.4978075 12.5983705,6.4978075 C13.0403432,6.4978075 13.4399044,6.16074748 13.4912447,5.7477932 C13.5425849,5.33260672 13.2256147,4.99777891 12.7836419,5 Z" id="形状"></path>
            </g>
        </g>
    </g>
</svg>