<?xml version="1.0" encoding="UTF-8"?>
<svg width="16px" height="17px" viewBox="0 0 16 17" version="1.1" xmlns="http://www.w3.org/2000/svg" xmlns:xlink="http://www.w3.org/1999/xlink">
    <title>icondelete</title>
    <defs>
        <filter id="filter-1">
            <feColorMatrix in="SourceGraphic" type="matrix" values="0 0 0 0 0.254902 0 0 0 0 0.309804 0 0 0 0 0.345098 0 0 0 1.000000 0"></feColorMatrix>
        </filter>
    </defs>
    <g id="菜单树" stroke="none" stroke-width="1" fill="none" fill-rule="evenodd">
        <g transform="translate(-188.000000, -684.000000)" id="icondelete">
            <g filter="url(#filter-1)">
                <g transform="translate(188.000000, 684.000000)">
                    <rect id="矩形" fill="#414F58" fill-rule="nonzero" opacity="0" x="0" y="1" width="16" height="16"></rect>
                    <path d="M14.5915641,4 L1.41007616,4 C1.18371412,4 1,3.776 1,3.5 C1,3.224 1.18371412,3 1.41007616,3 L14.5899238,3 C14.8162859,3 15,3.224 15,3.5 C15,3.776 14.8179262,4 14.5915641,4 Z M10.5626822,1 L5.43731778,1 C5.19591837,1 5,0.776 5,0.5 C5,0.224 5.19591837,0 5.43731778,0 L10.5626822,0 C10.8040816,0 11,0.224 11,0.5 C11,0.776 10.8040816,1 10.5626822,1 Z M10.4733155,15 L5.52668446,15 C4.13408939,15 3,13.7623237 3,12.24253 L3,3.45502806 C3,3.20385257 3.18679119,3 3.41694463,3 C3.64709807,3 3.83388926,3.20385257 3.83388926,3.45502806 L3.83388926,12.24253 C3.83388926,13.2617928 4.59272849,14.0899439 5.52668446,14.0899439 L10.4733155,14.0899439 C11.4072715,14.0899439 12.1661107,13.2617928 12.1661107,12.24253 L12.1661107,3.45502806 C12.1661107,3.20385257 12.3529019,3 12.5830554,3 C12.8132088,3 13,3.20385257 13,3.45502806 L13,12.24253 C13,13.7641438 11.8659106,15 10.4733155,15 L10.4733155,15 Z M6.5,11 C6.224,11 6,10.8070961 6,10.569411 L6,6.43058905 C6,6.19290389 6.224,6 6.5,6 C6.776,6 7,6.19290389 7,6.43058905 L7,10.5676886 C7,10.8070961 6.778,11 6.5,11 L6.5,11 Z M9.5,11 C9.224,11 9,10.8070961 9,10.569411 L9,6.43058905 C9,6.19290389 9.224,6 9.5,6 C9.776,6 10,6.19290389 10,6.43058905 L10,10.5676886 C10,10.8070961 9.776,11 9.5,11 L9.5,11 Z" id="形状" fill="#414F58" fill-rule="nonzero"></path>
                </g>
            </g>
        </g>
    </g>
</svg>