<?xml version="1.0" encoding="UTF-8"?>
<svg width="15px" height="15px" viewBox="0 0 15 15" version="1.1" xmlns="http://www.w3.org/2000/svg" xmlns:xlink="http://www.w3.org/1999/xlink">
    <title>iconpicbag</title>
    <defs>
        <linearGradient x1="5.64456815%" y1="47.5803885%" x2="98.3866318%" y2="49.9642302%" id="linearGradient-1">
            <stop stop-color="#FDF0A9" offset="0%"></stop>
            <stop stop-color="#FDEFA0" offset="46.3919975%"></stop>
            <stop stop-color="#FDF5C6" offset="60.3673986%"></stop>
            <stop stop-color="#FDF0A7" offset="100%"></stop>
        </linearGradient>
        <linearGradient x1="100%" y1="50.4708564%" x2="8.33129883%" y2="50.0460087%" id="linearGradient-2">
            <stop stop-color="#FEF9DB" offset="0%"></stop>
            <stop stop-color="#FEF4BD" offset="44.2039696%"></stop>
            <stop stop-color="#FEEF9E" offset="60.7131546%"></stop>
            <stop stop-color="#FCF0AC" offset="100%"></stop>
        </linearGradient>
        <filter id="filter-3">
            <feColorMatrix in="SourceGraphic" type="matrix" values="0 0 0 0 0.443137 0 0 0 0 0.443137 0 0 0 0 0.439216 0 0 0 1.000000 0"></feColorMatrix>
        </filter>
        <filter id="filter-4">
            <feColorMatrix in="SourceGraphic" type="matrix" values="0 0 0 0 0.443137 0 0 0 0 0.443137 0 0 0 0 0.439216 0 0 0 1.000000 0"></feColorMatrix>
        </filter>
    </defs>
    <g id="工作界面" stroke="none" stroke-width="1" fill="none" fill-rule="evenodd">
        <g transform="translate(-84.000000, -358.000000)" id="编组">
            <g transform="translate(10.000000, 183.000000)">
                <g id="iconpicbag" transform="translate(74.000000, 175.000000)">
                    <g id="编组-7">
                        <g id="icon_未知文件">
                            <polygon id="矩形" fill="#000000" fill-rule="nonzero" opacity="0" points="0 0 11.4761353 0 15 0 15 15 0 15"></polygon>
                            <polygon id="路径" stroke="#717170" fill="url(#linearGradient-1)" points="14.3096924 14.3515625 0.621643066 14.3515625 0.621643066 0.633056641 11.71875 0.633056641 13.0316162 1.87182617 14.3096924 3"></polygon>
                            <polygon id="路径" fill="#A6A394" fill-rule="nonzero" points="11.8983154 0.302429199 11.8983154 2.84155273 14.6413574 2.84155273"></polygon>
                        </g>
                    </g>
                    <g id="iconbag" transform="translate(3.000000, 2.000000)">
                        <rect id="矩形" fill="#000000" fill-rule="nonzero" opacity="0" x="0" y="0" width="7" height="7"></rect>
                        <path d="M4,1 L0,1 L0.113098145,0.263702393 C0.113098145,0.172981559 0.362353252,0 0.557189941,0 L3.08985235,0 C3.24555705,0 3.38255928,0.047225 3.42704251,0.116816667 L4,1 Z" id="路径" fill="#FEF0A4"></path>
                        <path d="M6.69172564,6 L0.308274356,6 C0.137789474,6 0,5.88020443 0,5.73197956 L0,2.26802044 C0,2.11979557 0.137789474,2 0.308274356,2 L6.45387268,2.03912547 C6.62435756,2.03912547 7,2.28274991 7,2.43097479 L7,5.73197956 C7,5.879523 6.86143449,6 6.69172564,6 Z" id="路径" fill="url(#linearGradient-2)"></path>
                        <g filter="url(#filter-3)" id="文件夹1">
                            <g transform="translate(0.000000, 1.000000)">
                                <path d="" id="形状" stroke="#979797" fill="#BDC8DA" fill-rule="nonzero"></path>
                            </g>
                        </g>
                    </g>
                    <g id="iconbag" transform="translate(5.000000, 5.000000)">
                        <rect id="矩形" fill="#000000" fill-rule="nonzero" opacity="0" x="0" y="0" width="7" height="7"></rect>
                        <path d="M7,3 L0,3 L0.197921753,1.52740479 C0.197921753,1.34596312 0.634118192,1 0.975082397,1 C2.03470775,0.882647774 2.61119368,0.882647774 2.7045402,1 C3.23483274,1.66666667 3.66665268,2 4,2 C4.27248322,2 5.81473249,1.76407169 5.89257812,1.90325502 L7,3 Z" id="路径" fill="#FEF0A4"></path>
                        <path d="M6.69172564,7 L0.308274356,7 C0.137789474,7 0,6.88020443 0,6.73197956 L0,3.26802044 C0,3.11979557 0.137789474,3 0.308274356,3 L6.45387268,3.03912547 C6.62435756,3.03912547 7,3.28274991 7,3.43097479 L7,6.73197956 C7,6.879523 6.86143449,7 6.69172564,7 Z" id="路径" fill="url(#linearGradient-2)"></path>
                        <g filter="url(#filter-4)" id="文件夹1">
                            <g transform="translate(0.000000, 1.000000)">
                                <path d="M6.36360138,0.871479991 L3.6565078,0.871479991 C3.49220347,0.871479991 3.35697261,0.749416467 3.34012034,0.59283006 C3.33974958,0.585408804 3.3392389,0.57803552 3.33860231,0.570689645 C3.33847639,0.567071525 3.33832948,0.563453411 3.33832948,0.559801025 L3.33832948,0.560856308 L3.33771387,0.560856308 C3.30571625,0.245894993 3.03441507,0 2.7045402,0 L0.636363636,0 C0.284970472,0 1.55431223e-15,0.279026819 1.55431223e-15,0.623344232 L1.55431223e-15,5.23490331 C1.55431223e-15,5.57915905 0.284956485,5.85824069 0.636363636,5.85824069 L6.36360138,5.85824069 C6.71498755,5.85824069 6.99995803,5.57915904 6.99995803,5.23490331 L6.99995803,1.49483107 C6.99995803,1.15051366 6.71500154,0.871479991 6.36360138,0.871479991 Z M6.6817867,5.2349033 C6.6817867,5.40703117 6.53929447,5.54656857 6.36360838,5.54656857 L0.636363636,5.54656857 C0.460621581,5.54656857 0.318185314,5.40703118 0.318185314,5.2349033 L0.318185314,1.80649633 L6.6817867,1.80649633 L6.6817867,5.2349033 Z M0.318185314,1.49483107 L0.318185314,0.623351083 C0.318185314,0.451250625 0.460621581,0.311678967 0.636363636,0.311678967 L2.70454021,0.311678967 C2.86894948,0.311678967 3.00422231,0.43387269 3.02094866,0.590568737 C3.02131242,0.597866645 3.02180911,0.605130295 3.02242471,0.612359679 C3.02255763,0.616012058 3.02271153,0.619664437 3.02271153,0.623351083 L3.02343906,0.623351083 C3.05594036,0.93780531 3.3270037,1.18315211 3.6565008,1.18315211 L6.36360838,1.18315211 C6.53928747,1.18315211 6.68177971,1.32272377 6.68177971,1.49483107 L0.318185314,1.49483107 L0.318185314,1.49483107 Z" id="形状" fill="#BDC8DA" fill-rule="nonzero"></path>
                            </g>
                        </g>
                    </g>
                </g>
            </g>
        </g>
    </g>
</svg>