<?xml version="1.0" encoding="UTF-8"?>
<svg width="22px" height="11px" viewBox="0 0 22 11" version="1.1" xmlns="http://www.w3.org/2000/svg" xmlns:xlink="http://www.w3.org/1999/xlink">
    <title>iconspread</title>
    <defs>
        <linearGradient x1="50%" y1="18.182373%" x2="50%" y2="77.2186279%" id="linearGradient-1">
            <stop stop-color="#986060" offset="0%"></stop>
            <stop stop-color="#654040" offset="33.3212716%"></stop>
            <stop stop-color="#000000" offset="100%"></stop>
        </linearGradient>
        <linearGradient x1="0%" y1="50%" x2="100%" y2="50%" id="linearGradient-2">
            <stop stop-color="#DEDEDE" offset="0%"></stop>
            <stop stop-color="#FFFFFF" offset="100%"></stop>
        </linearGradient>
    </defs>
    <g id="icon" stroke="none" stroke-width="1" fill="none" fill-rule="evenodd">
        <g transform="translate(-703.000000, -22.000000)" id="iconspread">
            <g transform="translate(703.000000, 22.000000)">
                <g id="jian">
                    <rect id="矩形" fill="url(#linearGradient-1)" fill-rule="nonzero" opacity="0" x="0" y="0" width="11" height="11"></rect>
                    <rect id="矩形" fill="url(#linearGradient-2)" x="1" y="1" width="9" height="9"></rect>
                    <path d="M8,4.99998438 L6.00009375,4.99998438 L4.99990625,5.00014063 L3,5.00014063 L3,6.00009375 L4.99990625,6.00009375 L6.00009375,6.00009375 L8,6.00009375 L8,4.99998438 Z M10,0 C10.5522969,0 11,0.44771875 11,1 L11,1 L11,10 C11,10.5522969 10.5522969,11 10,11 L10,11 L1,11 C0.44771875,11 0,10.5522969 0,10 L0,10 L0,1 C0,0.44771875 0.44771875,0 1,0 L1,0 Z M9.5,1 L1.5,1 C1.22385937,1 1,1.22385937 1,1.5 L1,1.5 L1,9.5 C1,9.77614063 1.22385937,10 1.5,10 L1.5,10 L9.5,10 C9.77614063,10 10,9.77614063 10,9.5 L10,9.5 L10,1.5 C10,1.22385937 9.77614063,1 9.5,1 L9.5,1 Z" id="iconspread" fill="#414F58" fill-rule="nonzero"></path>
                </g>
                <path d="M19.2,5 C19.4209139,5 19.6,5.22385763 19.6,5.5 C19.6,5.77614237 19.4209139,6 19.2,6 L19.2,6 L18.4,6 C18.1790861,6 18,5.77614237 18,5.5 C18,5.22385763 18.1790861,5 18.4,5 L18.4,5 Z M17.2,5 C17.4209139,5 17.6,5.22385763 17.6,5.5 C17.6,5.77614237 17.4209139,6 17.2,6 L17.2,6 L16.4,6 C16.1790861,6 16,5.77614237 16,5.5 C16,5.22385763 16.1790861,5 16.4,5 L16.4,5 Z M13.2,5 C13.4209139,5 13.6,5.22385763 13.6,5.5 C13.6,5.77614237 13.4209139,6 13.2,6 L13.2,6 L12.4,6 C12.1790861,6 12,5.77614237 12,5.5 C12,5.22385763 12.1790861,5 12.4,5 L12.4,5 Z M15.2,5 C15.4209139,5 15.6,5.22385763 15.6,5.5 C15.6,5.77614237 15.4209139,6 15.2,6 L15.2,6 L14.4,6 C14.1790861,6 14,5.77614237 14,5.5 C14,5.22385763 14.1790861,5 14.4,5 L14.4,5 Z M21.2,5 C21.4209139,5 21.6,5.22385763 21.6,5.5 C21.6,5.77614237 21.4209139,6 21.2,6 L21.2,6 L20.4,6 C20.1790861,6 20,5.77614237 20,5.5 C20,5.22385763 20.1790861,5 20.4,5 L20.4,5 Z" id="形状" fill="#000000" fill-rule="nonzero" opacity="0.45" transform="translate(16.800000, 5.500000) rotate(180.000000) translate(-16.800000, -5.500000) "></path>
            </g>
        </g>
    </g>
</svg>