<?xml version="1.0" encoding="UTF-8"?>
<svg width="6px" height="2px" viewBox="0 0 6 2" version="1.1" xmlns="http://www.w3.org/2000/svg" xmlns:xlink="http://www.w3.org/1999/xlink">
    <title>iconline1h</title>
    <defs>
        <filter id="filter-1">
            <feColorMatrix in="SourceGraphic" type="matrix" values="0 0 0 0 0.400000 0 0 0 0 0.400000 0 0 0 0 0.400000 0 0 0 1.000000 0"></feColorMatrix>
        </filter>
    </defs>
    <g id="工作界面" stroke="none" stroke-width="1" fill="none" fill-rule="evenodd">
        <g transform="translate(-50.000000, -212.000000)" id="iconline1h">
            <g filter="url(#filter-1)">
                <g transform="translate(49.500000, 205.000000)">
                    <rect id="矩形" fill="#000000" fill-rule="nonzero" opacity="0" x="0" y="0" width="7" height="16"></rect>
                    <path d="M1.8,7.66666667 L1.26666667,7.66666667 C1.04575277,7.66666667 0.866666672,7.8905243 0.866666672,8.16666667 C0.866666672,8.44280905 1.04575277,8.66666667 1.26666667,8.66666667 L1.8,8.66666667 C2.0209139,8.66666667 2.2,8.44280905 2.2,8.16666667 C2.2,7.8905243 2.0209139,7.66666667 1.8,7.66666667 L1.8,7.66666667 Z M6.06666667,7.66666667 L5.26666667,7.66666667 C5.04575277,7.66666667 4.86666667,7.8905243 4.86666667,8.16666667 C4.86666667,8.44280905 5.04575277,8.66666667 5.26666667,8.66666667 L6.06666667,8.66666667 C6.28758057,8.66666667 6.46666667,8.44280905 6.46666667,8.16666667 C6.46666667,7.8905243 6.28758057,7.66666667 6.06666667,7.66666667 L6.06666667,7.66666667 Z M3.93333333,7.66666667 L3.13333333,7.66666667 C2.91241943,7.66666667 2.73333333,7.8905243 2.73333333,8.16666667 C2.73333333,8.44280905 2.91241943,8.66666667 3.13333333,8.66666667 L3.93333333,8.66666667 C4.15424723,8.66666667 4.33333333,8.44280905 4.33333333,8.16666667 C4.33333333,7.8905243 4.15424723,7.66666667 3.93333333,7.66666667 L3.93333333,7.66666667 Z" id="形状" fill="#000000" fill-rule="nonzero"></path>
                </g>
            </g>
        </g>
    </g>
</svg>