<?xml version="1.0" encoding="UTF-8"?>
<svg width="16px" height="16px" viewBox="0 0 16 16" version="1.1" xmlns="http://www.w3.org/2000/svg" xmlns:xlink="http://www.w3.org/1999/xlink">
    <title>iconcut</title>
    <defs>
        <filter id="filter-1">
            <feColorMatrix in="SourceGraphic" type="matrix" values="0 0 0 0 0.254902 0 0 0 0 0.309804 0 0 0 0 0.345098 0 0 0 1.000000 0"></feColorMatrix>
        </filter>
    </defs>
    <g id="菜单树" stroke="none" stroke-width="1" fill="none" fill-rule="evenodd">
        <g transform="translate(-189.000000, -633.000000)" id="iconcut">
            <g filter="url(#filter-1)">
                <g transform="translate(189.000000, 633.000000)">
                    <rect id="矩形" fill="#414F58" fill-rule="nonzero" opacity="0" x="0" y="0" width="16" height="16"></rect>
                    <path d="M3.703641,2 C3.58751056,1.86711874 3.5677237,1.11298599 3.703641,0.999999999 C3.98956763,0.762490607 4.57557453,0.878850432 4.81970215,1.15838856 L10.8218994,8.16210937 C11.9784405,7.67928928 13.5865355,8.21350431 14.4295654,9.2088565 C15.4676023,10.4334863 15.2645873,12.3965504 14.019043,13.4315186 C12.7739987,14.4664868 10.847395,14.225125 9.80985813,13 C8.77232124,11.774875 8.91932646,10.0622042 9.84785948,9 L3.703641,2 Z M10.789393,9.62977658 C10.3535268,9.99470313 10.1021865,10.5313094 10.1023684,11.0965593 C10.1023684,12.1622299 10.9808998,13.026354 12.0649383,13.026354 C13.1484768,13.026354 14.0270081,12.1622299 14.0270081,11.0965593 C14.0270081,10.0308887 13.1484768,9.16676449 12.0649383,9.16676449 C11.7094257,9.16676449 11.3759138,9.25986211 11.0884036,9.42228774 C11.0620818,9.45431361 11.0327859,9.48382464 11.0009005,9.51043336 C10.9358982,9.56391497 10.8643956,9.60353098 10.789393,9.63027178 L10.789393,9.62977658 Z M9.73235537,5.21655273 L6.19022942,9.16676449 C6.1845141,9.17314386 6.56405622,9.62410716 6.55810547,9.63027178 C6.89912605,9.18579733 7.0557602,11.9492938 6.19022942,12.9703964 C5.15269253,14.1950263 3.30162671,14.3490335 2.05658244,13.3140653 C0.811038148,12.2790971 0.663879123,10.056288 1.70141602,8.83215332 C2.61544852,7.75311231 4.23165978,7.83544147 5.43770266,8.5 L8.84338379,4.63977051 C9.1502443,4.91064359 9.44656816,5.10290433 9.73235537,5.21655273 Z M9.73235537,5.57656381 C9.50036007,5.18083202 9.27566852,4.99287505 8.84338379,4.83129883 L11.746927,1.23365897 C11.9911987,0.954272761 12.4166659,0.920757367 12.702461,1.15838856 C12.8383783,1.27137455 12.9228485,1.433637 12.9369471,1.60882295 C12.9510457,1.78400891 12.8185914,1.86711874 12.702461,2 L9.73235537,5.21655273 L9.73235537,5.57656381 Z M2.56262207,12.2630615 C3.19702148,12.7803955 4.80730324,13.1064281 5.51409706,12.2630615 C6.22140193,11.4191832 5.96819862,9.92932129 5.51409706,9.49999999 C5.05999549,9.07067869 3.08254901,8.66092875 2.37524414,9.50429531 C1.66845033,10.3481736 1.92822266,11.7457275 2.56262207,12.2630615 Z" id="形状" fill="#414F58" fill-rule="nonzero"></path>
                </g>
            </g>
        </g>
    </g>
</svg>