<?xml version="1.0" encoding="UTF-8"?>
<svg width="15px" height="2px" viewBox="0 0 15 2" version="1.1" xmlns="http://www.w3.org/2000/svg" xmlns:xlink="http://www.w3.org/1999/xlink">
    <title>iconline2h</title>
    <defs>
        <filter id="filter-1">
            <feColorMatrix in="SourceGraphic" type="matrix" values="0 0 0 0 0.400000 0 0 0 0 0.400000 0 0 0 0 0.400000 0 0 0 1.000000 0"></feColorMatrix>
        </filter>
    </defs>
    <g id="工作界面" stroke="none" stroke-width="1" fill="none" fill-rule="evenodd">
        <g transform="translate(-50.000000, -243.000000)" id="iconline2h">
            <g filter="url(#filter-1)">
                <g transform="translate(49.500000, 236.000000)">
                    <rect id="矩形" fill="#000000" fill-rule="nonzero" opacity="0" x="0" y="0" width="16" height="16"></rect>
                    <path d="M14.6,7.66666667 L13.8,7.66666667 C13.5790861,7.66666667 13.4,7.8905243 13.4,8.16666667 C13.4,8.44280905 13.5790861,8.66666667 13.8,8.66666667 L14.6,8.66666667 C14.8209139,8.66666667 15,8.44280905 15,8.16666667 C15,7.8905243 14.8209139,7.66666667 14.6,7.66666667 L14.6,7.66666667 Z M1.8,7.66666667 L1.26666667,7.66666667 C1.04575277,7.66666667 0.866666672,7.8905243 0.866666672,8.16666667 C0.866666672,8.44280905 1.04575277,8.66666667 1.26666667,8.66666667 L1.8,8.66666667 C2.0209139,8.66666667 2.2,8.44280905 2.2,8.16666667 C2.2,7.8905243 2.0209139,7.66666667 1.8,7.66666667 L1.8,7.66666667 Z M6.06666667,7.66666667 L5.26666667,7.66666667 C5.04575277,7.66666667 4.86666667,7.8905243 4.86666667,8.16666667 C4.86666667,8.44280905 5.04575277,8.66666667 5.26666667,8.66666667 L6.06666667,8.66666667 C6.28758057,8.66666667 6.46666667,8.44280905 6.46666667,8.16666667 C6.46666667,7.8905243 6.28758057,7.66666667 6.06666667,7.66666667 L6.06666667,7.66666667 Z M3.93333333,7.66666667 L3.13333333,7.66666667 C2.91241943,7.66666667 2.73333333,7.8905243 2.73333333,8.16666667 C2.73333333,8.44280905 2.91241943,8.66666667 3.13333333,8.66666667 L3.93333333,8.66666667 C4.15424723,8.66666667 4.33333333,8.44280905 4.33333333,8.16666667 C4.33333333,7.8905243 4.15424723,7.66666667 3.93333333,7.66666667 L3.93333333,7.66666667 Z M8.2,7.66666667 L7.4,7.66666667 C7.1790861,7.66666667 7,7.8905243 7,8.16666667 C7,8.44280905 7.1790861,8.66666667 7.4,8.66666667 L8.2,8.66666667 C8.4209139,8.66666667 8.6,8.44280905 8.6,8.16666667 C8.6,7.8905243 8.4209139,7.66666667 8.2,7.66666667 L8.2,7.66666667 Z M12.4666667,7.66666667 L11.6666667,7.66666667 C11.4457528,7.66666667 11.2666667,7.8905243 11.2666667,8.16666667 C11.2666667,8.44280905 11.4457528,8.66666667 11.6666667,8.66666667 L12.4666667,8.66666667 C12.6875806,8.66666667 12.8666667,8.44280905 12.8666667,8.16666667 C12.8666667,7.8905243 12.6875806,7.66666667 12.4666667,7.66666667 L12.4666667,7.66666667 Z M10.3333333,7.66666667 L9.53333333,7.66666667 C9.31241943,7.66666667 9.13333333,7.8905243 9.13333333,8.16666667 C9.13333333,8.44280905 9.31241943,8.66666667 9.53333333,8.66666667 L10.3333333,8.66666667 C10.5542472,8.66666667 10.7333333,8.44280905 10.7333333,8.16666667 C10.7333333,7.8905243 10.5542472,7.66666667 10.3333333,7.66666667 L10.3333333,7.66666667 Z" id="形状" fill="#000000" fill-rule="nonzero"></path>
                </g>
            </g>
        </g>
    </g>
</svg>