<?xml version="1.0" encoding="UTF-8"?>
<svg width="16px" height="16px" viewBox="0 0 16 16" version="1.1" xmlns="http://www.w3.org/2000/svg" xmlns:xlink="http://www.w3.org/1999/xlink">
    <title>iconbag</title>
    <defs>
        <filter id="filter-1">
            <feColorMatrix in="SourceGraphic" type="matrix" values="0 0 0 0 0.254902 0 0 0 0 0.309804 0 0 0 0 0.345098 0 0 0 1.000000 0"></feColorMatrix>
        </filter>
        <filter id="filter-2">
            <feColorMatrix in="SourceGraphic" type="matrix" values="0 0 0 0 0.254902 0 0 0 0 0.309804 0 0 0 0 0.345098 0 0 0 1.000000 0"></feColorMatrix>
        </filter>
    </defs>
    <g id="菜单树" stroke="none" stroke-width="1" fill="none" fill-rule="evenodd">
        <g transform="translate(-337.000000, -423.000000)" id="编组-38">
            <g transform="translate(166.000000, 418.000000)">
                <g id="编组-35">
                    <g id="编组-12">
                        <g filter="url(#filter-1)" id="iconbag">
                            <g transform="translate(171.000000, 5.000000)">
                                <g id="编组-6" fill="#000000" fill-rule="nonzero" opacity="0">
                                    <rect id="矩形" x="0" y="0" width="16" height="16"></rect>
                                </g>
                                <g filter="url(#filter-2)" id="wj">
                                    <g transform="translate(1.000000, 2.000000)">
                                        <path d="M12.7272028,0.999999998 L7.39782715,0.999999998 C7.06921848,0.999999998 6.96514582,1.01499783 6.96387263,0.999999998 C6.96370474,0.995075335 6.86916076,0.995075335 6.68024068,0.999999998 C6.61501423,0.356953982 5.88435912,-1.77305992e-09 5.22460937,-1.77305992e-09 L1.27272727,-1.77305992e-09 C0.569940943,-1.77305992e-09 -2.73985279e-11,0.486572266 -2.73985279e-11,1.27266114 L-2.73985279e-11,10.6879276 C-2.73985279e-11,11.3907831 0.569912971,11.9605747 1.27272727,11.9605747 L12.7272028,11.9605747 C13.4299751,11.9605747 13.9999161,11.390783 13.9999161,10.6879276 L13.9999161,3.05194678 C13.9999161,2.34896539 13.4300031,0.999999998 12.7272028,0.999999998 Z M13.0765427,10.7110596 C13.0765427,11.0332178 12.8301319,11.1114502 12.4787598,11.1114502 L1.18823242,11.1114502 C0.836748312,11.1114502 0.945800781,10.667251 0.945800781,10.3450928 L0.945800781,4 L13.0765427,4 L13.0765427,10.7110596 Z M0.851196289,1.27267513 C0.851196289,0.921303359 1.04443359,0.921303359 1.25366211,1 L5.4161377,1 C5.74495624,1 6.01197036,1.1800789 6.04542306,1.5 C6.11042564,2.14201071 6.34418262,2.1243494 7.00317684,2.1243494 L12.7272028,2.1243494 C13.078561,2.1243494 13.076549,2.93976593 13.076549,3.2911377 L0.851196289,3.05193279 L0.851196289,1.27267513 Z" id="形状" fill="#414F58" fill-rule="nonzero"></path>
                                    </g>
                                </g>
                            </g>
                        </g>
                    </g>
                </g>
            </g>
        </g>
    </g>
</svg>