<?xml version="1.0" encoding="UTF-8"?>
<svg width="24px" height="14px" viewBox="0 0 24 14" version="1.1" xmlns="http://www.w3.org/2000/svg" xmlns:xlink="http://www.w3.org/1999/xlink">
    <title>iconxlb</title>
    <g id="欢迎页" stroke="none" stroke-width="1" fill="none" fill-rule="evenodd">
        <g transform="translate(-1402.000000, -115.000000)" id="iconxlb">
            <g transform="translate(1402.000000, 113.000000)">
                <g id="编组-8">
                    <g id="avue图表库" fill="#000000" opacity="0">
                        <rect id="矩形" x="0" y="0" width="16" height="16"></rect>
                    </g>
                    <path d="M15.2121816,11 C15.6428025,11 16,11.4480601 16,11.9912391 C16,12.554443 15.6428025,13 15.2121816,13 L3.78781866,13 C3.35719737,13 3,12.55194 3,11.9912391 C3,11.4480601 3.35719737,11 3.78781866,11 L15.2121816,11 Z M1,2 C1.55882359,2 2,2.45490196 2,3 C2,3.55882359 1.55882359,4 1,4 C0.456862748,4 0,3.55882359 0,3 C0,2.45490196 0.454901963,2 1,2 Z M3.78781866,4 C3.35719737,4 3,3.54499996 3,3 C3,2.45750001 3.35719737,2 3.78781866,2 L15.2121816,2 C15.6428025,2 16,2.45500001 16,3 C16,3.54250002 15.6428025,4 15.2121816,4 L3.78781866,4 Z M3.78781866,8.5 C3.35719737,8.5 3,8.04499996 3,7.5 C3,6.95750001 3.35719737,6.5 3.78781866,6.5 L15.2121816,6.5 C15.6428025,6.5 16,6.95500001 16,7.5 C16,8.04250002 15.6428025,8.5 15.2121816,8.5 L3.78781866,8.5 Z M1,6.5 C1.55882359,6.5 2,6.94117647 2,7.5 C2,8.04313731 1.55882359,8.5 1,8.5 C0.456862748,8.5 0,8.04509807 0,7.5 C0,6.94117647 0.454901963,6.5 1,6.5 L1,6.5 Z M1,11 C1.55882359,11 2,11.454902 2,12 C2,12.5588236 1.55882359,13 1,13 C0.456862748,13 0,12.5588236 0,12 C0,11.454902 0.454901963,11 1,11 Z" id="形状" fill="#8197A8"></path>
                </g>
                <polygon id="路径" fill="#8197A8" points="18 13 24 13 20.9999551 16"></polygon>
            </g>
        </g>
    </g>
</svg>