<?xml version="1.0" encoding="UTF-8"?>
<svg width="24px" height="14px" viewBox="0 0 24 14" version="1.1" xmlns="http://www.w3.org/2000/svg" xmlns:xlink="http://www.w3.org/1999/xlink">
    <title>iconxlb</title>
    <g id="工作界面" stroke="none" stroke-width="1" fill="none" fill-rule="evenodd">
        <g transform="translate(-1392.000000, -116.000000)" fill-rule="nonzero" id="iconxlb">
            <g transform="translate(1392.000000, 114.000000)">
                <g id="编组-8">
                    <g id="avue图表库" fill="#000000" opacity="0">
                        <rect id="矩形" x="0" y="0" width="16" height="16"></rect>
                    </g>
                    <path d="M15.2121813,11 C15.6428026,11 16,11.4480601 16,11.991239 C16,12.5544431 15.6428026,13 15.2121813,13 L3.78781865,13 C3.35719737,13 3,12.5519399 3,11.991239 C3,11.4480601 3.35719737,11 3.78781865,11 L15.2121813,11 Z M1,2 C1.55882353,2 2,2.45490196 2,3 C2,3.55882353 1.55882353,4 1,4 C0.456862745,4 0,3.55882353 0,3 C0,2.45490196 0.454901961,2 1,2 Z M3.78781865,4 C3.35719737,4 3,3.545 3,3 C3,2.4575 3.35719737,2 3.78781865,2 L15.2121813,2 C15.6428026,2 16,2.455 16,3 C16,3.5425 15.6428026,4 15.2121813,4 L3.78781865,4 Z M3.78781865,8.5 C3.35719737,8.5 3,8.045 3,7.5 C3,6.9575 3.35719737,6.5 3.78781865,6.5 L15.2121813,6.5 C15.6428026,6.5 16,6.955 16,7.5 C16,8.0425 15.6428026,8.5 15.2121813,8.5 L3.78781865,8.5 Z M1,6.5 C1.55882353,6.5 2,6.94117647 2,7.5 C2,8.04313725 1.55882353,8.5 1,8.5 C0.456862745,8.5 0,8.04509804 0,7.5 C0,6.94117647 0.454901961,6.5 1,6.5 L1,6.5 Z M1,11 C1.55882353,11 2,11.454902 2,12 C2,12.5588235 1.55882353,13 1,13 C0.456862745,13 0,12.5588235 0,12 C0,11.454902 0.454901961,11 1,11 Z" id="形状" fill="#8197A8"></path>
                </g>
                <polygon id="路径" fill="#8197A8" points="18 13 24 13 20.9999551 16"></polygon>
            </g>
        </g>
    </g>
</svg>