<?xml version="1.0" encoding="UTF-8"?>
<svg width="16px" height="16px" viewBox="0 0 16 16" version="1.1" xmlns="http://www.w3.org/2000/svg" xmlns:xlink="http://www.w3.org/1999/xlink">
    <title>iconpaste</title>
    <defs>
        <filter id="filter-1">
            <feColorMatrix in="SourceGraphic" type="matrix" values="0 0 0 0 0.254902 0 0 0 0 0.309804 0 0 0 0 0.345098 0 0 0 1.000000 0"></feColorMatrix>
        </filter>
    </defs>
    <g id="菜单树" stroke="none" stroke-width="1" fill="none" fill-rule="evenodd">
        <g transform="translate(-189.000000, -660.000000)" id="iconpaste">
            <g filter="url(#filter-1)">
                <g transform="translate(189.000000, 660.000000)">
                    <polygon id="矩形" fill="#414F58" fill-rule="nonzero" opacity="0" points="0 0 10.0708008 0 16 0 16 16 0 16"></polygon>
                    <path d="M5.5,1 L7.5,1 C7.77614237,1 8,0.776142374 8,0.5 C8,0.223857625 7.77614237,0 7.5,0 L5.5,0 C5.22385763,0 5,0.223857625 5,0.5 C5,0.776142374 5.22385763,1 5.5,1 L5.5,1 Z M3.50251256,3 C3.78004259,3 4.00502513,2.81800193 4.00502513,2.59349593 L4.00502513,2.21951219 C4.00497039,1.99814324 4.2238901,1.8174355 4.49748744,1.81300813 C4.77501746,1.81300813 5,1.63101006 5,1.40650406 C4.98938948,1.18250539 4.76449588,1.00414644 4.48743719,0.999999999 C3.66498781,1.01320704 3.00528573,1.55408012 3,2.21951219 L3,2.59349593 C3,2.81800193 3.22498254,3 3.50251256,3 L3.50251256,3 Z M9.5,1 L11.5,1 C11.7761424,1 12,0.776142374 12,0.5 C12,0.223857625 11.7761424,0 11.5,0 L9.5,0 C9.22385763,0 9,0.223857625 9,0.5 C9,0.776142374 9.22385763,1 9.5,1 L9.5,1 Z M13.5,7.99999999 C13.2238576,7.99999999 13,8.22385762 13,8.49999999 L13,10.5 C13.0053201,10.7739084 13.2260915,10.9946799 13.5,11 C13.7761424,11 14,10.7761424 14,10.5 L14,8.49999999 C14,8.22385762 13.7761424,7.99999999 13.5,7.99999999 Z M12.8360918,11 L12.1672184,11 C12.0756133,11.0053201 12.0017792,11.2260915 12,11.5 C12,11.7761424 12.0748662,12 12.1672184,12 L12.8360918,12 C12.8801396,12.0000274 12.9223366,11.9470321 12.9531669,11.852965 C12.9839972,11.7588979 13.0008648,11.6316799 12.9999658,11.5 C12.9966606,11.2318799 12.925676,11.0152969 12.8360918,11 L12.8360918,11 Z M13.8938972,1.29169958 C13.7887832,1.0533144 13.5241682,0.939872709 13.2877995,1.03186263 C13.0467747,1.14562093 12.9360881,1.43749201 13.037664,1.69144871 C13.0520972,1.75723008 13.0520972,1.82554192 13.037664,1.89132328 L13.037664,3.50031357 C13.0427823,3.77405024 13.2551776,3.99468323 13.5186939,4 C13.7843594,4 13.9997238,3.77628276 13.9997238,3.50031357 L13.9997238,1.89132328 C14.0035514,1.68609605 13.9675606,1.48216914 13.8938972,1.29169958 L13.8938972,1.29169958 Z M13.5,5 C13.2238576,5 13,5.22385762 13,5.5 L13,7.5 C13.0053201,7.77390845 13.2260915,7.99467989 13.5,8 C13.7761424,8 14,7.77614237 14,7.5 L14,5.5 C14,5.22385762 13.7761424,5 13.5,5 Z" id="形状" fill="#414F58" fill-rule="nonzero"></path>
                    <path d="M10.7426655,14 L3.25733445,14 C2.56292781,14 2,13.4386549 2,12.7462006 L2,4.25379939 C2,3.56134511 2.56292781,3 3.25733445,3 L10.7426655,3 C11.4370722,3 12,3.56134511 12,4.25379939 L12,12.7462006 C12,13.4386549 11.4370722,14 10.7426655,14 Z M3.40281974,4 C3.18034854,4 3,4.18053034 3,4.40322581 L3,12.5967742 C3,12.8194697 3.18034854,13 3.40281974,13 L10.5971803,13 C10.8196515,13 11,12.8194697 11,12.5967742 L11,4.40322581 C11,4.18053034 10.8196515,4 10.5971803,4 L3.40281974,4 Z" id="形状" fill="#414F58" fill-rule="nonzero"></path>
                </g>
            </g>
        </g>
    </g>
</svg>