<?xml version="1.0" encoding="UTF-8"?>
<svg width="17px" height="28px" viewBox="0 0 17 28" version="1.1" xmlns="http://www.w3.org/2000/svg" xmlns:xlink="http://www.w3.org/1999/xlink">
    <title>iconline4</title>
    <defs>
        <filter id="filter-1">
            <feColorMatrix in="SourceGraphic" type="matrix" values="0 0 0 0 0.400000 0 0 0 0 0.400000 0 0 0 0 0.400000 0 0 0 1.000000 0"></feColorMatrix>
        </filter>
    </defs>
    <g id="工作界面" stroke="none" stroke-width="1" fill="none" fill-rule="evenodd">
        <g transform="translate(-43.000000, -305.000000)" id="iconline4">
            <g filter="url(#filter-1)">
                <g transform="translate(36.500000, 305.000000)">
                    <g id="编组-9" fill="#000000" fill-rule="nonzero">
                        <g id="编组-10">
                            <g id="83-小虚线" transform="translate(8.000000, 14.000000) rotate(90.000000) translate(-8.000000, -14.000000) translate(-6.000000, 6.000000)">
                                <rect id="矩形" opacity="0" x="0" y="0" width="16" height="16"></rect>
                                <path d="M14.6,7.66666667 L13.8,7.66666667 C13.5790861,7.66666667 13.4,7.8905243 13.4,8.16666667 C13.4,8.44280905 13.5790861,8.66666667 13.8,8.66666667 L14.6,8.66666667 C14.8209139,8.66666667 15,8.44280905 15,8.16666667 C15,7.8905243 14.8209139,7.66666667 14.6,7.66666667 L14.6,7.66666667 Z M1.8,7.66666667 L1.26666667,7.66666667 C1.04575277,7.66666667 0.866666672,7.8905243 0.866666672,8.16666667 C0.866666672,8.44280905 1.04575277,8.66666667 1.26666667,8.66666667 L1.8,8.66666667 C2.0209139,8.66666667 2.2,8.44280905 2.2,8.16666667 C2.2,7.8905243 2.0209139,7.66666667 1.8,7.66666667 L1.8,7.66666667 Z M6.06666667,7.66666667 L5.26666667,7.66666667 C5.04575277,7.66666667 4.86666667,7.8905243 4.86666667,8.16666667 C4.86666667,8.44280905 5.04575277,8.66666667 5.26666667,8.66666667 L6.06666667,8.66666667 C6.28758057,8.66666667 6.46666667,8.44280905 6.46666667,8.16666667 C6.46666667,7.8905243 6.28758057,7.66666667 6.06666667,7.66666667 L6.06666667,7.66666667 Z M3.93333333,7.66666667 L3.13333333,7.66666667 C2.91241943,7.66666667 2.73333333,7.8905243 2.73333333,8.16666667 C2.73333333,8.44280905 2.91241943,8.66666667 3.13333333,8.66666667 L3.93333333,8.66666667 C4.15424723,8.66666667 4.33333333,8.44280905 4.33333333,8.16666667 C4.33333333,7.8905243 4.15424723,7.66666667 3.93333333,7.66666667 L3.93333333,7.66666667 Z M8.2,7.66666667 L7.4,7.66666667 C7.1790861,7.66666667 7,7.8905243 7,8.16666667 C7,8.44280905 7.1790861,8.66666667 7.4,8.66666667 L8.2,8.66666667 C8.4209139,8.66666667 8.6,8.44280905 8.6,8.16666667 C8.6,7.8905243 8.4209139,7.66666667 8.2,7.66666667 L8.2,7.66666667 Z M12.4666667,7.66666667 L11.6666667,7.66666667 C11.4457528,7.66666667 11.2666667,7.8905243 11.2666667,8.16666667 C11.2666667,8.44280905 11.4457528,8.66666667 11.6666667,8.66666667 L12.4666667,8.66666667 C12.6875806,8.66666667 12.8666667,8.44280905 12.8666667,8.16666667 C12.8666667,7.8905243 12.6875806,7.66666667 12.4666667,7.66666667 L12.4666667,7.66666667 Z M10.3333333,7.66666667 L9.53333333,7.66666667 C9.31241943,7.66666667 9.13333333,7.8905243 9.13333333,8.16666667 C9.13333333,8.44280905 9.31241943,8.66666667 9.53333333,8.66666667 L10.3333333,8.66666667 C10.5542472,8.66666667 10.7333333,8.44280905 10.7333333,8.16666667 C10.7333333,7.8905243 10.5542472,7.66666667 10.3333333,7.66666667 L10.3333333,7.66666667 Z" id="形状"></path>
                                <path d="M16.6333333,7.7 L16.1,7.7 C15.8790861,7.7 15.7,7.92385763 15.7,8.2 C15.7,8.47614237 15.8790861,8.7 16.1,8.7 L16.6333333,8.7 C16.8542472,8.7 17.0333333,8.47614237 17.0333333,8.2 C17.0333333,7.92385763 16.8542472,7.7 16.6333333,7.7 L16.6333333,7.7 Z M20.9,7.7 L20.1,7.7 C19.8790861,7.7 19.7,7.92385763 19.7,8.2 C19.7,8.47614237 19.8790861,8.7 20.1,8.7 L20.9,8.7 C21.1209139,8.7 21.3,8.47614237 21.3,8.2 C21.3,7.92385763 21.1209139,7.7 20.9,7.7 L20.9,7.7 Z M18.7666667,7.7 L17.9666667,7.7 C17.7457528,7.7 17.5666667,7.92385763 17.5666667,8.2 C17.5666667,8.47614237 17.7457528,8.7 17.9666667,8.7 L18.7666667,8.7 C18.9875806,8.7 19.1666667,8.47614237 19.1666667,8.2 C19.1666667,7.92385763 18.9875806,7.7 18.7666667,7.7 L18.7666667,7.7 Z M22.9,7.7 L22.1,7.7 C21.8790861,7.7 21.7,7.92385763 21.7,8.2 C21.7,8.47614237 21.8790861,8.7 22.1,8.7 L22.9,8.7 C23.1209139,8.7 23.3,8.47614237 23.3,8.2 C23.3,7.92385763 23.1209139,7.7 22.9,7.7 L22.9,7.7 Z M24.9,7.7 L24.1,7.7 C23.8790861,7.7 23.7,7.92385763 23.7,8.2 C23.7,8.47614237 23.8790861,8.7 24.1,8.7 L24.9,8.7 C25.1209139,8.7 25.3,8.47614237 25.3,8.2 C25.3,7.92385763 25.1209139,7.7 24.9,7.7 L24.9,7.7 Z M26.9,7.7 L26.1,7.7 C25.8790861,7.7 25.7,7.92385763 25.7,8.2 C25.7,8.47614237 25.8790861,8.7 26.1,8.7 L26.9,8.7 C27.1209139,8.7 27.3,8.47614237 27.3,8.2 C27.3,7.92385763 27.1209139,7.7 26.9,7.7 L26.9,7.7 Z M24.9,7.7 L24.1,7.7 C23.8790861,7.7 23.7,7.92385763 23.7,8.2 C23.7,8.47614237 23.8790861,8.7 24.1,8.7 L24.9,8.7 C25.1209139,8.7 25.3,8.47614237 25.3,8.2 C25.3,7.92385763 25.1209139,7.7 24.9,7.7 L24.9,7.7 Z" id="形状"></path>
                            </g>
                        </g>
                    </g>
                    <g id="83-小虚线" transform="translate(8.000000, 19.000000)" fill="#000000" fill-rule="nonzero">
                        <rect id="矩形" opacity="0" x="0" y="0" width="16" height="16"></rect>
                        <path d="M14.6,7.66666667 L13.8,7.66666667 C13.5790861,7.66666667 13.4,7.8905243 13.4,8.16666667 C13.4,8.44280905 13.5790861,8.66666667 13.8,8.66666667 L14.6,8.66666667 C14.8209139,8.66666667 15,8.44280905 15,8.16666667 C15,7.8905243 14.8209139,7.66666667 14.6,7.66666667 L14.6,7.66666667 Z M1.8,7.66666667 L1.26666667,7.66666667 C1.04575277,7.66666667 0.866666672,7.8905243 0.866666672,8.16666667 C0.866666672,8.44280905 1.04575277,8.66666667 1.26666667,8.66666667 L1.8,8.66666667 C2.0209139,8.66666667 2.2,8.44280905 2.2,8.16666667 C2.2,7.8905243 2.0209139,7.66666667 1.8,7.66666667 L1.8,7.66666667 Z M6.06666667,7.66666667 L5.26666667,7.66666667 C5.04575277,7.66666667 4.86666667,7.8905243 4.86666667,8.16666667 C4.86666667,8.44280905 5.04575277,8.66666667 5.26666667,8.66666667 L6.06666667,8.66666667 C6.28758057,8.66666667 6.46666667,8.44280905 6.46666667,8.16666667 C6.46666667,7.8905243 6.28758057,7.66666667 6.06666667,7.66666667 L6.06666667,7.66666667 Z M3.93333333,7.66666667 L3.13333333,7.66666667 C2.91241943,7.66666667 2.73333333,7.8905243 2.73333333,8.16666667 C2.73333333,8.44280905 2.91241943,8.66666667 3.13333333,8.66666667 L3.93333333,8.66666667 C4.15424723,8.66666667 4.33333333,8.44280905 4.33333333,8.16666667 C4.33333333,7.8905243 4.15424723,7.66666667 3.93333333,7.66666667 L3.93333333,7.66666667 Z M8.2,7.66666667 L7.4,7.66666667 C7.1790861,7.66666667 7,7.8905243 7,8.16666667 C7,8.44280905 7.1790861,8.66666667 7.4,8.66666667 L8.2,8.66666667 C8.4209139,8.66666667 8.6,8.44280905 8.6,8.16666667 C8.6,7.8905243 8.4209139,7.66666667 8.2,7.66666667 L8.2,7.66666667 Z M12.4666667,7.66666667 L11.6666667,7.66666667 C11.4457528,7.66666667 11.2666667,7.8905243 11.2666667,8.16666667 C11.2666667,8.44280905 11.4457528,8.66666667 11.6666667,8.66666667 L12.4666667,8.66666667 C12.6875806,8.66666667 12.8666667,8.44280905 12.8666667,8.16666667 C12.8666667,7.8905243 12.6875806,7.66666667 12.4666667,7.66666667 L12.4666667,7.66666667 Z M10.3333333,7.66666667 L9.53333333,7.66666667 C9.31241943,7.66666667 9.13333333,7.8905243 9.13333333,8.16666667 C9.13333333,8.44280905 9.31241943,8.66666667 9.53333333,8.66666667 L10.3333333,8.66666667 C10.5542472,8.66666667 10.7333333,8.44280905 10.7333333,8.16666667 C10.7333333,7.8905243 10.5542472,7.66666667 10.3333333,7.66666667 L10.3333333,7.66666667 Z" id="形状"></path>
                    </g>
                </g>
            </g>
        </g>
    </g>
</svg>