<?xml version="1.0" standalone="no"?><!DOCTYPE svg PUBLIC "-//W3C//DTD SVG 1.1//EN" "http://www.w3.org/Graphics/SVG/1.1/DTD/svg11.dtd"><svg t="1591579788643" class="icon" viewBox="0 0 1024 1024" version="1.1" xmlns="http://www.w3.org/2000/svg" p-id="1997" xmlns:xlink="http://www.w3.org/1999/xlink" width="16" height="13"><defs><style type="text/css"></style></defs><path d="M487.68 301.568c0-7.168 2.816-14.336 8.192-19.968 11.008-11.008 29.504-19.264 40.512-8.256l420.032 429.12a28.288 28.288 0 0 1-39.936 39.936l-428.8-399.04c-5.376-5.376 0-34.624 0-41.792z" fill="#414F58" p-id="1998"></path><path d="M59.136 722.432c0-7.168 2.816-14.336 8.192-19.968L488.192 281.6a28.288 28.288 0 0 1 39.936 0c11.008 11.008 11.008 48 0 59.008L111.616 750.72c-11.008 11.008-33.28 2.752-44.288-8.256a28.992 28.992 0 0 1-8.192-19.968z" fill="#414F58" p-id="1999"></path></svg>