<?xml version="1.0" encoding="UTF-8"?>
<svg width="8px" height="14px" viewBox="0 0 8 14" version="1.1" xmlns="http://www.w3.org/2000/svg" xmlns:xlink="http://www.w3.org/1999/xlink">
    <title>iconarrowright</title>
    <g id="工作界面" stroke="none" stroke-width="1" fill="none" fill-rule="evenodd">
        <g transform="translate(-1372.000000, -114.000000)" fill-rule="nonzero" id="iconarrowright">
            <g transform="translate(1376.000000, 121.000000) rotate(-90.000000) translate(-1376.000000, -121.000000) translate(1368.000000, 113.000000)">
                <rect id="矩形" fill="#000000" opacity="0" x="0" y="0" width="16" height="16"></rect>
                <path d="M1.79741803,4 C1.58451701,4.00015921 1.3809488,4.08420612 1.23400083,4.23261723 C0.921999723,4.5479142 0.921999723,5.04367734 1.23400083,5.35897432 L7.63916477,11.7661505 C7.78560262,11.9154179 7.98938752,12 8.20258197,12 C8.41577642,12 8.61956132,11.9154179 8.76599917,11.7661505 C9.07800028,11.4508535 9.07800028,10.9550904 8.76599917,10.6397934 L2.36083523,4.23261723 C2.21388726,4.08420612 2.01031905,4.00015921 1.79741803,4 L1.79741803,4 Z" id="路径" fill="#8197A8"></path>
                <path d="M14.202582,4 C13.989681,4.00015921 13.7861127,4.08420612 13.6391648,4.23261723 L7.23400083,10.6397934 C6.92199972,10.9550904 6.92199972,11.4508535 7.23400083,11.7661505 C7.38043868,11.9154179 7.58422358,12 7.79741803,12 C8.01061248,12 8.21439738,11.9154179 8.36083523,11.7661505 L14.7659992,5.35897432 C15.0780003,5.04367734 15.0780003,4.5479142 14.7659992,4.23261723 C14.6190512,4.08420612 14.415483,4.00015921 14.202582,4 L14.202582,4 Z" id="路径" fill="#8197A8"></path>
            </g>
        </g>
    </g>
</svg>