<?xml version="1.0" encoding="UTF-8"?>
<svg width="16px" height="16px" viewBox="0 0 16 16" version="1.1" xmlns="http://www.w3.org/2000/svg" xmlns:xlink="http://www.w3.org/1999/xlink">
    <title>iconnewshu</title>
    <defs>
        <filter id="filter-1">
            <feColorMatrix in="SourceGraphic" type="matrix" values="0 0 0 0 0.254902 0 0 0 0 0.309804 0 0 0 0 0.345098 0 0 0 1.000000 0"></feColorMatrix>
        </filter>
    </defs>
    <g id="菜单树" stroke="none" stroke-width="1" fill="none" fill-rule="evenodd">
        <g transform="translate(-189.000000, -520.000000)" id="iconnewshu">
            <g filter="url(#filter-1)">
                <g transform="translate(189.000000, 520.000000)">
                    <rect id="矩形" fill="#414F58" fill-rule="nonzero" opacity="0" x="0" y="0" width="16" height="16"></rect>
                    <path d="M7.62416107,11.2307692 L14.2170022,11.2307692 C14.64944,11.2307692 15,11.5751656 15,12 L15,13.2307692 C15,13.6556037 14.64944,14 14.2170022,14 L7.62416107,14 C7.19172335,14 6.84116331,13.6556037 6.84116331,13.2307692 L6.84116331,12.977478 L2.50244141,12.977478 C2.24297877,12.977478 1.97091723,12.8702853 1.97091723,12.6153846 L1.97091723,4.76923077 L1.78299776,4.76923077 C1.35056004,4.76923077 1,4.42483442 1,4 L1,2.76923077 C1,2.34439635 1.35056004,2 1.78299776,2 L3.08277405,2 C3.51521177,2 3.86577181,2.34439635 3.86577181,2.76923077 L3.86577181,4 C3.86577181,4.42483442 3.51521177,4.76923077 3.08277405,4.76923077 L2.91051454,4.76923077 L2.91051454,8 L7.01953125,8 C7.01953125,7.68454214 6.92681885,7.2832238 7.11505127,6.96289062 C10.1418254,7.0843099 12.4368083,7.0843099 14,6.96289062 C14.0191933,6.96139981 14.0915274,6.96139981 14.2170022,6.96289062 C14.64944,6.96289062 15,7.36935503 15,7.79418945 L15,8.61538462 C15,9.04021904 14.64944,10 14.2170022,10 L7.62416107,10 C7.19172335,10 7.01953125,9.47470015 7.01953125,9.04986572 L2.91051454,9.04986572 L2.91051454,12 L6.84116331,12 C6.84116331,11.5751656 7.19172335,11.2307692 7.62416107,11.2307692 Z M7.78076063,12.7692308 C7.78076063,12.9391645 7.92098464,13.0769231 8.09395973,13.0769231 L13.7472036,13.0769231 C13.9201787,13.0769231 14.0604027,12.9391645 14.0604027,12.7692308 L14.0604027,12.4615385 C14.0604027,12.2916047 13.9201787,12.1538462 13.7472036,12.1538462 L8.09395973,12.1538462 C7.92098464,12.1538462 7.78076063,12.2916047 7.78076063,12.4615385 L7.78076063,12.7692308 Z M2.91981655,3.53846154 L2.91981655,3.23076923 C2.91981655,3.06083546 2.77959254,2.92307692 2.60661745,2.92307692 L2.25279642,2.92307692 C2.07982133,2.92307692 1.93959732,3.06083546 1.93959732,3.23076923 L1.93959732,3.53846154 C1.93959732,3.70839531 2.07982133,3.84615385 2.25279642,3.84615385 L2.60661745,3.84615385 C2.77959254,3.84615385 2.91981655,3.70839531 2.91981655,3.53846154 L2.91981655,3.53846154 Z M8,8.61538462 C8,8.78531838 8.14022402,8.92307692 8.31319911,8.92307692 L13.966443,8.92307692 C14.139418,8.92307692 14.2796421,8.78531838 14.2796421,8.61538462 L14.2796421,8.30769231 C14.2796421,8.13775854 14.139418,8 13.966443,8 L8.31319911,8 C8.14022402,8 8,8.13775854 8,8.30769231 L8,8.61538462 Z M14.2170022,4.76923077 L5.58836689,4.76923077 C5.15592917,4.76923077 4.80536913,4.42483442 4.80536913,4 L4.80536913,2.76923077 C4.80536913,2.34439635 5.15592917,2 5.58836689,2 L14.2170022,2 C14.64944,2 15,2.34439635 15,2.76923077 L15,4 C15,4.42483442 14.64944,4.76923077 14.2170022,4.76923077 Z M14.0604027,3.23076923 C14.0604027,3.06083546 13.9201787,2.92307692 13.7472036,2.92307692 L6.05816555,2.92307692 C5.88519046,2.92307692 5.74496644,3.06083546 5.74496644,3.23076923 L5.74496644,3.53846154 C5.74496644,3.70839531 5.88519046,3.84615385 6.05816555,3.84615385 L13.7472036,3.84615385 C13.9201787,3.84615385 14.0604027,3.70839531 14.0604027,3.53846154 L14.0604027,3.23076923 L14.0604027,3.23076923 Z" id="形状" fill="#414F58" fill-rule="nonzero"></path>
                </g>
            </g>
        </g>
    </g>
</svg>