<?xml version="1.0" encoding="UTF-8"?>
<svg width="14px" height="11px" viewBox="0 0 14 11" version="1.1" xmlns="http://www.w3.org/2000/svg" xmlns:xlink="http://www.w3.org/1999/xlink">
    <title>iconhi</title>
    <g id="欢迎页" stroke="none" stroke-width="1" fill="none" fill-rule="evenodd">
        <g transform="translate(-33.000000, -117.000000)" fill="#216593" id="iconhi">
            <g transform="translate(33.000000, 117.000000)">
                <path d="M6.76691133,5.3709901 L2.73387725,5.37935829 C2.7282287,5.37935829 2.72540456,5.37656909 2.72540456,5.3709901 L3.26766106,1.0195258 C3.26766106,1.013947 3.26483692,1.0111576 3.25918837,1.0111576 L1.25114429,1.0167364 C1.24832001,1.0167364 1.24549574,1.0195258 1.24267146,1.0223152 L0,10.9916315 C0,10.9972105 0.00282425349,11 0.00847275994,11 L2.0165169,10.994421 C2.01934118,10.994421 2.02216546,10.9916315 2.02498973,10.9888426 L2.49099148,7.25662506 C2.49099148,7.25383556 2.49381561,7.25104606 2.49946417,7.25104606 L6.53249825,7.24267757 C6.53814653,7.24267757 6.54097094,7.24546707 6.54097094,7.25104606 L6.07496919,10.9804741 C6.07496919,10.9860531 6.07779305,10.9888426 6.08344188,10.9888426 L8.09148624,10.9832636 C8.0943101,10.9832636 8.09713451,10.9804741 8.09995893,10.9776846 L9.34263025,1.0083682 C9.34263025,1.0027894 9.33980583,1 9.33415756,1 L7.32611321,1.0055788 C7.32328879,1.0055788 7.32046493,1.0083682 7.31764052,1.0111576 L6.77538402,5.3654114 C6.77538402,5.3682009 6.77255961,5.3709901 6.76691133,5.3709901 L6.76691133,5.3709901 Z M10.1309177,10.9804418 L12.2241463,10.9723219 C12.2270905,10.9723219 12.2300345,10.9682616 12.2329785,10.9642013 L13.1220855,0.992622065 C13.1220855,0.984501886 13.1191415,0.980441796 13.1132534,0.980441796 L11.0200246,0.988561975 C11.0170807,0.988561975 11.0141366,0.992622065 11.0111925,0.996682154 L10.1220855,10.9642013 C10.1220855,10.9723219 10.1279737,10.9804418 10.1309177,10.9804418 Z" id="形状"></path>
            </g>
        </g>
    </g>
</svg>