<?xml version="1.0" encoding="UTF-8"?>
<svg width="10px" height="10px" viewBox="0 0 10 10" version="1.1" xmlns="http://www.w3.org/2000/svg" xmlns:xlink="http://www.w3.org/1999/xlink">
    <title>iconclose</title>
    <defs>
        <filter id="filter-1">
            <feColorMatrix in="SourceGraphic" type="matrix" values="0 0 0 0 0.690196 0 0 0 0 0.690196 0 0 0 0 0.690196 0 0 0 1.000000 0"></feColorMatrix>
        </filter>
    </defs>
    <g id="工作界面" stroke="none" stroke-width="1" fill="none" fill-rule="evenodd">
        <g transform="translate(-713.000000, -117.000000)" id="iconclose">
            <g filter="url(#filter-1)">
                <g transform="translate(710.000000, 114.000000)">
                    <rect id="矩形" fill="#000000" fill-rule="nonzero" opacity="0" x="0" y="0" width="16" height="16"></rect>
                    <path d="M8.93333333,8 L12.4666667,4.46666667 C12.7333333,4.2 12.7333333,3.8 12.4666667,3.53333333 C12.2,3.26666666 11.8,3.26666666 11.5333333,3.53333333 L8,7.06666667 L4.46666667,3.53333333 C4.2,3.26666666 3.8,3.26666666 3.53333333,3.53333333 C3.26666666,3.8 3.26666666,4.2 3.53333333,4.46666667 L7.06666667,8 L3.53333333,11.5333333 C3.26666666,11.8 3.26666666,12.2 3.53333333,12.4666667 C3.66666666,12.6 3.8,12.6666667 4,12.6666667 C4.2,12.6666667 4.33333332,12.6 4.46666667,12.4666667 L8,8.93333333 L11.5333333,12.4666667 C11.6666667,12.6 11.8666667,12.6666667 12,12.6666667 C12.1333333,12.6666667 12.3333333,12.6 12.4666667,12.4666667 C12.7333333,12.2 12.7333333,11.8 12.4666667,11.5333333 L8.93333333,8 Z" id="路径" fill="#B2CADF" fill-rule="nonzero"></path>
                </g>
            </g>
        </g>
    </g>
</svg>