<?xml version="1.0" encoding="UTF-8"?>
<svg width="16px" height="15px" viewBox="0 0 16 15" version="1.1" xmlns="http://www.w3.org/2000/svg" xmlns:xlink="http://www.w3.org/1999/xlink">
    <title>iconrelation</title>
    <defs>
        <filter id="filter-1">
            <feColorMatrix in="SourceGraphic" type="matrix" values="0 0 0 0 0.168627 0 0 0 0 0.470588 0 0 0 0 0.666667 0 0 0 1.000000 0"></feColorMatrix>
        </filter>
    </defs>
    <g id="工作界面" stroke="none" stroke-width="1" fill="none" fill-rule="evenodd">
        <g transform="translate(-61.000000, -206.000000)" id="iconrelation">
            <g filter="url(#filter-1)">
                <g transform="translate(62.000000, 207.000000)">
                    <polygon id="路径" stroke="#2B78AA" fill="#2B78AA" fill-rule="nonzero" transform="translate(8.973543, 7.847817) rotate(20.000000) translate(-8.973543, -7.847817) " points="5.46058105 13.447542 12.1520979 1.54152427 12.4865053 2.24805936 5.79497825 14.1541096"></polygon>
                    <path d="M9.95889605,0.780926837 L7.5188425,3.46498402 C7.39613649,3.60473553 7.39789136,3.82687756 7.52278668,3.96426232 C7.647682,4.10164708 7.84962942,4.10357744 7.97667633,3.96860091 L10.4167299,1.28454372 L10.4167299,2.56175034 C10.4167299,2.75845468 10.5616939,3.96860091 10.7405162,3.96860091 C10.9193384,3.96860091 11.0643164,2.75845468 11.0643164,2.56175034 L11.0643164,0.424762136 C11.0645615,0.330214324 11.0305316,0.239456796 10.9697536,0.172601093 C10.9089757,0.105745391 10.8264688,0.0683125072 10.7405162,0.0685820704 L8.79779838,0.0685820704 C8.61897615,0.0685820704 7.06431644,0.228057803 7.06431644,0.424762136 C7.06431644,0.621466469 8.61897615,0.780926837 8.79779838,0.780926837 L9.95889605,0.780926837 Z" id="形状" stroke="#2B78AA" fill="#2B78AA" fill-rule="nonzero" transform="translate(9.064317, 2.068581) rotate(-2.000000) translate(-9.064317, -2.068581) "></path>
                    <path d="M1.07285366,9.10219087 C1.66335604,8.61010555 2.27500824,8.32200123 2.43904584,8.45869923 C2.60304757,8.59536733 2.25734391,9.10509544 1.66684153,9.59718076 C1.07633915,10.0892661 0.46469124,10.3773309 0.300689515,10.2406628 C0.136651939,10.1039648 0.482351277,9.59427618 1.07285366,9.10219087 Z M4.85299513,5.95207298 C5.44349751,5.45998766 6.0551239,5.17190486 6.2191615,5.30860286 C6.38316322,5.44527096 6.03748541,5.95497753 5.446983,6.44706287 C4.85648059,6.93914821 4.24480689,7.22723457 4.08080517,7.09056646 C3.91679339,6.95384694 4.26249275,6.44415829 4.85299513,5.95207298 Z" id="形状" stroke="#2B78AA" fill="#2B78AA" fill-rule="nonzero" transform="translate(3.259919, 7.774627) rotate(-2.000000) translate(-3.259919, -7.774627) "></path>
                </g>
            </g>
        </g>
    </g>
</svg>