<?xml version="1.0" encoding="UTF-8"?>
<svg width="16px" height="16px" viewBox="0 0 16 16" version="1.1" xmlns="http://www.w3.org/2000/svg" xmlns:xlink="http://www.w3.org/1999/xlink">
    <title>iconchoose</title>
    <defs>
        <linearGradient x1="0%" y1="50%" x2="100%" y2="50%" id="linearGradient-1">
            <stop stop-color="#DEDEDE" offset="0%"></stop>
            <stop stop-color="#FFFFFF" offset="100%"></stop>
        </linearGradient>
    </defs>
    <g id="效果图" stroke="none" stroke-width="1" fill="none" fill-rule="evenodd">
        <g id="制表工具栏" transform="translate(-176.000000, -64.000000)">
            <g id="iconchoose" transform="translate(176.000000, 64.000000)">
                <rect id="矩形" fill="#000000" fill-rule="nonzero" opacity="0" x="0" y="0" width="16" height="16"></rect>
                <path d="M2,2 C2.16666667,1.83333333 2.33333333,1.66666667 2.5,1.5 C2.66666667,1.33333333 2.83333333,1.16666667 3,1 L14,1 L14,14 L3,14 L2,13 L2,2 Z" id="矩形" fill="url(#linearGradient-1)"></path>
                <path d="M13.3920455,14 L2.60795455,14 C1.99676916,14 1.5,13.5031755 1.5,12.891922 L1.5,2.10807799 C1.5,1.49682451 1.99676916,1 2.60795455,1 L13.3920455,1 C14.0032308,1 14.5,1.49682451 14.5,2.10807799 L14.5,12.8933705 C14.4985517,13.5031755 14.0032308,14 13.3920455,14 Z M2.42857143,2.39294767 L2.42857143,12.6072285 C2.42857143,12.835821 2.66429282,13.0714286 2.89285714,13.0714286 L13.1071429,13.0714286 C13.3357072,13.0714286 13.5714286,12.835821 13.5714286,12.6072285 L13.5714286,2.39294767 C13.5714286,2.16435519 13.3357072,1.92857143 13.1071429,1.92857143 L2.89285714,1.92857143 C2.66429282,1.92727677 2.42857143,2.16435519 2.42857143,2.39294767 Z" id="形状" fill="#414F58" fill-rule="nonzero"></path>
                <path d="M2.500037,6 C3.29807673,6.00158103 4.13140736,6.00158103 5.00002889,6 C5.20109869,6.62964427 5.7238946,7 6.50002402,7 C7.43566882,7 8.00002815,6.32648221 8.00002815,5.5 C8.00002815,4.67351779 7.43566882,4 6.50002402,4 C5.73059693,4 5.20646055,4.37747036 5.00002889,5 C3.68637288,5.00237154 2.51076072,5 2.500037,5 C2.24132719,5.00355731 1.996075,5.28418972 2.00004761,5.51422925 C2.00411779,5.74071146 2.24400812,6 2.500037,6 Z M6.50002565,5 C6.77612933,5 7.00002565,5.22477876 7.00002565,5.5 C7.00002565,5.77522124 6.77612933,6 6.50002565,6 C6.22391873,6 6.00002565,5.77522124 6.00002565,5.5 C6.00002565,5.22477876 6.22391873,5 6.50002565,5 Z M8.50301154,6 L13.4970073,6 C13.7743717,6 13.9999997,5.77571429 13.9999997,5.5 C13.9999997,5.22428571 13.7743717,5 13.4970073,5 L8.50301154,5 C8.22564717,5 8.00001916,5.22428571 8.00001916,5.5 C8.00001916,5.77571429 8.22564717,6 8.50301154,6 Z M13.5000013,9 C13.486166,9 12.1332514,9.00237154 11.0000192,9 C10.8063144,8.37747036 10.2219687,8 9.50001916,8 C8.62209766,8 8.00001916,8.67351779 8.00001916,9.5 C8.00001916,10.327668 8.62335542,11 9.50001916,11 C10.2269997,11 10.8113454,10.6296443 11.0000192,10 C12.0955186,10.0023715 13.4924548,10 13.5000013,10 C13.8330756,10.0166008 13.9997419,9.84993412 14,9.5 C14.0002577,9.15006588 13.8335915,8.98339921 13.5000013,9 Z M9.50001592,10 C9.223909,10 9.00001592,9.77522124 9.00001592,9.5 C9.00001592,9.22477876 9.22479395,9 9.50001592,9 C9.77523464,9 10.0000159,9.22477876 10.0000159,9.5 C10.0000159,9.77522124 9.77611959,10 9.50001592,10 Z M7.55283151,9 L2.44722627,9 C2.20063422,9 2.00003862,9.22428571 2.00003862,9.5 C2.00003862,9.77571429 2.20063422,10 2.44722627,10 L7.55283151,10 C7.79942356,10 8.00001916,9.77571429 8.00001916,9.5 C8.00001916,9.22428571 7.79942356,9 7.55283151,9 L7.55283151,9 Z" id="形状" fill="#414F58" fill-rule="nonzero"></path>
            </g>
        </g>
    </g>
</svg>