<?xml version="1.0" encoding="UTF-8"?>
<svg width="32px" height="32px" viewBox="0 0 32 32" version="1.1" xmlns="http://www.w3.org/2000/svg" xmlns:xlink="http://www.w3.org/1999/xlink">
    <title>iconwelcomeadd</title>
    <defs>
        <filter id="filter-1">
            <feColorMatrix in="SourceGraphic" type="matrix" values="0 0 0 0 0.254902 0 0 0 0 0.309804 0 0 0 0 0.345098 0 0 0 1.000000 0"></feColorMatrix>
        </filter>
    </defs>
    <g id="icon" stroke="none" stroke-width="1" fill="none" fill-rule="evenodd">
        <g transform="translate(-209.000000, -216.000000)" id="iconwelcomeadd">
            <g filter="url(#filter-1)">
                <g transform="translate(209.000000, 216.000000)">
                    <rect id="矩形" fill="#000000" opacity="0" x="0" y="0" width="32" height="32"></rect>
                    <path d="M16.996582,15.097168 L16.996582,3.18848624 C16.996582,2.65065018 16.0484741,2.21276596 15.5106383,2.21276596 C14.9728025,2.21276596 15,2.65065018 15,3.18848624 L15,15.097168 L2.18848624,15.097168 C1.65065018,15.097168 1.21289063,15.652832 1.21289063,16 C1.21289063,16.347168 1.65065018,16.9847412 2.18848624,16.9847412 L15,16.9847412 L15,29.8327908 C15,30.3706266 14.9728025,30.8085106 15.5106383,30.8085106 C16.0484741,30.8085106 16.996582,30.3706266 16.996582,29.8327908 L16.996582,16.9847412 L28.8327908,16.9847412 C29.3706266,16.9847412 30,16.5378358 30,16 C29.9952412,15.4621642 29.3706266,15.097168 28.8327908,15.097168 L16.996582,15.097168 Z" id="路径" fill="#414F58"></path>
                </g>
            </g>
        </g>
    </g>
</svg>