<?xml version="1.0" encoding="UTF-8"?>
<svg width="16px" height="16px" viewBox="0 0 16 16" version="1.1" xmlns="http://www.w3.org/2000/svg" xmlns:xlink="http://www.w3.org/1999/xlink">
    <title>iconcopy</title>
    <defs>
        <filter id="filter-1">
            <feColorMatrix in="SourceGraphic" type="matrix" values="0 0 0 0 0.254902 0 0 0 0 0.309804 0 0 0 0 0.345098 0 0 0 1.000000 0"></feColorMatrix>
        </filter>
    </defs>
    <g id="菜单树" stroke="none" stroke-width="1" fill="none" fill-rule="evenodd">
        <g transform="translate(-189.000000, -608.000000)" id="iconcopy">
            <g filter="url(#filter-1)">
                <g transform="translate(189.000000, 608.000000)">
                    <rect id="矩形" fill="#414F58" fill-rule="nonzero" opacity="0" x="0" y="0" width="16" height="16"></rect>
                    <path d="M10.0010376,4.00022346 L2.99973857,4.00022346 C2.44902186,4.00022346 2,4.45072626 2,4.99977654 L2,14.0004469 C2,14.5510615 2.4505864,15 2.99973857,15 L10.0010376,15 C10.5517543,15 11.0007762,14.5494972 11.0007762,14.0004469 L11.0007762,4.99977654 C11.0007762,4.45072626 10.5501898,4.00022346 10.0010376,4.00022346 Z M10.0010376,14.0004469 L2.99973857,14.0004469 L2.99973857,4.99977654 L10.0010376,4.99977654 L10.0010376,14.0004469 Z M13.0002533,1 L5.99895427,1 C5.44823757,1 4.99921571,1.45050279 4.99921571,1.99955307 L4.99921571,4 L5.99895427,4 L5.99895427,1.99955307 L13.0002533,1.99955307 L13.0002533,11.0002235 L11.0837402,11 L11.0837402,11.9997765 L13.0002533,11.9997765 C13.55097,11.9997765 14.000073,11.5492737 14.000073,11.0002235 L14.000073,1.99955307 C14.0015564,1.45050279 13.55097,1 13.0002533,1 Z" id="形状" fill="#414F58" fill-rule="nonzero"></path>
                </g>
            </g>
        </g>
    </g>
</svg>