<?xml version="1.0" encoding="UTF-8"?>
<svg width="16px" height="16px" viewBox="0 0 16 16" version="1.1" xmlns="http://www.w3.org/2000/svg" xmlns:xlink="http://www.w3.org/1999/xlink">
    <title>lmiconzjd</title>
    <g id="工作界面" stroke="none" stroke-width="1" fill="none" fill-rule="evenodd">
        <g transform="translate(-133.000000, -113.000000)" fill="#414F58" fill-rule="nonzero" id="lmiconzjd">
            <g transform="translate(133.000000, 113.000000)">
                <rect id="矩形" opacity="0" x="0" y="0" width="16" height="16"></rect>
                <path d="M12,5 C11.4487179,5 11,4.55128205 11,4 C11,3.50003439 11,3 11.6711426,3 C11.7338279,3 11.9288222,3 12,3 C12.7646484,3 12.9880371,3 12.9880371,4 C12.9880371,5 12.5512821,5 12,5 Z M12,3.36182336 C11.6481481,3.36182336 11.4718018,3.53670143 11.4718018,3.88855328 C11.4718018,4.24040513 11.6987066,4.4152832 12.0505585,4.4152832 C12.4024103,4.4152832 12.4616699,4.24040513 12.4616699,3.88855328 C12.4616699,3.53670143 12.3518519,3.36182336 12,3.36182336 Z" id="形状"></path>
                <path d="M4.14535644,11 C4.06523872,11 4,10.9359036 4,10.8571888 L4,4.51614458 C4,4.23164659 4.23577502,4 4.52534336,4 L10.8546436,4 C10.9347613,4 11,4.06409639 11,4.14281124 C11,4.2215261 10.9347613,5 10.8546436,5 L5.95660985,5 C5.82727695,5 5,4.87293173 5,5 L5,10.7248597 C5,10.8035746 4.22547417,11 4.14535644,11 Z" id="路径"></path>
                <path d="M4,5 C5,5 5,5 5,4 C5,3 5,3 4,3 C3,3 2.99654959,3 3,4 C2.99654959,5 3,5 4,5 Z" id="路径"></path>
                <path d="M4.47353563,13.0134277 C2.85326829,13.0134277 3,12.35204 3,11.5548309 C3,10.7576217 2.89428392,10.0390625 4.47353563,10.0390625 C6.05278735,10.0390625 5.96484375,10.7275711 5.96484375,11.5247803 C5.96484375,12.3219894 6.09380297,13.0134277 4.47353563,13.0134277 Z M4.34457641,10.7248597 C3.91896322,10.7248597 3.57237636,11.097376 3.57237636,11.5548309 C3.57237636,12.0122858 3.91896322,12.3848021 4.34457641,12.3848021 C4.7701896,12.3848021 5.11677646,12.0122858 5.11677646,11.5548309 C5.11677646,11.097376 4.7701896,10.7248597 4.34457641,10.7248597 Z M6.01586914,12.4355469 C6.01474019,12.308139 5.89732966,11.9601092 6.01586914,11.9588958 L11,11.9588958 C11.0429,11.9588958 11,11.599727 11,11.5548309 C10.9209737,6.5190859 10.9209737,4.00080894 11,4 C11.1174105,4 11.9667358,4 11.9667358,4 L11.9999691,11.7319885 C12.001098,11.9006522 12.1106059,12.8231099 11.9999691,12.9432373 C11.8893322,13.0645781 11.5187471,12.9420239 11.3618234,12.9432373 L6.01586914,12.9432373 C6.01662177,12.6889067 6.01662177,12.5196765 6.01586914,12.4355469 Z M9.9904426,7.01660156 L6.32475023,7.01660156 C6.16669759,7.01660156 6.03912653,6.69391779 6.03912653,6.52404065 C6.03912653,6.35416351 6.16669759,6.00817871 6.32475023,6.00817871 L9.9904426,6.00817871 C10.1484952,6.00817871 10.2760663,6.35416351 10.2760663,6.52404065 C10.2760663,6.69391779 10.1484952,7.01660156 9.9904426,7.01660156 Z M8.91027832,8.94843015 L6.02685547,8.94843015 C5.86880283,8.94843015 6.02685547,8.64409222 6.02685547,8.47421508 C6.02685547,8.30433793 5.86880283,8 6.02685547,8 L8.91027832,8 C9.06833096,8 8.91027832,8.30433793 8.91027832,8.47421508 C8.91027832,8.64409222 9.06833096,8.94843015 8.91027832,8.94843015 Z" id="形状"></path>
            </g>
        </g>
    </g>
</svg>