<?xml version="1.0" encoding="UTF-8"?>
<svg width="16px" height="16px" viewBox="0 0 16 16" version="1.1" xmlns="http://www.w3.org/2000/svg" xmlns:xlink="http://www.w3.org/1999/xlink">
    <title>lmiconxm</title>
    <defs>
        <filter id="filter-1">
            <feColorMatrix in="SourceGraphic" type="matrix" values="0 0 0 0 0.254902 0 0 0 0 0.309804 0 0 0 0 0.345098 0 0 0 1.000000 0"></feColorMatrix>
        </filter>
    </defs>
    <g id="工作界面" stroke="none" stroke-width="1" fill="none" fill-rule="evenodd">
        <g transform="translate(-15.000000, -114.000000)" id="lmiconxm">
            <g filter="url(#filter-1)">
                <g transform="translate(15.000000, 114.000000)">
                    <rect id="矩形" fill="#414F58" fill-rule="nonzero" opacity="0" x="0" y="0" width="16" height="16"></rect>
                    <path d="M3.44283629,6 C3.68766723,6 3.88567259,5.80770896 3.88567259,5.5699437 L3.88567259,4.0108272 C3.88567259,3.92767432 3.95524203,3.8601126 4.04086597,3.8601126 L4.9653369,3.8601126 C5.02152761,3.8601126 5.07370469,3.88999567 5.10046217,3.93806843 L5.45901241,4.56171503 C5.64230114,4.88133391 5.99148626,5.08012126 6.36876672,5.08012126 L12.959134,5.08012126 C13.044758,5.08012126 13.1143274,5.14768298 13.1143274,5.23083586 L13.1143274,5.5699437 C13.1143274,5.80770896 13.3123328,6 13.5571637,6 C13.8019946,6 14,5.80770896 14,5.5699437 L14,5.23083586 C14,4.67345171 13.533082,4.22000866 12.959134,4.22000866 L6.36876672,4.22000866 C6.31257602,4.22000866 6.26039893,4.1901256 6.23364145,4.14205284 L5.87509122,3.51840624 C5.69180248,3.19878735 5.34261737,3 4.9653369,3 L4.04086597,3 C3.46691802,3 3,3.45344305 3,4.0108272 L3,5.5699437 C3,5.80770896 3.19800535,6 3.44283629,6 Z M13.7542036,6.36406619 C13.5598528,6.13238771 13.2783792,6 12.9808214,6 L3.02067758,6 C2.72311979,6 2.44164621,6.13238771 2.2472954,6.36406619 C2.05294459,6.59574468 1.96716217,6.90189125 2.01139373,7.20390071 L2.72580049,12.106383 C2.80086011,12.6249015 3.22575119,13 3.73374399,13 L12.2650743,13 C12.7663653,13 13.1992985,12.6152482 13.2730178,12.106383 L13.9874246,7.20390071 C14.0343368,6.90189125 13.9485544,6.59574468 13.7542036,6.36406619 Z M12.9984309,7.15058635 L12.2997253,11.8880597 C12.2905491,11.9520256 12.2354916,12 12.1712579,12 L3.82873875,12 C3.76450502,12 3.71075844,11.9533582 3.7002713,11.8880597 L3.00156566,7.15058635 C2.9937003,7.09861407 3.01729637,7.06263326 3.03171618,7.04530917 C3.046136,7.02798507 3.07759742,7 3.13003311,7 L12.8712744,7 C12.9223992,7 12.9551715,7.02798507 12.9695913,7.04530917 C12.9827002,7.06263326 13.0062963,7.09861407 12.9984309,7.15058635 Z" id="形状" fill="#414F58" fill-rule="nonzero"></path>
                    <path d="M7.63154995,7.878125 L4.37738916,7.878125 C4.17090114,7.878125 4.00390538,8.10168995 4.00390538,8.378125 C4.00390538,8.65456005 4.17090114,8.878125 4.37738916,8.878125 L7.6304216,8.878125 C7.83690961,8.878125 8.00390538,8.65456005 8.00390538,8.378125 C8.00390538,8.10168995 7.83803796,7.878125 7.63154995,7.878125 Z" id="路径" fill="#414F58" fill-rule="nonzero"></path>
                </g>
            </g>
        </g>
    </g>
</svg>