<?xml version="1.0" encoding="UTF-8"?>
<svg width="16px" height="16px" viewBox="0 0 16 16" version="1.1" xmlns="http://www.w3.org/2000/svg" xmlns:xlink="http://www.w3.org/1999/xlink">
    <title>lmicontb</title>
    <defs>
        <filter id="filter-1">
            <feColorMatrix in="SourceGraphic" type="matrix" values="0 0 0 0 0.254902 0 0 0 0 0.309804 0 0 0 0 0.345098 0 0 0 1.000000 0"></feColorMatrix>
        </filter>
    </defs>
    <g id="工作界面" stroke="none" stroke-width="1" fill="none" fill-rule="evenodd">
        <g transform="translate(-73.000000, -114.000000)" id="lmicontb">
            <g transform="translate(73.000000, 114.000000)">
                <g filter="url(#filter-1)" id="jx">
                    <g></g>
                </g>
                <rect id="矩形" fill="#414F58" fill-rule="nonzero" opacity="0" x="2" y="2" width="13" height="13"></rect>
                <path d="M13.5769231,13 L3.42307692,13 C3.18941799,13 3,12.810582 3,12.5769231 L3,2.42307692 C3,2.18941799 3.18941799,2 3.42307692,2 L8.5,2 C8.73365893,2 8.92307692,2.18941799 8.92307692,2.42307692 L8.92307692,5.05273437 L13.5769231,5.05273437 C13.810582,5.05273437 14,5.57403338 14,5.80769231 L14,12.5769231 C14,12.810582 13.810582,13 13.5769231,13 Z M3.84615385,12.1538462 L13.1538462,12.1538462 L12.9780273,6.02966309 L8.68181818,6.02966309 C8.44815925,6.02966309 8,6.01930346 8,5.78564453 L8.07692308,2.84615385 L3.84615385,2.84615385 L3.84615385,12.1538462 Z" id="形状" fill="#414F58" fill-rule="nonzero"></path>
                <path d="M11.9545455,11 L5.40909091,11 C5.18315624,11 5,10.8168438 5,10.5909091 L5,6.90909091 C5,6.68315624 5.18315624,6.5 5.40909091,6.5 C5.63502558,6.5 5.81818182,6.68315624 5.81818182,6.90909091 L5.81818182,10.1818182 L11.9545455,10.1818182 C12.1804801,10.1818182 12.3636364,10.3649744 12.3636364,10.5909091 C12.3636364,10.8168438 12.1804801,11 11.9545455,11 Z" id="形状" fill="#414F58" fill-rule="nonzero"></path>
                <path d="M7.375,11 C7.16789322,11 7,10.8010154 7,10.5555556 L7,8.33333333 C7,8.08787344 7.16789322,7.88888889 7.375,7.88888889 C7.58210678,7.88888889 7.75,8.08787344 7.75,8.33333333 L7.75,10.5555556 C7.75,10.8010154 7.58210678,11 7.375,11 Z M9.625,11 C9.41789322,11 9.25,10.8010154 9.25,10.5555556 L9.25,7.44444444 C9.25,7.19898456 9.41789322,7 9.625,7 C9.83210678,7 10,7.19898456 10,7.44444444 L10,10.5555556 C10,10.8010154 9.83210678,11 9.625,11 Z" id="形状" fill="#414F58" fill-rule="nonzero"></path>
            </g>
        </g>
    </g>
</svg>