<?xml version="1.0" encoding="UTF-8"?>
<svg width="15px" height="17px" viewBox="0 0 15 17" version="1.1" xmlns="http://www.w3.org/2000/svg" xmlns:xlink="http://www.w3.org/1999/xlink">
    <title>粘贴</title>
    <defs>
        <filter id="filter-1">
            <feColorMatrix in="SourceGraphic" type="matrix" values="0 0 0 0 0.505882 0 0 0 0 0.592157 0 0 0 0 0.658824 0 0 0 1.000000 0"></feColorMatrix>
        </filter>
        <filter id="filter-2">
            <feColorMatrix in="SourceGraphic" type="matrix" values="0 0 0 0 0.388235 0 0 0 0 0.415686 0 0 0 0 0.431373 0 0 0 1.000000 0"></feColorMatrix>
        </filter>
    </defs>
    <g id="工作界面" stroke="none" stroke-width="1" fill="none" fill-rule="evenodd">
        <g transform="translate(-340.000000, -149.000000)" id="工具栏">
            <g filter="url(#filter-1)">
                <g transform="translate(229.000000, 144.000000)">
                    <g filter="url(#filter-2)" id="粘贴">
                        <g transform="translate(105.000000, 0.000000)">
                            <polygon id="矩形" fill="#000000" fill-rule="nonzero" opacity="0" points="0 0 16.9944763 0 27 0 27 27 0 27"></polygon>
                            <path d="M10.1818182,6.25 L12.7272727,6.25 C13.0787267,6.25 13.3636364,5.97017797 13.3636364,5.625 C13.3636364,5.27982203 13.0787267,5 12.7272727,5 L10.1818182,5 C9.83036425,5 9.54545455,5.27982203 9.54545455,5.625 C9.54545455,5.97017797 9.83036425,6.25 10.1818182,6.25 L10.1818182,6.25 Z M7.63956144,8.75 C7.99278148,8.75 8.27912289,8.52250241 8.27912289,8.24186992 L8.27912289,7.77439024 C8.27905322,7.49767906 8.55767831,7.27179438 8.9058931,7.26626016 C9.25911313,7.26626016 9.54545455,7.03876257 9.54545455,6.75813008 C9.53195025,6.47813174 9.24572202,6.25518305 8.89310187,6.25 C7.84634812,6.2665088 7.00672729,6.94260015 7,7.77439024 L7,8.24186992 C7,8.52250241 7.28634141,8.75 7.63956144,8.75 L7.63956144,8.75 Z M15.2727273,6.25 L17.8181818,6.25 C18.1696357,6.25 18.4545455,5.97017797 18.4545455,5.625 C18.4545455,5.27982203 18.1696357,5 17.8181818,5 L15.2727273,5 C14.9212733,5 14.6363636,5.27982203 14.6363636,5.625 C14.6363636,5.97017797 14.9212733,6.25 15.2727273,6.25 L15.2727273,6.25 Z M20.3636364,15 C20.0121824,15 19.7272727,15.279822 19.7272727,15.625 L19.7272727,18.125 C19.7340438,18.4673856 20.0150256,18.7433499 20.3636364,18.75 C20.7150903,18.75 21,18.470178 21,18.125 L21,15.625 C21,15.279822 20.7150903,15 20.3636364,15 Z M19.5186623,18.75 L18.6673688,18.75 C18.5507806,18.7566501 18.4568099,19.0326144 18.4545455,19.375 C18.4545455,19.7201779 18.5498297,20 18.6673688,20 L19.5186623,20 C19.5747231,20.0000343 19.6284284,19.9337901 19.6676669,19.8162062 C19.7069055,19.6986224 19.7283733,19.5395999 19.7272292,19.375 C19.7230226,19.0398499 19.6326785,18.7691211 19.5186623,18.75 L19.5186623,18.75 Z M20.8649601,6.61462447 C20.7311786,6.316643 20.3943959,6.17484089 20.0935631,6.28982829 C19.7868042,6.43202616 19.6459304,6.79686502 19.7752087,7.11431089 C19.7935782,7.1965376 19.7935782,7.28192739 19.7752087,7.36415411 L19.7752087,9.37539196 C19.7817229,9.7175628 20.0520442,9.99335403 20.3874286,10 C20.7255483,10 20.9996485,9.72035345 20.9996485,9.37539196 L20.9996485,7.36415411 C21.0045199,7.10762006 20.9587135,6.85271143 20.8649601,6.61462447 L20.8649601,6.61462447 Z M20.3636364,11.25 C20.0121824,11.25 19.7272727,11.529822 19.7272727,11.875 L19.7272727,14.375 C19.7340438,14.7173856 20.0150256,14.9933499 20.3636364,15 C20.7150903,15 21,14.720178 21,14.375 L21,11.875 C21,11.529822 20.7150903,11.25 20.3636364,11.25 Z" id="形状" fill="#323333" fill-rule="nonzero"></path>
                            <path d="M16.4911987,22 L7.50880134,22 C6.67551337,22 6,21.2855608 6,20.4042553 L6,9.59574468 C6,8.71443923 6.67551337,8 7.50880134,8 L16.4911987,8 C17.3244866,8 18,8.71443923 18,9.59574468 L18,20.4042553 C18,21.2855608 17.3244866,22 16.4911987,22 Z M7.68338369,9.27272727 C7.41641825,9.27272727 7.2,9.50249316 7.2,9.78592375 L7.2,20.2140762 C7.2,20.4975068 7.41641825,20.7272727 7.68338369,20.7272727 L16.3166163,20.7272727 C16.5835818,20.7272727 16.8,20.4975068 16.8,20.2140762 L16.8,9.78592375 C16.8,9.50249316 16.5835818,9.27272727 16.3166163,9.27272727 L7.68338369,9.27272727 Z" id="形状" fill="#323333" fill-rule="nonzero"></path>
                        </g>
                    </g>
                </g>
            </g>
        </g>
    </g>
</svg>