<?xml version="1.0" encoding="UTF-8"?>
<svg width="25px" height="25px" viewBox="0 0 25 25" version="1.1" xmlns="http://www.w3.org/2000/svg" xmlns:xlink="http://www.w3.org/1999/xlink">
    <title>tciconadd</title>
    <defs>
        <linearGradient x1="57.6021635%" y1="4.7921317%" x2="57.6021635%" y2="100%" id="linearGradient-1">
            <stop stop-color="#FAFDFF" offset="0%"></stop>
            <stop stop-color="#F7E7A7" offset="41.6351116%"></stop>
            <stop stop-color="#DDB726" offset="99.9656883%"></stop>
        </linearGradient>
        <linearGradient x1="50.000426%" y1="0%" x2="50%" y2="100%" id="linearGradient-2">
            <stop stop-color="#FEEFCA" offset="0%"></stop>
            <stop stop-color="#CBA13E" offset="54.9255367%"></stop>
            <stop stop-color="#F7B500" offset="100%"></stop>
        </linearGradient>
    </defs>
    <g id="弹窗" stroke="none" stroke-width="1" fill="none" fill-rule="evenodd">
        <g transform="translate(-388.000000, -236.000000)" id="tciconadd">
            <g transform="translate(388.000000, 236.000000)">
                <g id="编组-34">
                    <g id="编组-32">
                        <g id="编组-31">
                            <g id="编组-30">
                                <g id="编组-29">
                                    <polygon id="矩形" fill="url(#linearGradient-1)" style="mix-blend-mode: screen;" points="1.6 1.6 22.4 1.6 22.2062611 22.5 1.6 24"></polygon>
                                    <path d="M23.78,12.3495146 L23.78,2.40776699 C23.78,0.99096083 22.8371429,0 21.4885714,0 L2.84285714,0 C2.18571429,0 1.49714286,0.235687981 0.96,0.645463676 C0.348571429,1.11148309 0,1.75159022 0,2.40776699 L0,21.592233 C0,22.9688651 1.54571429,24 2.92857143,24 L18.0828571,23.9973217 L20,23.9973217 C21.9971429,23.9892869 23.0142857,23.7084972 23.3971429,21.9323736 C23.78,20.15625 23.78,19.2818359 23.78,17.2511719 C23.78,15.2205078 23.78,13.6826172 23.78,12.3495146 Z M1.6,21.7451433 L1.6,6.70449117 L1.60285176,2.20375195 C1.60285176,1.8818809 2.15039052,1.5 2.61522811,1.5 L21.2258424,1.5 C21.5338329,1.5 22.2061594,1.7373117 22.2061594,2.20375195 L22.2061594,6.70449117 L22.2061594,8.45296017 L22.1327034,8.45296017 L22.2061594,10.8533544 C22.2062611,14.1316406 22.2062611,12.8 22.2062611,16.1248047 C22.2062611,21.6020694 22.3387931,22.0425781 21.2258424,22.4461676 C21.0558064,22.5078277 19.8631153,22.3316033 20,22.4461676 L2.69792928,22.4461676 C2.17890817,22.4488953 1.6,22.0288263 1.6,21.7451433 Z" id="形状" fill="#727272" fill-rule="nonzero"></path>
                                    <polygon id="路径" fill="#B2B2B2" fill-rule="nonzero" points="1.6 9.6 22.2 9.6 22.2 11.2 1.6 11.2"></polygon>
                                </g>
                            </g>
                            <path d="M20.6888672,1.49998939 L2.61522811,1.49998939 C2.17353707,1.49998939 1.6,1.97436274 1.6,2.34296875 L1.6,9.6 L22.2062554,9.6 L22.2062554,2.20375195 C22.2088859,1.66646183 21.3116857,1.49998939 20.6888672,1.49998939 Z M14.6953215,5.84972884 L3.31768739,5.84972884 L3.31768739,3.85050978 L14.6953215,3.85050978 L14.6953215,5.84972884 Z M19.0467962,5.84972884 L17.3018439,5.84972884 L17.3018439,3.85050978 L19.0467962,3.85050978 L19.0467962,5.84972884 Z" id="形状" fill="#FCCF65" fill-rule="nonzero"></path>
                        </g>
                    </g>
                </g>
                <path d="M14.0403939,19.8697349 C14.4156554,20.2449964 14.9327463,20.47281 15.4895756,20.47281 L16.4829756,20.47281 L16.4829756,21.46608 C16.4829756,22.0230974 16.7108391,22.5400935 17.0860197,22.915274 C17.3881971,23.2174515 17.782368,23.4240596 18.2153357,23.4930276 C16.9487419,23.4208523 15.8075232,22.8772028 14.9651602,22.0348398 C14.1722033,21.2418829 13.6439473,20.1840991 13.5253346,19.0059998 C13.6220361,19.3339625 13.801301,19.6306421 14.0403939,19.8697349 Z M23.4341293,19.3073575 L23.3983286,19.5072464 C23.198352,20.4833828 22.7135591,21.3561206 22.0348398,22.0348398 C21.2222099,22.8474698 20.1314495,23.3821015 18.9180949,23.482735 C19.3259332,23.4038571 19.6967973,23.2028907 19.9843646,22.9153985 C20.3596933,22.540168 20.5876,22.0231009 20.5876,21.46608 L20.5876,20.4728013 L21.5807631,20.4727956 C22.1436952,20.4727956 22.6601662,20.245505 23.0337611,19.8720078 C23.1962168,19.7095945 23.332663,19.5194431 23.4341293,19.3073575 Z M17.086036,13.9257197 C16.7108477,14.300908 16.48299,14.8179143 16.48299,15.3749156 L16.48299,16.3681856 L15.48972,16.3681856 C14.9327288,16.3681856 14.4156515,16.5960392 14.040412,16.9712787 C13.8268348,17.1848558 13.660983,17.4443924 13.5577345,17.7311324 C13.7244194,16.6592063 14.2314904,15.6988299 14.9651602,14.9651602 C15.8701192,14.0602012 17.12,13.5 18.5,13.5 C18.1413086,13.5673714 17.6809696,13.7001624 17.086036,13.9257197 Z M19.7322333,13.6532406 C20.6174564,13.877935 21.4087073,14.3390276 22.0348398,14.9651602 C22.7065475,15.6368679 23.188315,16.4986061 23.3920399,17.4625347 C23.297048,17.2810538 23.174416,17.1156088 23.0299559,16.9711865 C22.6548409,16.5961696 22.1379194,16.3683156 21.5807544,16.3683156 L20.5876144,16.3683156 L20.5876144,15.3749156 C20.5876144,14.8178785 20.3597018,14.3008217 19.9843809,13.9255989 C19.9122003,13.8534372 19.8480189,13.7564394 19.7502528,13.6682528 Z" id="形状" stroke="#727272" stroke-width="3" fill="url(#linearGradient-2)" fill-rule="nonzero"></path>
            </g>
        </g>
    </g>
</svg>