<?xml version="1.0" encoding="UTF-8"?>
<svg width="16px" height="16px" viewBox="0 0 16 16" version="1.1" xmlns="http://www.w3.org/2000/svg" xmlns:xlink="http://www.w3.org/1999/xlink">
    <title>topicon2</title>
    <g id="icon" stroke="none" stroke-width="1" fill="none" fill-rule="evenodd">
        <g transform="translate(-116.000000, -436.000000)" fill-rule="nonzero" id="topicon2">
            <g transform="translate(116.000000, 436.000000)">
                <g id="jx" fill="#000000" opacity="0">
                    <rect id="矩形" x="0" y="0" width="16" height="16"></rect>
                </g>
                <g id="最大化" transform="translate(3.000000, 3.000000)" fill="#FFFFFF">
                    <path d="M1.25,0.833333333 C0.904822031,0.833333333 0.625,1.20642938 0.625,1.66666667 L0.625,8.33333333 C0.625,8.79357062 0.904822031,9.16666667 1.25,9.16666667 L8.75,9.16666667 C9.09517797,9.16666667 9.375,8.79357062 9.375,8.33333333 L9.375,1.66666667 C9.375,1.20642938 9.09517797,0.833333333 8.75,0.833333333 L1.25,0.833333333 Z M0.613891602,0 L9.3626709,0 C9.69419151,0 10,0.50958252 10,0.831970215 L10,8.76678467 C10,9.27709961 9.79187012,10 9.3626709,10 L0.613891602,10 C1.62049272e-11,10 1.62049272e-11,9.07598877 1.62049272e-11,8.76678467 L1.62049272e-11,0.831970215 C1.62049272e-11,0.571350098 0.419921875,0 0.613891602,0 Z" id="形状"></path>
                </g>
            </g>
        </g>
    </g>
</svg>