<?xml version="1.0" encoding="UTF-8"?>
<svg width="17px" height="17px" viewBox="0 0 17 17" version="1.1" xmlns="http://www.w3.org/2000/svg" xmlns:xlink="http://www.w3.org/1999/xlink">
    <title>topiconsc</title>
    <defs>
        <linearGradient x1="50%" y1="50%" x2="50%" y2="100%" id="linearGradient-1">
            <stop stop-color="#FCD67B" offset="0%"></stop>
            <stop stop-color="#FCEDC8" offset="100%"></stop>
        </linearGradient>
        <linearGradient x1="50%" y1="0.591216216%" x2="50%" y2="100%" id="linearGradient-2">
            <stop stop-color="#FEFAAC" offset="0%"></stop>
            <stop stop-color="#FFDCA7" offset="100%"></stop>
        </linearGradient>
        <linearGradient x1="10.8708644%" y1="60.8708644%" x2="89.1291356%" y2="60.8708644%" id="linearGradient-3">
            <stop stop-color="#CCFDC2" offset="0%"></stop>
            <stop stop-color="#4BA933" offset="100%"></stop>
        </linearGradient>
    </defs>
    <g id="工作界面" stroke="none" stroke-width="1" fill="none" fill-rule="evenodd">
        <g transform="translate(-226.000000, -72.000000)" fill-rule="nonzero" id="topiconsc">
            <g transform="translate(226.000000, 72.000000)">
                <g id="编组-19">
                    <g id="数据库">
                        <rect id="矩形" fill="#000000" opacity="0" x="0" y="0" width="16" height="16"></rect>
                        <path d="M1.41666667,9.60666667 L1.41666667,12.5816667 C1.44166667,14.1433333 4.01166667,15.4066667 8,15.4066667 C11.9883333,15.4066667 14.5566667,14.1433333 14.5833333,12.5816667 L14.5833333,9.60666667 L1.41666667,9.60666667 Z" id="路径" stroke="#928F7B" fill="#FCD67B"></path>
                        <path d="M14.5833333,9.595 C14.5833333,11.2516667 12.0033333,12.595 8,12.595 C3.99666667,12.595 1.41666667,11.2516667 1.41666667,9.595 C1.41666667,7.93833333 3.99666667,6.595 8,6.595 C12.0033333,6.595 14.5833333,7.93666667 14.5833333,9.595 Z" id="路径" fill="#F4EA2A"></path>
                        <path d="M1.41666667,6.60666667 L1.41666667,9.24833333 C1.44166667,10.81 4.01166667,12.24 8,12.24 C11.9883333,12.24 14.5566667,10.81 14.5833333,9.24833333 L14.5833333,6.60666667 L1.41666667,6.60666667 Z" id="路径" stroke="#938E76" fill="#FCCF65"></path>
                        <path d="M14.5833333,6.595 C14.5833333,8.25166667 12.0033333,9.595 8,9.595 C3.99666667,9.595 1.41666667,8.25166667 1.41666667,6.595 C1.41666667,4.93833333 3.99666667,3.595 8,3.595 C12.0033333,3.595 14.5833333,4.93666667 14.5833333,6.595 Z" id="路径" fill="#F4EA2A"></path>
                        <path d="M1.41666667,3.60666667 L1.41666667,6.24833333 C1.44166667,7.81 4.01166667,9.24 8,9.24 C11.9883333,9.24 14.5566667,7.81 14.5833333,6.24833333 L14.5833333,3.60666667 L1.41666667,3.60666667 Z" id="路径" stroke="#938E76" fill="url(#linearGradient-1)"></path>
                        <path d="M14.5833333,3.595 C14.5833333,5.25166667 12.0033333,6.595 8,6.595 C3.99666667,6.595 1.41666667,5.25166667 1.41666667,3.595 C1.41666667,1.93833333 3.99666667,0.595 8,0.595 C12.0033333,0.595 14.5833333,1.93666667 14.5833333,3.595 Z" id="路径" stroke="#938E76" fill="url(#linearGradient-2)"></path>
                    </g>
                    <g id="上传" transform="translate(8.000000, 9.000000)" fill="url(#linearGradient-3)" stroke="#2D831E">
                        <path d="M7.95458887,3.44846051 C7.86539605,3.61981258 7.71295743,3.70548862 7.49402962,3.70548862 L5.4977323,3.70548862 L5.4977323,6.58902276 C5.4977323,6.70013387 5.44908167,6.7978581 5.35015873,6.87817938 C5.25123579,6.95850067 5.13447429,7 4.99987423,7 L3.00195522,7 C2.86735516,7 2.74897197,6.95983936 2.65167072,6.87817938 C2.55436947,6.79651941 2.50409716,6.70147256 2.50409716,6.58902276 L2.50409716,3.70682731 L0.507799839,3.70682731 C0.290493713,3.70682731 0.134811713,3.62115127 0.0472405872,3.4497992 C-0.0419522256,3.28246319 -0.00465341295,3.13386881 0.157515338,3.00535475 L3.65063023,0.121820616 C3.7446881,0.0401606426 3.85982791,0 4.00091473,0 C4.14200154,0 4.25876304,0.0401606426 4.35119923,0.121820616 L7.84431412,3.00535475 C8.00486118,3.13386881 8.0405383,3.2811245 7.95458887,3.44846051 Z" id="形状"></path>
                    </g>
                </g>
            </g>
        </g>
    </g>
</svg>