<?xml version="1.0" encoding="UTF-8"?>
<svg width="18px" height="17px" viewBox="0 0 18 17" version="1.1" xmlns="http://www.w3.org/2000/svg" xmlns:xlink="http://www.w3.org/1999/xlink">
    <title>topiconopen</title>
    <defs>
        <linearGradient x1="57.6021635%" y1="4.7921317%" x2="57.6021635%" y2="100%" id="linearGradient-1">
            <stop stop-color="#FAFDFF" offset="0%"></stop>
            <stop stop-color="#F7E7A7" offset="41.6351116%"></stop>
            <stop stop-color="#DDB726" offset="99.9656883%"></stop>
        </linearGradient>
        <linearGradient x1="54.6031351%" y1="22.6054504%" x2="50%" y2="85.9260807%" id="linearGradient-2">
            <stop stop-color="#76C7FB" offset="0%"></stop>
            <stop stop-color="#32AEFF" offset="50.8630701%"></stop>
            <stop stop-color="#307BAC" offset="100%"></stop>
        </linearGradient>
    </defs>
    <g id="工作界面" stroke="none" stroke-width="1" fill="none" fill-rule="evenodd">
        <g transform="translate(-106.000000, -73.000000)" id="topiconopen">
            <g transform="translate(106.000000, 73.000000)">
                <g id="编组-34">
                    <g id="编组-32">
                        <g id="编组-31">
                            <g id="编组-30">
                                <g id="编组-29">
                                    <rect id="矩形" fill="url(#linearGradient-1)" style="mix-blend-mode: screen;" x="1" y="1" width="13" height="14"></rect>
                                    <path d="M14.8625,7.7184466 L14.8625,1.50485437 C14.8625,0.619350519 14.2732143,0 13.4303571,0 L1.77678571,0 C1.36607143,0 0.935714286,0.147304988 0.6,0.403414797 C0.217857143,0.694676933 0,1.09474389 0,1.50485437 L0,13.4951456 C0,14.3555407 0.966071429,15 1.83035714,15 L11.3017857,14.9983261 L11.3214286,14.9983261 C12.5696429,14.9933043 14.2464286,14.6521003 14.6232143,13.7077335 C15,12.7633667 15,12.4085999 15,10.7885742 C15,9.16854858 14.6232143,8.47297668 14.8625,7.7184466 Z M1,13.5907146 L1,4.19030698 L1.00178235,1.37734497 C1.00178235,1.17617556 1.34399408,0.9375 1.63451757,0.9375 L13.2661515,0.9375 C13.4586456,0.9375 13.8788497,1.08581982 13.8788497,1.37734497 L13.8788497,4.19030698 L13.8788497,5.28310011 L13.8329396,5.28310011 L13.8788497,6.78334651 C14.1551143,8.82898073 13.8788497,8.19889083 13.8329396,10.1427753 C13.7521127,13.5650833 13.8788497,12.9265174 13.2661515,14.0305596 C13.2109851,14.1299658 12.8067779,13.9589569 12.8923308,14.0305596 L1.6862058,14.0288547 C1.3618176,14.0305596 1,13.7680164 1,13.5907146 Z" id="形状" fill="#727272" fill-rule="nonzero"></path>
                                    <polygon id="路径" fill="#B2B2B2" fill-rule="nonzero" points="1 6 14 6 14 7 1 7"></polygon>
                                </g>
                            </g>
                            <path d="M12.7256021,1.14924726 L1.60493951,1.14924726 C1.32888261,1.14924726 1,1.42257799 1,1.65295674 L1,6.14924726 L14,5.69924726 L14,1.14924726 C14.0017041,0.81344093 12.907936,1.14924726 12.7256021,1.14924726 Z M9.18457592,3.65608052 L2.07355462,3.65608052 L2.07355462,2.40656861 L9.18457592,2.40656861 L9.18457592,3.65608052 Z M11.9042476,3.65608052 L10.8136524,3.65608052 L10.8136524,2.40656861 L11.9042476,2.40656861 L11.9042476,3.65608052 Z" id="形状" fill="#FCCF65" fill-rule="nonzero"></path>
                        </g>
                    </g>
                </g>
                <path d="M12.8019556,10.3663768 C12.8019556,10.5738575 12.8761156,10.7830734 13.0317917,10.954703 L13.7792016,11.7676201 L11.7963242,11.7676201 C10.8488726,11.7676201 10.0237382,12.1575831 9.43373443,12.7999065 C8.85374379,13.4313288 8.5,14.3118639 8.5,15.6559566 C8.5,15.8893732 8.58002127,16.0865541 8.70007415,16.2281754 C8.84217887,16.3958103 9.04340812,16.5 9.29164679,16.5 C9.53989018,16.5 9.74111863,16.3958114 9.88322246,16.2281775 C10.0032704,16.0865621 10.0832936,15.8893872 10.0832936,15.3119132 C10.0832936,14.7786069 10.2742597,14.2943005 10.5954134,13.945835 C10.899194,13.6162201 11.3203056,13.4106805 11.7963242,13.4106805 L13.7647664,13.4106805 L13.0372056,14.1874917 C12.8730704,14.3683521 12.8019556,14.5727444 12.8019556,14.773331 C12.8019556,14.9739177 12.8730704,15.17831 13.0317917,15.3532967 C13.2098583,15.5496112 13.4222611,15.6280947 13.6246456,15.6283869 C13.8278749,15.6286803 14.040698,15.5501946 14.2187094,15.353941 L16.2663882,13.1465315 C16.4285226,12.9678284 16.5,12.7628736 16.5,12.5614833 C16.5,12.3443823 16.4169355,12.1231389 16.2315091,11.9402625 L12.8019556,9.36585325 L12.8019556,10.3663768 Z" id="路径" stroke="#2C79AA" fill="url(#linearGradient-2)" fill-rule="nonzero"></path>
            </g>
        </g>
    </g>
</svg>