<?xml version="1.0" encoding="UTF-8"?>
<svg width="16px" height="16px" viewBox="0 0 16 16" version="1.1" xmlns="http://www.w3.org/2000/svg" xmlns:xlink="http://www.w3.org/1999/xlink">
    <title>topicon3</title>
    <g id="icon" stroke="none" stroke-width="1" fill="none" fill-rule="evenodd">
        <g transform="translate(-163.000000, -436.000000)" fill-rule="nonzero" id="topicon3">
            <g transform="translate(163.000000, 436.000000)">
                <rect id="矩形" fill="#000000" opacity="0" x="0" y="0" width="16" height="16"></rect>
                <path d="M12.24,3.05 L8,7.29 L3.76,3.05 C3.56393891,2.85393891 3.24606109,2.85393891 3.05,3.05 C2.85393891,3.24606109 2.85393891,3.56393891 3.05,3.76 L7.29,8 L3.05,12.24 C2.85393891,12.4360611 2.85393891,12.7539389 3.05,12.95 C3.24606109,13.1460611 3.56393891,13.1460611 3.76,12.95 L8,8.71 L12.24,12.95 C12.4360611,13.1460611 12.7539389,13.1460611 12.95,12.95 C13.1460611,12.7539389 13.1460611,12.4360611 12.95,12.24 L8.71,8 L12.95,3.76 C13.0768293,3.63317072 13.1263618,3.44831301 13.079939,3.27506098 C13.0335163,3.10180896 12.898191,2.96648372 12.724939,2.92006098 C12.551687,2.87363824 12.3668293,2.92317072 12.24,3.05 L12.24,3.05 Z" id="路径" fill="#FFFFFF"></path>
            </g>
        </g>
    </g>
</svg>