<?xml version="1.0" encoding="UTF-8"?>
<svg width="3px" height="23px" viewBox="0 0 3 23" version="1.1" xmlns="http://www.w3.org/2000/svg" xmlns:xlink="http://www.w3.org/1999/xlink">
    <title>topiconline</title>
    <g id="工作界面" stroke="none" stroke-width="1" fill="none" fill-rule="evenodd">
        <g transform="translate(-347.000000, -72.000000)" fill-rule="nonzero" id="topiconline">
            <g transform="translate(347.000000, 72.000000)">
                <path d="M1,1 L3,1 L3,3 L1,3 L1,1 Z M1,9 L3,9 L3,11 L1,11 L1,9 Z M1,17 L3,17 L3,19 L1,19 L1,17 Z M1,21 L3,21 L3,23 L1,23 L1,21 Z M1,13 L3,13 L3,15 L1,15 L1,13 Z M1,5 L3,5 L3,7 L1,7 L1,5 Z" id="形状" fill="#FFFFFF"></path>
                <path d="M0,0 L2,0 L2,2 L0,2 L0,0 Z M0,8 L2,8 L2,10 L0,10 L0,8 Z M0,16 L2,16 L2,18 L0,18 L0,16 Z M0,20 L2,20 L2,22 L0,22 L0,20 Z M0,12 L2,12 L2,14 L0,14 L0,12 Z M0,4 L2,4 L2,6 L0,6 L0,4 Z" id="形状" fill="#65ABCF"></path>
            </g>
        </g>
    </g>
</svg>