<?xml version="1.0" encoding="UTF-8"?>
<svg width="84px" height="20px" viewBox="0 0 84 20" version="1.1" xmlns="http://www.w3.org/2000/svg" xmlns:xlink="http://www.w3.org/1999/xlink">
    <title>toplogo</title>
    <defs>
        <linearGradient x1="62.857325%" y1="37.0700527%" x2="87.3020412%" y2="62.8217147%" id="linearGradient-1">
            <stop stop-color="#C42526" offset="0%"></stop>
            <stop stop-color="#C22526" offset="59.2826225%"></stop>
            <stop stop-color="#E62021" offset="86.3987223%"></stop>
            <stop stop-color="#E52021" offset="100%"></stop>
        </linearGradient>
        <linearGradient x1="57.6188538%" y1="12.1635183%" x2="72.1040379%" y2="87.5197642%" id="linearGradient-2">
            <stop stop-color="#C42526" offset="0%"></stop>
            <stop stop-color="#C22526" offset="59.2826225%"></stop>
            <stop stop-color="#E62021" offset="86.3987223%"></stop>
            <stop stop-color="#E52021" offset="100%"></stop>
        </linearGradient>
        <linearGradient x1="62.857325%" y1="14.0834797%" x2="87.3020412%" y2="85.6158742%" id="linearGradient-3">
            <stop stop-color="#C42526" offset="0%"></stop>
            <stop stop-color="#C22526" offset="59.2826225%"></stop>
            <stop stop-color="#E62021" offset="86.3987223%"></stop>
            <stop stop-color="#E52021" offset="100%"></stop>
        </linearGradient>
        <linearGradient x1="55.7110275%" y1="42.7849489%" x2="59.3039268%" y2="86.9847444%" id="linearGradient-4">
            <stop stop-color="#BE2627" offset="0%"></stop>
            <stop stop-color="#C62526" offset="40.6355574%"></stop>
            <stop stop-color="#C22526" offset="76.5677787%"></stop>
            <stop stop-color="#C22526" offset="100%"></stop>
        </linearGradient>
        <linearGradient x1="51.2322135%" y1="5.3843942%" x2="49.5351492%" y2="88.2248325%" id="linearGradient-5">
            <stop stop-color="#D02324" offset="0%"></stop>
            <stop stop-color="#D42324" offset="36.1818753%"></stop>
            <stop stop-color="#E72021" offset="75.5445293%"></stop>
            <stop stop-color="#E72021" offset="100%"></stop>
        </linearGradient>
        <linearGradient x1="50%" y1="0%" x2="50%" y2="100%" id="linearGradient-6">
            <stop stop-color="#6CC5FC" offset="0%"></stop>
            <stop stop-color="#3297DE" offset="100%"></stop>
        </linearGradient>
        <linearGradient x1="88.1980696%" y1="53.0618811%" x2="7.59701109%" y2="47.4061973%" id="linearGradient-7">
            <stop stop-color="#FFFFFF" offset="0%"></stop>
            <stop stop-color="#EDECEC" offset="74.4523689%"></stop>
            <stop stop-color="#FFFFFF" offset="99.9049831%"></stop>
        </linearGradient>
        <path d="M33.5833307,16.9033807 C34.2371468,16.9033807 34.8246103,16.8652397 35.3457211,16.7889578 C35.866832,16.7126759 36.3539574,16.5806495 36.8070972,16.3928786 C37.2602371,16.2051077 37.6777731,15.9557245 38.0597053,15.6447289 C38.5452123,15.239848 38.9433281,14.7806895 39.2540526,14.2672535 C39.5647771,13.7538174 39.7945837,13.1773021 39.9434725,12.5377075 C40.0923614,11.898113 40.1668058,11.1910382 40.1668058,10.4164833 C40.1668058,8.0693472 39.4255984,6.32073081 37.9431836,5.17063413 C37.3735221,4.71881043 36.7391262,4.41074882 36.0399961,4.24644929 C35.340866,4.08214976 34.5025573,4 33.5250698,4 L33.5250698,4 L29.7672455,4 C29.1457966,4 28.6958934,4.12615857 28.417536,4.3784757 C28.1391787,4.63079283 28,5.03860772 28,5.60192038 L28,5.60192038 L28,15.0638128 C28,15.4804294 28.0404589,15.8192972 28.1213768,16.0804161 C28.2022946,16.341535 28.3754588,16.5439755 28.6408693,16.6877375 C28.9062798,16.8314996 29.3011588,16.9033807 29.8255064,16.9033807 L29.8255064,16.9033807 L33.5833307,16.9033807 Z M33.0686932,14.8261652 L30.8839117,14.8261652 L30.8839117,6.06841368 L32.7870992,6.06841368 C33.6674852,6.06841368 34.4184027,6.15496433 35.0398517,6.32806561 C35.6613007,6.5011669 36.1840299,6.90458092 36.6080394,7.53830766 C37.0320488,8.17203441 37.2440535,9.12555845 37.2440535,10.3988798 C37.2440535,12.2061746 36.7617832,13.4794959 35.7972426,14.2188438 C35.5836196,14.3890111 35.3311559,14.5210375 35.0398517,14.614923 C34.7485475,14.7088084 34.4669534,14.7674868 34.1950695,14.7909582 C33.9231856,14.8144296 33.5477268,14.8261652 33.0686932,14.8261652 L33.0686932,14.8261652 Z M46.2718358,17.0834167 C46.8809264,17.0834167 47.4198392,17.0114023 47.8885741,16.8673735 C48.3573091,16.7233447 48.7465974,16.5421084 49.0564392,16.3236647 C49.3662809,16.105221 49.5980002,15.8771754 49.751597,15.6395279 C49.9051937,15.4018804 49.9819921,15.1942388 49.9819921,15.0166033 C49.9819921,14.814963 49.9131384,14.6589318 49.7754309,14.5485097 C49.6377235,14.4380876 49.4576445,14.3828766 49.235194,14.3828766 C49.0286329,14.3828766 48.8697397,14.4260852 48.7585144,14.5125025 C48.488396,14.7429486 48.2685937,14.9253851 48.0991076,15.059812 C47.9296215,15.1942388 47.7442461,15.3202641 47.5429814,15.4378876 C47.3417167,15.5555111 47.1338314,15.6419284 46.9193256,15.6971394 C46.7048198,15.7523505 46.4678041,15.779956 46.2082785,15.779956 C45.8216384,15.779956 45.468101,15.6935387 45.1476664,15.5207041 C44.8272317,15.3478696 44.5703544,15.0910182 44.3770343,14.75015 C44.1837142,14.4092819 44.084406,14.0156031 44.0791096,13.5691138 L44.0791096,13.5691138 L48.3215581,13.5691138 C48.8882772,13.5691138 49.3278817,13.4958992 49.6403717,13.3494699 C49.9528617,13.2030406 50.1091067,12.8825765 50.1091067,12.3880776 C50.1091067,11.855171 49.9581581,11.3318664 49.656261,10.8181636 C49.3543639,10.3044609 48.9001942,9.88557712 48.2937518,9.5615123 C47.6873094,9.23744749 46.960373,9.07541508 46.1129426,9.07541508 C45.4614804,9.07541508 44.8682791,9.17023405 44.3333387,9.35987197 C43.7983982,9.5495099 43.3482008,9.82196439 42.9827464,10.1772354 C42.6172921,10.5325065 42.339229,10.9585917 42.1485571,11.4554911 C41.9578853,11.9523905 41.8625494,12.4912983 41.8625494,13.0722144 C41.8625494,14.3060612 42.2491895,15.2830566 43.0224697,16.0032006 C43.79575,16.7233447 44.878872,17.0834167 46.2718358,17.0834167 Z M48.0117164,12.4528906 L44.0791096,12.4528906 C44.1532597,11.7903581 44.3637932,11.289858 44.71071,10.9513903 C45.0576269,10.6129226 45.5012037,10.4436887 46.0414406,10.4436887 C46.6081597,10.4436887 47.0649777,10.6105221 47.4118945,10.9441888 C47.7588114,11.2778556 47.958752,11.7807562 48.0117164,12.4528906 L48.0117164,12.4528906 Z M55.1142426,17.0834167 C55.9298944,17.0834167 56.6224039,16.9837968 57.1917713,16.7845569 C57.7611386,16.5853171 58.1914743,16.2924585 58.4827785,15.9059812 C58.7740828,15.5195039 58.9197349,15.055011 58.9197349,14.5125025 C58.9197349,14.1524305 58.8098337,13.8319664 58.5900315,13.5511102 C58.3702292,13.2702541 58.0471463,13.0266053 57.6207829,12.820164 C57.1944195,12.6137227 56.6449138,12.4360872 55.9722659,12.2872575 C55.4055468,12.1624325 54.9606458,12.0568114 54.637563,11.9703941 C54.3144801,11.8839768 54.0576028,11.774755 53.866931,11.6427285 C53.6762591,11.5107021 53.5809232,11.3414683 53.5809232,11.135027 C53.5809232,10.9093819 53.710686,10.7209442 53.9702115,10.5697139 C54.2297371,10.4184837 54.5554682,10.3428686 54.9474047,10.3428686 C55.3287484,10.3428686 55.6306455,10.4004801 55.853096,10.5157031 C56.0755465,10.6309262 56.2688666,10.7845569 56.4330562,10.9765953 C56.6343209,11.2070414 56.8130758,11.379876 56.9693208,11.495099 C57.1255658,11.6103221 57.3149135,11.6679336 57.537364,11.6679336 C57.8445575,11.6679336 58.0815732,11.5959192 58.2484111,11.4518904 C58.4152489,11.3078616 58.4986679,11.1230246 58.4986679,10.8973795 C58.4986679,10.6909382 58.4205454,10.4796959 58.2643004,10.2636527 C58.1080554,10.0476095 57.8803085,9.85077015 57.5810596,9.67313463 C57.2818107,9.4954991 56.9084117,9.35387077 56.4608625,9.24824965 C56.0133133,9.14262853 55.5088274,9.08981796 54.9474047,9.08981796 C54.2323853,9.08981796 53.6219706,9.19423885 53.1161606,9.40308062 C52.6103505,9.61192238 52.2276827,9.89157832 51.9681572,10.2420484 C51.7086316,10.5925185 51.5788688,10.9645929 51.5788688,11.3582717 C51.5788688,11.79996 51.7192245,12.1720344 51.9999358,12.4744949 C52.2806471,12.7769554 52.6553703,13.0206041 53.1241052,13.2054411 C53.5928402,13.3902781 54.2006067,13.5667133 54.9474047,13.7347469 C55.6094598,13.8787758 56.0848153,14.030006 56.3734713,14.1884377 C56.6621272,14.3468694 56.8064552,14.5989198 56.8064552,14.9445889 C56.8064552,15.170234 56.6674237,15.3706741 56.3893606,15.5459092 C56.1112975,15.7211442 55.7551119,15.8087618 55.3208038,15.8087618 C54.7858633,15.8087618 54.3634722,15.7223445 54.0536305,15.5495099 C53.7437887,15.3766753 53.4776426,15.115023 53.2551921,14.7645529 C53.1439669,14.5821164 53.0274452,14.4404881 52.9056271,14.3396679 C52.7838089,14.2388478 52.6090264,14.1884377 52.3812795,14.1884377 C52.1217539,14.1884377 51.9072481,14.2652531 51.737762,14.4188838 C51.5682759,14.5725145 51.4835329,14.7573515 51.4835329,14.9733947 C51.4835329,15.29986 51.6159439,15.625125 51.8807659,15.9491898 C52.1455879,16.2732547 52.556062,16.5433087 53.1121882,16.7593519 C53.6683144,16.9753951 54.3356659,17.0834167 55.1142426,17.0834167 Z M62.8513145,8.17523505 C63.1426187,8.17523505 63.3941996,8.090018 63.6060572,7.91958392 C63.8179148,7.74914983 63.9238436,7.51270254 63.9238436,7.21024205 C63.9238436,6.89817964 63.8152666,6.66053211 63.5981125,6.49729946 C63.3809585,6.33406681 63.1320258,6.25245049 62.8513145,6.25245049 C62.5600103,6.25245049 62.304457,6.34246849 62.0846548,6.5225045 C61.8648525,6.70254051 61.7549514,6.93178636 61.7549514,7.21024205 C61.7549514,7.5175035 61.8622043,7.75515103 62.0767101,7.92318464 C62.2912159,8.09121824 62.5494174,8.17523505 62.8513145,8.17523505 Z M62.8274805,17.0834167 C63.1452669,17.0834167 63.4074407,16.9825965 63.6140019,16.7809562 C63.820563,16.5793159 63.9238436,16.2816563 63.9238436,15.8879776 L63.9238436,15.8879776 L63.9238436,10.2060412 C63.9238436,9.85557111 63.820563,9.58191638 63.6140019,9.38507702 C63.4074407,9.18823765 63.1452669,9.08981796 62.8274805,9.08981796 C62.5096941,9.08981796 62.2514926,9.18823765 62.0528761,9.38507702 C61.8542596,9.58191638 61.7549514,9.87477495 61.7549514,10.2636527 L61.7549514,10.2636527 L61.7549514,15.8879776 C61.7549514,16.2720544 61.8542596,16.5673135 62.0528761,16.7737548 C62.2514926,16.980196 62.5096941,17.0834167 62.8274805,17.0834167 Z M69.7949475,20 C70.6105993,20 71.292516,19.9255851 71.8406975,19.7767554 C72.3888791,19.6279256 72.8324559,19.39988 73.1714281,19.0926185 C73.5104003,18.7853571 73.7566847,18.3964793 73.9102815,17.9259852 C74.0638783,17.4554911 74.1406767,16.8937788 74.1406767,16.2408482 L74.1406767,16.2408482 L74.1406767,10.530106 C74.1406767,10.0644129 74.0718229,9.70794159 73.9341155,9.46069214 C73.7964081,9.21344269 73.5183449,9.08981796 73.0999262,9.08981796 C72.808622,9.08981796 72.5702822,9.18343669 72.3849068,9.37067413 C72.1995313,9.55791158 72.1068436,9.82196439 72.1068436,10.1628326 L72.1068436,10.1628326 L72.1068436,10.4292859 C71.7202035,9.97319464 71.3017847,9.63832767 70.8515873,9.42468494 C70.4013899,9.21104221 69.8690977,9.10422084 69.2547106,9.10422084 C68.7409559,9.10422084 68.2695728,9.18703741 67.8405611,9.35267053 C67.4115494,9.51830366 67.032854,9.76435287 66.7044747,10.0908182 C66.3760954,10.4172835 66.1231904,10.8181636 65.9457596,11.2934587 C65.7683289,11.7687538 65.6796135,12.3016603 65.6796135,12.8921784 C65.6796135,13.6843369 65.8252656,14.3828766 66.1165698,14.9877976 C66.407874,15.5927185 66.8249687,16.0632126 67.3678538,16.3992799 C67.9107389,16.7353471 68.5449876,16.9033807 69.2705999,16.9033807 C69.8743941,16.9033807 70.3947694,16.7929586 70.8317257,16.5721144 C71.268682,16.3512703 71.653998,16.0296059 71.9876737,15.6071214 C71.9770809,16.2504501 71.9611915,16.7173435 71.9400058,17.0078016 C71.91882,17.2982597 71.845994,17.5707141 71.7215276,17.825165 C71.5970613,18.0796159 71.3799072,18.2776555 71.0700655,18.4192839 C70.7602237,18.5609122 70.3245915,18.6317263 69.7631689,18.6317263 C69.487754,18.6317263 69.2441177,18.6089218 69.0322601,18.5633127 C68.8204025,18.5177035 68.6389995,18.4480896 68.4880509,18.3544709 C68.3371024,18.2608522 68.1993949,18.1480296 68.0749286,18.0160032 C67.9504622,17.8839768 67.8299682,17.7531506 67.7134465,17.6235247 C67.4751067,17.3690738 67.1970436,17.2418484 66.8792572,17.2418484 C66.6250281,17.2418484 66.407874,17.3174635 66.2277951,17.4686937 C66.0477161,17.619924 65.9576766,17.8155631 65.9576766,18.0556111 C65.9576766,18.3724745 66.1165698,18.6809362 66.4343562,18.9809962 C66.7521427,19.2810562 67.2049883,19.5259052 67.7928931,19.7155431 C68.380798,19.905181 69.0481495,20 69.7949475,20 Z M69.9220621,15.4414883 C69.3129715,15.4414883 68.8164302,15.2374475 68.4324383,14.8293659 C68.0484464,14.4212843 67.8564504,13.8187638 67.8564504,13.0218044 C67.8564504,12.2344469 68.0431499,11.6271254 68.416549,11.19984 C68.789948,10.7725545 69.2864893,10.5589118 69.9061728,10.5589118 C70.5417456,10.5589118 71.0541762,10.7821564 71.4434645,11.2286457 C71.8327529,11.675135 72.027397,12.2992599 72.027397,13.1010202 C72.027397,13.605121 71.9267647,14.0336067 71.7255,14.3864773 C71.5242352,14.7393479 71.2633855,15.0034007 70.9429509,15.1786357 C70.6225163,15.3538708 70.28222,15.4414883 69.9220621,15.4414883 Z M82.9274709,17.0834167 C83.2452573,17.0834167 83.5034587,16.9825965 83.7020752,16.7809562 C83.9006917,16.5793159 84,16.2816563 84,15.8879776 L84,15.8879776 L84,12.2296459 C84,11.7975595 83.9788142,11.4422885 83.9364427,11.1638328 C83.8940712,10.8853771 83.8013835,10.6261252 83.6583796,10.3860772 C83.4359291,9.97319464 83.0996052,9.65393079 82.6494078,9.42828566 C82.1992103,9.20264053 81.6881039,9.08981796 81.1160883,9.08981796 C80.5281835,9.08981796 80.0078082,9.19663933 79.5549626,9.41028206 C79.102117,9.62392478 78.6850223,9.95879176 78.3036786,10.414883 L78.3036786,10.414883 L78.3036786,10.1772354 C78.3036786,9.9419884 78.2573348,9.74274855 78.1646471,9.5795159 C78.0719594,9.41628326 77.9488171,9.29385877 77.7952204,9.21224245 C77.6416236,9.13062613 77.4694893,9.08981796 77.2788174,9.08981796 C76.9663275,9.08981796 76.720043,9.18223645 76.539964,9.36707341 C76.3598851,9.55191038 76.2698456,9.83156631 76.2698456,10.2060412 L76.2698456,10.2060412 L76.2698456,15.8879776 C76.2698456,16.2720544 76.370478,16.5673135 76.5717427,16.7737548 C76.7730074,16.980196 77.0298848,17.0834167 77.3423747,17.0834167 C77.6654576,17.0834167 77.9289555,16.9837968 78.1328684,16.7845569 C78.3367814,16.5853171 78.4387378,16.2864573 78.4387378,15.8879776 L78.4387378,15.8879776 L78.4387378,13.425085 C78.4387378,12.6233247 78.4917022,12.0760152 78.597631,11.7831566 C78.7459314,11.4182837 78.9789747,11.1314263 79.2967611,10.9225845 C79.6145476,10.7137427 79.9667608,10.6093219 80.353401,10.6093219 C80.9466023,10.6093219 81.3425112,10.7809562 81.5411277,11.1242248 C81.7397442,11.4674935 81.8390524,11.9631926 81.8390524,12.6113223 L81.8390524,12.6113223 L81.8390524,15.8879776 C81.8390524,16.2720544 81.9396848,16.5673135 82.1409495,16.7737548 C82.3422142,16.980196 82.604388,17.0834167 82.9274709,17.0834167 Z" id="path-8"></path>
    </defs>
    <g id="-图" stroke="none" stroke-width="1" fill="none" fill-rule="evenodd">
        <g id="toplogo">
            <g id="logo">
                <rect id="矩形" stroke="#B22728" fill="url(#linearGradient-1)" x="9.81462786" y="1.63696809" width="1.07459818" height="1"></rect>
                <rect id="矩形" stroke="#B22728" fill="url(#linearGradient-2)" x="7.74002968" y="2.84973404" width="1" height="1"></rect>
                <rect id="矩形" stroke="#B22728" fill="url(#linearGradient-3)" x="11.4743064" y="3.65824468" width="1.48951782" height="1.42553191"></rect>
                <path d="M23.7408958,0.865961531 L15.5833885,5.57500585 L15.5833885,8.67170664 L21.1454997,5.64423303 L21.1454997,17.4646001 L23.7408958,16.0959177 L23.7408958,0.865961531 Z" id="矩形" stroke="#B22728" fill="url(#linearGradient-4)"></path>
                <polygon id="矩形" fill="url(#linearGradient-5)" points="24.0070983 15.9950289 22.3157133 16.912795 24.0070983 7.79733388"></polygon>
                <path d="M8.9391588,4.30847196 L3.55163989,13.6399284 L4.96143498,15.8849722 L8.90838568,9.04865303 C9.07818632,9.34096321 9.2263096,9.59738961 9.34246003,9.80063781 C10.0108569,10.9702458 11.6590052,13.9460263 12.4433926,15.3645994 L13.6240443,13.319651 C13.1242924,12.3901193 11.5625271,9.38647061 8.9391588,4.30847196 Z" id="三角形" stroke="#23B3E9" fill="url(#linearGradient-6)" transform="translate(8.582834, 10.060007) rotate(-30.000000) translate(-8.582834, -10.060007) "></path>
                <g transform="translate(3.703704, 2.619048)" fill="#6FC5FC" id="三角形">
                    <path d="M2.75543245,1.68932409 C3.86425489,3.76467551 4.56210958,5.03649595 4.84899655,5.50478542 C4.84899655,5.50478542 2.19034626,4.9050845 0.967420849,4.78625103 L2.75543245,1.68932409 Z" transform="translate(2.908209, 3.597055) rotate(-30.000000) translate(-2.908209, -3.597055) "></path>
                </g>
            </g>
            <g id="Design" fill-rule="nonzero">
                <use fill="#FFFFFF" xlink:href="#path-8"></use>
                <use fill="url(#linearGradient-7)" xlink:href="#path-8"></use>
            </g>
        </g>
    </g>
</svg>