<?xml version="1.0" encoding="UTF-8"?>
<svg width="16px" height="16px" viewBox="0 0 16 16" version="1.1" xmlns="http://www.w3.org/2000/svg" xmlns:xlink="http://www.w3.org/1999/xlink">
    <title>Actor</title>
    <g id="九大图" stroke="none" stroke-width="1" fill="none" fill-rule="evenodd">
        <g transform="translate(-808.000000, -916.000000)" id="Actor">
            <g transform="translate(808.000000, 916.000000)">
                <rect id="矩形" fill="#000000" fill-rule="nonzero" opacity="0" x="0" y="0" width="16" height="16"></rect>
                <path d="M5.25572565,3.54326885 C5,4.5 5.08501663,5.55272003 5.79028582,6.26770457 C6.49555501,6.98268912 7.55622276,7.19657538 8.47770137,6.80962854 C9.39917998,6.4226817 10,5.5111043 10,4.49996346 C10,3.11927178 8.89593713,2 7.53400655,2 C6.5366053,2 5.51145129,2.5865377 5.25572565,3.54326885 Z" id="形状" stroke="#4B4B4B" fill="#FEF4C0"></path>
                <path d="M11,14.2597656 C11,14.6177368 11.0374409,14.6823565 10.7862549,14.8618691 C10.5350689,15.0413818 10.1236006,14.8618691 10.1236006,14.8618691 L8,12.6840243 C7.86868544,12.3942267 7.05245714,12.3942267 6.92114258,12.6840243 C5.64038086,14.1359209 5,14.8618691 5,14.8618691 C5,14.8618691 4.27990723,14.8618691 4.27990723,14.8618691 C4.27990723,14.8618691 4.05664062,14.5131836 4.05664062,14.0380859 C5.96630859,12.0651186 6.92114258,11.054253 6.92114258,11.0054893 C6.92114258,10.5311279 6.92114258,8.97729492 6.92114258,8.97729492 L3.03186035,8.97729492 C3.03186035,8.97729492 3.03186035,8 3.03186035,8 C3.03186035,8 4.32828776,8 6.92114258,8 L6.92114258,7 C7.52636719,7 7.57549172,7 8,7 C8.00691732,7.66666667 8.00691732,8 8,8 C8,8 9.34558105,8 12.0367432,8 C12.0367432,8 12.0367432,8.97729492 12.0367432,8.97729492 L8,8.97729492 C7.98962402,9.3503418 7.98962402,11.0054893 7.98962402,11.0054893 C7.98962402,11.0054893 8.99308268,12.0902481 11,14.2597656 Z" id="形状" fill="#4B4B4B" fill-rule="nonzero"></path>
            </g>
        </g>
    </g>
</svg>