<?xml version="1.0" encoding="UTF-8"?>
<svg width="16px" height="16px" viewBox="0 0 16 16" version="1.1" xmlns="http://www.w3.org/2000/svg" xmlns:xlink="http://www.w3.org/1999/xlink">
    <title>Actuator</title>
    <defs>
        <linearGradient x1="25.8319214%" y1="0%" x2="50%" y2="100%" id="linearGradient-1">
            <stop stop-color="#E3E6B7" offset="0%"></stop>
            <stop stop-color="#EEF0CC" offset="100%"></stop>
        </linearGradient>
    </defs>
    <g id="九大图" stroke="none" stroke-width="1" fill="none" fill-rule="evenodd">
        <g transform="translate(-808.000000, -1036.000000)" id="Actuator">
            <g transform="translate(808.000000, 1036.000000)">
                <g id="立方体">
                    <path d="M3.4291351,0.00267411803 L0,3.1330901 L0,15.9928617 L12.6025884,15.9928617 L15.9481534,12.6104854 L15.9481534,0.00267411803 L3.4291351,0.00267411803 Z M11.8028994,15.1878173 L0.565656566,15.1878173 L0.565656566,3.57360406 L12.2020202,3.57360406 L12.2020202,15.1878173 L11.8028994,15.1878173 Z M1.0870423,3.00507614 L3.66145833,0.645383883 L14.9480745,0.645383883 L12.3742898,3.00507614 L1.0870423,3.00507614 Z M12.7940341,14.9762849 L12.7940341,3.40244289 L15.4564394,1.01197652 L15.4564394,12.3531885 L12.7940341,14.9762849 Z" id="形状" fill="#515151" fill-rule="nonzero"></path>
                    <polygon id="矩形" fill="url(#linearGradient-1)" points="0.565656566 3.57360406 12.2020202 3.57360406 12.2020202 15.2690355 0.565656566 15.2690355"></polygon>
                    <polygon id="路径" fill="#FFFBE4" points="1.0870423 3.00507614 3.66145833 0.645383883 14.9480745 0.645383883 12.3742898 3.00507614"></polygon>
                    <polygon id="路径" fill="#D8DE9E" points="12.7940341 14.9762849 12.7940341 3.40244289 15.4564394 1.01197652 15.4564394 12.3531885"></polygon>
                </g>
                <g id="编组-2" transform="translate(1.000000, 4.000000)" fill-rule="nonzero">
                    <g id="船舵">
                        <path d="M5.18115942,10.8609077 L5.18115942,0.116194897 C5.18115942,-0.0381960201 6.2173913,-0.0381960201 6.2173913,0.116194897 L6.2173913,10.8609077 C6.2173913,11.0152986 5.18115942,11.0152986 5.18115942,10.8609077 Z" id="路径" fill="#4B4B4B"></path>
                        <path d="M1.76332806,2.50750921 C1.66401338,2.40844151 2.35737304,1.82147385 2.45668773,1.92054155 L9.39390265,8.88124608 C9.49321733,8.98031378 8.93983557,9.54500968 8.874977,9.54500968 C8.83173795,9.54500968 6.46118831,7.19917619 1.76332806,2.50750921 Z" id="路径" fill="#4B4B4B"></path>
                        <path d="M10.7278306,6.36347369 L0.272169438,6.36347369 C0.121931908,6.36347369 0,6.13185787 0,5.84647409 C0,5.56109031 0.121931908,5.32947449 0.272169438,5.32947449 L10.7278306,5.32947449 C10.8780681,5.32947449 11,5.56109031 11,5.84647409 C11,6.13185787 10.8780681,6.36347369 10.7278306,6.36347369 Z" id="路径" fill="#4B4B4B"></path>
                        <path d="M2.60160376,9.54500968 C2.53685875,9.54500968 1.90413066,8.94783461 2.00327146,8.84861878 L8.89562565,1.84173049 C8.99476644,1.74251466 9.68643415,2.29013815 9.54663526,2.42101685 C4.9597776,7.1703454 2.6447671,9.54500968 2.60160376,9.54500968 Z" id="路径-2" fill="#4B4B4B"></path>
                        <path d="M5.61956522,1.6707081 C3.57245695,1.6707081 1.91304348,3.34435088 1.91304348,5.40901289 C1.91304348,7.47367491 3.57245695,9.14731768 5.61956522,9.14731768 C7.66667349,9.14731768 9.32608696,7.47367491 9.32608696,5.40901289 C9.32608696,3.34435088 7.66667349,1.6707081 5.61956522,1.6707081 Z" id="形状" fill="#4B4B4B"></path>
                        <path d="M5.61956522,8.27239528 C7.18237098,8.27239528 8.44927536,7.0082206 8.44927536,5.44878209 C8.44927536,3.88934359 7.18237098,2.6251689 5.61956522,2.6251689 C4.05675946,2.6251689 2.78985507,3.88934359 2.78985507,5.44878209 C2.78985507,7.0082206 4.05675946,8.27239528 5.61956522,8.27239528 Z" id="路径" fill="#E5E8BB"></path>
                    </g>
                </g>
            </g>
        </g>
    </g>
</svg>