<?xml version="1.0" encoding="UTF-8"?>
<svg width="16px" height="16px" viewBox="0 0 16 16" version="1.1" xmlns="http://www.w3.org/2000/svg" xmlns:xlink="http://www.w3.org/1999/xlink">
    <title>Alternatives</title>
    <g id="九大图" stroke="none" stroke-width="1" fill="none" fill-rule="evenodd">
        <g transform="translate(-1607.000000, -182.000000)" id="Alternatives">
            <g transform="translate(1607.000000, 182.000000)">
                <rect id="矩形" fill="#000000" fill-rule="nonzero" opacity="0" x="0" y="0" width="16" height="16"></rect>
                <g id="Block"></g>
                <rect id="矩形" stroke="#515151" fill="#FFFFFF" x="1.5" y="2.5" width="13" height="12" rx="1"></rect>
                <path d="M9,2.5 L3,2.5 C2.58578644,2.5 2.21078644,2.66789322 1.93933983,2.93933983 C1.66789322,3.21078644 1.5,3.58578644 1.5,4 C1.5,4.41421356 1.66789322,4.78921356 1.93933983,5.06066017 C2.21078644,5.33210678 2.58578644,5.5 3,5.5 L9,5.5 C9.41421356,5.5 9.78921356,5.33210678 10.0606602,5.06066017 C10.3321068,4.78921356 10.5,4.41421356 10.5,4 C10.5,3.58578644 10.3321068,3.21078644 10.0606602,2.93933983 C9.78921356,2.66789322 9.41421356,2.5 9,2.5 Z" id="矩形" stroke="#515151" fill="#F7F7F7"></path>
                <path d="M3.79296875,13 L4.421875,11.265625 L6.81640625,11.265625 L7.484375,13 L8.34765625,13 L6.00390625,7.2734375 L5.1875,7.2734375 L2.98828125,13 L3.79296875,13 Z M6.58203125,10.6484375 L4.640625,10.6484375 L5.26953125,8.96875 C5.40234375,8.60677083 5.50520833,8.2421875 5.578125,7.875 C5.66666667,8.18489583 5.80208333,8.58072917 5.984375,9.0625 L5.984375,9.0625 L6.58203125,10.6484375 Z M9.55078125,13 L9.55078125,7.2734375 L8.84765625,7.2734375 L8.84765625,13 L9.55078125,13 Z M11.7460938,13.0546875 C11.9023438,13.0546875 12.0794271,13.0338542 12.2773438,12.9921875 L12.2773438,12.9921875 L12.1757812,12.3710938 C12.0481771,12.3893229 11.9453125,12.3984375 11.8671875,12.3984375 C11.7630208,12.3984375 11.6829427,12.3815104 11.6269531,12.3476562 C11.5709635,12.3138021 11.530599,12.2682292 11.5058594,12.2109375 C11.4811198,12.1536458 11.46875,12.0247396 11.46875,11.8242188 L11.46875,11.8242188 L11.46875,9.3984375 L12.1757812,9.3984375 L12.1757812,8.8515625 L11.46875,8.8515625 L11.46875,7.40234375 L10.7695312,7.82421875 L10.7695312,8.8515625 L10.2539062,8.8515625 L10.2539062,9.3984375 L10.7695312,9.3984375 L10.7695312,11.7851562 C10.7695312,12.2070312 10.7981771,12.483724 10.8554688,12.6152344 C10.9127604,12.7467448 11.0117188,12.8528646 11.1523438,12.9335938 C11.2929688,13.0143229 11.4908854,13.0546875 11.7460938,13.0546875 Z" id="Alt" fill="#515151" fill-rule="nonzero"></path>
            </g>
        </g>
    </g>
</svg>