<?xml version="1.0" encoding="UTF-8"?>
<svg width="16px" height="16px" viewBox="0 0 16 16" version="1.1" xmlns="http://www.w3.org/2000/svg" xmlns:xlink="http://www.w3.org/1999/xlink">
    <title>Event</title>
    <g id="九大图" stroke="none" stroke-width="1" fill="none" fill-rule="evenodd">
        <g transform="translate(-2008.000000, -476.000000)" id="Event">
            <g transform="translate(2008.000000, 476.000000)">
                <rect id="矩形" fill="#000000" fill-rule="nonzero" opacity="0" x="0" y="0" width="16" height="16"></rect>
                <rect id="矩形" stroke="#97958C" fill="#97958C" x="0.5" y="5.5" width="9" height="8" rx="1"></rect>
                <rect id="矩形" fill="#FFFFFF" x="0.5" y="5.5" width="9" height="8" rx="1"></rect>
                <path d="M12,4 C12.2271833,3.77296562 12.7728167,3.77296562 13,4 C13.1165248,4.11640334 13.1041881,4.43476495 13.1041881,4.58918487 C13.1041881,4.7436048 13.0428007,4.89169062 12.9335486,5.00082124 L6.70663951,11.2284576 L6.69936679,11.2357303 C6.59023617,11.3449824 6.44215035,11.4063698 6.28773042,11.4063698 C6.1333105,11.4063698 5.98522468,11.3449824 5.87609406,11.2357303 L3.17063951,8.53027579 C3.06138741,8.42114516 3,8.27305935 3,8.11863942 C3,8.0156928 3.16666667,7.80947966 3.5,7.5 C3.72709963,7.27344973 4.27290037,7.27344973 4.5,7.5 L6.5,9 L12,4 Z" id="路径" fill="#3F51B5"></path>
            </g>
        </g>
    </g>
</svg>