<?xml version="1.0" encoding="UTF-8"?>
<svg width="16px" height="16px" viewBox="0 0 16 16" version="1.1" xmlns="http://www.w3.org/2000/svg" xmlns:xlink="http://www.w3.org/1999/xlink">
    <title>Assertion</title>
    <g id="九大图" stroke="none" stroke-width="1" fill="none" fill-rule="evenodd">
        <g transform="translate(-1607.000000, -231.000000)" id="Assertion">
            <g transform="translate(1607.000000, 231.000000)">
                <rect id="矩形" fill="#000000" fill-rule="nonzero" opacity="0" x="0" y="0" width="16" height="16"></rect>
                <g id="Block"></g>
                <rect id="矩形" stroke="#515151" fill="#FFFFFF" x="1.5" y="2.5" width="13" height="12" rx="1"></rect>
                <path d="M9,2.5 L3,2.5 C2.58578644,2.5 2.21078644,2.66789322 1.93933983,2.93933983 C1.66789322,3.21078644 1.5,3.58578644 1.5,4 C1.5,4.41421356 1.66789322,4.78921356 1.93933983,5.06066017 C2.21078644,5.33210678 2.58578644,5.5 3,5.5 L9,5.5 C9.41421356,5.5 9.78921356,5.33210678 10.0606602,5.06066017 C10.3321068,4.78921356 10.5,4.41421356 10.5,4 C10.5,3.58578644 10.3321068,3.21078644 10.0606602,2.93933983 C9.78921356,2.66789322 9.41421356,2.5 9,2.5 Z" id="矩形" stroke="#515151" fill="#F7F7F7"></path>
                <path d="M2.79296875,13 L3.421875,11.265625 L5.81640625,11.265625 L6.484375,13 L7.34765625,13 L5.00390625,7.2734375 L4.1875,7.2734375 L1.98828125,13 L2.79296875,13 Z M5.58203125,10.6484375 L3.640625,10.6484375 L4.26953125,8.96875 C4.40234375,8.60677083 4.50520833,8.2421875 4.578125,7.875 C4.66666667,8.18489583 4.80208333,8.58072917 4.984375,9.0625 L4.984375,9.0625 L5.58203125,10.6484375 Z M9.35546875,13.09375 C9.68098958,13.09375 9.97265625,13.0371094 10.2304688,12.9238281 C10.4882812,12.8105469 10.6855469,12.6503906 10.8222656,12.4433594 C10.9589844,12.2363281 11.0273438,12.015625 11.0273438,11.78125 C11.0273438,11.5416667 10.9713542,11.3411458 10.859375,11.1796875 C10.7473958,11.0182292 10.593099,10.8951823 10.3964844,10.8105469 C10.1998698,10.7259115 9.85286458,10.6171875 9.35546875,10.484375 C9.01171875,10.390625 8.8046875,10.3307292 8.734375,10.3046875 C8.61197917,10.2552083 8.52213542,10.1927083 8.46484375,10.1171875 C8.40755208,10.0442708 8.37890625,9.96223958 8.37890625,9.87109375 C8.37890625,9.72786458 8.44791667,9.60286458 8.5859375,9.49609375 C8.72395833,9.38932292 8.95442708,9.3359375 9.27734375,9.3359375 C9.55078125,9.3359375 9.76236979,9.39583333 9.91210938,9.515625 C10.061849,9.63541667 10.1523438,9.80208333 10.1835938,10.015625 L10.1835938,10.015625 L10.8710938,9.921875 C10.8268229,9.65364583 10.7460938,9.43945312 10.6289062,9.27929688 C10.5117188,9.11914062 10.3300781,8.9921875 10.0839844,8.8984375 C9.83789062,8.8046875 9.55208333,8.7578125 9.2265625,8.7578125 C9.01041667,8.7578125 8.80794271,8.78580729 8.61914062,8.84179688 C8.43033854,8.89778646 8.28125,8.96614583 8.171875,9.046875 C8.02604167,9.15104167 7.91080729,9.28190104 7.82617188,9.43945312 C7.74153646,9.59700521 7.69921875,9.76822917 7.69921875,9.953125 C7.69921875,10.15625 7.75065104,10.3417969 7.85351562,10.5097656 C7.95638021,10.6777344 8.10742188,10.8092448 8.30664062,10.9042969 C8.50585938,10.999349 8.86328125,11.1119792 9.37890625,11.2421875 C9.76171875,11.3385417 10.0013021,11.4179688 10.0976562,11.4804688 C10.2356771,11.5716146 10.3046875,11.6966146 10.3046875,11.8554688 C10.3046875,12.0325521 10.2265625,12.186849 10.0703125,12.3183594 C9.9140625,12.4498698 9.67447917,12.515625 9.3515625,12.515625 C9.03125,12.515625 8.78190104,12.4414062 8.60351562,12.2929688 C8.42513021,12.1445312 8.31640625,11.9309896 8.27734375,11.6523438 L8.27734375,11.6523438 L7.58203125,11.7617188 C7.66015625,12.2018229 7.84049479,12.5338542 8.12304688,12.7578125 C8.40559896,12.9817708 8.81640625,13.09375 9.35546875,13.09375 Z M12.5585938,13 L12.5585938,10.828125 C12.5585938,10.53125 12.5976562,10.2578125 12.6757812,10.0078125 C12.7278646,9.84375 12.8151042,9.71549479 12.9375,9.62304688 C13.0598958,9.53059896 13.1979167,9.484375 13.3515625,9.484375 C13.5234375,9.484375 13.6953125,9.53515625 13.8671875,9.63671875 L13.8671875,9.63671875 L14.109375,8.984375 C13.8645833,8.83333333 13.6236979,8.7578125 13.3867188,8.7578125 C13.2226562,8.7578125 13.0722656,8.8046875 12.9355469,8.8984375 C12.7988281,8.9921875 12.6497396,9.18619792 12.4882812,9.48046875 L12.4882812,9.48046875 L12.4882812,8.8515625 L11.8554688,8.8515625 L11.8554688,13 L12.5585938,13 Z" id="Asr" fill="#515151" fill-rule="nonzero"></path>
            </g>
        </g>
    </g>
</svg>