<?xml version="1.0" encoding="UTF-8"?>
<svg width="16px" height="16px" viewBox="0 0 16 16" version="1.1" xmlns="http://www.w3.org/2000/svg" xmlns:xlink="http://www.w3.org/1999/xlink">
    <title>BoundarySystem</title>
    <defs>
        <linearGradient x1="25.8319214%" y1="0%" x2="50%" y2="100%" id="linearGradient-1">
            <stop stop-color="#E3E6B7" offset="0%"></stop>
            <stop stop-color="#EEF0CC" offset="100%"></stop>
        </linearGradient>
    </defs>
    <g id="九大图" stroke="none" stroke-width="1" fill="none" fill-rule="evenodd">
        <g transform="translate(-807.000000, -1158.000000)" id="BoundarySystem">
            <g transform="translate(807.000000, 1158.000000)">
                <g id="立方体">
                    <path d="M3.4291351,0.00267411803 L-2.37027009e-14,3.1330901 L-2.37027009e-14,15.9928617 L12.6025884,15.9928617 L15.9481534,12.6104854 L15.9481534,0.00267411803 L3.4291351,0.00267411803 Z M11.8028994,15.1878173 L0.565656566,15.1878173 L0.565656566,3.57360406 L12.2020202,3.57360406 L12.2020202,15.1878173 L11.8028994,15.1878173 Z M1.0870423,3.00507614 L3.66145833,0.645383883 L14.9480745,0.645383883 L12.3742898,3.00507614 L1.0870423,3.00507614 Z M12.7940341,14.9762849 L12.7940341,3.40244289 L15.4564394,1.01197652 L15.4564394,12.3531885 L12.7940341,14.9762849 Z" id="形状" fill="#515151" fill-rule="nonzero"></path>
                    <polygon id="矩形" fill="url(#linearGradient-1)" points="0.565656566 3.57360406 12.2020202 3.57360406 12.2020202 15.2690355 0.565656566 15.2690355"></polygon>
                    <polygon id="路径" fill="#FFFBE4" points="1.0870423 3.00507614 3.66145833 0.645383883 14.9480745 0.645383883 12.3742898 3.00507614"></polygon>
                    <polygon id="路径" fill="#D8DE9E" points="12.7940341 14.9762849 12.7940341 3.40244289 15.4564394 1.01197652 15.4564394 12.3531885"></polygon>
                </g>
                <g id="编组-4" transform="translate(2.000000, 5.000000)" fill="#4B4B4B" fill-rule="nonzero">
                    <path d="M5.51336008,0.881796173 C3.58106841,0.881796173 2.01336008,2.44950451 2.01336008,4.38179617 C2.01336008,6.31408784 3.58106841,7.88179617 5.51336008,7.88179617 C7.44565174,7.88179617 9.01336008,6.31408784 9.01336008,4.38179617 C9.01336008,2.44950451 7.44747466,0.881796173 5.51336008,0.881796173 Z" id="路径" transform="translate(5.513360, 4.381796) rotate(90.000000) translate(-5.513360, -4.381796) "></path>
                    <polygon id="路径" transform="translate(1.620625, 4.499042) rotate(-90.000000) translate(-1.620625, -4.499042) " points="5.11966712 2.90451087 5.11966712 3.86919837 2.39937362 3.86919837 2.39937362 6.09357337 1.2536499 6.09357337 1.2536499 3.86919837 -1.87841712 3.86919837 -1.87841712 2.90451087"></polygon>
                </g>
                <path d="M7.5,7 C8.16744731,7 8.79586261,7.25956284 9.26814988,7.73185012 C9.74043716,8.20413739 10,8.83255269 10,9.5 C10,10.1674473 9.74043716,10.7958626 9.26814988,11.2681499 C8.79586261,11.7404372 8.16744731,12 7.5,12 C6.83255269,12 6.20413739,11.7404372 5.73185012,11.2681499 C5.25956284,10.7958626 5,10.1674473 5,9.5 C5,8.83255269 5.25956284,8.20413739 5.73185012,7.73185012 C6.20413739,7.25956284 6.83255269,7 7.5,7" id="路径" fill="#E4E7BA" transform="translate(7.500000, 9.500000) rotate(90.000000) translate(-7.500000, -9.500000) "></path>
            </g>
        </g>
    </g>
</svg>