<?xml version="1.0" encoding="UTF-8"?>
<svg width="16px" height="16px" viewBox="0 0 16 16" version="1.1" xmlns="http://www.w3.org/2000/svg" xmlns:xlink="http://www.w3.org/1999/xlink">
    <title>BoundReference</title>
    <defs>
        <linearGradient x1="100%" y1="51.0324362%" x2="8.33129883%" y2="50.1008822%" id="linearGradient-1">
            <stop stop-color="#FEF9DB" offset="0%"></stop>
            <stop stop-color="#FEF4BD" offset="44.2039696%"></stop>
            <stop stop-color="#FEEF9E" offset="60.7131546%"></stop>
            <stop stop-color="#FCF0AC" offset="100%"></stop>
        </linearGradient>
    </defs>
    <g id="九大图" stroke="none" stroke-width="1" fill="none" fill-rule="evenodd">
        <g transform="translate(-87.000000, -1059.000000)" id="BoundReference">
            <g transform="translate(87.000000, 1059.000000)">
                <rect id="矩形" fill="#000000" fill-rule="nonzero" opacity="0" x="0" y="0" width="16" height="16"></rect>
                <rect id="矩形" stroke="#97958C" fill="#97958C" x="0.5" y="1.5" width="14" height="12" rx="1"></rect>
                <rect id="矩形" fill="url(#linearGradient-1)" x="1" y="2" width="13" height="11" rx="1"></rect>
                <path d="M5.42333984,10 C5.74235026,10 6.01180013,9.97208659 6.23168945,9.91625977 C6.45157878,9.86043294 6.6344401,9.77783203 6.78027344,9.66845703 C6.92610677,9.55908203 7.04858398,9.40356445 7.14770508,9.2019043 C7.24682617,9.00024414 7.29638672,8.7820638 7.29638672,8.54736328 C7.29638672,8.25569661 7.21492513,8.00276693 7.05200195,7.78857422 C6.88907878,7.57438151 6.65608724,7.42285156 6.35302734,7.33398438 C6.58772786,7.21777344 6.76318359,7.06510417 6.87939453,6.87597656 C6.99560547,6.68684896 7.05371094,6.4851888 7.05371094,6.27099609 C7.05371094,6.04085286 6.98819987,5.82039388 6.85717773,5.60961914 C6.7261556,5.3988444 6.54500326,5.24275716 6.3137207,5.14135742 C6.08243815,5.03995768 5.77539062,4.98925781 5.39257812,4.98925781 L5.39257812,4.98925781 L3.51269531,4.98925781 L3.51269531,10 L5.42333984,10 Z M5.25927734,7.09472656 L4.17578125,7.09472656 L4.17578125,5.58056641 L5.17724609,5.58056641 C5.53727214,5.58056641 5.79134115,5.60392253 5.93945312,5.65063477 C6.0875651,5.69734701 6.2014974,5.78393555 6.28125,5.91040039 C6.3610026,6.03686523 6.40087891,6.18326823 6.40087891,6.34960938 C6.40087891,6.5250651 6.3581543,6.67089844 6.27270508,6.78710938 C6.18725586,6.90332031 6.06022135,6.98649089 5.89160156,7.03662109 C5.7639974,7.07535807 5.55322266,7.09472656 5.25927734,7.09472656 L5.25927734,7.09472656 Z M5.42333984,9.40869141 L4.17578125,9.40869141 L4.17578125,7.68603516 L5.33447266,7.68603516 C5.65348307,7.68603516 5.89786784,7.71394857 6.06762695,7.76977539 C6.23738607,7.82560221 6.37011719,7.92244466 6.46582031,8.06030273 C6.56152344,8.19816081 6.609375,8.36051432 6.609375,8.54736328 C6.609375,8.70686849 6.57633464,8.84757487 6.51025391,8.96948242 C6.44417318,9.09138997 6.35986328,9.18424479 6.25732422,9.24804688 C6.15478516,9.31184896 6.02718099,9.35742188 5.87451172,9.38476562 C5.78792318,9.40071615 5.63753255,9.40869141 5.42333984,9.40869141 L5.42333984,9.40869141 Z M8.88232422,10 L8.88232422,7.77490234 L9.65136719,7.77490234 C9.82226562,7.77490234 9.9453125,7.7828776 10.0205078,7.79882812 C10.1230469,7.82389323 10.223877,7.86832682 10.322998,7.93212891 C10.4221191,7.99593099 10.5343424,8.10758464 10.659668,8.26708984 C10.7849935,8.42659505 10.9444987,8.65673828 11.1381836,8.95751953 L11.1381836,8.95751953 L11.8012695,10 L12.6352539,10 L11.7636719,8.63623047 C11.5904948,8.36962891 11.4070638,8.14746094 11.2133789,7.96972656 C11.1222331,7.88769531 10.9889323,7.80452474 10.8134766,7.72021484 C11.2942708,7.65413411 11.6497396,7.4991862 11.8798828,7.25537109 C12.110026,7.01155599 12.2250977,6.71191406 12.2250977,6.35644531 C12.2250977,6.08072917 12.155599,5.8289388 12.0166016,5.60107422 C11.8776042,5.37320964 11.6918945,5.21427409 11.4594727,5.12426758 C11.2270508,5.03426107 10.8875326,4.98925781 10.440918,4.98925781 L10.440918,4.98925781 L8.21923828,4.98925781 L8.21923828,10 L8.88232422,10 Z M10.3076172,7.20068359 L8.88232422,7.20068359 L8.88232422,5.54296875 L10.4682617,5.54296875 C10.839681,5.54296875 11.1114095,5.61930339 11.2834473,5.77197266 C11.455485,5.92464193 11.5415039,6.11946615 11.5415039,6.35644531 C11.5415039,6.51822917 11.4970703,6.66805013 11.4082031,6.8059082 C11.3193359,6.94376628 11.1894531,7.04402669 11.0185547,7.10668945 C10.8476562,7.16935221 10.6106771,7.20068359 10.3076172,7.20068359 L10.3076172,7.20068359 Z" id="BR" fill="#000000" fill-rule="nonzero"></path>
            </g>
        </g>
    </g>
</svg>