<?xml version="1.0" encoding="UTF-8"?>
<svg width="16px" height="16px" viewBox="0 0 16 16" version="1.1" xmlns="http://www.w3.org/2000/svg" xmlns:xlink="http://www.w3.org/1999/xlink">
    <title>Break</title>
    <g id="九大图" stroke="none" stroke-width="1" fill="none" fill-rule="evenodd">
        <g transform="translate(-1571.000000, -666.000000)" id="Break">
            <g transform="translate(1571.000000, 666.000000)">
                <rect id="矩形" fill="#000000" fill-rule="nonzero" opacity="0" x="0" y="0" width="16" height="16"></rect>
                <g id="Block"></g>
                <rect id="矩形" stroke="#515151" fill="#FFFFFF" x="1.5" y="2.5" width="13" height="12" rx="1"></rect>
                <path d="M9,2.5 L3,2.5 C2.58578644,2.5 2.21078644,2.66789322 1.93933983,2.93933983 C1.66789322,3.21078644 1.5,3.58578644 1.5,4 C1.5,4.41421356 1.66789322,4.78921356 1.93933983,5.06066017 C2.21078644,5.33210678 2.58578644,5.5 3,5.5 L9,5.5 C9.41421356,5.5 9.78921356,5.33210678 10.0606602,5.06066017 C10.3321068,4.78921356 10.5,4.41421356 10.5,4 C10.5,3.58578644 10.3321068,3.21078644 10.0606602,2.93933983 C9.78921356,2.66789322 9.41421356,2.5 9,2.5 Z" id="矩形" stroke="#515151" fill="#F7F7F7"></path>
                <path d="M4.91064453,13.0107422 C5.22965495,13.0107422 5.49910482,12.9828288 5.71899414,12.927002 C5.93888346,12.8711751 6.12174479,12.7885742 6.26757812,12.6791992 C6.41341146,12.5698242 6.53588867,12.4143066 6.63500977,12.2126465 C6.73413086,12.0109863 6.78369141,11.792806 6.78369141,11.5581055 C6.78369141,11.2664388 6.70222982,11.0135091 6.53930664,10.7993164 C6.37638346,10.5851237 6.14339193,10.4335938 5.84033203,10.3447266 C6.07503255,10.2285156 6.25048828,10.0758464 6.36669922,9.88671875 C6.48291016,9.69759115 6.54101562,9.49593099 6.54101562,9.28173828 C6.54101562,9.05159505 6.47550456,8.83113607 6.34448242,8.62036133 C6.21346029,8.40958659 6.03230794,8.25349935 5.80102539,8.15209961 C5.56974284,8.05069987 5.26269531,8 4.87988281,8 L4.87988281,8 L3,8 L3,13.0107422 L4.91064453,13.0107422 Z M4.74658203,10.1054688 L3.66308594,10.1054688 L3.66308594,8.59130859 L4.66455078,8.59130859 C5.02457682,8.59130859 5.27864583,8.61466471 5.42675781,8.66137695 C5.57486979,8.70808919 5.68880208,8.79467773 5.76855469,8.92114258 C5.84830729,9.04760742 5.88818359,9.19401042 5.88818359,9.36035156 C5.88818359,9.53580729 5.84545898,9.68164062 5.76000977,9.79785156 C5.67456055,9.9140625 5.54752604,9.99723307 5.37890625,10.0473633 C5.25130208,10.0861003 5.04052734,10.1054688 4.74658203,10.1054688 L4.74658203,10.1054688 Z M4.91064453,12.4194336 L3.66308594,12.4194336 L3.66308594,10.6967773 L4.82177734,10.6967773 C5.14078776,10.6967773 5.38517253,10.7246908 5.55493164,10.7805176 C5.72469076,10.8363444 5.85742188,10.9331868 5.953125,11.0710449 C6.04882812,11.208903 6.09667969,11.3712565 6.09667969,11.5581055 C6.09667969,11.7176107 6.06363932,11.8583171 5.99755859,11.9802246 C5.93147786,12.1021322 5.84716797,12.194987 5.74462891,12.2587891 C5.64208984,12.3225911 5.51448568,12.3681641 5.36181641,12.3955078 C5.27522786,12.4114583 5.12483724,12.4194336 4.91064453,12.4194336 L4.91064453,12.4194336 Z M8.22607422,13.0107422 L8.22607422,11.1103516 C8.22607422,10.8505859 8.26025391,10.6113281 8.32861328,10.3925781 C8.3741862,10.2490234 8.45052083,10.1368001 8.55761719,10.0559082 C8.66471354,9.97501628 8.78548177,9.93457031 8.91992188,9.93457031 C9.0703125,9.93457031 9.22070312,9.97900391 9.37109375,10.0678711 L9.37109375,10.0678711 L9.58300781,9.49707031 C9.3688151,9.36490885 9.15804036,9.29882812 8.95068359,9.29882812 C8.80712891,9.29882812 8.67553711,9.33984375 8.5559082,9.421875 C8.4362793,9.50390625 8.30582682,9.67366536 8.16455078,9.93115234 L8.16455078,9.93115234 L8.16455078,9.38085938 L7.61083984,9.38085938 L7.61083984,13.0107422 L8.22607422,13.0107422 Z M10.5673828,13.0107422 L10.5673828,11.5717773 L11.0014648,11.1547852 L12.2011719,13.0107422 L12.9599609,13.0107422 L11.4321289,10.7275391 L12.8198242,9.38085938 L12.0234375,9.38085938 L10.5673828,10.8574219 L10.5673828,8 L9.95214844,8 L9.95214844,13.0107422 L10.5673828,13.0107422 Z" id="Brk" fill="#515151" fill-rule="nonzero"></path>
            </g>
        </g>
    </g>
</svg>