<?xml version="1.0" encoding="UTF-8"?>
<svg width="16px" height="16px" viewBox="0 0 16 16" version="1.1" xmlns="http://www.w3.org/2000/svg" xmlns:xlink="http://www.w3.org/1999/xlink">
    <title>ClassifierBehaviorProperty</title>
    <defs>
        <linearGradient x1="100%" y1="51.0324362%" x2="8.33129883%" y2="50.1008822%" id="linearGradient-1">
            <stop stop-color="#FEF9DB" offset="0%"></stop>
            <stop stop-color="#FEF4BD" offset="44.2039696%"></stop>
            <stop stop-color="#FEEF9E" offset="60.7131546%"></stop>
            <stop stop-color="#FCF0AC" offset="100%"></stop>
        </linearGradient>
    </defs>
    <g id="九大图" stroke="none" stroke-width="1" fill="none" fill-rule="evenodd">
        <g transform="translate(-87.000000, -1084.000000)" id="ClassifierBehaviorProperty">
            <g transform="translate(87.000000, 1084.000000)">
                <rect id="矩形" fill="#000000" fill-rule="nonzero" opacity="0" x="0" y="0" width="16" height="16"></rect>
                <rect id="矩形" stroke="#97958C" fill="#97958C" x="0.5" y="1.5" width="14" height="12" rx="1"></rect>
                <rect id="矩形" fill="url(#linearGradient-1)" x="1" y="2" width="13" height="11" rx="1"></rect>
                <path d="M5.35498047,10.0854492 C5.87679036,10.0854492 6.31827799,9.94246419 6.67944336,9.65649414 C7.04060872,9.37052409 7.2906901,8.95524089 7.4296875,8.41064453 L7.4296875,8.41064453 L6.76660156,8.24316406 C6.67545573,8.66471354 6.50113932,8.98258464 6.24365234,9.19677734 C5.98616536,9.41097005 5.67171224,9.51806641 5.30029297,9.51806641 C4.99495443,9.51806641 4.71126302,9.43945312 4.44921875,9.28222656 C4.18717448,9.125 3.99405924,8.88745117 3.86987305,8.56958008 C3.74568685,8.25170898 3.68359375,7.87972005 3.68359375,7.45361328 C3.68359375,7.12320964 3.7360026,6.80249023 3.84082031,6.49145508 C3.94563802,6.18041992 4.12736003,5.93261719 4.38598633,5.74804688 C4.64461263,5.56347656 4.96647135,5.47119141 5.3515625,5.47119141 C5.68652344,5.47119141 5.96451823,5.55436198 6.18554688,5.72070312 C6.40657552,5.88704427 6.57519531,6.15250651 6.69140625,6.51708984 L6.69140625,6.51708984 L7.34423828,6.36328125 C7.20979818,5.90071615 6.97167969,5.54182943 6.62988281,5.28662109 C6.28808594,5.03141276 5.86653646,4.90380859 5.36523438,4.90380859 C4.92317708,4.90380859 4.51814779,5.00463867 4.15014648,5.20629883 C3.78214518,5.40795898 3.49845378,5.70304362 3.29907227,6.09155273 C3.09969076,6.48006185 3,6.93522135 3,7.45703125 C3,7.93554688 3.08829753,8.38330078 3.26489258,8.80029297 C3.44148763,9.21728516 3.69897461,9.53572591 4.03735352,9.75561523 C4.37573242,9.97550456 4.81494141,10.0854492 5.35498047,10.0854492 Z M10.1298828,10 C10.4488932,10 10.7183431,9.97208659 10.9382324,9.91625977 C11.1581217,9.86043294 11.3409831,9.77783203 11.4868164,9.66845703 C11.6326497,9.55908203 11.755127,9.40356445 11.854248,9.2019043 C11.9533691,9.00024414 12.0029297,8.7820638 12.0029297,8.54736328 C12.0029297,8.25569661 11.9214681,8.00276693 11.7585449,7.78857422 C11.5956217,7.57438151 11.3626302,7.42285156 11.0595703,7.33398438 C11.2942708,7.21777344 11.4697266,7.06510417 11.5859375,6.87597656 C11.7021484,6.68684896 11.7602539,6.4851888 11.7602539,6.27099609 C11.7602539,6.04085286 11.6947428,5.82039388 11.5637207,5.60961914 C11.4326986,5.3988444 11.2515462,5.24275716 11.0202637,5.14135742 C10.7889811,5.03995768 10.4819336,4.98925781 10.0991211,4.98925781 L10.0991211,4.98925781 L8.21923828,4.98925781 L8.21923828,10 L10.1298828,10 Z M9.96582031,7.09472656 L8.88232422,7.09472656 L8.88232422,5.58056641 L9.88378906,5.58056641 C10.2438151,5.58056641 10.4978841,5.60392253 10.6459961,5.65063477 C10.7941081,5.69734701 10.9080404,5.78393555 10.987793,5.91040039 C11.0675456,6.03686523 11.1074219,6.18326823 11.1074219,6.34960938 C11.1074219,6.5250651 11.0646973,6.67089844 10.979248,6.78710938 C10.8937988,6.90332031 10.7667643,6.98649089 10.5981445,7.03662109 C10.4705404,7.07535807 10.2597656,7.09472656 9.96582031,7.09472656 L9.96582031,7.09472656 Z M10.1298828,9.40869141 L8.88232422,9.40869141 L8.88232422,7.68603516 L10.0410156,7.68603516 C10.360026,7.68603516 10.6044108,7.71394857 10.7741699,7.76977539 C10.943929,7.82560221 11.0766602,7.92244466 11.1723633,8.06030273 C11.2680664,8.19816081 11.315918,8.36051432 11.315918,8.54736328 C11.315918,8.70686849 11.2828776,8.84757487 11.2167969,8.96948242 C11.1507161,9.09138997 11.0664062,9.18424479 10.9638672,9.24804688 C10.8613281,9.31184896 10.733724,9.35742188 10.5810547,9.38476562 C10.4944661,9.40071615 10.3440755,9.40869141 10.1298828,9.40869141 L10.1298828,9.40869141 Z" id="CB" fill="#000000" fill-rule="nonzero"></path>
            </g>
        </g>
    </g>
</svg>