<?xml version="1.0" encoding="UTF-8"?>
<svg width="16px" height="16px" viewBox="0 0 16 16" version="1.1" xmlns="http://www.w3.org/2000/svg" xmlns:xlink="http://www.w3.org/1999/xlink">
    <title>CompositeState</title>
    <defs>
        <linearGradient x1="100%" y1="50.7357131%" x2="8.33129883%" y2="50.0718886%" id="linearGradient-1">
            <stop stop-color="#FEF9DB" offset="0%"></stop>
            <stop stop-color="#FEF4BD" offset="44.2039696%"></stop>
            <stop stop-color="#FEEF9E" offset="60.7131546%"></stop>
            <stop stop-color="#FCF0AC" offset="100%"></stop>
        </linearGradient>
    </defs>
    <g id="九大图" stroke="none" stroke-width="1" fill="none" fill-rule="evenodd">
        <g transform="translate(-1180.000000, -108.000000)" id="CompositeState">
            <g transform="translate(1180.000000, 108.000000)">
                <rect id="矩形" fill="#000000" fill-rule="nonzero" opacity="0" x="0" y="0" width="16" height="16"></rect>
                <g id="Block"></g>
                <rect id="矩形" stroke="#97958C" fill="url(#linearGradient-1)" x="1.5" y="3.5" width="13" height="9" rx="4"></rect>
                <g id="jx"></g>
                <path d="M7.814116,9.00762939 L5.8021207,10.0657349 C5.71304312,10.1448105 5.77614939,10.8703289 5.8021207,10.9855555 C5.82809201,11.100782 6.61851623,11.0665994 6.70574619,10.9855555 L8.76763584,9.00762939 C8.83584476,8.94549518 8.76763584,8.60657967 8.76763584,8.51513672 C8.76763584,8.42369377 8.83584476,8.17022747 8.76763584,8.10809326 L6.50209977,6.01513672 C6.43721053,5.95599896 5.79857811,5.92822887 5.8021207,6.01513672 C5.80566329,6.10204457 5.73712743,6.87663024 5.8021207,6.93560791 L7.814116,8 L3.33339388,8 C3.21429044,7.99998017 3.10422569,8.23345814 3.04466815,8.33491035 C2.98511062,8.43636256 2.98511062,8.56136257 3.04466815,8.66281478 C3.10422569,8.764267 3.21429044,9.00764922 3.33339388,9.00762939 L7.814116,9.00762939 Z" id="路径" fill="#48432E" fill-rule="nonzero"></path>
                <path d="M10.1578844,6.66225096 C9.79801243,7.07721074 9.24737578,7.68749805 8.46827456,8.49286287 L10.2082486,10.2827395 L11.9480932,8.4929962 C11.3023657,7.83090958 10.8055025,7.32225157 10.1578844,6.66225096 Z" id="路径" stroke="#48432E" opacity="0.577055432"></path>
            </g>
        </g>
    </g>
</svg>