<?xml version="1.0" encoding="UTF-8"?>
<svg width="16px" height="16px" viewBox="0 0 16 16" version="1.1" xmlns="http://www.w3.org/2000/svg" xmlns:xlink="http://www.w3.org/1999/xlink">
    <title>ConstraintProperty</title>
    <defs>
        <linearGradient x1="100%" y1="51.0324362%" x2="8.33129883%" y2="50.1008822%" id="linearGradient-1">
            <stop stop-color="#FEF9DB" offset="0%"></stop>
            <stop stop-color="#FEF4BD" offset="44.2039696%"></stop>
            <stop stop-color="#FEEF9E" offset="60.7131546%"></stop>
            <stop stop-color="#FCF0AC" offset="100%"></stop>
        </linearGradient>
    </defs>
    <g id="九大图" stroke="none" stroke-width="1" fill="none" fill-rule="evenodd">
        <g transform="translate(-87.000000, -985.000000)" id="ConstraintProperty">
            <g transform="translate(87.000000, 985.000000)">
                <rect id="矩形" fill="#000000" fill-rule="nonzero" opacity="0" x="0" y="0" width="16" height="16"></rect>
                <rect id="矩形" stroke="#97958C" fill="#97958C" x="0.5" y="1.5" width="14" height="12" rx="1"></rect>
                <rect id="矩形" fill="url(#linearGradient-1)" x="1" y="2" width="13" height="11" rx="1"></rect>
                <path d="M9.47607422,11.1098633 C10.1469727,11.1098633 10.7145996,10.9260254 11.1789551,10.5583496 C11.6433105,10.1906738 11.9648438,9.65673828 12.1435547,8.95654297 L12.1435547,8.95654297 L11.2910156,8.74121094 C11.1738281,9.28320312 10.949707,9.69189453 10.6186523,9.96728516 C10.2875977,10.2426758 9.88330078,10.3803711 9.40576172,10.3803711 C9.01318359,10.3803711 8.6484375,10.2792969 8.31152344,10.0771484 C7.97460938,9.875 7.72631836,9.56958008 7.56665039,9.16088867 C7.40698242,8.75219727 7.32714844,8.27392578 7.32714844,7.72607422 C7.32714844,7.30126953 7.39453125,6.88891602 7.52929688,6.48901367 C7.6640625,6.08911133 7.89770508,5.77050781 8.23022461,5.53320312 C8.56274414,5.29589844 8.9765625,5.17724609 9.47167969,5.17724609 C9.90234375,5.17724609 10.2597656,5.28417969 10.5439453,5.49804688 C10.828125,5.71191406 11.0449219,6.05322266 11.1943359,6.52197266 L11.1943359,6.52197266 L12.0336914,6.32421875 C11.8608398,5.72949219 11.5546875,5.26806641 11.1152344,4.93994141 C10.6757812,4.61181641 10.1337891,4.44775391 9.48925781,4.44775391 C8.92089844,4.44775391 8.40014648,4.57739258 7.92700195,4.83666992 C7.45385742,5.09594727 7.08911133,5.4753418 6.83276367,5.97485352 C6.57641602,6.47436523 6.44824219,7.05957031 6.44824219,7.73046875 C6.44824219,8.34570312 6.56176758,8.92138672 6.78881836,9.45751953 C7.01586914,9.99365234 7.34692383,10.4030762 7.78198242,10.685791 C8.21704102,10.9685059 8.78173828,11.1098633 9.47607422,11.1098633 Z" id="C" fill="#000000" fill-rule="nonzero"></path>
            </g>
        </g>
    </g>
</svg>