<?xml version="1.0" encoding="UTF-8"?>
<svg width="16px" height="16px" viewBox="0 0 16 16" version="1.1" xmlns="http://www.w3.org/2000/svg" xmlns:xlink="http://www.w3.org/1999/xlink">
    <title>ConstraintBlock</title>
    <defs>
        <linearGradient x1="100%" y1="51.0324362%" x2="8.33129883%" y2="50.1008822%" id="linearGradient-1">
            <stop stop-color="#FEF9DB" offset="0%"></stop>
            <stop stop-color="#FEF4BD" offset="44.2039696%"></stop>
            <stop stop-color="#FEEF9E" offset="60.7131546%"></stop>
            <stop stop-color="#FCF0AC" offset="100%"></stop>
        </linearGradient>
    </defs>
    <g id="九大图" stroke="none" stroke-width="1" fill="none" fill-rule="evenodd">
        <g transform="translate(-86.000000, -158.000000)" id="ConstraintBlock">
            <g transform="translate(86.000000, 158.000000)">
                <rect id="矩形" fill="#000000" fill-rule="nonzero" opacity="0" x="0.512982767" y="0" width="15.0588235" height="16"></rect>
                <rect id="矩形" stroke="#97958C" fill="#97958C" x="0.5" y="1.5" width="14" height="12" rx="1"></rect>
                <rect id="矩形" fill="url(#linearGradient-1)" x="1" y="2" width="13" height="11" rx="1"></rect>
                <polygon id="矩形" fill="#979487" points="2 10.0269306 14 10.0269306 14 10.8961463 2 10.8961463"></polygon>
                <path d="M8.00390625,8.63085938 L8.00390625,7.92773438 C7.79296875,7.92773438 7.65576172,7.91455078 7.59228516,7.88818359 C7.52880859,7.86181641 7.48144531,7.82324219 7.45019531,7.77246094 C7.41894531,7.72167969 7.40332031,7.63183594 7.40332031,7.50292969 C7.40332031,7.41308594 7.39648438,7.20605469 7.3828125,6.88183594 C7.37109375,6.66894531 7.34570312,6.49902344 7.30664062,6.37207031 C7.26757812,6.24511719 7.21142578,6.13720703 7.13818359,6.04833984 C7.06494141,5.95947266 6.97070312,5.88183594 6.85546875,5.81542969 C6.98632812,5.73144531 7.08349609,5.65039062 7.14697266,5.57226562 C7.21044922,5.49414062 7.26269531,5.39501953 7.30371094,5.27490234 C7.34472656,5.15478516 7.37011719,4.99804688 7.37988281,4.8046875 C7.39746094,4.4609375 7.40625,4.22753906 7.40625,4.10449219 C7.40625,3.98339844 7.42089844,3.89794922 7.45019531,3.84814453 C7.47949219,3.79833984 7.52490234,3.76123047 7.58642578,3.73681641 C7.64794922,3.71240234 7.78710938,3.70019531 8.00390625,3.70019531 L8.00390625,3.70019531 L8.00390625,3 L7.84863281,3 C7.59277344,3 7.40527344,3.01757812 7.28613281,3.05273438 C7.11035156,3.10546875 6.9765625,3.17724609 6.88476562,3.26806641 C6.79296875,3.35888672 6.72949219,3.47900391 6.69433594,3.62841797 C6.65917969,3.77783203 6.64160156,4.04199219 6.64160156,4.42089844 C6.64160156,4.65332031 6.63378906,4.81640625 6.61816406,4.91015625 C6.59863281,5.03515625 6.5625,5.13916016 6.50976562,5.22216797 C6.45703125,5.30517578 6.39453125,5.36425781 6.32226562,5.39941406 C6.25,5.43457031 6.14257812,5.45605469 6,5.46386719 L6,5.46386719 L6,6.16699219 C6.1796875,6.17675781 6.31298828,6.21533203 6.39990234,6.28271484 C6.48681641,6.35009766 6.55175781,6.46191406 6.59472656,6.61816406 C6.62597656,6.72558594 6.64160156,6.95898438 6.64160156,7.31835938 C6.64160156,7.62695312 6.65820312,7.85302734 6.69140625,7.99658203 C6.72460938,8.14013672 6.78955078,8.26074219 6.88623047,8.35839844 C6.98291016,8.45605469 7.1015625,8.52587891 7.2421875,8.56787109 C7.3828125,8.60986328 7.58496094,8.63085938 7.84863281,8.63085938 L7.84863281,8.63085938 L8.00390625,8.63085938 Z M10.1132812,8.63085938 C10.3691406,8.63085938 10.5566406,8.61328125 10.6757812,8.578125 C10.8535156,8.52539062 10.9882812,8.45361328 11.0800781,8.36279297 C11.171875,8.27197266 11.2348633,8.15136719 11.269043,8.00097656 C11.3032227,7.85058594 11.3203125,7.5859375 11.3203125,7.20703125 C11.3203125,6.9765625 11.328125,6.81445312 11.34375,6.72070312 C11.3652344,6.59570312 11.4018555,6.49169922 11.4536133,6.40869141 C11.5053711,6.32568359 11.5673828,6.26660156 11.6396484,6.23144531 C11.7119141,6.19628906 11.8193359,6.17480469 11.9619141,6.16699219 L11.9619141,6.16699219 L11.9619141,5.46386719 C11.7822266,5.45410156 11.6484375,5.41552734 11.5605469,5.34814453 C11.4726562,5.28076172 11.4072266,5.16894531 11.3642578,5.01269531 C11.3349609,4.90332031 11.3203125,4.66992188 11.3203125,4.3125 C11.3203125,4.00390625 11.3032227,3.77783203 11.269043,3.63427734 C11.2348633,3.49072266 11.1699219,3.36962891 11.0742188,3.27099609 C10.9785156,3.17236328 10.8603516,3.10253906 10.7197266,3.06152344 C10.5791016,3.02050781 10.3769531,3 10.1132812,3 L10.1132812,3 L9.95800781,3 L9.95800781,3.70019531 C10.1787109,3.70019531 10.3208008,3.71337891 10.3842773,3.73974609 C10.4477539,3.76611328 10.4916992,3.80371094 10.5161133,3.85253906 C10.5405273,3.90136719 10.5537109,3.99902344 10.5556641,4.14550781 C10.5654297,4.61035156 10.5810547,4.91113281 10.6025391,5.04785156 C10.6357422,5.24707031 10.6982422,5.41113281 10.7900391,5.54003906 C10.8564453,5.62988281 10.9619141,5.72167969 11.1064453,5.81542969 C10.9951172,5.87988281 10.9038086,5.95458984 10.8325195,6.03955078 C10.7612305,6.12451172 10.7041016,6.22802734 10.6611328,6.35009766 C10.6181641,6.47216797 10.5917969,6.63476562 10.5820312,6.83789062 C10.5664062,7.17382812 10.5581055,7.40136719 10.5571289,7.52050781 C10.5561523,7.63964844 10.5405273,7.72412109 10.5102539,7.77392578 C10.4799805,7.82373047 10.4326172,7.86181641 10.3681641,7.88818359 C10.3037109,7.91455078 10.1669922,7.92773438 9.95800781,7.92773438 L9.95800781,7.92773438 L9.95800781,8.63085938 L10.1132812,8.63085938 Z" id="{}" fill="#000000" fill-rule="nonzero"></path>
            </g>
        </g>
    </g>
</svg>