<?xml version="1.0" encoding="UTF-8"?>
<svg width="16px" height="16px" viewBox="0 0 16 16" version="1.1" xmlns="http://www.w3.org/2000/svg" xmlns:xlink="http://www.w3.org/1999/xlink">
    <title>Consider</title>
    <g id="九大图" stroke="none" stroke-width="1" fill="none" fill-rule="evenodd">
        <g transform="translate(-1607.000000, -303.000000)" id="Consider">
            <g transform="translate(1607.000000, 303.000000)">
                <rect id="矩形" fill="#000000" fill-rule="nonzero" opacity="0" x="0" y="0" width="16" height="16"></rect>
                <g id="Block"></g>
                <rect id="矩形" stroke="#515151" fill="#FFFFFF" x="1.5" y="2.5" width="13" height="12" rx="1"></rect>
                <path d="M9,2.5 L3,2.5 C2.58578644,2.5 2.21078644,2.66789322 1.93933983,2.93933983 C1.66789322,3.21078644 1.5,3.58578644 1.5,4 C1.5,4.41421356 1.66789322,4.78921356 1.93933983,5.06066017 C2.21078644,5.33210678 2.58578644,5.5 3,5.5 L9,5.5 C9.41421356,5.5 9.78921356,5.33210678 10.0606602,5.06066017 C10.3321068,4.78921356 10.5,4.41421356 10.5,4 C10.5,3.58578644 10.3321068,3.21078644 10.0606602,2.93933983 C9.78921356,2.66789322 9.41421356,2.5 9,2.5 Z" id="矩形" stroke="#515151" fill="#F7F7F7"></path>
                <path d="M10.0898438,13.0976562 C10.6861979,13.0976562 11.1907552,12.9342448 11.6035156,12.6074219 C12.016276,12.280599 12.3020833,11.8059896 12.4609375,11.1835938 L12.4609375,11.1835938 L11.703125,10.9921875 C11.5989583,11.4739583 11.3997396,11.8372396 11.1054688,12.0820312 C10.8111979,12.3268229 10.4518229,12.4492188 10.0273438,12.4492188 C9.67838542,12.4492188 9.35416667,12.359375 9.0546875,12.1796875 C8.75520833,12 8.53450521,11.7285156 8.39257812,11.3652344 C8.25065104,11.0019531 8.1796875,10.5768229 8.1796875,10.0898438 C8.1796875,9.71223958 8.23958333,9.34570312 8.359375,8.99023438 C8.47916667,8.63476562 8.68684896,8.3515625 8.98242188,8.140625 C9.27799479,7.9296875 9.64583333,7.82421875 10.0859375,7.82421875 C10.46875,7.82421875 10.7864583,7.91927083 11.0390625,8.109375 C11.2916667,8.29947917 11.484375,8.60286458 11.6171875,9.01953125 L11.6171875,9.01953125 L12.3632812,8.84375 C12.2096354,8.31510417 11.9375,7.90494792 11.546875,7.61328125 C11.15625,7.32161458 10.6744792,7.17578125 10.1015625,7.17578125 C9.59635417,7.17578125 9.13346354,7.29101562 8.71289062,7.52148438 C8.29231771,7.75195312 7.96809896,8.08919271 7.74023438,8.53320312 C7.51236979,8.97721354 7.3984375,9.49739583 7.3984375,10.09375 C7.3984375,10.640625 7.49934896,11.1523438 7.70117188,11.6289062 C7.90299479,12.1054688 8.19726562,12.469401 8.58398438,12.7207031 C8.97070312,12.9720052 9.47265625,13.0976562 10.0898438,13.0976562 Z" id="C" fill="#515151" fill-rule="nonzero"></path>
            </g>
        </g>
    </g>
</svg>