<?xml version="1.0" encoding="UTF-8"?>
<svg width="17px" height="16px" viewBox="0 0 17 16" version="1.1" xmlns="http://www.w3.org/2000/svg" xmlns:xlink="http://www.w3.org/1999/xlink">
    <title>Constraint</title>
    <g id="九大图" stroke="none" stroke-width="1" fill="none" fill-rule="evenodd">
        <g transform="translate(-454.000000, -227.000000)" fill="#000000" fill-rule="nonzero" id="Constraint">
            <g transform="translate(454.686292, 227.000000)">
                <rect id="矩形" opacity="0" x="0" y="0" width="16" height="16"></rect>
                <path d="M6.41601562,13.3149414 L6.41601562,12.4716797 L6.24951172,12.4716797 C5.90934245,12.4716797 5.68107096,12.4233398 5.56469727,12.3266602 C5.44832357,12.2299805 5.3758138,12.0598958 5.34716797,11.8164062 C5.33284505,11.6839193 5.32568359,11.2685547 5.32568359,10.5703125 C5.32568359,9.80045573 5.23706055,9.24633789 5.05981445,8.90795898 C4.88256836,8.56958008 4.59700521,8.31803385 4.203125,8.15332031 C4.53613281,7.9921875 4.78051758,7.80777995 4.9362793,7.60009766 C5.09204102,7.39241536 5.20214844,7.09700521 5.26660156,6.71386719 C5.30598958,6.46679688 5.32568359,5.8741862 5.32568359,4.93603516 C5.32568359,4.47054036 5.38655599,4.1706543 5.50830078,4.03637695 C5.63004557,3.90209961 5.87711589,3.83496094 6.24951172,3.83496094 L6.24951172,3.83496094 L6.41601562,3.83496094 L6.41601562,2.99169922 L6.11523438,2.99169922 C5.80729167,2.99169922 5.58528646,3.00960286 5.44921875,3.04541016 C5.24869792,3.10270182 5.08398438,3.18595378 4.95507812,3.29516602 C4.82617188,3.40437826 4.71785482,3.55029297 4.63012695,3.73291016 C4.54239909,3.91552734 4.48242188,4.15722656 4.45019531,4.45800781 C4.43229167,4.64778646 4.42154948,5.04166667 4.41796875,5.63964844 C4.41438802,6.23763021 4.38395182,6.66015625 4.32666016,6.90722656 C4.26936849,7.15429688 4.15388997,7.34855143 3.98022461,7.48999023 C3.80655924,7.63142904 3.58186849,7.70572917 3.30615234,7.71289062 L3.30615234,7.71289062 L3.30615234,8.58837891 C3.58186849,8.59554036 3.80655924,8.67073568 3.98022461,8.81396484 C4.15388997,8.95719401 4.26936849,9.15234375 4.32666016,9.39941406 C4.38395182,9.64648438 4.41438802,10.0922852 4.41796875,10.7368164 C4.42154948,11.3813477 4.4457194,11.8450521 4.49047852,12.1279297 C4.53523763,12.4108073 4.6328125,12.6444499 4.78320312,12.8288574 C4.93359375,13.013265 5.1233724,13.1466471 5.35253906,13.2290039 C5.51009115,13.2862956 5.76432292,13.3149414 6.11523438,13.3149414 L6.11523438,13.3149414 L6.41601562,13.3149414 Z M10.2832031,13.3149414 C10.5911458,13.3149414 10.813151,13.2952474 10.9492188,13.2558594 C11.1497396,13.1985677 11.3144531,13.1153158 11.4433594,13.0061035 C11.5722656,12.8968913 11.6805827,12.7518717 11.7683105,12.5710449 C11.8560384,12.3902181 11.9160156,12.1476237 11.9482422,11.8432617 C11.9661458,11.6534831 11.976888,11.2596029 11.9804688,10.6616211 C11.9840495,10.0636393 12.0144857,9.64200846 12.0717773,9.39672852 C12.129069,9.15144857 12.2445475,8.95719401 12.4182129,8.81396484 C12.5918783,8.67073568 12.816569,8.59554036 13.0922852,8.58837891 L13.0922852,8.58837891 L13.0922852,7.71289062 C12.816569,7.70572917 12.5918783,7.63053385 12.4182129,7.48730469 C12.2445475,7.34407552 12.129069,7.14982096 12.0717773,6.90454102 C12.0144857,6.65926107 11.9840495,6.21435547 11.9804688,5.56982422 C11.976888,4.92529297 11.9527181,4.46158854 11.907959,4.17871094 C11.8631999,3.89583333 11.765625,3.66129557 11.6152344,3.47509766 C11.4648438,3.28889974 11.2750651,3.15641276 11.0458984,3.07763672 C10.8883464,3.02034505 10.6341146,2.99169922 10.2832031,2.99169922 L10.2832031,2.99169922 L9.98242188,2.99169922 L9.98242188,3.83496094 L10.1489258,3.83496094 C10.4890951,3.83496094 10.7173665,3.8824056 10.8337402,3.97729492 C10.9501139,4.07218424 11.0208333,4.23958333 11.0458984,4.47949219 C11.0638021,4.6155599 11.0727539,5.03271484 11.0727539,5.73095703 C11.0727539,6.5008138 11.156901,7.04777018 11.3251953,7.37182617 C11.4934896,7.69588216 11.7835286,7.95638021 12.1953125,8.15332031 C11.8802083,8.28580729 11.6367188,8.47111003 11.4648438,8.70922852 C11.2929688,8.94734701 11.1783854,9.26513672 11.1210938,9.66259766 C11.0888672,9.90250651 11.0727539,10.4700521 11.0727539,11.3652344 C11.0727539,11.8343099 11.0118815,12.1359863 10.8901367,12.2702637 C10.7683919,12.404541 10.5213216,12.4716797 10.1489258,12.4716797 L10.1489258,12.4716797 L9.98242188,12.4716797 L9.98242188,13.3149414 L10.2832031,13.3149414 Z" id="{}"></path>
            </g>
        </g>
    </g>
</svg>