<?xml version="1.0" encoding="UTF-8"?>
<svg width="16px" height="16px" viewBox="0 0 16 16" version="1.1" xmlns="http://www.w3.org/2000/svg" xmlns:xlink="http://www.w3.org/1999/xlink">
    <title>Containment</title>
    <g id="九大图" stroke="none" stroke-width="1" fill="none" fill-rule="evenodd">
        <g transform="translate(-450.000000, -359.000000)" fill="#000000" fill-rule="nonzero" id="Containment">
            <g transform="translate(458.000000, 367.000000) rotate(90.000000) translate(-458.000000, -367.000000) translate(450.000000, 359.000000)">
                <rect id="矩形" opacity="0" x="0" y="0" width="16" height="16"></rect>
                <path d="M14,15 L9.28169627,9.63047588 C9.4042447,9.53048107 9.52307136,9.42545962 9.63747641,9.31487351 C10.1558062,8.81388494 10.5628006,8.23037951 10.8471671,7.58054393 C11.141681,6.90751202 11.2909976,6.19283739 11.2909976,5.4563499 C11.2909976,4.71995465 11.141665,4.00532613 10.8471512,3.33235571 C10.5627847,2.68256626 10.1557903,2.09909156 9.63747641,1.59813374 C9.11916253,1.09717592 8.51547031,0.703806631 7.84314778,0.428970801 C7.14685633,0.144327631 6.40749403,-1.77635684e-15 5.64557832,-1.77635684e-15 C4.88364673,-1.77635684e-15 4.14423669,0.144327631 3.44791343,0.428970801 C2.77559092,0.703806646 2.17186689,1.0971759 1.653553,1.59813374 C1.13522321,2.0990762 0.728228792,2.68255089 0.443846431,3.33235571 C0.14933255,4.0053415 0,4.71995465 0,5.4563499 C0,6.19283739 0.14933255,6.90751202 0.443846431,7.58054393 C0.728212892,8.2303795 1.13520731,8.81390031 1.6535371,9.31487351 C2.17185099,9.81584672 2.77555912,10.2092314 3.44789753,10.4840826 C4.14422078,10.7687257 4.88361492,10.9130534 5.64556242,10.9130534 C6.40746221,10.9130534 7.14685633,10.7687104 7.84314778,10.4840672 C8.04396498,10.4019654 8.23849969,10.3090724 8.42664057,10.2061262 L13,16 C13,16 13.2078071,15.7921929 13.43396,15.56604 C13.7039102,15.2960898 14,15 14,15 Z M5.50008392,10 C3.01874051,10 1,7.9812317 1,5.49982456 C1,3.01861574 3.01872524,1 5.50008392,1 C7.98135105,1 10,3.01861574 10,5.49982456 C10,7.9812317 7.98135105,10 5.50008392,10 Z" id="形状"></path>
                <polygon id="路径" points="6 1 5 1 5.04208684 5.04166667 1 5 1 6 5.04208684 5.95833333 5 10 6 10 5.9588299 5.95833333 10 6 10 5 5.9588299 5.04166667"></polygon>
            </g>
        </g>
    </g>
</svg>