<?xml version="1.0" encoding="UTF-8"?>
<svg width="16px" height="16px" viewBox="0 0 16 16" version="1.1" xmlns="http://www.w3.org/2000/svg" xmlns:xlink="http://www.w3.org/1999/xlink">
    <title>ControlFlow</title>
    <defs>
        <linearGradient x1="8.49609375%" y1="43.5498047%" x2="95.023019%" y2="43.5498047%" id="linearGradient-1">
            <stop stop-color="#E6E6CA" offset="0%"></stop>
            <stop stop-color="#FEFEEF" offset="59.75654%"></stop>
            <stop stop-color="#FAFAE1" offset="100%"></stop>
        </linearGradient>
    </defs>
    <g id="九大图" stroke="none" stroke-width="1" fill="none" fill-rule="evenodd">
        <g transform="translate(-807.000000, -395.000000)" id="ControlFlow">
            <g transform="translate(807.000000, 395.000000)">
                <g id="编组-8" fill="#000000" fill-rule="nonzero" opacity="0">
                    <rect id="矩形" x="0" y="0" width="16" height="16"></rect>
                    <rect id="矩形备份" x="0" y="0" width="16" height="16"></rect>
                </g>
                <g id="编组-8备份" fill="#000000" fill-rule="nonzero" opacity="0">
                    <rect id="矩形" x="0" y="0" width="16" height="16"></rect>
                </g>
                <rect id="矩形" stroke="#97958C" fill="url(#linearGradient-1)" x="8.5" y="10.5" width="6" height="3" rx="1.5"></rect>
                <g id="编组-7" transform="translate(2.000000, 2.000000)" fill="#0283E2" fill-rule="nonzero">
                    <path d="M3.08483887,7 L7,7 L7,3.04064941 C7,3.04064941 8,3.04064941 8,3.04064941 L8,8 C7.99535771,8.07003502 7,8 7,8 L3.08483887,8 C3.09057017,7.91353585 3.08483887,7 3.08483887,7 Z" id="路径"></path>
                    <path d="M3.08483887,3.51782227 C3.07324681,3.64624183 4.1915286,4.9723957 4.23059082,4.97572021 C4.26965304,4.97902032 4.95941162,4.30706787 4.95941162,4.30706787 C4.95941162,4.30706787 3.74655005,2.92803277 3.62194824,3.04064941 C3.27160337,3.27315161 3.09256691,3.43220922 3.08483887,3.51782227 Z" id="路径"></path>
                    <path d="M-5.10702591e-15,0.591186523 C-5.10702591e-15,0.591186523 1.30285645,1.96630859 1.30285645,1.96630859 C1.30285645,1.96630859 2.08477306,1.4432373 2.08477306,1.4432373 C2.08477306,1.4432373 0.674194336,4.10782519e-15 0.674194336,4.10782519e-15 C0.674194336,4.10782519e-15 -5.10702591e-15,0.591186523 -5.10702591e-15,0.591186523 Z" id="路径"></path>
                    <path d="M6.06397358,6.31559449 C6.06397358,6.31559449 6.32677706,6.05480244 6.32677706,6.05480244 L7.01518061,6.67961365 C7.07898107,6.74125278 7.08148272,6.95541657 7.01518061,7.01093394 C6.9488785,7.06645131 6.73192811,7.07232552 6.66838388,7.01093394 L6.06397358,6.31559449 Z" id="路径"></path>
                </g>
            </g>
        </g>
    </g>
</svg>