<?xml version="1.0" encoding="UTF-8"?>
<svg width="16px" height="16px" viewBox="0 0 16 16" version="1.1" xmlns="http://www.w3.org/2000/svg" xmlns:xlink="http://www.w3.org/1999/xlink">
    <title>Copy</title>
    <g id="九大图" stroke="none" stroke-width="1" fill="none" fill-rule="evenodd">
        <g transform="translate(-1215.000000, -1013.000000)" id="Allocate">
            <g transform="translate(1214.000000, 1013.000000)">
                <g id="编组-26" transform="translate(0.146447, 0.000000)">
                    <g id="Allocate">
                        <rect id="矩形" fill="#000000" fill-rule="nonzero" opacity="0" x="0" y="0" width="16" height="16"></rect>
                        <g id="jx" transform="translate(1.000000, 1.000000)"></g>
                        <polygon id="路径" fill="#0283E2" points="9.85355339 1 14.8535534 1 14.8535534 2 9.85355339 2"></polygon>
                        <polygon id="路径" fill="#0283E2" points="13.8535534 1 14.8535534 1 14.8535534 6 13.8535534 6"></polygon>
                        <path d="M9.93258254,14.0003662 C10.4254043,14.0003662 10.8320866,13.8722879 11.1526295,13.6161314 C11.4731725,13.3599748 11.7023554,12.9680443 11.8401785,12.4403398 L11.8401785,12.4403398 L10.9411965,12.1402079 C10.8639321,12.4942097 10.7365502,12.7536644 10.5590508,12.918572 C10.3815515,13.0834797 10.1695964,13.1659335 9.92318551,13.1659335 C9.58906909,13.1659335 9.3175995,13.0362061 9.10877674,12.7767514 C8.89995398,12.5172967 8.7955426,12.0819405 8.7955426,11.4706828 C8.7955426,10.8946054 8.90152015,10.4779388 9.11347525,10.2206828 C9.32543036,9.9634269 9.60159846,9.83479893 9.94197956,9.83479893 C10.1883904,9.83479893 10.3977352,9.9073583 10.570014,10.052477 C10.7422928,10.1975958 10.8555791,10.3954849 10.9098731,10.6461446 L10.9098731,10.6461446 L11.8276491,10.4152739 C11.7232377,10.0282906 11.5666206,9.7314568 11.3577979,9.52477254 C11.0069756,9.17516832 10.5506979,9.00036621 9.98896468,9.00036621 C9.34579057,9.00036621 8.82686601,9.22299154 8.43219099,9.6682422 C8.03751597,10.1134929 7.84017846,10.7384929 7.84017846,11.5432422 C7.84017846,12.3040162 8.03647186,12.9037303 8.42905865,13.3423847 C8.82164544,13.781039 9.32282007,14.0003662 9.93258254,14.0003662 Z M13.0848074,13.914917 L13.0848074,12.0247803 L13.7444753,12.0247803 C14.2024832,12.0247803 14.5522553,12.0008545 14.7937917,11.9530029 C14.9715261,11.914266 15.1464122,11.835083 15.3184499,11.7154541 C15.4904877,11.5958252 15.6323334,11.431193 15.7439871,11.2215576 C15.8556407,11.0119222 15.9114675,10.7532959 15.9114675,10.4456787 C15.9114675,10.0469157 15.8146251,9.721639 15.6209402,9.46984863 C15.4272553,9.21805827 15.1868582,9.05456543 14.8997488,8.97937012 C14.7128998,8.92923991 14.3118582,8.9041748 13.6966238,8.9041748 L13.6966238,8.9041748 L12.0730886,8.9041748 L12.0730886,13.914917 L13.0848074,13.914917 Z M13.6385183,11.1737061 L13.0848074,11.1737061 L13.0848074,9.75183105 L13.5735769,9.75183105 C13.9381602,9.75183105 14.180836,9.76322428 14.3016042,9.78601074 C14.4656667,9.81563314 14.6012462,9.88968913 14.7083425,10.0081787 C14.8154389,10.1266683 14.8689871,10.2770589 14.8689871,10.4593506 C14.8689871,10.6074626 14.8308197,10.7373454 14.7544851,10.848999 C14.6781505,10.9606527 14.5727631,11.0426839 14.438323,11.0950928 C14.3038829,11.1475016 14.0372813,11.1737061 13.6385183,11.1737061 L13.6385183,11.1737061 Z" id="CP" fill="#0283E2" fill-rule="nonzero"></path>
                    </g>
                </g>
                <g id="84-虚线" transform="translate(7.646447, 7.585786) rotate(-45.000000) translate(-7.646447, -7.585786) translate(-1.853553, 6.585786)" fill="#0283E2" fill-rule="nonzero" stroke="#0283E2" stroke-width="0.2">
                    <path d="M3.37377345,0.959559891 L0.973773453,0.959559891 C0.752859553,0.959559891 0.573773453,1.18341752 0.573773453,1.45955989 C0.573773453,1.73570227 0.752859553,1.95955989 0.973773453,1.95955989 L3.37377345,1.95955989 C3.59468735,1.95955989 3.77377345,1.73570227 3.77377345,1.45955989 C3.77377345,1.18341752 3.59468735,0.959559891 3.37377345,0.959559891 L3.37377345,0.959559891 Z M8.52132034,0.959559891 L6.12132034,0.959559891 C5.90040644,0.959559891 5.72132034,1.18341752 5.72132034,1.45955989 C5.72132034,1.73570227 5.90040644,1.95955989 6.12132034,1.95955989 L8.52132034,1.95955989 C8.74223424,1.95955989 8.92132034,1.73570227 8.92132034,1.45955989 C8.92132034,1.18341752 8.74223424,0.959559891 8.52132034,0.959559891 L8.52132034,0.959559891 Z M18.5497475,0.959559891 L16.4164141,0.959559891 C16.1955002,0.959559891 16.0164141,1.18341752 16.0164141,1.45955989 C16.0164141,1.73570227 16.1955002,1.95955989 16.4164141,1.95955989 L18.5497475,1.95955989 C18.7706614,1.95955989 18.9497475,1.73570227 18.9497475,1.45955989 C18.9497475,1.18341752 18.7706614,0.959559891 18.5497475,0.959559891 L18.5497475,0.959559891 Z M11.2688672,0.959559891 C11.0479533,0.959559891 10.8688672,1.18341752 10.8688672,1.45955989 C10.8688672,1.73570227 11.0479533,1.95955989 11.2688672,1.95955989 L13.6688672,1.95955989 C13.8897811,1.95955989 14.0688672,1.73570227 14.0688672,1.45955989 C14.0688672,1.18341752 13.8897811,0.959559891 13.6688672,0.959559891 L11.2688672,0.959559891 Z" id="形状"></path>
                </g>
            </g>
        </g>
    </g>
</svg>