<?xml version="1.0" encoding="UTF-8"?>
<svg width="16px" height="16px" viewBox="0 0 16 16" version="1.1" xmlns="http://www.w3.org/2000/svg" xmlns:xlink="http://www.w3.org/1999/xlink">
    <title>CreateMessage</title>
    <g id="九大图" stroke="none" stroke-width="1" fill="none" fill-rule="evenodd">
        <g transform="translate(-1608.000000, -418.000000)" id="CreateMessage">
            <g transform="translate(1608.000000, 418.000000)">
                <rect id="矩形" fill="#000000" fill-rule="nonzero" opacity="0" x="0" y="0" width="16" height="16"></rect>
                <g id="Block"></g>
                <g id="编组-7" transform="translate(6.428932, 7.792893) rotate(-45.000000) translate(-6.428932, -7.792893) translate(2.428932, 3.792893)" fill="#0283E2" fill-rule="nonzero">
                    <path d="M5.56445379,1.65078673 C6.51744821,2.60378114 6.99394542,3.08027835 6.99394542,3.08027835 C6.99394542,3.08027835 6.41104844,3.91211283 6.41104844,3.91211283 C6.41104844,3.91211283 7.08535485,4.58641925 7.08535485,4.58641925 C7.08535485,4.58641925 6.371688,5.3000861 6.371688,5.3000861 C6.371688,5.3000861 7.06092721,5.98932532 7.06092721,5.98932532 C7.06092721,5.98932532 6.8326346,6.21761794 6.37604936,6.67420318 C6.37589933,6.67641192 5.67165275,7.3806585 5.67062339,7.37962914 C5.67062339,7.37962914 4.98138418,6.69038993 4.98138418,6.69038993 C4.98138418,6.69038993 4.17837949,7.26845317 4.17837949,7.26845317 C4.17837949,7.26845317 3.61444357,6.70451725 3.61654379,6.70661747 C3.61655411,6.70662779 2.92937618,7.39378509 2.92937618,7.39378509 C2.92937618,7.39378509 2.41138939,6.8757983 1.37541581,5.83982471 C1.37742948,5.81017899 3.95012873,6.36591981 5.01250372,5.31065754 C6.04314505,4.28691648 5.56445379,1.65078673 5.56445379,1.65078673 Z" id="路径"></path>
                    <path d="M4.26724755,3.12615073 C4.26724755,3.12615073 4.84321798,3.70212115 5.99515883,4.854062 C6.0492173,4.92647682 4.6101469,6.3646557 4.55646949,6.29275134 C3.40452865,5.14081049 2.82855822,4.56484006 2.82855822,4.56484006 C2.82855822,4.5291257 3.30812133,4.04956259 4.26724755,3.12615073 Z" id="路径"></path>
                    <path d="M2.81850729,1.67741047 C2.81850729,1.67741047 3.06030513,1.9192083 3.54390079,2.40280397 C3.59795926,2.47521878 2.15888887,3.91339766 2.10521146,3.8414933 C1.62161579,3.35789763 1.37981796,3.1160998 1.37981796,3.1160998 C1.37981796,3.08038544 1.85938107,2.60082233 2.81850729,1.67741047 Z" id="路径"></path>
                    <path d="M1.38078335,0.34508922 C1.38078335,0.34508922 1.59750501,0.56181088 2.03094833,0.9952542 C2.0850068,1.06766901 0.819696989,2.53001161 0.766019581,2.45810725 C0.266601495,1.95868916 0.0168924522,1.70898012 0.0168924522,1.70898012 C0.0168924522,1.67326576 0.471522752,1.21863546 1.38078335,0.34508922 Z" id="路径"></path>
                </g>
                <rect id="矩形" stroke="#6EA386" fill="#CCE7D8" x="10" y="5" width="5" height="6"></rect>
            </g>
        </g>
    </g>
</svg>