<?xml version="1.0" encoding="UTF-8"?>
<svg width="16px" height="16px" viewBox="0 0 16 16" version="1.1" xmlns="http://www.w3.org/2000/svg" xmlns:xlink="http://www.w3.org/1999/xlink">
    <title>Decision</title>
    <defs>
        <linearGradient x1="23.4075917%" y1="50%" x2="82.5144972%" y2="50%" id="linearGradient-1">
            <stop stop-color="#BBBBBB" offset="0%"></stop>
            <stop stop-color="#DBDBDB" offset="44.2039696%"></stop>
            <stop stop-color="#F9F9F9" offset="100%"></stop>
        </linearGradient>
    </defs>
    <g id="九大图" stroke="none" stroke-width="1" fill="none" fill-rule="evenodd">
        <g transform="translate(-807.000000, -517.000000)" id="编组-17">
            <g transform="translate(806.000000, 514.646447)">
                <g id="Decision">
                    <g id="菱形" transform="translate(1.000000, 1.353553)">
                        <rect id="矩形" fill="#000000" fill-rule="nonzero" opacity="0" x="0" y="0" width="16" height="16"></rect>
                        <path d="M7.4407008,5.680917 L0.970783584,10.1965203 L7.5,13.5120407 L14.0226792,10.1998399 L7.4407008,5.680917 Z" id="路径" stroke="#97958C" fill="url(#linearGradient-1)"></path>
                    </g>
                    <g id="编组-7" transform="translate(13.000000, 14.353553)" fill="#0283E2" fill-rule="nonzero">
                        <path d="M-1.50102153e-13,2.02319336 L1.93518066,2.02319336 L1.93518066,-1.13908882e-13 C1.93518066,-1.13908882e-13 2.90962883,-1.13908882e-13 2.90962883,-1.13908882e-13 L2.90962883,2.93722461 C2.90773986,2.96529207 1.93786358,2.96529207 -1.50102153e-13,2.93722461 C0.00349813687,2.88524713 -1.50102153e-13,2.02319336 -1.50102153e-13,2.02319336 Z" id="路径"></path>
                        <path d="M0.604492187,-8.17124146e-14 C0.604492187,-8.17124146e-14 1.19709788,0.558400831 2.38230927,1.67520249 C2.4902616,1.8198116 1.78272127,2.52633763 1.67520249,2.38230927 C0.558400831,1.18887848 6.79456491e-14,0.592163086 6.79456491e-14,0.592163086 C6.79456491e-14,0.556448725 0.201497396,0.35906103 0.604492187,-8.17124146e-14 Z" id="路径"></path>
                    </g>
                    <g id="编组-7" transform="translate(2.500000, 15.853553) rotate(90.000000) translate(-2.500000, -15.853553) translate(0.500000, 13.853553)" fill="#0283E2" fill-rule="nonzero">
                        <path d="M0.602294922,2.5 L2.53747559,2.5 L2.53747559,0.476806641 C2.53747559,0.476806641 3.51192375,0.476806641 3.51192375,0.476806641 L3.51192375,3.41403125 C3.51003478,3.44209871 2.5401585,3.44209871 0.602294922,3.41403125 C0.605793059,3.36205377 0.602294922,2.5 0.602294922,2.5 Z" id="路径"></path>
                        <path d="M0.5,0.956176758 C0.5,0.956176758 0.962524414,0.476806641 0.962524414,0.476806641 L3.38230927,2.67520249 C3.4902616,2.8198116 2.78272127,3.52633763 2.67520249,3.38230927 L0.5,0.956176758 Z" id="路径"></path>
                    </g>
                    <g id="编组-7" transform="translate(8.500000, 3.853553) rotate(45.000000) translate(-8.500000, -3.853553) translate(6.000000, 1.353553)" fill="#0283E2" fill-rule="nonzero">
                        <path d="M1.06245324,3.31157772 L3.50066766,3.48703436 L3.24767565,1.12635531 C3.24767565,1.12635531 3.95478243,0.419248527 3.95478243,0.419248527 L4.32606957,4.31243627 C4.3241806,4.34050373 3.08556003,4.2849389 0.610207873,4.14574178 C0.61370601,4.0937643 1.06245324,3.31157772 1.06245324,3.31157772 Z" id="路径"></path>
                        <path d="M1.06317145,1.77027823 C1.06317145,1.77027823 1.77027823,1.06317145 1.77027823,1.06317145 L4.2179668,3.83954497 C4.32591912,3.98415408 3.78272127,4.52633763 3.67520249,4.38230927 L1.06317145,1.77027823 Z" id="路径"></path>
                    </g>
                </g>
            </g>
        </g>
    </g>
</svg>