<?xml version="1.0" encoding="UTF-8"?>
<svg width="16px" height="16px" viewBox="0 0 16 16" version="1.1" xmlns="http://www.w3.org/2000/svg" xmlns:xlink="http://www.w3.org/1999/xlink">
    <title>DeleteMessage</title>
    <g id="九大图" stroke="none" stroke-width="1" fill="none" fill-rule="evenodd">
        <g transform="translate(-1608.000000, -443.000000)" id="DeleteMessage">
            <g transform="translate(1608.000000, 443.000000)">
                <rect id="矩形" fill="#000000" fill-rule="nonzero" opacity="0" x="0" y="0" width="16" height="16"></rect>
                <g id="Block"></g>
                <g id="编组-7" transform="translate(5.378680, 7.792893) rotate(-45.000000) translate(-5.378680, -7.792893) translate(1.878680, 4.292893)" fill="#0283E2" fill-rule="nonzero">
                    <path d="M5.18371494,1.27004787 C6.0808912,2.16722413 6.52947933,2.61581226 6.52947933,2.61581226 C6.52947933,2.61581226 5.94658234,3.44764674 5.94658234,3.44764674 C5.94658234,3.44764674 6.62088876,4.12195315 6.62088876,4.12195315 C6.62088876,4.12195315 5.90722191,4.83562001 5.90722191,4.83562001 C5.90722191,4.83562001 6.59646112,5.52485922 6.59646112,5.52485922 C6.59646112,5.52485922 6.3681685,5.75315184 5.91158326,6.20973708 C5.91143323,6.21194583 5.20718666,6.91619241 5.2061573,6.91516305 C5.2061573,6.91516305 4.51691808,6.22592383 4.51691808,6.22592383 C4.51691808,6.22592383 3.7139134,6.80398708 3.7139134,6.80398708 C3.7139134,6.80398708 3.14997747,6.24005115 3.1520777,6.24215138 C3.15208802,6.2421617 2.46491009,6.92931899 2.46491009,6.92931899 C2.46491009,6.92931899 1.97483238,6.43924128 0.994676955,5.45908586 C0.996561955,5.43133446 3.55571295,5.83274031 4.54803763,4.84619145 C5.6441712,3.75643791 5.18371494,1.27004787 5.18371494,1.27004787 Z" id="路径"></path>
                    <path d="M1.70291083,0.561814001 C1.70291083,0.561814001 2.97883813,1.8377413 5.53069273,4.38959591 C5.5847512,4.46201072 4.14568081,5.90018961 4.0920034,5.82828524 C1.5401488,3.27643064 0.264221494,2.00050334 0.264221494,2.00050334 C0.264221494,1.96478897 0.743784606,1.48522586 1.70291083,0.561814001 Z" id="路径"></path>
                </g>
                <path d="M14.0872803,10.9296134 L9,5.88830566 C8.9621552,5.88830566 8.90067332,5.4890548 9,5.24487305 C9.02340884,5.18732546 8.9621552,4.96295733 9,4.93029785 C9.29284668,4.93029785 9.70129395,4.93029785 10.010376,4.93029785 L14.9035881,10.1376953 C15.1020132,10.3333957 15.1020132,10.7583756 14.9035881,10.9296134 C14.7299661,11.1253137 14.2857054,11.1253137 14.0872803,10.9296134 Z M14.8470207,5.94995117 L10,10.8586751 C9.80157488,11.0543755 9.32244081,11.0543755 9.14881884,10.8586751 C8.95039372,10.6629748 8.95039372,10.2749976 9.14881884,10.1037598 L14.206543,5.14677527 C14.4049681,4.95107491 14.6733987,4.95107491 14.8470207,5.14677527 C15.0454458,5.31801307 15.0454458,5.75425082 14.8470207,5.94995117 Z" id="形状" fill="#ED4E3C" fill-rule="nonzero"></path>
            </g>
        </g>
    </g>
</svg>