<?xml version="1.0" encoding="UTF-8"?>
<svg width="16px" height="16px" viewBox="0 0 16 16" version="1.1" xmlns="http://www.w3.org/2000/svg" xmlns:xlink="http://www.w3.org/1999/xlink">
    <title>Derive</title>
    <g id="九大图" stroke="none" stroke-width="1" fill="none" fill-rule="evenodd">
        <g transform="translate(-1215.000000, -991.000000)" id="Allocate">
            <g transform="translate(1214.000000, 991.000000)">
                <g id="编组-26" transform="translate(0.146447, 0.000000)">
                    <g id="Allocate">
                        <rect id="矩形" fill="#000000" fill-rule="nonzero" opacity="0" x="0" y="0" width="16" height="16"></rect>
                        <g id="jx" transform="translate(1.000000, 1.000000)"></g>
                        <polygon id="路径" fill="#0283E2" points="9.85355339 1 14.8535534 1 14.8535534 2 9.85355339 2"></polygon>
                        <polygon id="路径" fill="#0283E2" points="13.8535534 1 14.8535534 1 14.8535534 6 13.8535534 6"></polygon>
                        <path d="M12.2625417,14.914917 C12.6896251,14.914917 13.0307709,14.8745524 13.2859792,14.7938232 C13.6271251,14.6844482 13.8979584,14.5321045 14.0984792,14.336792 C14.3641042,14.0789795 14.5685313,13.7417399 14.7117605,13.3250732 C14.828948,12.9839274 14.8875417,12.5776774 14.8875417,12.1063232 C14.8875417,11.5698649 14.8250417,11.118693 14.7000417,10.7528076 C14.5750417,10.3869222 14.3927501,10.0776774 14.1531667,9.82507324 C13.9135834,9.57246908 13.625823,9.39668783 13.2898855,9.29772949 C13.0398855,9.22481283 12.6766042,9.18835449 12.2000417,9.18835449 L12.2000417,9.18835449 L10.0867605,9.18835449 L10.0867605,14.914917 L12.2625417,14.914917 Z M12.1062917,13.9500732 L11.2430105,13.9500732 L11.2430105,10.1571045 L11.7625417,10.1571045 C12.2338959,10.1571045 12.5503022,10.1753337 12.7117605,10.211792 C12.9279063,10.258667 13.1062917,10.3485107 13.2469167,10.4813232 C13.3875417,10.6141357 13.4969167,10.7990316 13.5750417,11.0360107 C13.6531667,11.2729899 13.6922292,11.6128337 13.6922292,12.055542 C13.6922292,12.4982503 13.6531667,12.8478597 13.5750417,13.1043701 C13.4969167,13.3608805 13.3960053,13.5451253 13.2723074,13.6571045 C13.1486095,13.7690837 12.9930105,13.8485107 12.8055105,13.8953857 C12.6622813,13.9318441 12.4292084,13.9500732 12.1062917,13.9500732 L12.1062917,13.9500732 Z" id="D" fill="#0283E2" fill-rule="nonzero"></path>
                    </g>
                </g>
                <g id="84-虚线" transform="translate(7.646447, 7.585786) rotate(-45.000000) translate(-7.646447, -7.585786) translate(-1.853553, 6.585786)" fill="#0283E2" fill-rule="nonzero" stroke="#0283E2" stroke-width="0.2">
                    <path d="M3.37377345,0.959559891 L0.973773453,0.959559891 C0.752859553,0.959559891 0.573773453,1.18341752 0.573773453,1.45955989 C0.573773453,1.73570227 0.752859553,1.95955989 0.973773453,1.95955989 L3.37377345,1.95955989 C3.59468735,1.95955989 3.77377345,1.73570227 3.77377345,1.45955989 C3.77377345,1.18341752 3.59468735,0.959559891 3.37377345,0.959559891 L3.37377345,0.959559891 Z M8.52132034,0.959559891 L6.12132034,0.959559891 C5.90040644,0.959559891 5.72132034,1.18341752 5.72132034,1.45955989 C5.72132034,1.73570227 5.90040644,1.95955989 6.12132034,1.95955989 L8.52132034,1.95955989 C8.74223424,1.95955989 8.92132034,1.73570227 8.92132034,1.45955989 C8.92132034,1.18341752 8.74223424,0.959559891 8.52132034,0.959559891 L8.52132034,0.959559891 Z M18.5497475,0.959559891 L16.4164141,0.959559891 C16.1955002,0.959559891 16.0164141,1.18341752 16.0164141,1.45955989 C16.0164141,1.73570227 16.1955002,1.95955989 16.4164141,1.95955989 L18.5497475,1.95955989 C18.7706614,1.95955989 18.9497475,1.73570227 18.9497475,1.45955989 C18.9497475,1.18341752 18.7706614,0.959559891 18.5497475,0.959559891 L18.5497475,0.959559891 Z M11.2688672,0.959559891 C11.0479533,0.959559891 10.8688672,1.18341752 10.8688672,1.45955989 C10.8688672,1.73570227 11.0479533,1.95955989 11.2688672,1.95955989 L13.6688672,1.95955989 C13.8897811,1.95955989 14.0688672,1.73570227 14.0688672,1.45955989 C14.0688672,1.18341752 13.8897811,0.959559891 13.6688672,0.959559891 L11.2688672,0.959559891 Z" id="形状"></path>
                </g>
            </g>
        </g>
    </g>
</svg>