<?xml version="1.0" encoding="UTF-8"?>
<svg width="17px" height="17px" viewBox="0 0 17 17" version="1.1" xmlns="http://www.w3.org/2000/svg" xmlns:xlink="http://www.w3.org/1999/xlink">
    <title>DestructionOccurrenceSpecification</title>
    <g id="九大图" stroke="none" stroke-width="1" fill="none" fill-rule="evenodd">
        <g transform="translate(-1891.000000, -768.000000)" id="DestructionOccurrenceSpecification">
            <g transform="translate(1891.000000, 768.000000)">
                <rect id="矩形" fill="#000000" fill-rule="nonzero" opacity="0" x="0" y="0" width="16" height="16"></rect>
                <g id="Block" transform="translate(1.000000, 1.000000)"></g>
                <path d="M13.7269761,4.73999654 L4.83460548,13.7311562 C4.47057367,14.0896146 3.59155168,14.0896146 3.27302386,13.7311562 C2.90899205,13.3726979 2.90899205,12.6620519 3.27302386,12.3484008 L12.5519522,3.26884377 C12.9159841,2.91038541 13.4084483,2.91038541 13.7269761,3.26884377 C14.091008,3.58249482 14.091008,4.38153818 13.7269761,4.73999654 Z M12.2600035,13.7269761 L3.26884377,4.83460548 C2.91038541,4.47057367 2.91038541,3.59155168 3.26884377,3.27302386 C3.62730213,2.90899205 4.33794811,2.90899205 4.65159916,3.27302386 L13.7311562,12.5519522 C14.0896146,12.9159841 14.0896146,13.4084483 13.7311562,13.7269761 C13.4175052,14.091008 12.6184618,14.091008 12.2600035,13.7269761 Z" id="形状" fill="#ED4E3C" fill-rule="nonzero"></path>
            </g>
        </g>
    </g>
</svg>