<?xml version="1.0" encoding="UTF-8"?>
<svg width="16px" height="16px" viewBox="0 0 16 16" version="1.1" xmlns="http://www.w3.org/2000/svg" xmlns:xlink="http://www.w3.org/1999/xlink">
    <title>DiagramOverview</title>
    <defs>
        <linearGradient x1="100%" y1="50.6408878%" x2="8.33129883%" y2="50.0626229%" id="linearGradient-1">
            <stop stop-color="#FEF9DB" offset="0%"></stop>
            <stop stop-color="#FEF4BD" offset="44.2039696%"></stop>
            <stop stop-color="#FEEF9E" offset="60.7131546%"></stop>
            <stop stop-color="#FCF0AC" offset="100%"></stop>
        </linearGradient>
        <linearGradient x1="100%" y1="50.160222%" x2="8.33129883%" y2="50.0156557%" id="linearGradient-2">
            <stop stop-color="#FEF9DB" offset="0%"></stop>
            <stop stop-color="#FEF4BD" offset="44.2039696%"></stop>
            <stop stop-color="#FEEF9E" offset="60.7131546%"></stop>
            <stop stop-color="#FCF0AC" offset="100%"></stop>
        </linearGradient>
        <linearGradient x1="100%" y1="50.3604994%" x2="8.33129883%" y2="50.0352254%" id="linearGradient-3">
            <stop stop-color="#FEF9DB" offset="0%"></stop>
            <stop stop-color="#FEF4BD" offset="44.2039696%"></stop>
            <stop stop-color="#FEEF9E" offset="60.7131546%"></stop>
            <stop stop-color="#FCF0AC" offset="100%"></stop>
        </linearGradient>
    </defs>
    <g id="九大图" stroke="none" stroke-width="1" fill="none" fill-rule="evenodd">
        <g transform="translate(-473.000000, -396.000000)" id="DiagramOverview">
            <g transform="translate(473.000000, 396.000000)">
                <rect id="矩形" fill="#000000" fill-rule="nonzero" opacity="0" x="0" y="0" width="16" height="16"></rect>
                <path d="M14,9 C12.7777778,9 11.7777778,9 11,9 C10.132124,9 9.5,8.3836556 9.5,7.5 L9.5,4 L2,4 C1.56606198,4 1,4.5581722 1,5 C1,8.91111111 1,11.9111111 1,14 C1,14.5 1.56606198,15 2,15 L13,15 C13.433938,15 14,14.8 14,13.5 C14,12.4111111 14,10.9111111 14,9 Z M10.5,4 L10.5,7 C10.5,7.4418278 11,8 11.5,8 L14,8 L10.5,4 Z M10,3 C10.4243117,3 11,3 11.5,3.5 C13.1666667,5.16666667 14.3333333,6.66666667 15,8 C15,10.8805333 15,13.0472 15,14.5 C15,15.3 14.3836556,16 13.5,16 L1.5,16 C0.6163444,16 0,15.3 0,14.5 C0,12.1888889 0,8.85555556 0,4.5 C0,3.6163444 0.6163444,3 1.5,3 L10,3 Z" id="形状" fill="#97958C" fill-rule="nonzero"></path>
                <g id="眼" transform="translate(2.686292, 1.000000)" fill-rule="nonzero">
                    <path d="M9.93533458,3.43423537 C10.029065,3.54521134 10.0194163,3.71685419 9.91603714,3.81599273 C9.81265798,3.91513127 9.65414326,3.9062532 9.56041282,3.79527722 C8.86156969,2.96369721 8.19718628,2.35554885 7.54658676,1.98118988 C7.94631952,2.40733764 8.19442951,2.99772985 8.19442951,3.6502686 C8.19442951,4.94794772 7.21439506,6 6.00692645,6 C4.79807946,6 3.8194234,4.94794772 3.8194234,3.6502686 C3.8194234,3.57480494 3.82218018,3.50082095 3.82907212,3.42831665 C3.83320729,3.38688561 3.86077507,3.35433266 3.89936995,3.34841394 C3.93796484,3.34101554 3.97380295,3.36321074 3.99034362,3.40168241 C4.14610155,3.78491946 4.50310426,4.05126181 4.9166209,4.05126181 C5.47486837,4.05126181 5.92835829,3.56444718 5.92835829,2.96517689 C5.92835829,2.36590661 5.47486837,1.87909198 4.9166209,1.87909198 C4.80359302,1.87909198 4.69607869,1.89832782 4.59407792,1.93531981 C3.91039706,2.30523974 3.19777005,2.93706298 2.43689942,3.83966761 C2.34454737,3.95064359 2.18465427,3.95804199 2.08265349,3.85890344 C1.97927433,3.7597649 1.97238239,3.58812206 2.06473444,3.47862576 C3.48309653,1.79327056 4.77464685,0.986845108 6.06206201,1.00016223 C7.35085555,1.01347934 8.60105421,1.84505935 9.93533458,3.43423537 L9.93533458,3.43423537 Z" id="路径" fill="#2875A4"></path>
                    <path d="M10.1242148,4.54522088 C8.57341409,6.15560048 7.0999386,6.98561992 5.60927971,6.99980829 C4.14296396,7.01399666 2.69096769,6.24073068 1.16594203,4.64453944 C0.955445529,4.78500427 0.737789284,4.81054333 0.545908121,4.75662754 C0.29531705,4.68568571 0.113459529,4.4842109 0.0389981826,4.240171 C-0.0454868072,3.96633552 -0.00109638885,3.62013938 0.255222478,3.30231997 C0.478606519,3.02564682 0.732061488,2.74471716 0.975492815,2.48790773 C2.59359516,0.78104723 4.15871539,-0.0475533764 5.74101902,0.00210590659 C7.46078974,0.0574405361 9.16624097,1.15420127 10.9404258,3.29948229 C11.0320705,3.41015155 11.0163191,3.57331777 10.904627,3.66412331 C10.792935,3.75492886 10.6282609,3.73932166 10.5366161,3.6286524 C8.86123584,1.60539133 7.28322807,0.569640569 5.72383563,0.519981286 C4.30047834,0.474578513 2.86280157,1.25068216 1.3520954,2.8468734 C1.12155161,3.08949447 0.873824437,3.36332994 0.661895988,3.62439589 C0.525860835,3.79181861 0.498653805,3.96207901 0.538748376,4.08977431 C0.560227611,4.16071614 0.611777774,4.23591449 0.68767107,4.25719704 C0.752108774,4.27564191 0.836593764,4.25294053 0.931102396,4.170648 C1.02274713,4.09119315 1.11868771,4.06707292 1.2117644,4.07558594 C1.32345642,4.0855178 1.40794141,4.1436901 1.46521937,4.20470008 C2.91578368,5.74839436 4.26754352,6.49612128 5.60355191,6.48335175 C6.84934752,6.47058222 8.10087093,5.79095946 9.44403907,4.48988625 C9.64307998,4.29976214 10.4091727,4.24868402 10.1242148,4.54522088 L10.1242148,4.54522088 Z" id="路径" fill="#000000"></path>
                </g>
                <path d="M12.6216261,4.43423537 C12.7153565,4.54521134 12.7057078,4.71685419 12.6023286,4.81599273 C12.4989495,4.91513127 12.3404348,4.9062532 12.2467043,4.79527722 C11.5478612,3.96369721 10.8834778,3.35554885 10.2328783,2.98118988 C10.632611,3.40733764 10.880721,3.99772985 10.880721,4.6502686 C10.880721,5.94794772 9.90068656,7 8.69321796,7 C7.48437096,7 6.5057149,5.94794772 6.5057149,4.6502686 C6.5057149,4.57480494 6.50847168,4.50082095 6.51536362,4.42831665 C6.51949879,4.38688561 6.54706657,4.35433266 6.58566145,4.34841394 C6.62425634,4.34101554 6.66009445,4.36321074 6.67663512,4.40168241 C6.83239305,4.78491946 7.18939576,5.05126181 7.6029124,5.05126181 C8.16115987,5.05126181 8.61464979,4.56444718 8.61464979,3.96517689 C8.61464979,3.36590661 8.16115987,2.87909198 7.6029124,2.87909198 C7.48988452,2.87909198 7.38237019,2.89832782 7.28036942,2.93531981 C6.59668857,3.30523974 5.88406155,3.93706298 5.12319092,4.83966761 C5.03083887,4.95064359 4.87094577,4.95804199 4.76894499,4.85890344 C4.66556583,4.7597649 4.65867389,4.58812206 4.75102594,4.47862576 C6.16938803,2.79327056 7.46093835,1.98684511 8.74835351,2.00016223 C10.0371471,2.01347934 11.2873457,2.84505935 12.6216261,4.43423537 L12.6216261,4.43423537 Z" id="路径" fill="#2875A4" fill-rule="nonzero"></path>
                <path d="M12.8105063,5.54522088 C11.2597056,7.15560048 9.7862301,7.98561992 8.29557121,7.99980829 C6.82925546,8.01399666 5.37725919,7.24073068 3.85223353,5.64453944 C3.64173703,5.78500427 3.42408079,5.81054333 3.23219962,5.75662754 C2.98160855,5.68568571 2.79975103,5.4842109 2.72528968,5.240171 C2.64080469,4.96633552 2.68519511,4.62013938 2.94151398,4.30231997 C3.16489802,4.02564682 3.41835299,3.74471716 3.66178432,3.48790773 C5.27988666,1.78104723 6.84500689,0.952446624 8.42731052,1.00210591 C10.1470812,1.05744054 11.8525325,2.15420127 13.6267173,4.29948229 C13.718362,4.41015155 13.7026106,4.57331777 13.5909185,4.66412331 C13.4792265,4.75492886 13.3145524,4.73932166 13.2229076,4.6286524 C11.5475273,2.60539133 9.96951957,1.56964057 8.41012713,1.51998129 C6.98676984,1.47457851 5.54909307,2.25068216 4.0383869,3.8468734 C3.80784311,4.08949447 3.56011594,4.36332994 3.34818749,4.62439589 C3.21215234,4.79181861 3.18494531,4.96207901 3.22503988,5.08977431 C3.24651911,5.16071614 3.29806927,5.23591449 3.37396257,5.25719704 C3.43840027,5.27564191 3.52288526,5.25294053 3.6173939,5.170648 C3.70903863,5.09119315 3.80497921,5.06707292 3.8980559,5.07558594 C4.00974792,5.0855178 4.09423291,5.1436901 4.15151087,5.20470008 C5.60207518,6.74839436 6.95383502,7.49612128 8.28984341,7.48335175 C9.53563903,7.47058222 10.7871624,6.79095946 12.1303306,5.48988625 C12.3293715,5.29976214 13.0954642,5.24868402 12.8105063,5.54522088 L12.8105063,5.54522088 Z" id="路径" fill="#000000" fill-rule="nonzero"></path>
                <g id="编组-4" transform="translate(3.000000, 10.000000)">
                    <path d="M3,0.45216552 L3,1.81902275 C2.99536588,1.92308907 2.90952358,2.00379174 2.80785714,1.99966145 L0.807857142,1.99966145 C0.749590378,2.00316022 0.693283764,1.97751558 0.656804954,1.93086528 C0.620326144,1.88421497 0.608204186,1.82235091 0.624285715,1.76490427 C0.594430018,1.87712002 0.600620494,1.87214559 0.642857143,1.74998098 C0.670223669,1.67082648 0.527366526,1.75415891 0.214285714,1.99997827 C0.121679717,2.0045409 0.00499992224,1.28929438 0,1.19450694 L0,0.163289862 C0.00499992379,0.0685024225 0.0838225745,-0.00435953418 0.17642857,0.000203099854 L1.12571429,0.000203099854 C1.19115276,-0.00146883046 1.25235841,0.0332213942 1.28571429,0.0908881168 L1.38142857,0.269332825 L2.81,0.269332825 C2.91164634,0.266457495 2.99650533,0.348115373 3,0.45216552 Z" id="路径" stroke="#4B4B4B" stroke-width="1.5"></path>
                    <path d="M0.142857144,1 L2.85714286,1 C2.95238095,1 3,1.04903764 3,1.14711291 L3,2.85288709 C3,2.95096236 2.95238095,3 2.85714286,3 L0.142857144,3 C0.0476190479,3 0,2.95096236 0,2.85288709 L0,1.14711291 C0,1.04903764 0.0476190479,1 0.142857144,1 Z" id="路径" stroke="#4B4B4B" stroke-width="1.5"></path>
                    <path d="M3,1 L3,1.81902275 C2.99536588,1.92308907 2.90952358,2.00379174 2.80785714,1.99966145 L0.807857142,1.99966145 C0.749590378,2.00316022 0.693283764,1.97751558 0.656804954,1.93086528 C0.620326144,1.88421497 0.608204186,1.82235091 0.624285715,1.76490427 C0.594430018,1.87712002 0.600620494,1.87214559 0.642857143,1.74998098 C0.670223669,1.67082648 0.527366526,1.75415891 0.214285714,1.99997827 C0.121679717,2.0045409 0.00499992224,1.28929438 0,1.19450694 L0,0.163289862 C0.00499992379,0.0685024225 0.0838225745,-0.00435953418 0.17642857,0.000203099854 L1.12571429,0.000203099854 C1.19115276,-0.00146883046 1.25235841,0.0332213942 1.28571429,0.0908881168 L1.5,0.5 L2.5,0.5 C3,0.5 3,0.5 3,1 Z" id="路径" fill="url(#linearGradient-1)"></path>
                    <path d="M0.142857144,1 L2.85714286,1 C2.95238095,1 3,1.04903764 3,1.14711291 L3,2.85288709 C3,2.95096236 2.95238095,3 2.85714286,3 L0.142857144,3 C0.0476190479,3 0,2.95096236 0,2.85288709 L0,1.14711291 C0,1.04903764 0.0476190479,1 0.142857144,1 Z" id="路径" fill="url(#linearGradient-1)"></path>
                    <path d="M9,1.22608276 L9,1.90951137 C8.99536588,1.96154453 8.90952358,2.00189587 8.80785714,1.99983073 L6.80785714,1.99983073 C6.74959038,2.00158011 6.69328376,1.98875779 6.65680495,1.96543264 C6.62032614,1.94210749 6.60820419,1.91117545 6.62428571,1.88245214 C6.59443002,1.93856001 6.60062049,1.9360728 6.64285714,1.87499049 C6.67022367,1.83541324 6.55593795,1.87708308 6.3,2 C6,2 6.00499992,1.79739372 6,1.75 L6,1.08164493 C6.00499992,1.03425121 6.08382257,0.997820233 6.17642857,1.00010155 L7.12571429,1.00010155 C7.19115276,0.999265585 7.25235841,1.0166107 7.28571429,1.04544406 L7.38142857,1.13466641 L8.81,1.13466641 C8.91164634,1.13322875 8.99650533,1.17405769 9,1.22608276 Z" id="路径" stroke="#4B4B4B" stroke-width="1.5"></path>
                    <path d="M6.14285714,2 L8.85714286,2 C8.95238095,2 9,2.02451882 9,2.07355645 L9,2.92644355 C9,2.97548118 8.95238095,3 8.85714286,3 L6.14285714,3 C6.04761905,3 6,2.97548118 6,2.92644355 L6,2 C6,2 6.04761905,2 6.14285714,2 Z" id="路径" stroke="#4B4B4B" stroke-width="1.5"></path>
                    <path d="M9,1.90951137 C8.99536588,1.96154453 8.90952358,2.00189587 8.80785714,1.99983073 L6.80785714,1.99983073 C6.74959038,2.00158011 6.69328376,1.98875779 6.65680495,1.96543264 C6.62032614,1.94210749 6.60820419,1.91117545 6.62428571,1.88245214 C6.59443002,1.93856001 6.60062049,1.9360728 6.64285714,1.87499049 C6.67022367,1.83541324 6.52736653,1.87707945 6.21428571,1.99998913 C6.12167972,2.00227045 6.00499992,1.64464719 6,1.59725347 L6,1.08164493 C6.00499992,1.03425121 6.08382257,0.997820233 6.17642857,1.00010155 L7.12571429,1.00010155 C7.19115276,0.999265585 7.25235841,1.0166107 7.28571429,1.04544406 L7.5,1.5 C8.37226304,1.49163291 8.87226304,1.49163291 9,1.5 L9,1.90951137 Z" id="路径" fill="url(#linearGradient-2)"></path>
                    <path d="M6.14285714,1.5 L8.85714286,1.5 C8.95238095,1.5 9,1.53677823 9,1.61033468 L9,2.88966532 C9,2.96322177 8.95238095,3 8.85714286,3 L6.14285714,3 C6.04761905,3 6,2.96322177 6,2.88966532 L6,1.61033468 C6,1.53677823 6.04761905,1.5 6.14285714,1.5 Z" id="路径" fill="url(#linearGradient-3)"></path>
                </g>
                <line x1="6.5" y1="11.5" x2="8.5" y2="11.5" id="直线-5" stroke="#4B4B4B" stroke-linecap="square"></line>
            </g>
        </g>
    </g>
</svg>