<?xml version="1.0" encoding="UTF-8"?>
<svg width="16px" height="16px" viewBox="0 0 16 16" version="1.1" xmlns="http://www.w3.org/2000/svg" xmlns:xlink="http://www.w3.org/1999/xlink">
    <title>TimeConstraint </title>
    <g id="九大图" stroke="none" stroke-width="1" fill="none" fill-rule="evenodd">
        <g transform="translate(-455.000000, -252.000000)" fill="#000000" id="编组-18">
            <g transform="translate(453.686292, 249.000000)">
                <g id="TimeConstraint-">
                    <g id="Constraint" transform="translate(0.000000, 3.000000)" fill-rule="nonzero">
                        <g id="jx" transform="translate(0.000000, 8.000000)" opacity="0">
                            <rect id="矩形" x="0" y="0" width="16" height="16"></rect>
                        </g>
                        <path d="M6.1796875,11.2626953 L6.1796875,10.5595703 C5.96875,10.5595703 5.83154297,10.5463867 5.76806641,10.5200195 C5.70458984,10.4936523 5.65722656,10.4550781 5.62597656,10.4042969 C5.59472656,10.3535156 5.57910156,10.2636719 5.57910156,10.1347656 C5.57910156,10.0449219 5.57226562,9.83789062 5.55859375,9.51367188 C5.546875,9.30078125 5.52148438,9.13085938 5.48242188,9.00390625 C5.44335938,8.87695312 5.38720703,8.76904297 5.31396484,8.68017578 C5.24072266,8.59130859 5.14648438,8.51367188 5.03125,8.44726562 C5.16210938,8.36328125 5.25927734,8.28222656 5.32275391,8.20410156 C5.38623047,8.12597656 5.43847656,8.02685547 5.47949219,7.90673828 C5.52050781,7.78662109 5.54589844,7.62988281 5.55566406,7.43652344 C5.57324219,7.09277344 5.58203125,6.859375 5.58203125,6.73632812 C5.58203125,6.61523438 5.59667969,6.52978516 5.62597656,6.47998047 C5.65527344,6.43017578 5.70068359,6.39306641 5.76220703,6.36865234 C5.82373047,6.34423828 5.96289062,6.33203125 6.1796875,6.33203125 L6.1796875,6.33203125 L6.1796875,5.63183594 L6.02441406,5.63183594 C5.76855469,5.63183594 5.58105469,5.64941406 5.46191406,5.68457031 C5.28613281,5.73730469 5.15234375,5.80908203 5.06054688,5.89990234 C4.96875,5.99072266 4.90527344,6.11083984 4.87011719,6.26025391 C4.83496094,6.40966797 4.81738281,6.67382812 4.81738281,7.05273438 C4.81738281,7.28515625 4.80957031,7.44824219 4.79394531,7.54199219 C4.77441406,7.66699219 4.73828125,7.77099609 4.68554688,7.85400391 C4.6328125,7.93701172 4.5703125,7.99609375 4.49804688,8.03125 C4.42578125,8.06640625 4.31835938,8.08789062 4.17578125,8.09570312 L4.17578125,8.09570312 L4.17578125,8.79882812 C4.35546875,8.80859375 4.48876953,8.84716797 4.57568359,8.91455078 C4.66259766,8.98193359 4.72753906,9.09375 4.77050781,9.25 C4.80175781,9.35742188 4.81738281,9.59082031 4.81738281,9.95019531 C4.81738281,10.2587891 4.83398438,10.4848633 4.8671875,10.628418 C4.90039062,10.7719727 4.96533203,10.8925781 5.06201172,10.9902344 C5.15869141,11.0878906 5.27734375,11.1577148 5.41796875,11.199707 C5.55859375,11.2416992 5.76074219,11.2626953 6.02441406,11.2626953 L6.02441406,11.2626953 L6.1796875,11.2626953 Z M8.2890625,11.2626953 C8.54492188,11.2626953 8.73242188,11.2451172 8.8515625,11.2099609 C9.02929688,11.1572266 9.1640625,11.0854492 9.25585938,10.9946289 C9.34765625,10.9038086 9.41064453,10.7832031 9.44482422,10.6328125 C9.47900391,10.4824219 9.49609375,10.2177734 9.49609375,9.83886719 C9.49609375,9.60839844 9.50390625,9.44628906 9.51953125,9.35253906 C9.54101562,9.22753906 9.57763672,9.12353516 9.62939453,9.04052734 C9.68115234,8.95751953 9.74316406,8.8984375 9.81542969,8.86328125 C9.88769531,8.828125 9.99511719,8.80664062 10.1376953,8.79882812 L10.1376953,8.79882812 L10.1376953,8.09570312 C9.95800781,8.0859375 9.82421875,8.04736328 9.73632812,7.97998047 C9.6484375,7.91259766 9.58300781,7.80078125 9.54003906,7.64453125 C9.51074219,7.53515625 9.49609375,7.30175781 9.49609375,6.94433594 C9.49609375,6.63574219 9.47900391,6.40966797 9.44482422,6.26611328 C9.41064453,6.12255859 9.34570312,6.00146484 9.25,5.90283203 C9.15429688,5.80419922 9.03613281,5.734375 8.89550781,5.69335938 C8.75488281,5.65234375 8.55273438,5.63183594 8.2890625,5.63183594 L8.2890625,5.63183594 L8.13378906,5.63183594 L8.13378906,6.33203125 C8.35449219,6.33203125 8.49658203,6.34521484 8.56005859,6.37158203 C8.62353516,6.39794922 8.66748047,6.43554688 8.69189453,6.484375 C8.71630859,6.53320312 8.72949219,6.63085938 8.73144531,6.77734375 C8.74121094,7.2421875 8.75683594,7.54296875 8.77832031,7.6796875 C8.81152344,7.87890625 8.87402344,8.04296875 8.96582031,8.171875 C9.03222656,8.26171875 9.13769531,8.35351562 9.28222656,8.44726562 C9.17089844,8.51171875 9.07958984,8.58642578 9.00830078,8.67138672 C8.93701172,8.75634766 8.87988281,8.85986328 8.83691406,8.98193359 C8.79394531,9.10400391 8.76757812,9.26660156 8.7578125,9.46972656 C8.7421875,9.80566406 8.73388672,10.0332031 8.73291016,10.1523438 C8.73193359,10.2714844 8.71630859,10.355957 8.68603516,10.4057617 C8.65576172,10.4555664 8.60839844,10.4936523 8.54394531,10.5200195 C8.47949219,10.5463867 8.34277344,10.5595703 8.13378906,10.5595703 L8.13378906,10.5595703 L8.13378906,11.2626953 L8.2890625,11.2626953 Z" id="{}"></path>
                    </g>
                    <g id="展开收缩" transform="translate(13.000000, 12.000000) rotate(45.000000) translate(-13.000000, -12.000000) translate(5.000000, 4.000000)" fill-rule="nonzero">
                        <rect id="矩形" opacity="0" x="0" y="0" width="16" height="16"></rect>
                        <path d="M5.09472489,5.05188638 L5.80140376,4.97096738 C5.99937415,4.84404154 6.17649318,4.59587796 6.14166437,4.41603702 C6.10683557,4.23619608 5.91193821,4.04560871 5.62622393,4.04560871 L3.95186775,4.09950542 C3.95186775,4.09950542 3.95186775,4.09950542 3.85662965,4.09950542 C3.85662965,4.09950542 3.76139156,4.09950542 3.76139156,4.09950542 C3.66615346,4.19474352 3.57091537,4.28998162 3.47567727,4.38521971 C3.47567727,4.38521971 3.47567727,4.48045781 3.47567727,4.48045781 C3.47567727,4.48045781 3.47567727,4.48045781 3.47567727,4.5756959 L3.38436225,6.28747039 C3.42109002,6.55768496 3.69760572,6.64542593 3.88430884,6.67339256 C4.07101196,6.70135918 4.14459699,6.62777416 4.24472441,6.31297699 L4.42805822,5.71855304 L7.66615346,8.95664828 C7.85662965,9.14712447 8.14234394,9.14712447 8.33282013,8.95664828 C8.52329632,8.76617209 8.52329632,8.48045781 8.33282013,8.28998162 L5.09472489,5.05188638 Z M10.6968372,9.39837444 C10.5047393,9.42724739 10.4120783,9.51990842 10.3608925,9.73431921 L10.2547258,10.2951659 L7.01663059,7.05707071 C6.8261544,6.86659451 6.54044011,6.86659451 6.34996392,7.05707071 C6.15948773,7.2475469 6.15948773,7.53326118 6.34996392,7.72373737 L9.58805916,10.9618326 L8.85514,11.0768467 C8.74625143,11.1857353 8.65583463,11.2761521 8.68867816,11.5389434 C8.72152168,11.8017347 8.85370992,11.9896895 9.1394242,11.9896895 L10.7309163,11.9142136 C10.7309163,11.9142136 10.7309163,11.9142136 10.8261544,11.9142136 C10.8261544,11.9142136 10.9213925,11.9142136 10.9213925,11.9142136 C11.0166306,11.8189755 11.1118687,11.7237374 11.2071068,11.6284993 C11.2071068,11.6284993 11.2071068,11.5332612 11.2071068,11.5332612 C11.2071068,11.5332612 11.2071068,11.5332612 11.2071068,11.4380231 L11.114265,9.65844679 C11.114265,9.37273251 10.8889352,9.36950149 10.6968372,9.39837444 Z" id="形状"></path>
                    </g>
                    <rect id="矩形" x="2" y="5" width="14" height="1"></rect>
                    <rect id="矩形" x="2" y="17" width="14" height="1"></rect>
                </g>
            </g>
        </g>
    </g>
</svg>