<?xml version="1.0" encoding="UTF-8"?>
<svg width="16px" height="16px" viewBox="0 0 16 16" version="1.1" xmlns="http://www.w3.org/2000/svg" xmlns:xlink="http://www.w3.org/1999/xlink">
    <title>ElementImport</title>
    <g id="九大图" stroke="none" stroke-width="1" fill="none" fill-rule="evenodd">
        <g transform="translate(-1219.000000, -1314.000000)" id="Allocate">
            <g transform="translate(1218.000000, 1314.000000)">
                <g id="编组-26" transform="translate(0.146447, 0.000000)">
                    <g id="Allocate">
                        <rect id="矩形" fill="#000000" fill-rule="nonzero" opacity="0" x="0" y="0" width="16" height="16"></rect>
                        <g id="jx" transform="translate(1.000000, 1.000000)"></g>
                        <polygon id="路径" fill="#0283E2" points="9.85355339 1 14.8535534 1 14.8535534 2 9.85355339 2"></polygon>
                        <polygon id="路径" fill="#0283E2" points="13.8535534 1 14.8535534 1 14.8535534 6 13.8535534 6"></polygon>
                        <polygon id="E" fill="#0283E2" fill-rule="nonzero" points="13.7598034 15 13.7598034 14.3242188 10.2441784 14.3242188 10.2441784 12.375 13.4121471 12.375 13.4121471 11.703125 10.2441784 11.703125 10.2441784 9.94921875 13.6269909 9.94921875 13.6269909 9.2734375 9.48636589 9.2734375 9.48636589 15"></polygon>
                    </g>
                </g>
                <g id="84-虚线" transform="translate(7.646447, 7.585786) rotate(-45.000000) translate(-7.646447, -7.585786) translate(-1.853553, 6.585786)" fill="#0283E2" fill-rule="nonzero" stroke="#0283E2" stroke-width="0.2">
                    <path d="M3.37377345,0.959559891 L0.973773453,0.959559891 C0.752859553,0.959559891 0.573773453,1.18341752 0.573773453,1.45955989 C0.573773453,1.73570227 0.752859553,1.95955989 0.973773453,1.95955989 L3.37377345,1.95955989 C3.59468735,1.95955989 3.77377345,1.73570227 3.77377345,1.45955989 C3.77377345,1.18341752 3.59468735,0.959559891 3.37377345,0.959559891 L3.37377345,0.959559891 Z M8.52132034,0.959559891 L6.12132034,0.959559891 C5.90040644,0.959559891 5.72132034,1.18341752 5.72132034,1.45955989 C5.72132034,1.73570227 5.90040644,1.95955989 6.12132034,1.95955989 L8.52132034,1.95955989 C8.74223424,1.95955989 8.92132034,1.73570227 8.92132034,1.45955989 C8.92132034,1.18341752 8.74223424,0.959559891 8.52132034,0.959559891 L8.52132034,0.959559891 Z M18.5497475,0.959559891 L16.4164141,0.959559891 C16.1955002,0.959559891 16.0164141,1.18341752 16.0164141,1.45955989 C16.0164141,1.73570227 16.1955002,1.95955989 16.4164141,1.95955989 L18.5497475,1.95955989 C18.7706614,1.95955989 18.9497475,1.73570227 18.9497475,1.45955989 C18.9497475,1.18341752 18.7706614,0.959559891 18.5497475,0.959559891 L18.5497475,0.959559891 Z M11.2688672,0.959559891 C11.0479533,0.959559891 10.8688672,1.18341752 10.8688672,1.45955989 C10.8688672,1.73570227 11.0479533,1.95955989 11.2688672,1.95955989 L13.6688672,1.95955989 C13.8897811,1.95955989 14.0688672,1.73570227 14.0688672,1.45955989 C14.0688672,1.18341752 13.8897811,0.959559891 13.6688672,0.959559891 L11.2688672,0.959559891 Z" id="形状"></path>
                </g>
            </g>
        </g>
    </g>
</svg>