<?xml version="1.0" encoding="UTF-8"?>
<svg width="17px" height="16px" viewBox="0 0 17 16" version="1.1" xmlns="http://www.w3.org/2000/svg" xmlns:xlink="http://www.w3.org/1999/xlink">
    <title>ElementGroup</title>
    <defs>
        <linearGradient x1="100%" y1="51.4419976%" x2="8.33129883%" y2="50.1409016%" id="linearGradient-1">
            <stop stop-color="#FEF9DB" offset="0%"></stop>
            <stop stop-color="#FEF4BD" offset="44.2039696%"></stop>
            <stop stop-color="#FEEF9E" offset="60.7131546%"></stop>
            <stop stop-color="#FCF0AC" offset="100%"></stop>
        </linearGradient>
    </defs>
    <g id="九大图" stroke="none" stroke-width="1" fill="none" fill-rule="evenodd">
        <g transform="translate(-472.000000, -203.000000)" id="ElementGroup">
            <g transform="translate(472.686292, 203.000000)">
                <rect id="矩形" fill="#97958C" fill-rule="nonzero" opacity="0" x="0" y="0" width="16" height="16"></rect>
                <path d="M9.26436596,5 L1.36174911,5 C0.783699387,5 0.313708499,5.51271126 0.313708499,6.1433035 L0.313708499,13.8566965 C0.313708499,14.4872887 0.783699387,15 1.36174911,15 L9.26566788,15 C9.84371761,15 10.3137085,14.4872887 10.3137085,13.8566965 L10.3137085,6.14188325 C10.3124066,5.51271126 9.8424157,5 9.26436596,5 Z M1.6917122,3.22904454 C1.6917122,2.95906283 1.91772641,2.74094204 2.19747825,2.74094204 L10.7796959,2.74094204 C11.4814463,2.74094204 12.0520136,3.29158267 12.0520136,3.96882489 L12.0520136,12.2528395 C12.0520136,12.5228212 11.8259994,12.740942 11.5462476,12.740942 C11.2664957,12.740942 11.0404815,12.5228212 11.0404815,12.2528395 L11.0404815,3.96882489 C11.0404815,3.83002075 10.9235231,3.71714703 10.7796959,3.71714703 L2.19589773,3.71714703 C1.91772641,3.71714703 1.6917122,3.49750092 1.6917122,3.22904454 Z M4.51724895,1.18023429 C4.51724895,0.937250755 4.72271642,0.740942038 4.97703627,0.740942038 L12.7790523,0.740942038 C13.4170072,0.740942038 13.9357048,1.23651861 13.9357048,1.8460366 L13.9357048,9.30164979 C13.9357048,9.54463332 13.7302373,9.74094204 13.4759175,9.74094204 C13.2215976,9.74094204 13.0161302,9.54463331 13.0161302,9.30164979 L13.0161302,1.8460366 C13.0161302,1.72111288 12.9098044,1.61952653 12.7790523,1.61952653 L4.97559945,1.61952653 C4.72271642,1.61952653 4.51724895,1.42184502 4.51724895,1.18023429 Z" id="形状" fill="#97958C" fill-rule="nonzero"></path>
                <path d="M9.31245868,13.7708731 C9.31245868,13.8972401 9.21997314,14 9.1062409,14 L1.51992628,14 C1.40619406,14 1.3137085,13.8972401 1.3137085,13.7708731 L1.3137085,6.22912689 C1.3137085,6.10275995 1.40619404,6 1.51992628,6 L9.10749072,6 C9.22122294,6 9.3137085,6.10275993 9.3137085,6.22912689 L9.3137085,13.7708731 L9.31245868,13.7708731 Z" id="路径" fill="url(#linearGradient-1)"></path>
            </g>
        </g>
    </g>
</svg>