<?xml version="1.0" encoding="UTF-8"?>
<svg width="16px" height="16px" viewBox="0 0 16 16" version="1.1" xmlns="http://www.w3.org/2000/svg" xmlns:xlink="http://www.w3.org/1999/xlink">
    <title>EnvironmentalEffect</title>
    <defs>
        <linearGradient x1="25.8319214%" y1="0%" x2="50%" y2="100%" id="linearGradient-1">
            <stop stop-color="#E3E6B7" offset="0%"></stop>
            <stop stop-color="#EEF0CC" offset="100%"></stop>
        </linearGradient>
    </defs>
    <g id="九大图" stroke="none" stroke-width="1" fill="none" fill-rule="evenodd">
        <g transform="translate(-807.000000, -1062.000000)" id="EnvironmentalEffect">
            <g transform="translate(807.000000, 1062.000000)">
                <g id="立方体">
                    <path d="M3.4291351,0.00267411803 L-2.60228404e-14,3.1330901 L-2.60228404e-14,15.9928617 L12.6025884,15.9928617 L15.9481534,12.6104854 L15.9481534,0.00267411803 L3.4291351,0.00267411803 Z M11.8028994,15.1878173 L0.565656566,15.1878173 L0.565656566,3.57360406 L12.2020202,3.57360406 L12.2020202,15.1878173 L11.8028994,15.1878173 Z M1.0870423,3.00507614 L3.66145833,0.645383883 L14.9480745,0.645383883 L12.3742898,3.00507614 L1.0870423,3.00507614 Z M12.7940341,14.9762849 L12.7940341,3.40244289 L15.4564394,1.01197652 L15.4564394,12.3531885 L12.7940341,14.9762849 Z" id="形状" fill="#515151" fill-rule="nonzero"></path>
                    <polygon id="矩形" fill="url(#linearGradient-1)" points="0.565656566 3.57360406 12.2020202 3.57360406 12.2020202 15.2690355 0.565656566 15.2690355"></polygon>
                    <polygon id="路径" fill="#FFFBE4" points="1.0870423 3.00507614 3.66145833 0.645383883 14.9480745 0.645383883 12.3742898 3.00507614"></polygon>
                    <polygon id="路径" fill="#D8DE9E" points="12.7940341 14.9762849 12.7940341 3.40244289 15.4564394 1.01197652 15.4564394 12.3531885"></polygon>
                </g>
                <path d="M6.03968254,11.3643411 C7.37656229,11.3643411 8.46031746,10.3057895 8.46031746,9 C8.46031746,7.69421048 7.37656229,6.63565891 6.03968254,6.63565891 C4.70280279,6.63565891 3.61904762,7.69421048 3.61904762,9 C3.61904762,10.3057895 4.70280279,11.3643411 6.03968254,11.3643411 Z M7.03174603,6.30958226 L6.03233583,4 C6.03233583,4 5.09310936,6.34261708 5.12792888,6.32548792 C5.43094873,6.17662732 5.75738171,6.09383637 6.09822276,6.09383637 C6.42555624,6.09383637 6.73878182,6.17214111 7.03174603,6.30958226 Z M7.19047619,6.35156444 C7.80739198,6.60314 8.31476338,7.06312573 8.62546298,7.64341085 C8.66925085,7.53260487 9.25396825,5.24031008 9.25396825,5.24031008 L7.19047619,6.35156444 Z M8.93117269,8.99239714 C8.93117269,9.3360167 8.8657137,9.6639833 8.75169327,9.96899225 L11,8.71328683 L8.6984127,7.87596899 C8.84805499,8.21884317 8.93117269,8.59600477 8.93117269,8.99239714 Z M8.72264948,10.0465116 C8.43370215,10.7172919 7.88154187,11.255227 7.19047619,11.5383968 L9.73015873,12.4496124 L8.72264948,10.0465116 Z M5.12698413,11.6748127 L6.16449752,14 L7.03174603,11.6744186 C6.73271066,11.8072302 6.41300464,11.8830943 6.07890573,11.8830943 C5.74511305,11.8830943 5.42571326,11.8074272 5.12698413,11.6748127 Z M3.49253856,10.2015504 L2.50793651,12.6046512 L4.96825397,11.5754928 C4.32315898,11.3088557 3.7996256,10.8172342 3.49253856,10.2015504 Z M3.22869126,8.94321228 C3.22869126,8.62349028 3.28625517,8.31735462 3.38737272,8.03100775 L1,8.94722786 L3.46031746,10.0465116 C3.31138227,9.70759154 3.22869126,9.3347056 3.22869126,8.94321228 Z M3.44293811,7.79844961 C3.72084111,7.20438979 4.20510772,6.71945201 4.80952381,6.43111063 C4.63373258,6.37573966 2.26984127,5.39534884 2.26984127,5.39534884 L3.44293811,7.79844961 Z" id="形状" fill="#4B4B4B" fill-rule="nonzero"></path>
            </g>
        </g>
    </g>
</svg>