<?xml version="1.0" encoding="UTF-8"?>
<svg width="16px" height="16px" viewBox="0 0 16 16" version="1.1" xmlns="http://www.w3.org/2000/svg" xmlns:xlink="http://www.w3.org/1999/xlink">
    <title>ExceptionHandler</title>
    <g id="九大图" stroke="none" stroke-width="1" fill="none" fill-rule="evenodd">
        <g transform="translate(-806.000000, -662.000000)" fill="#000000" fill-rule="nonzero" id="编组-21">
            <g transform="translate(805.000000, 661.000000)">
                <g id="ExceptionHandler">
                    <rect id="矩形" opacity="0" x="2" y="2" width="16" height="16"></rect>
                    <path d="M12.3379016,7.56291306 C12.3379016,7.56291306 11.9843482,7.74812592 11.9843482,7.91646645 C11.9843482,8.10094005 12.3379016,8.27001984 12.3379016,8.27001984 C12.3379016,8.27001984 13.0450084,8.27001984 14.4592219,8.27001984 L10.2165812,12.5126605 L9.50947446,3.32027237 L3.15017454,9.70546732 C2.9487365,9.90260001 2.94407539,10.1942204 3.14551343,10.3913402 C3.34695148,10.5884729 3.61484282,10.5687063 3.81628086,10.3715736 L8.44881429,5.7951461 L9.15592107,14.2804275 C9.15592107,14.751832 9.39162333,14.751832 9.86302785,14.2804275 L15.1663287,8.97712662 L15.1651803,11.0367568 C15.3299759,11.3062565 15.4482099,11.444671 15.5198821,11.4520004 C15.7903504,11.479659 15.957508,11.1177819 15.957508,11.1177819 C15.9014597,8.74845846 15.8734355,7.56350217 15.8734355,7.56291306 C15.8734355,7.55978643 14.6949242,7.55978643 12.3379016,7.56291306 Z" id="路径" transform="translate(9.477127, 8.977127) rotate(45.000000) translate(-9.477127, -8.977127) "></path>
                </g>
            </g>
        </g>
    </g>
</svg>