<?xml version="1.0" encoding="UTF-8"?>
<svg width="16px" height="16px" viewBox="0 0 16 16" version="1.1" xmlns="http://www.w3.org/2000/svg" xmlns:xlink="http://www.w3.org/1999/xlink">
    <title>Expression</title>
    <g id="九大图" stroke="none" stroke-width="1" fill="none" fill-rule="evenodd">
        <g transform="translate(-1608.000000, -1093.000000)" fill="#000000" fill-rule="nonzero" id="Expression">
            <g transform="translate(1608.000000, 1093.000000)">
                <rect id="矩形" opacity="0" x="0" y="0" width="16" height="16"></rect>
                <path d="M3.24939467,4.99703104 C3.35230024,4.19009478 3.76029056,3.87231899 4.47578692,4.04608403 L8,4.67568474 L7.93220339,5.04225755 L5.3559322,4.58285136 C4.94915254,4.5102509 4.70460048,4.69591765 4.62227603,5.13985161 L4.35108959,6.60614287 L7.40072639,7.15124141 L7.32687651,7.55113902 L4.27845036,7.00604049 L3.35472155,12 L2,11.757205 L3.24939467,4.99703104 Z M8,10.9922026 L9.8820698,9.11201889 L8,7 L9.33574007,7 L10.534296,8.4176724 L11.732852,7 L13,7 L11.1167268,9.04594585 L12.9302046,10.9922026 C11.833935,11.0362513 11.2406739,10.8936726 11.1504212,10.5644666 C11.0818291,10.4775284 11.0252708,10.4114553 10.9795427,10.3662475 L10.4669073,9.73913317 L9.91817088,10.3326313 C9.89530686,10.37668 9.84957882,10.4195696 9.78098676,10.4647774 C9.62093863,10.8600565 9.0276775,11.0350921 8,10.9922026 Z" id="形状"></path>
            </g>
        </g>
    </g>
</svg>