<?xml version="1.0" encoding="UTF-8"?>
<svg width="16px" height="16px" viewBox="0 0 16 16" version="1.1" xmlns="http://www.w3.org/2000/svg" xmlns:xlink="http://www.w3.org/1999/xlink">
    <title>ExtendedRequirement</title>
    <defs>
        <linearGradient x1="8.33129883%" y1="32.5463867%" x2="93.0472238%" y2="32.5463867%" id="linearGradient-1">
            <stop stop-color="#FCD4D9" offset="0%"></stop>
            <stop stop-color="#FDEBEE" offset="100%"></stop>
        </linearGradient>
    </defs>
    <g id="九大图" stroke="none" stroke-width="1" fill="none" fill-rule="evenodd">
        <g transform="translate(-1215.000000, -942.000000)" id="ExtendedRequirement">
            <g transform="translate(1215.000000, 942.000000)">
                <rect id="矩形" fill="#000000" fill-rule="nonzero" opacity="0" x="0" y="0" width="16" height="16"></rect>
                <rect id="矩形" stroke="#97958C" fill="#97958C" x="0.5" y="1.5" width="14" height="12" rx="1"></rect>
                <path d="M2,2 L13,2 C13.5522847,2 14,2.44771525 14,3 L14,12 C14,12.5522847 13.5522847,13 13,13 L2,13 C1.44771525,13 1,12.5522847 1,12 L1,3 C1,2.44771525 1.44771525,2 2,2 Z" id="矩形" fill="url(#linearGradient-1)"></path>
                <polygon id="E" fill="#000000" fill-rule="nonzero" points="10.90625 10 10.90625 9.32421875 7.390625 9.32421875 7.390625 7.375 10.5585938 7.375 10.5585938 6.703125 7.390625 6.703125 7.390625 4.94921875 10.7734375 4.94921875 10.7734375 4.2734375 6.6328125 4.2734375 6.6328125 10"></polygon>
            </g>
        </g>
    </g>
</svg>