<?xml version="1.0" encoding="UTF-8"?>
<svg width="16px" height="16px" viewBox="0 0 16 16" version="1.1" xmlns="http://www.w3.org/2000/svg" xmlns:xlink="http://www.w3.org/1999/xlink">
    <title>FinalState</title>
    <g id="九大图" stroke="none" stroke-width="1" fill="none" fill-rule="evenodd">
        <g transform="translate(-1180.000000, -180.000000)" fill-rule="nonzero" id="FinalState">
            <g transform="translate(1180.000000, 180.000000)">
                <rect id="矩形" fill="#000000" opacity="0" x="0" y="0" width="16" height="16"></rect>
                <path d="M8,2.5 C6.48121694,2.5 5.10621694,3.11560847 4.1109127,4.1109127 C3.11560847,5.10621694 2.5,6.48121694 2.5,8 C2.5,9.51878306 3.11560847,10.8937831 4.1109127,11.8890873 C5.10621694,12.8843915 6.48121694,13.5 8,13.5 C9.51878306,13.5 10.8937831,12.8843915 11.8890873,11.8890873 C12.8843915,10.8937831 13.5,9.51878306 13.5,8 C13.5,6.48121694 12.8843915,5.10621694 11.8890873,4.1109127 C10.8937831,3.11560847 9.51878306,2.5 8,2.5 Z" id="路径" stroke="#4B4B4B" fill="#FFFFFF"></path>
                <path d="M4.75,8 C4.75,9.79492544 6.20507456,11.25 8,11.25 C9.79492544,11.25 11.25,9.79492544 11.25,8 C11.25,6.20507456 9.79492544,4.75 8,4.75 C6.20507456,4.75 4.75,6.20507456 4.75,8 Z" id="形状" fill="#4B4B4B"></path>
            </g>
        </g>
    </g>
</svg>