<?xml version="1.0" encoding="UTF-8"?>
<svg width="16px" height="16px" viewBox="0 0 16 16" version="1.1" xmlns="http://www.w3.org/2000/svg" xmlns:xlink="http://www.w3.org/1999/xlink">
    <title>ForkHorizontal</title>
    <g id="九大图" stroke="none" stroke-width="1" fill="none" fill-rule="evenodd">
        <g transform="translate(-807.000000, -588.000000)" id="编组-13">
            <g transform="translate(806.500000, 586.500000)">
                <g id="ForkHorizontal" transform="translate(8.500000, 9.500000) rotate(90.000000) translate(-8.500000, -9.500000) translate(-1.000000, 1.000000)">
                    <rect id="矩形" fill="#000000" fill-rule="nonzero" opacity="0" x="3" y="0" width="16" height="16"></rect>
                    <polygon id="矩形" fill="#515151" transform="translate(9.000000, 8.500000) rotate(1.000000) translate(-9.000000, -8.500000) " points="7 2.0693378 10.7849433 2 11 14.9306622 7.21505672 15"></polygon>
                    <g id="编组-7" transform="translate(3.646447, 7.439340) rotate(-45.000000) translate(-3.646447, -7.439340) translate(1.146447, 4.939340)" fill="#0283E2" fill-rule="nonzero">
                        <path d="M0.598777108,4.20620046 L3.24999595,4.04288917 L3.44183492,1.36314264 C3.44183492,1.36314264 4.17868402,1.49327134 4.17868402,1.49327134 L4.07190401,4.86479723 C4.07001504,4.89286469 2.95381379,4.92081731 0.723300273,4.94865509 C0.72679841,4.89667761 0.598777108,4.20620046 0.598777108,4.20620046 Z" id="路径"></path>
                        <path d="M0.942752531,0.935927125 C0.942752531,0.935927125 1.79269808,1.89880174 3.49258917,3.82455096 C3.54664764,3.89696578 2.96224747,4.48047443 2.90857007,4.40857007 C1.09574991,2.59574991 0.189339828,1.68933983 0.189339828,1.68933983 C0.189339828,1.65362547 0.440477396,1.4024879 0.942752531,0.935927125 Z" id="路径"></path>
                    </g>
                    <g id="编组-7" transform="translate(14.707107, 12.000000) rotate(-45.000000) translate(-14.707107, -12.000000) translate(11.707107, 9.000000)" fill="#0283E2" fill-rule="nonzero">
                        <path d="M1.28120755,4.29590621 L3.63316092,3.55151591 L4.29556095,1.28155282 C4.29556095,1.28155282 5.1256664,1.36483253 5.1256664,1.36483253 L5.05635556,4.95260519 C5.0544666,4.98067266 3.79491593,5.0162752 1.27770357,5.05941283 C1.28120171,5.00743535 1.28120755,4.29590621 1.28120755,4.29590621 Z" id="路径"></path>
                        <path d="M0.96388506,0.514137592 C0.96388506,0.514137592 1.93382013,1.39926448 3.87369026,3.16951825 C3.92774873,3.24193307 3.30657764,3.86221265 3.25290023,3.79030829 C1.31975039,2.01333422 0.353175472,1.12484718 0.353175472,1.12484718 C0.353175472,1.08913282 0.556745335,0.885562956 0.96388506,0.514137592 Z" id="路径"></path>
                    </g>
                    <g id="编组-7" transform="translate(14.707107, 5.000000) rotate(-45.000000) translate(-14.707107, -5.000000) translate(11.707107, 2.000000)" fill="#0283E2" fill-rule="nonzero">
                        <path d="M1.28120755,4.29590621 L3.63316092,3.55151591 L4.29556095,1.28155282 C4.29556095,1.28155282 5.1256664,1.36483253 5.1256664,1.36483253 L5.05635556,4.95260519 C5.0544666,4.98067266 3.79491593,5.0162752 1.27770357,5.05941283 C1.28120171,5.00743535 1.28120755,4.29590621 1.28120755,4.29590621 Z" id="路径"></path>
                        <path d="M0.96388506,0.514137592 C0.96388506,0.514137592 1.93382013,1.39926448 3.87369026,3.16951825 C3.92774873,3.24193307 3.30657764,3.86221265 3.25290023,3.79030829 C1.31975039,2.01333422 0.353175472,1.12484718 0.353175472,1.12484718 C0.353175472,1.08913282 0.556745335,0.885562956 0.96388506,0.514137592 Z" id="路径"></path>
                    </g>
                </g>
            </g>
        </g>
    </g>
</svg>