<?xml version="1.0" encoding="UTF-8"?>
<svg width="16px" height="16px" viewBox="0 0 16 16" version="1.1" xmlns="http://www.w3.org/2000/svg" xmlns:xlink="http://www.w3.org/1999/xlink">
    <title>FoundMessage</title>
    <g id="九大图" stroke="none" stroke-width="1" fill="none" fill-rule="evenodd">
        <g transform="translate(-1609.000000, -491.000000)" id="FoundMessage">
            <g transform="translate(1609.000000, 491.000000)">
                <rect id="矩形" fill="#000000" fill-rule="nonzero" opacity="0" x="0" y="0" width="16" height="16"></rect>
                <circle id="椭圆形" fill="#515151" cx="4.5" cy="7.5" r="3.5"></circle>
                <g id="编组-7" transform="translate(10.449747, 7.792893) rotate(-45.000000) translate(-10.449747, -7.792893) translate(6.949747, 4.292893)" fill="#0283E2" fill-rule="nonzero">
                    <path d="M5.13346241,1.21979534 C6.03063867,2.1169716 6.47922679,2.56555973 6.47922679,2.56555973 C6.47922679,2.56555973 5.89632981,3.3973942 5.89632981,3.3973942 C5.89632981,3.3973942 6.57063623,4.07170062 6.57063623,4.07170062 C6.57063623,4.07170062 5.85696937,4.78536748 5.85696937,4.78536748 C5.85696937,4.78536748 6.54620859,5.47460669 6.54620859,5.47460669 C6.54620859,5.47460669 6.31791597,5.70289931 5.86133073,6.15948455 C5.8611807,6.1616933 5.15693412,6.86593987 5.15590477,6.86491051 C5.15590477,6.86491051 4.46666555,6.1756713 4.46666555,6.1756713 C4.46666555,6.1756713 3.66366086,6.75373455 3.66366086,6.75373455 C3.66366086,6.75373455 3.09972494,6.18979862 3.10182517,6.19189885 C3.10183548,6.19190917 2.41465755,6.87906646 2.41465755,6.87906646 C2.41465755,6.87906646 1.92457984,6.38898875 0.944424423,5.40883333 C0.946309423,5.38108193 3.50546042,5.78248778 4.4977851,4.79593892 C5.59391867,3.70618538 5.13346241,1.21979534 5.13346241,1.21979534 Z" id="路径"></path>
                    <path d="M1.6526583,0.51156147 C1.6526583,0.51156147 2.9285856,1.78748877 5.4804402,4.33934338 C5.53449867,4.41175819 4.09542828,5.84993707 4.04175087,5.77803271 C1.48989626,3.22617811 0.213968962,1.9502508 0.213968962,1.9502508 C0.213968962,1.91453644 0.693532074,1.43497333 1.6526583,0.51156147 Z" id="路径"></path>
                </g>
            </g>
        </g>
    </g>
</svg>