<?xml version="1.0" encoding="UTF-8"?>
<svg width="14px" height="14px" viewBox="0 0 14 14" version="1.1" xmlns="http://www.w3.org/2000/svg" xmlns:xlink="http://www.w3.org/1999/xlink">
    <title>iconlink</title>
    <defs>
        <linearGradient x1="50%" y1="18.182373%" x2="50%" y2="77.2186279%" id="linearGradient-1">
            <stop stop-color="#986060" offset="0%"></stop>
            <stop stop-color="#654040" offset="33.3212716%"></stop>
            <stop stop-color="#000000" offset="100%"></stop>
        </linearGradient>
        <linearGradient x1="0%" y1="50%" x2="100%" y2="50%" id="linearGradient-2">
            <stop stop-color="#DEDEDE" offset="0%"></stop>
            <stop stop-color="#FFFFFF" offset="100%"></stop>
        </linearGradient>
    </defs>
    <g id="icon" stroke="none" stroke-width="1" fill="none" fill-rule="evenodd">
        <g transform="translate(-1302.000000, -864.000000)" id="iconlink">
            <g transform="translate(1302.000000, 864.000000)">
                <rect id="矩形" fill="url(#linearGradient-1)" fill-rule="nonzero" opacity="0" x="0" y="0" width="14" height="14"></rect>
                <g id="Canvasiconusage" transform="translate(1.000000, 1.000000)">
                    <rect id="矩形" stroke="#414F58" fill="#FFFFFF" x="0.5" y="0.5" width="11" height="11"></rect>
                    <rect id="矩形" fill="url(#linearGradient-2)" x="1" y="1" width="10" height="10"></rect>
                    <path d="M8.45863342,8.46665955 C8.45863342,8.46665955 8.45863342,7.16355896 8.45863342,4.55735779 C8.45863342,4.55735779 7.45375061,4.55735779 7.45375061,4.55735779 L7.45375061,6.5330658 C6.78590393,6.54643786 6.45198059,6.53941882 6.45198059,6.51200867 C6.45198059,6.4899292 6.45198059,5.52430725 6.45198059,5.52430725 C6.45198059,5.52430725 5.42652893,5.52430725 5.42652893,5.52430725 C5.42652893,5.52430725 5.42652893,4.51319885 5.42652893,4.51319885 C5.42652893,4.51319885 5.10318502,4.51319885 4.45649719,4.51319885 C4.44706402,4.51319885 4.45649719,5.401474 4.45649719,5.52430725 C4.45649719,5.52430725 3.47877502,5.52430725 3.47877502,5.52430725 C3.47877502,5.52430725 3.47877502,6.5330658 3.47877502,6.5330658 C4.1305898,6.5330658 4.45649719,6.5330658 4.45649719,6.5330658 C4.40216147,6.5330658 4.45649719,5.56791687 4.45649719,5.56791687 C4.45649719,5.56791687 5.42652893,5.56791687 5.42652893,5.56791687 C5.46694763,5.56791687 5.42652893,6.4899292 5.42652893,6.4899292 C5.42652893,6.4899292 6.3629303,6.5330658 6.3629303,6.5330658 C6.3629303,6.5330658 6.39261373,6.86997986 6.45198059,7.54380798 L4.54029846,7.54380798 C4.40879253,7.54379872 4.54029846,8.46665955 4.54029846,8.46665955 L8.45863342,8.46665955 Z" id="路径" fill="#414F58" fill-rule="nonzero" transform="translate(5.968704, 6.489929) rotate(-90.000000) translate(-5.968704, -6.489929) "></path>
                </g>
            </g>
        </g>
    </g>
</svg>
