<?xml version="1.0" encoding="UTF-8"?>
<svg width="16px" height="16px" viewBox="0 0 16 16" version="1.1" xmlns="http://www.w3.org/2000/svg" xmlns:xlink="http://www.w3.org/1999/xlink">
    <title>ImageShape</title>
    <g id="九大图" stroke="none" stroke-width="1" fill="none" fill-rule="evenodd">
        <g transform="translate(-473.000000, -371.000000)" id="ImageShape">
            <g transform="translate(473.000000, 371.000000)">
                <rect id="矩形" fill="#000000" fill-rule="nonzero" opacity="0" x="0" y="0" width="16" height="16"></rect>
                <rect id="矩形" stroke="#97958C" fill="#97958C" x="0.5" y="1.5" width="14" height="12" rx="1"></rect>
                <path d="M2,2 L13,2 C13.5522847,2 14,2.44771525 14,3 L14,12 C14,12.5522847 13.5522847,13 13,13 L2,13 C1.44771525,13 1,12.5522847 1,12 L1,3 C1,2.44771525 1.44771525,2 2,2 Z" id="矩形" fill="#FFFFFF"></path>
                <rect id="矩形备份-2" stroke="#97958C" fill="#97958C" x="0.5" y="1.5" width="14" height="12" rx="1"></rect>
                <path d="M2,2 L13,2 C13.5522847,2 14,2.44771525 14,3 L14,12 C14,12.5522847 13.5522847,13 13,13 L2,13 C1.44771525,13 1,12.5522847 1,12 L1,3 C1,2.44771525 1.44771525,2 2,2 Z" id="矩形备份" fill="#FFFFFF"></path>
                <path d="M6.79496373,9.40633832 L5.67468171,7.81636957 C5.52625923,7.60572895 5.28563629,7.60574457 5.13721382,7.81636957 L3.07195708,10.7475258 C2.9235346,10.9581664 3.01209456,11.1289321 3.26974709,11.1289321 L12.7320152,11.1289321 C12.98982,11.1289321 13.0763998,10.9585414 12.9265303,10.7483539 L9.65365011,6.15815082 C9.50280571,5.94658832 9.26081188,5.94797895 9.11095758,6.15815082 L6.79497896,9.40633832 L6.79496373,9.40633832 Z" id="路径" fill="#000000" fill-rule="nonzero"></path>
                <path d="M3.39879708,4.93253906 C3.39879708,5.44756617 3.81630904,5.86507812 4.33133614,5.86507812 C4.84636325,5.86507812 5.26387521,5.44756617 5.26387521,4.93253906 C5.26387521,4.41751196 4.84636325,4 4.33133614,4 C3.81630904,4 3.39879708,4.41751196 3.39879708,4.93253906 L3.39879708,4.93253906 Z" id="路径" fill="#000000" fill-rule="nonzero"></path>
            </g>
        </g>
    </g>
</svg>