<?xml version="1.0" encoding="UTF-8"?>
<svg width="16px" height="16px" viewBox="0 0 16 16" version="1.1" xmlns="http://www.w3.org/2000/svg" xmlns:xlink="http://www.w3.org/1999/xlink">
    <title>InputPin</title>
    <defs>
        <linearGradient x1="100%" y1="50.8723196%" x2="8.33129883%" y2="50.0852367%" id="linearGradient-1">
            <stop stop-color="#FEF9DB" offset="0%"></stop>
            <stop stop-color="#FEF4BD" offset="44.2039696%"></stop>
            <stop stop-color="#FEEF9E" offset="60.7131546%"></stop>
            <stop stop-color="#FCF0AC" offset="100%"></stop>
        </linearGradient>
    </defs>
    <g id="九大图" stroke="none" stroke-width="1" fill="none" fill-rule="evenodd">
        <g transform="translate(-807.000000, -349.000000)" id="InputPin">
            <g transform="translate(807.000000, 349.000000)">
                <g id="jx" fill="#000000" fill-rule="nonzero" opacity="0">
                    <rect id="矩形" x="0" y="0.442906574" width="16" height="15.0588235"></rect>
                </g>
                <g id="编组-15" transform="translate(1.545044, 0.000000)">
                    <path d="M8.45495581,4.5 L0.95495581,5 L1.45495581,10.5 L8.95495581,10 L8.45495581,4.5 Z" id="矩形" stroke="#97958C" fill="url(#linearGradient-1)"></path>
                    <rect id="矩形" fill="#979487" x="10.4549558" y="0" width="2" height="1"></rect>
                    <rect id="矩形" fill="#979487" x="9.45495581" y="1" width="1" height="1"></rect>
                    <rect id="矩形" fill="#979487" x="8.45495581" y="2" width="1" height="11"></rect>
                    <rect id="矩形" fill="#979487" x="10.4549558" y="14" width="2" height="1"></rect>
                    <rect id="矩形" fill="#979487" x="9.45495581" y="13" width="1" height="1"></rect>
                </g>
                <path d="M4.33339388,7.82673496 L8.814116,7.82673496 L7.04987195,9.42871948 C6.96079437,9.50779515 6.92179928,9.62785978 6.94777059,9.74308632 C6.9737419,9.85831285 7.06067136,9.95091795 7.17537916,9.98555548 C7.29008695,10.020193 7.41486981,9.99151723 7.50209977,9.91047331 L9.89301824,7.73973948 C9.96122716,7.67760527 10,7.59030552 10,7.49886257 C10,7.40741961 9.96122716,7.32011986 9.89301824,7.25798565 L7.50209977,5.08725181 C7.43721053,5.02811405 7.35105926,4.99681209 7.26266706,5.000257 C7.17427486,5.00370192 7.0909116,5.04161038 7.03098283,5.10561267 C6.97099864,5.16951908 6.93928837,5.25425022 6.94283096,5.34115807 C6.94637356,5.42806592 6.98487868,5.51002798 7.04987195,5.56900565 L8.814116,7.17099018 L4.33339388,7.17099018 C4.21429044,7.17097035 4.10422569,7.23345814 4.04466815,7.33491035 C3.98511062,7.43636256 3.98511062,7.56136257 4.04466815,7.66281478 C4.10422569,7.764267 4.21429044,7.82675478 4.33339388,7.82673496" id="路径" fill="#48432E" fill-rule="nonzero"></path>
            </g>
        </g>
    </g>
</svg>