<?xml version="1.0" encoding="UTF-8"?>
<svg width="16px" height="16px" viewBox="0 0 16 16" version="1.1" xmlns="http://www.w3.org/2000/svg" xmlns:xlink="http://www.w3.org/1999/xlink">
    <title>InteractionUse</title>
    <defs>
        <linearGradient x1="100%" y1="51.2433551%" x2="8.33129883%" y2="50.1214917%" id="linearGradient-1">
            <stop stop-color="#FEF9DB" offset="0%"></stop>
            <stop stop-color="#FEF4BD" offset="44.2039696%"></stop>
            <stop stop-color="#FEEF9E" offset="60.7131546%"></stop>
            <stop stop-color="#FCF0AC" offset="100%"></stop>
        </linearGradient>
        <linearGradient x1="100%" y1="50.2307196%" x2="8.33129883%" y2="50.0225442%" id="linearGradient-2">
            <stop stop-color="#FEF9DB" offset="0%"></stop>
            <stop stop-color="#FEF4BD" offset="44.2039696%"></stop>
            <stop stop-color="#FEEF9E" offset="60.7131546%"></stop>
            <stop stop-color="#FCF0AC" offset="100%"></stop>
        </linearGradient>
    </defs>
    <g id="九大图" stroke="none" stroke-width="1" fill="none" fill-rule="evenodd">
        <g transform="translate(-1607.000000, -134.000000)" id="InteractionUse">
            <g transform="translate(1607.000000, 134.000000)">
                <rect id="矩形" fill="#000000" fill-rule="nonzero" opacity="0" x="0" y="0" width="16" height="16"></rect>
                <g id="Block"></g>
                <rect id="矩形" stroke="#97958C" fill="url(#linearGradient-1)" x="1.5" y="2.5" width="13" height="12" rx="1"></rect>
                <path d="M9,2.5 L3,2.5 C2.58578644,2.5 2.21078644,2.66789322 1.93933983,2.93933983 C1.66789322,3.21078644 1.5,3.58578644 1.5,4 C1.5,4.41421356 1.66789322,4.78921356 1.93933983,5.06066017 C2.21078644,5.33210678 2.58578644,5.5 3,5.5 L9,5.5 C9.41421356,5.5 9.78921356,5.33210678 10.0606602,5.06066017 C10.3321068,4.78921356 10.5,4.41421356 10.5,4 C10.5,3.58578644 10.3321068,3.21078644 10.0606602,2.93933983 C9.78921356,2.66789322 9.41421356,2.5 9,2.5 Z" id="矩形" stroke="#97958C" fill="url(#linearGradient-2)"></path>
            </g>
        </g>
    </g>
</svg>