<?xml version="1.0" encoding="UTF-8"?>
<svg width="16px" height="16px" viewBox="0 0 16 16" version="1.1" xmlns="http://www.w3.org/2000/svg" xmlns:xlink="http://www.w3.org/1999/xlink">
    <title>InterruptibleActivityRegion</title>
    <defs>
        <linearGradient x1="100%" y1="51.0013872%" x2="8.33129883%" y2="50.0978483%" id="linearGradient-1">
            <stop stop-color="#E5E5C8" offset="0%"></stop>
            <stop stop-color="#FFFFF1" offset="44.2039696%"></stop>
            <stop stop-color="#E6E6CA" offset="100%"></stop>
        </linearGradient>
    </defs>
    <g id="九大图" stroke="none" stroke-width="1" fill="none" fill-rule="evenodd">
        <g transform="translate(-807.000000, -684.000000)" id="InterruptibleActivityRegion">
            <g transform="translate(807.000000, 684.000000)">
                <rect id="矩形" fill="#000000" fill-rule="nonzero" opacity="0" x="0" y="0" width="16" height="16"></rect>
                <g id="Block"></g>
                <path d="M2,3 C1.80157471,3.33093262 1,3.99645996 1,3.99645996 C1,3.99645996 1,4.33207747 1,5.0033125 L2.04019531,5.0033125 L2.04019531,3 L4.96463379,3 L4.96463379,2.0157041 C3.64308919,2.0157041 2.98231689,2.0157041 2.98231689,2.0157041 C2.98231689,2.0157041 2.3215332,2.86187744 2,3 Z M2.00015625,13.003375 C2.09644132,13.0461928 2.74023437,13.6647949 3.0167823,14.0152769 C3.0167823,14.0152769 3.68883045,14.0152769 5.03292674,14.0152769 L5.03292674,13.0014219 L2.05044922,13.0014219 L2.05044922,11.0010312 L1.00063787,11.0010312 C1.00063787,11.6871927 1.00063787,12.0302734 1.00063787,12.0302734 C1.00063787,12.0302734 1.74432373,12.7128906 2.00015625,13.003375 Z M13.9821814,13.003375 C14.0543555,12.9017515 15,12.0516357 15,12.0516357 C15,12.0516357 15,11.699627 15,10.9956094 L13.9821814,10.9956094 L13.9821814,12.9989375 L11.0050391,12.9989375 L11.0050391,13.9965696 C12.3366927,13.9965696 13.0025195,13.9965696 13.0025195,13.9965696 C13.0025195,13.9965696 13.8268793,13.0959243 13.9821814,13.003375 Z M14.0001563,3.003375 C13.9265434,2.94570616 13.0073945,2.00960059 13.0073945,2.00960059 L13.0073945,3.003375 L13.9734839,3.0034375 L13.9734839,5.00382813 L14.999435,5.00382813 C14.9820487,4.66719259 14.9820487,4.34641785 14.999435,4.04150391 C14.999435,4.04150391 14.1361084,3.14709473 14.0001563,3.003375 Z M5.91629395,2 L7.91629395,2 L7.91629395,3 L5.91629395,3 L5.91629395,2 Z M1,7.00664062 L1.99838623,7.00664062 L1.99838623,9.00409375 L1,9.00409375 L1,7.00664062 Z M14.0155981,7.00664062 L14.999435,7.00664062 L14.999435,9.00409375 L14.0155981,9.00409375 L14.0155981,7.00664062 Z M6.01305626,12.9969844 L10.0428095,12.9969844 L10.0428095,14.0001406 L5.99984149,14.0001406 L6.01305626,12.9969844 Z" id="形状" fill="#97958C" fill-rule="nonzero"></path>
                <rect id="矩形" fill="url(#linearGradient-1)" x="2.00015625" y="3.003375" width="12" height="10"></rect>
                <polygon id="路径" fill="#48432E" fill-rule="nonzero" points="12 1 11.0050391 1 6 7.00664062 10.0350684 7.00664062 7.08744319 10.1706543 7.85436456 10.9956094 11.015354 7.00664062 12 6.0000301 7.85436456 5.99780469"></polygon>
            </g>
        </g>
    </g>
</svg>