<?xml version="1.0" encoding="UTF-8"?>
<svg width="16px" height="16px" viewBox="0 0 16 16" version="1.1" xmlns="http://www.w3.org/2000/svg" xmlns:xlink="http://www.w3.org/1999/xlink">
    <title>InterfaceBlock</title>
    <defs>
        <linearGradient x1="100%" y1="51.0324362%" x2="8.33129883%" y2="50.1008822%" id="linearGradient-1">
            <stop stop-color="#FEF9DB" offset="0%"></stop>
            <stop stop-color="#FEF4BD" offset="44.2039696%"></stop>
            <stop stop-color="#FEEF9E" offset="60.7131546%"></stop>
            <stop stop-color="#FCF0AC" offset="100%"></stop>
        </linearGradient>
    </defs>
    <g id="九大图" stroke="none" stroke-width="1" fill="none" fill-rule="evenodd">
        <g transform="translate(-86.000000, -134.000000)" id="InterfaceBlock">
            <g transform="translate(86.000000, 134.000000)">
                <rect id="矩形" fill="#000000" fill-rule="nonzero" opacity="0" x="0" y="0" width="16" height="16"></rect>
                <rect id="矩形" stroke="#97958C" fill="#97958C" x="0.5" y="1.5" width="14" height="12" rx="1"></rect>
                <rect id="矩形" fill="url(#linearGradient-1)" x="1" y="2" width="13" height="11" rx="1"></rect>
                <polygon id="矩形" fill="#979487" points="2 9.99743652 14 9.99743652 14 11.0327148 2 11.0327148"></polygon>
                <path d="M9.43164062,8.91992188 C9.88411458,8.91992188 10.3015951,8.8141276 10.684082,8.60253906 C11.066569,8.39095052 11.3579102,8.09391276 11.5581055,7.71142578 C11.7583008,7.3289388 11.8583984,6.80403646 11.8583984,6.13671875 C11.8583984,5.31315104 11.6321615,4.66780599 11.1796875,4.20068359 C10.7272135,3.7335612 10.1445312,3.5 9.43164062,3.5 C8.79036458,3.5 8.24674479,3.69205729 7.80078125,4.07617188 C7.26692708,4.53841146 7,5.24967448 7,6.20996094 C7,7.08561198 7.22379557,7.7561849 7.67138672,8.22167969 C8.11897786,8.68717448 8.70572917,8.91992188 9.43164062,8.91992188 Z M9.43164062,8.19726562 C8.9921875,8.19726562 8.62760417,8.0320638 8.33789062,7.70166016 C8.04817708,7.37125651 7.90332031,6.87402344 7.90332031,6.20996094 C7.90332031,5.54589844 8.04817708,5.04947917 8.33789062,4.72070312 C8.62760417,4.39192708 8.9921875,4.22753906 9.43164062,4.22753906 C9.86458333,4.22753906 10.2267253,4.39274089 10.5180664,4.72314453 C10.8094076,5.05354818 10.9550781,5.53938802 10.9550781,6.18066406 C10.9550781,6.8610026 10.8102214,7.3671875 10.5205078,7.69921875 C10.2307943,8.03125 9.86783854,8.19726562 9.43164062,8.19726562 Z" id="o" fill="#000000" fill-rule="nonzero"></path>
            </g>
        </g>
    </g>
</svg>