<?xml version="1.0" encoding="UTF-8"?>
<svg width="16px" height="16px" viewBox="0 0 16 16" version="1.1" xmlns="http://www.w3.org/2000/svg" xmlns:xlink="http://www.w3.org/1999/xlink">
    <title>JoinHorizontal</title>
    <defs>
        <polygon id="path-1" points="8.5 2.5 10.5709229 2.5 11.5 2.5 11.5 13.5 8.5 13.5"></polygon>
    </defs>
    <g id="九大图" stroke="none" stroke-width="1" fill="none" fill-rule="evenodd">
        <g transform="translate(-808.000000, -636.000000)" id="编组-10">
            <g transform="translate(807.000000, 634.000000)">
                <g id="JoinHorizontal" transform="translate(8.500000, 10.000000) rotate(90.000000) translate(-8.500000, -10.000000) translate(-1.000000, 2.000000)">
                    <rect id="矩形" fill="#000000" fill-rule="nonzero" opacity="0" x="3" y="0" width="16" height="16"></rect>
                    <g id="矩形">
                        <use fill="#515151" fill-rule="evenodd" xlink:href="#path-1"></use>
                        <path stroke="#515151" stroke-width="1" d="M12,2 L8,2 L8,14 L12,14 L12,2 Z"></path>
                        <path stroke="#FFFFFF" stroke-width="1" d="M11,3 L9,3 L9,13 L11,13 L11,3 Z" stroke-linejoin="square"></path>
                    </g>
                    <g id="编组-7" transform="translate(15.000000, 8.000000) rotate(-45.000000) translate(-15.000000, -8.000000) translate(12.500000, 5.500000)" fill="#0283E2" fill-rule="nonzero">
                        <path d="M0.422825181,3.21607204 L3.1237043,3.1237043 L3.21497954,0.423917683 C3.21497954,0.423917683 4.08311493,0.588840432 4.08311493,0.588840432 L3.90962883,3.93722461 C3.90773986,3.96529207 2.80164479,4.01308779 0.591343617,4.08061175 C0.594841754,4.02863427 0.422825181,3.21607204 0.422825181,3.21607204 Z" id="路径"></path>
                        <path d="M1.4835135,0.77640672 C1.4835135,0.77640672 2.17718364,1.47007686 3.56452392,2.85741714 C3.61858239,2.92983196 2.91109455,3.63642829 2.85741714,3.56452392 C1.47007686,2.17718364 0.77640672,1.4835135 0.77640672,1.4835135 C0.77640672,1.44779914 1.01210898,1.21209688 1.4835135,0.77640672 Z" id="路径"></path>
                    </g>
                    <g id="编组-7" transform="translate(4.000000, 12.000000) rotate(-45.000000) translate(-4.000000, -12.000000) translate(1.500000, 9.500000)" fill="#0283E2" fill-rule="nonzero">
                        <path d="M1.5044293,3.65483839 L3.90547291,3.90547291 L3.66511008,1.49415761 C3.66511008,1.49415761 4.31256883,0.846698867 4.31256883,0.846698867 L4.63081519,4.63081519 C4.62892622,4.65888265 3.35594345,4.56441119 0.811866893,4.3474008 C0.81536503,4.29542332 1.5044293,3.65483839 1.5044293,3.65483839 Z" id="路径"></path>
                        <path d="M1.08183983,0.424985579 C1.08183983,0.424985579 2.01716521,1.36031096 3.88781597,3.23096172 C3.94187444,3.30337653 3.25765705,3.98670241 3.20397964,3.91479804 C1.33332888,2.04414728 0.398003503,1.1088219 0.398003503,1.1088219 C0.398003503,1.07310754 0.625948944,0.845162101 1.08183983,0.424985579 Z" id="路径"></path>
                    </g>
                    <g id="编组-7" transform="translate(4.000000, 4.000000) rotate(-45.000000) translate(-4.000000, -4.000000) translate(1.500000, 1.500000)" fill="#0283E2" fill-rule="nonzero">
                        <path d="M1.5044293,3.65483839 L3.90547291,3.90547291 L3.66511008,1.49415761 C3.66511008,1.49415761 4.31256883,0.846698867 4.31256883,0.846698867 L4.63081519,4.63081519 C4.62892622,4.65888265 3.35594345,4.56441119 0.811866893,4.3474008 C0.81536503,4.29542332 1.5044293,3.65483839 1.5044293,3.65483839 Z" id="路径"></path>
                        <path d="M1.08183983,0.424985579 C1.08183983,0.424985579 2.01716521,1.36031096 3.88781597,3.23096172 C3.94187444,3.30337653 3.25765705,3.98670241 3.20397964,3.91479804 C1.33332888,2.04414728 0.398003503,1.1088219 0.398003503,1.1088219 C0.398003503,1.07310754 0.625948944,0.845162101 1.08183983,0.424985579 Z" id="路径"></path>
                    </g>
                </g>
            </g>
        </g>
    </g>
</svg>