<?xml version="1.0" encoding="UTF-8"?>
<svg width="16px" height="16px" viewBox="0 0 16 16" version="1.1" xmlns="http://www.w3.org/2000/svg" xmlns:xlink="http://www.w3.org/1999/xlink">
    <title>LiteralReal</title>
    <g id="九大图" stroke="none" stroke-width="1" fill="none" fill-rule="evenodd">
        <g transform="translate(-1608.000000, -1213.000000)" id="LiteralReal">
            <g transform="translate(1608.000000, 1213.000000)">
                <rect id="矩形" fill="#000000" fill-rule="nonzero" opacity="0" x="0" y="0" width="16" height="16"></rect>
                <rect id="矩形" stroke="#97958C" x="0.5" y="1.5" width="14" height="12" rx="1"></rect>
                <rect id="矩形" fill="#FFFFFF" x="1" y="2" width="13" height="11" rx="1"></rect>
                <path d="M6.02050781,10 L6.02050781,9.49316406 L3.9140625,9.49316406 C3.97265625,9.39746094 4.046875,9.30224609 4.13671875,9.20751953 C4.2265625,9.11279297 4.4296875,8.93261719 4.74609375,8.66699219 C5.125,8.34667969 5.39599609,8.09472656 5.55908203,7.91113281 C5.72216797,7.72753906 5.83886719,7.55273438 5.90917969,7.38671875 C5.97949219,7.22070312 6.01464844,7.05175781 6.01464844,6.87988281 C6.01464844,6.54199219 5.89453125,6.25878906 5.65429688,6.03027344 C5.4140625,5.80175781 5.08789063,5.6875 4.67578125,5.6875 C4.26757813,5.6875 3.94238281,5.79345703 3.70019531,6.00537109 C3.45800781,6.21728516 3.31835938,6.52539062 3.28125,6.9296875 L3.28125,6.9296875 L3.82324219,6.98535156 C3.82519531,6.71582031 3.90234375,6.50488281 4.0546875,6.35253906 C4.20703125,6.20019531 4.41015625,6.12402344 4.6640625,6.12402344 C4.90429688,6.12402344 5.09912109,6.19580078 5.24853516,6.33935547 C5.39794922,6.48291016 5.47265625,6.65917969 5.47265625,6.86816406 C5.47265625,7.06738281 5.390625,7.27880859 5.2265625,7.50244141 C5.0625,7.72607422 4.74707031,8.02929688 4.28027344,8.41210938 C3.97949219,8.65820312 3.74951172,8.875 3.59033203,9.0625 C3.43115234,9.25 3.31542969,9.44042969 3.24316406,9.63378906 C3.19824219,9.75097656 3.17773438,9.87304688 3.18164063,10 L3.18164063,10 L6.02050781,10 Z M7.05091406,10.966 C7.30291406,10.9 7.51291406,10.768 7.66891406,10.576 C7.82491406,10.372 7.90291406,10.138 7.90291406,9.874 C7.90291406,9.7 7.86091406,9.562 7.78291406,9.454 C7.69891406,9.34 7.58491406,9.286 7.45291406,9.286 C7.33291406,9.286 7.24291406,9.316 7.17091406,9.388 C7.09891406,9.454 7.06291406,9.544 7.06291406,9.658 C7.06291406,9.76 7.09891406,9.85 7.17091406,9.922 C7.24291406,9.994 7.32691406,10.03 7.42891406,10.03 C7.48891406,10.03 7.53691406,10.018 7.56091406,10.006 C7.56091406,10.15 7.51891406,10.282 7.42891406,10.408 C7.33291406,10.528 7.20691406,10.618 7.05091406,10.672 L7.05091406,10.966 Z" id="2，" fill="#000000" fill-rule="nonzero"></path>
                <path d="M9.64941406,10.0732422 C9.96386719,10.0732422 10.2241211,9.98876953 10.4301758,9.81982422 C10.6362305,9.65087891 10.7910156,9.41162109 10.8945312,9.10205078 C10.9980469,8.79248047 11.0498047,8.38574219 11.0498047,7.88183594 C11.0498047,7.45605469 11.0175781,7.11767578 10.953125,6.86669922 C10.8886719,6.61572266 10.7998047,6.40283203 10.6865234,6.22802734 C10.5732422,6.05322266 10.4296875,5.91943359 10.2558594,5.82666016 C10.0820312,5.73388672 9.87988281,5.6875 9.64941406,5.6875 C9.33691406,5.6875 9.07763672,5.77148438 8.87158203,5.93945312 C8.66552734,6.10742188 8.51025391,6.34619141 8.40576172,6.65576172 C8.30126953,6.96533203 8.24902344,7.37402344 8.24902344,7.88183594 C8.24902344,8.68847656 8.390625,9.27050781 8.67382812,9.62792969 C8.91015625,9.92480469 9.23535156,10.0732422 9.64941406,10.0732422 Z M9.64941406,9.63964844 C9.40722656,9.63964844 9.20361328,9.52294922 9.03857422,9.28955078 C8.87353516,9.05615234 8.79101562,8.58691406 8.79101562,7.88183594 C8.79101562,7.17675781 8.88183594,6.69335938 9.06347656,6.43164062 C9.20800781,6.2265625 9.40136719,6.12402344 9.64355469,6.12402344 C9.88964844,6.12402344 10.0952148,6.24023438 10.2602539,6.47265625 C10.425293,6.70507812 10.5078125,7.17480469 10.5078125,7.88183594 C10.5078125,8.58496094 10.425293,9.05371094 10.2602539,9.28808594 C10.0952148,9.52246094 9.89160156,9.63964844 9.64941406,9.63964844 Z M12.0509141,10.966 C12.3029141,10.9 12.5129141,10.768 12.6689141,10.576 C12.8249141,10.372 12.9029141,10.138 12.9029141,9.874 C12.9029141,9.7 12.8609141,9.562 12.7829141,9.454 C12.6989141,9.34 12.5849141,9.286 12.4529141,9.286 C12.3329141,9.286 12.2429141,9.316 12.1709141,9.388 C12.0989141,9.454 12.0629141,9.544 12.0629141,9.658 C12.0629141,9.76 12.0989141,9.85 12.1709141,9.922 C12.2429141,9.994 12.3269141,10.03 12.4289141,10.03 C12.4889141,10.03 12.5369141,10.018 12.5609141,10.006 C12.5609141,10.15 12.5189141,10.282 12.4289141,10.408 C12.3329141,10.528 12.2069141,10.618 12.0509141,10.672 L12.0509141,10.966 Z" id="0，" fill="#000000" fill-rule="nonzero"></path>
                <path d="M1.714,10.966 C1.966,10.9 2.176,10.768 2.332,10.576 C2.488,10.372 2.566,10.138 2.566,9.874 C2.566,9.7 2.524,9.562 2.446,9.454 C2.362,9.34 2.248,9.286 2.116,9.286 C1.996,9.286 1.906,9.316 1.834,9.388 C1.762,9.454 1.726,9.544 1.726,9.658 C1.726,9.76 1.762,9.85 1.834,9.922 C1.906,9.994 1.99,10.03 2.092,10.03 C2.152,10.03 2.2,10.018 2.224,10.006 C2.224,10.15 2.182,10.282 2.092,10.408 C1.996,10.528 1.87,10.618 1.714,10.672 L1.714,10.966 Z" id="，" fill="#000000" fill-rule="nonzero"></path>
            </g>
        </g>
    </g>
</svg>