<?xml version="1.0" encoding="UTF-8"?>
<svg width="16px" height="16px" viewBox="0 0 16 16" version="1.1" xmlns="http://www.w3.org/2000/svg" xmlns:xlink="http://www.w3.org/1999/xlink">
    <title>LiteralString</title>
    <g id="九大图" stroke="none" stroke-width="1" fill="none" fill-rule="evenodd">
        <g transform="translate(-1608.000000, -1238.000000)" id="LiteralString">
            <g transform="translate(1608.000000, 1238.000000)">
                <rect id="矩形" fill="#000000" fill-rule="nonzero" opacity="0" x="0" y="0" width="16" height="16"></rect>
                <rect id="矩形" stroke="#97958C" x="0.5" y="1.5" width="14" height="12" rx="1"></rect>
                <rect id="矩形" fill="#FFFFFF" x="1" y="2" width="13" height="11" rx="1"></rect>
                <path d="M4.47802734,11 L4.47802734,6.58056641 L6.13574219,6.58056641 L6.13574219,5.98925781 L2.1640625,5.98925781 L2.1640625,6.58056641 L3.81494141,6.58056641 L3.81494141,11 L4.47802734,11 Z M7.07226562,11 L8.02587891,9.56787109 L8.22412109,9.87207031 L8.96923828,11 L9.72460938,11 L8.37451172,9.07910156 L9.62890625,7.37011719 L8.89404297,7.37011719 L8.28222656,8.22802734 C8.19791667,8.34423828 8.10563151,8.47753906 8.00537109,8.62792969 C7.94156901,8.51855469 7.85725911,8.38297526 7.75244141,8.22119141 L7.75244141,8.22119141 L7.1953125,7.37011719 L6.42626953,7.37011719 L7.65332031,9.11328125 L6.32714844,11 L7.07226562,11 Z M11.2045898,11.0478516 C11.3413086,11.0478516 11.4962565,11.0296224 11.6694336,10.9931641 L11.6694336,10.9931641 L11.5805664,10.449707 C11.4689128,10.4656576 11.3789062,10.4736328 11.3105469,10.4736328 C11.219401,10.4736328 11.1493327,10.4588216 11.1003418,10.4291992 C11.0513509,10.3995768 11.0160319,10.3597005 10.9943848,10.3095703 C10.9727376,10.2594401 10.9619141,10.1466471 10.9619141,9.97119141 L10.9619141,9.97119141 L10.9619141,7.84863281 L11.5805664,7.84863281 L11.5805664,7.37011719 L10.9619141,7.37011719 L10.9619141,6.10205078 L10.3500977,6.47119141 L10.3500977,7.37011719 L9.89892578,7.37011719 L9.89892578,7.84863281 L10.3500977,7.84863281 L10.3500977,9.93701172 C10.3500977,10.3061523 10.3751628,10.5482585 10.425293,10.6633301 C10.4754232,10.7784017 10.5620117,10.8712565 10.6850586,10.9418945 C10.8081055,11.0125326 10.9812826,11.0478516 11.2045898,11.0478516 Z" id="Txt" fill="#000000" fill-rule="nonzero"></path>
            </g>
        </g>
    </g>
</svg>