<?xml version="1.0" encoding="UTF-8"?>
<svg width="16px" height="16px" viewBox="0 0 16 16" version="1.1" xmlns="http://www.w3.org/2000/svg" xmlns:xlink="http://www.w3.org/1999/xlink">
    <title>LiteralUnlimitedNatural</title>
    <g id="九大图" stroke="none" stroke-width="1" fill="none" fill-rule="evenodd">
        <g transform="translate(-1608.000000, -1263.000000)" id="LiteralUnlimitedNatural">
            <g transform="translate(1608.000000, 1263.000000)">
                <rect id="矩形" fill="#000000" fill-rule="nonzero" opacity="0" x="0" y="0" width="16" height="16"></rect>
                <rect id="矩形" stroke="#97958C" x="0.5" y="1.5" width="14" height="12" rx="1"></rect>
                <rect id="矩形" fill="#FFFFFF" x="1" y="2" width="13" height="11" rx="1"></rect>
                <path d="M10.5429766,9.26325781 C10.6389766,9.26325781 10.7289766,9.22725781 10.8009766,9.15525781 C10.8729766,9.08325781 10.9089766,8.99925781 10.9089766,8.89725781 C10.9089766,8.78925781 10.8729766,8.70525781 10.8009766,8.63325781 C10.7289766,8.56125781 10.6389766,8.52525781 10.5429766,8.52525781 C10.4349766,8.52525781 10.3509766,8.56125781 10.2849766,8.63325781 C10.2129766,8.70525781 10.1769766,8.78925781 10.1769766,8.89725781 C10.1769766,8.99925781 10.2129766,9.08325781 10.2849766,9.15525781 C10.3509766,9.22725781 10.4349766,9.26325781 10.5429766,9.26325781 Z M12.1269766,9.26325781 C12.2229766,9.26325781 12.3129766,9.22725781 12.3849766,9.15525781 C12.4569766,9.08325781 12.4929766,8.99925781 12.4929766,8.89725781 C12.4929766,8.78925781 12.4569766,8.70525781 12.3849766,8.63325781 C12.3129766,8.56125781 12.2229766,8.52525781 12.1269766,8.52525781 C12.0189766,8.52525781 11.9349766,8.56125781 11.8689766,8.63325781 C11.7969766,8.70525781 11.7609766,8.78925781 11.7609766,8.89725781 C11.7609766,8.99925781 11.7969766,9.08325781 11.8689766,9.15525781 C11.9349766,9.22725781 12.0189766,9.26325781 12.1269766,9.26325781 Z" id=".." fill="#000000" fill-rule="nonzero"></path>
                <path d="M3.37988281,9.3125 C3.85644531,9.3125 4.23242187,9.13867188 4.5078125,8.79101563 C4.734375,8.5078125 4.84765625,8.171875 4.84765625,7.78320313 C4.84765625,7.375 4.71875,7.04101563 4.4609375,6.78125 C4.203125,6.52148438 3.88671875,6.39160156 3.51171875,6.39160156 C3.22851562,6.39160156 2.95800781,6.48144531 2.70019531,6.66113281 L2.70019531,6.66113281 L2.93164062,5.50683594 L4.64550781,5.50683594 L4.64550781,5.00292969 L2.50976562,5.00292969 L2.09375,7.20898438 L2.58886719,7.2734375 C2.66699219,7.15039063 2.77441406,7.05029297 2.91113281,6.97314453 C3.04785156,6.89599609 3.20117187,6.85742188 3.37109375,6.85742188 C3.64453125,6.85742188 3.86572266,6.94433594 4.03466797,7.11816406 C4.20361328,7.29199219 4.28808594,7.52929688 4.28808594,7.83007813 C4.28808594,8.14648438 4.20019531,8.40039063 4.02441406,8.59179688 C3.84863281,8.78320313 3.63378906,8.87890625 3.37988281,8.87890625 C3.16894531,8.87890625 2.98876953,8.81103516 2.83935547,8.67529297 C2.68994141,8.53955078 2.59472656,8.33691406 2.55371094,8.06738281 L2.55371094,8.06738281 L2,8.11425781 C2.03515625,8.47558594 2.17626953,8.765625 2.42333984,8.984375 C2.67041016,9.203125 2.98925781,9.3125 3.37988281,9.3125 Z M5.80189062,10.2052578 C6.05389062,10.1392578 6.26389062,10.0072578 6.41989062,9.81525781 C6.57589062,9.61125781 6.65389062,9.37725781 6.65389062,9.11325781 C6.65389062,8.93925781 6.61189062,8.80125781 6.53389062,8.69325781 C6.44989062,8.57925781 6.33589062,8.52525781 6.20389062,8.52525781 C6.08389062,8.52525781 5.99389062,8.55525781 5.92189062,8.62725781 C5.84989062,8.69325781 5.81389062,8.78325781 5.81389062,8.89725781 C5.81389062,8.99925781 5.84989062,9.08925781 5.92189062,9.16125781 C5.99389062,9.23325781 6.07789062,9.26925781 6.17989062,9.26925781 C6.23989062,9.26925781 6.28789062,9.25725781 6.31189062,9.24525781 C6.31189062,9.38925781 6.26989062,9.52125781 6.17989062,9.64725781 C6.08389062,9.76725781 5.95789062,9.85725781 5.80189062,9.91125781 L5.80189062,10.2052578 Z" id="5，" fill="#000000" fill-rule="nonzero"></path>
                <path d="M8.17773438,9.23925781 C8.20703125,8.81152344 8.27441406,8.41796875 8.37988281,8.05859375 C8.52636719,7.54882812 8.73388672,7.05273438 9.00244141,6.5703125 C9.27099609,6.08789062 9.54199219,5.70117188 9.81542969,5.41015625 L9.81542969,5.41015625 L9.81542969,5 L7.03515625,5 L7.03515625,5.50683594 L9.13867188,5.50683594 C8.87109375,5.81152344 8.61865234,6.18603516 8.38134766,6.63037109 C8.14404297,7.07470703 7.96191406,7.53613281 7.83496094,8.01464844 C7.70800781,8.49316406 7.64160156,8.90136719 7.63574219,9.23925781 L7.63574219,9.23925781 L8.17773438,9.23925781 Z" id="7" fill="#000000" fill-rule="nonzero"></path>
            </g>
        </g>
    </g>
</svg>