<?xml version="1.0" encoding="UTF-8"?>
<svg width="16px" height="16px" viewBox="0 0 16 16" version="1.1" xmlns="http://www.w3.org/2000/svg" xmlns:xlink="http://www.w3.org/1999/xlink">
    <title>LiteralNull</title>
    <g id="九大图" stroke="none" stroke-width="1" fill="none" fill-rule="evenodd">
        <g transform="translate(-1608.000000, -1188.000000)" id="LiteralNull">
            <g transform="translate(1608.000000, 1188.000000)">
                <g id="Alternatives">
                    <rect id="矩形" fill="#000000" fill-rule="nonzero" opacity="0" x="0" y="0" width="16" height="16"></rect>
                    <rect id="矩形" stroke="#97958C" x="0.5" y="2.5" width="14" height="12" rx="1"></rect>
                    <rect id="矩形" fill="#FFFFFF" x="1" y="3" width="13" height="11" rx="1"></rect>
                    <g id="Block"></g>
                </g>
                <g id="密码不可见" transform="translate(3.000000, 5.000000)" fill="#000000" fill-rule="nonzero">
                    <path d="M7.85061611,3.0794097 C7.43406004,2.52944484 6.72935229,1.69121575 5.79816746,1.14813774 L6.32695103,0.268587491 L5.85579779,0 L5.31387046,0.903162335 C4.89731439,0.726071678 4.44334913,0.615881942 3.95601896,0.615881942 C2.10173776,0.615881942 0.809605059,2.20773015 0.149383887,3.07842586 C-0.049794629,3.34111033 -0.049794629,3.73759662 0.149383887,4.00028109 C0.590205368,4.58271258 1.31513428,5.42487702 2.30091628,5.91974701 L1.8135861,6.73239634 L2.28473933,7 L2.80543444,6.1322558 C3.16031595,6.25326775 3.54451817,6.32508785 3.95601895,6.32508785 C5.81030016,6.32508785 7.191406,4.8729445 7.85061611,4.00126495 C8.04979463,3.73858047 8.04979463,3.34209416 7.85061611,3.0794097 Z M1.9278357,5.07659873 C1.46578199,4.73422347 1.0249605,4.2826423 0.579083726,3.69332397 C0.518420221,3.61264934 0.518420221,3.46704147 0.579083726,3.38636684 C0.936998418,2.91412509 1.37883096,2.37104709 1.94300157,1.92241743 C2.25238546,1.67645819 2.5678357,1.48559383 2.88126381,1.35572734 C3.23412321,1.20913564 3.59608214,1.13534786 3.95601894,1.13534786 C4.31595575,1.13534786 4.68195891,1.20913564 5.04189573,1.35474351 L4.37661926,2.46254393 C4.27955764,2.4349965 4.17642969,2.42023894 4.07127961,2.42023894 C3.48284359,2.42023894 3.00461294,2.87575545 3.00461294,3.44834857 C3.00461294,3.73956432 3.12897314,4.01110332 3.32815164,4.20787071 L2.56884675,5.47111737 C2.3534913,5.36486296 2.13914692,5.23302881 1.9278357,5.07659873 Z M4.62533965,3.44834855 C4.62533965,3.72874208 4.37560821,3.98650737 4.08846761,3.99634574 L4.5606319,3.21026 C4.60107424,3.28109628 4.62533965,3.36177091 4.62533965,3.44834855 Z M3.53845181,3.44834855 C3.53845181,3.16205199 3.77807267,2.93970485 4.07229067,2.93970485 C4.07835702,2.93970485 4.08442337,2.93970485 4.09048973,2.93970485 L3.61731437,3.72775825 C3.56777251,3.64413211 3.53845181,3.54771609 3.53845181,3.44834855 Z M7.42192733,3.69332397 C7.13074249,4.07800422 6.65352291,4.62895292 6.0357662,5.07167956 C5.35431279,5.55867884 4.65466035,5.80660576 3.95601895,5.80660576 C3.66180094,5.80660576 3.36859399,5.7623331 3.08044233,5.67477161 L3.79829383,4.47940969 C3.88524486,4.50302178 3.97725118,4.51581166 4.07229067,4.51581166 C4.66072668,4.51581166 5.15917851,4.02094167 5.15917851,3.44834855 C5.15917851,3.16795502 5.03987361,2.91609276 4.84878356,2.73113141 L5.53023695,1.59578355 C5.69402842,1.69219957 5.85883094,1.80238932 6.02161136,1.92733661 C6.49781989,2.29332396 6.95684042,2.77048489 7.42192732,3.38636683 C7.48259083,3.46704146 7.48259083,3.61363317 7.42192733,3.69332397 Z" id="形状"></path>
                </g>
            </g>
        </g>
    </g>
</svg>