<?xml version="1.0" encoding="UTF-8"?>
<svg width="16px" height="16px" viewBox="0 0 16 16" version="1.1" xmlns="http://www.w3.org/2000/svg" xmlns:xlink="http://www.w3.org/1999/xlink">
    <title>Merge</title>
    <defs>
        <linearGradient x1="23.4075917%" y1="50%" x2="82.5144972%" y2="50%" id="linearGradient-1">
            <stop stop-color="#BBBBBB" offset="0%"></stop>
            <stop stop-color="#DBDBDB" offset="44.2039696%"></stop>
            <stop stop-color="#F9F9F9" offset="100%"></stop>
        </linearGradient>
    </defs>
    <g id="九大图" stroke="none" stroke-width="1" fill="none" fill-rule="evenodd">
        <g transform="translate(-808.000000, -541.000000)" id="编组-16">
            <g transform="translate(808.000000, 541.000000)">
                <g id="Merge" transform="translate(0.000000, 1.000000)">
                    <path d="M7.56740714,3.54440149 L0.975224476,7.53950747 L7.5,11.3781631 L14.0315246,7.53553686 L7.56740714,3.54440149 Z" id="路径" stroke="#97958C" fill="url(#linearGradient-1)"></path>
                    <g id="编组-7" transform="translate(7.500000, 12.500000) rotate(45.000000) translate(-7.500000, -12.500000) translate(5.000000, 10.000000)" fill="#0283E2" fill-rule="nonzero">
                        <path d="M1.06245324,3.31157772 L3.50066766,3.48703436 L3.24767565,1.12635531 C3.24767565,1.12635531 3.95478243,0.419248527 3.95478243,0.419248527 L4.32606957,4.31243627 C4.3241806,4.34050373 3.08556003,4.2849389 0.610207873,4.14574178 C0.61370601,4.0937643 1.06245324,3.31157772 1.06245324,3.31157772 Z" id="路径"></path>
                        <path d="M1.06317145,1.77027823 C1.06317145,1.77027823 1.77027823,1.06317145 1.77027823,1.06317145 L4.2179668,3.83954497 C4.32591912,3.98415408 3.78272127,4.52633763 3.67520249,4.38230927 L1.06317145,1.77027823 Z" id="路径"></path>
                    </g>
                    <g id="编组-7" fill="#0283E2" fill-rule="nonzero">
                        <path d="M1,4.05552367 L3.93518066,4.02319336 L4.02319336,0.981079102 C4.02319336,0.981079102 4.90962883,0.981079102 4.90962883,0.981079102 L4.90962883,4.93722461 C4.90773986,4.96529207 3.60453025,4.96529207 1,4.93722461 C1.00349814,4.88524713 1,4.05552367 1,4.05552367 Z" id="路径"></path>
                        <path d="M0.622558594,-3.55271368e-15 C0.622558594,-3.55271368e-15 2.08170573,1.33380127 5,4.00140381 C5.05405847,4.07381862 3.0181435,4.07330817 2.96446609,4.00140381 C0.988155365,1.72369385 0,0.584838867 0,0.584838867 C0,0.549124506 0.207519531,0.354178217 0.622558594,-3.55271368e-15 Z" id="路径"></path>
                    </g>
                    <g id="编组-7" transform="translate(12.500000, 2.500000) rotate(90.000000) translate(-12.500000, -2.500000) translate(10.000000, 0.000000)" fill="#0283E2" fill-rule="nonzero">
                        <path d="M0.981079102,4.12194824 L4.04651881,3.94759795 L4.05552367,1 C4.05552367,1 4.95827521,1 4.95827521,1 L4.95827521,4.74648323 C4.95638624,4.7745507 3.6306542,4.84992136 0.981079102,4.97259521 C0.984577238,4.92061773 0.981079102,4.12194824 0.981079102,4.12194824 Z" id="路径"></path>
                        <path d="M8.65973959e-14,0.637634277 C8.65973959e-14,0.637634277 0.559143066,0 0.559143066,0 L4.00140381,3 C4.00140381,3 4.00140381,4.97259521 4.00140381,4.97259521 L8.65973959e-14,0.637634277 Z" id="路径"></path>
                    </g>
                </g>
                <g id="十字图" transform="translate(4.000000, 6.000000)">
                    <rect id="矩形" fill="#000000" fill-rule="nonzero" opacity="0" x="1" y="0" width="5" height="5"></rect>
                    <polygon id="路径" fill="#4B4B4B" fill-rule="nonzero" points="0 2 7 2 7 3 0 3"></polygon>
                    <path d="M6.73076923,3 L0.269230769,3 C0.120538721,3 0,2.94403559 0,2.875 L0,2.125 C0,2.05596441 0.120538721,2 0.269230769,2 L6.73076923,2 C6.87946128,2 7,2.05596441 7,2.125 L7,2.875 C7,2.94403559 6.87946128,3 6.73076923,3 Z M0,3 L6,3 L6,2 L0,2 L0,3 Z" id="形状" fill="#4B4B4B" fill-rule="nonzero"></path>
                    <polygon id="路径" fill="#4B4B4B" fill-rule="nonzero" points="3 5 3 0 4 0 4 5"></polygon>
                    <path d="M3.875,5 L3.125,5 C3.05596441,5 3,4.91390091 3,4.80769231 L3,0.192307692 C3,0.0860990866 3.05596441,0 3.125,0 L3.875,0 C3.94403559,0 4,0.0860990866 4,0.192307692 L4,4.80769231 C4,4.91390091 3.94403559,5 3.875,5 Z M3,4 L4,4 L4,0 L3,0 L3,4 Z" id="形状" fill="#4B4B4B" fill-rule="nonzero"></path>
                    <rect id="矩形" fill="#4B4B4B" x="2" y="1" width="3" height="3"></rect>
                </g>
            </g>
        </g>
    </g>
</svg>