<?xml version="1.0" encoding="UTF-8"?>
<svg width="16px" height="16px" viewBox="0 0 16 16" version="1.1" xmlns="http://www.w3.org/2000/svg" xmlns:xlink="http://www.w3.org/1999/xlink">
    <title>MessageOccurrenceSpecification</title>
    <g id="z" stroke="none" stroke-width="1" fill="none" fill-rule="evenodd">
        <g id="九大图" transform="translate(-1940.000000, -761.000000)">
            <g id="MessageOccurrenceSpecification" transform="translate(1940.000000, 761.000000)">
                <g id="编组-3">
                    <line x1="3.5" y1="2" x2="3.5" y2="7.5" id="直线-7" stroke="#979797" stroke-dasharray="1,1"></line>
                    <line x1="3.5" y1="11" x2="3.5" y2="16.5" id="直线-7" stroke="#979797" stroke-dasharray="1,1"></line>
                    <line x1="12.5" y1="2" x2="12.5" y2="7.5" id="直线-7" stroke="#979797" stroke-dasharray="1,1"></line>
                    <line x1="12.5" y1="11" x2="12.5" y2="16.5" id="直线-7" stroke="#979797" stroke-dasharray="1,1"></line>
                    <rect id="矩形" stroke="#97958C" fill="#97958C" x="9.5" y="0.5" width="6" height="3" rx="1"></rect>
                    <rect id="矩形" fill="#E3F3D5" x="10" y="1" width="5" height="2" rx="1"></rect>
                    <rect id="矩形" stroke="#97958C" fill="#97958C" x="1.5" y="5.5" width="4" height="7" rx="1"></rect>
                    <path d="M3,6 L4,6 C4.55228475,6 5,6.44771525 5,7 L5,11 C5,11.5522847 4.55228475,12 4,12 L3,12 C2.44771525,12 2,11.5522847 2,11 L2,7 C2,6.44771525 2.44771525,6 3,6 Z" id="矩形" fill="#E3F3D5"></path>
                    <rect id="矩形" stroke="#97958C" fill="#97958C" x="10.5" y="5.5" width="4" height="7" rx="1"></rect>
                    <path d="M12,6 L13,6 C13.5522847,6 14,6.44771525 14,7 L14,11 C14,11.5522847 13.5522847,12 13,12 L12,12 C11.4477153,12 11,11.5522847 11,11 L11,7 C11,6.44771525 11.4477153,6 12,6 Z" id="矩形" fill="#E3F3D5"></path>
                    <rect id="矩形" stroke="#97958C" fill="#97958C" x="0.5" y="0.5" width="6" height="3" rx="1"></rect>
                    <rect id="矩形" fill="#E3F3D5" x="1" y="1" width="5" height="2" rx="1"></rect>
                    <line x1="4.5" y1="8.5" x2="9.5" y2="8.5" id="直线-8" stroke="#3B4DBC" stroke-linecap="square"></line>
                    <path d="M7.02119849,6 L10,8.38639848 L7.02119849,11 C6.97350188,10.9573905 7.02119849,6 7.02119849,6 Z" id="路径" fill="#3B4DBC" fill-rule="nonzero"></path>
                </g>
            </g>
        </g>
    </g>
</svg>