<?xml version="1.0" encoding="UTF-8"?>
<svg width="16px" height="16px" viewBox="0 0 16 16" version="1.1" xmlns="http://www.w3.org/2000/svg" xmlns:xlink="http://www.w3.org/1999/xlink">
    <title>Message</title>
    <g id="九大图" stroke="none" stroke-width="1" fill="none" fill-rule="evenodd">
        <g transform="translate(-1608.000000, -322.000000)" fill="#0283E2" fill-rule="nonzero" id="编组-44">
            <g transform="translate(1607.000000, 322.000000)">
                <g id="Message">
                    <g id="编组-7" transform="translate(8.843146, 8.792893) rotate(-45.000000) translate(-8.843146, -8.792893) translate(2.843146, 2.792893)">
                        <path d="M10.1837149,6.27004787 C11.0808912,7.16722413 11.5294793,7.61581226 11.5294793,7.61581226 C11.5294793,7.61581226 10.9465823,8.44764674 10.9465823,8.44764674 C10.9465823,8.44764674 11.6208888,9.12195315 11.6208888,9.12195315 C11.6208888,9.12195315 10.9072219,9.83562001 10.9072219,9.83562001 C10.9072219,9.83562001 11.5964611,10.5248592 11.5964611,10.5248592 C11.5964611,10.5248592 11.3681685,10.7531518 10.9115833,11.2097371 C10.9114332,11.2119458 10.2071867,11.9161924 10.2061573,11.915163 C10.2061573,11.915163 9.51691808,11.2259238 9.51691808,11.2259238 C9.51691808,11.2259238 8.7139134,11.8039871 8.7139134,11.8039871 C8.7139134,11.8039871 8.14997747,11.2400512 8.1520777,11.2421514 C8.15208802,11.2421617 7.46491009,11.929319 7.46491009,11.929319 C7.46491009,11.929319 6.97483238,11.4392413 5.99467696,10.4590859 C5.99656195,10.4313345 8.55571295,10.8327403 9.54803763,9.84619145 C10.6441712,8.75643791 10.1837149,6.27004787 10.1837149,6.27004787 Z" id="路径"></path>
                        <path d="M1.73171365,0.590616822 C1.73171365,0.590616822 4.66470668,3.52360985 10.5306927,9.38959591 C10.5847512,9.46201072 9.14568081,10.9001896 9.0920034,10.8282852 C3.22601734,4.96229918 0.293024315,2.02930616 0.293024315,2.02930616 C0.293024315,1.99359179 0.772587426,1.51402868 1.73171365,0.590616822 Z" id="路径"></path>
                    </g>
                </g>
            </g>
        </g>
    </g>
</svg>