<?xml version="1.0" encoding="UTF-8"?>
<svg width="16px" height="16px" viewBox="0 0 16 16" version="1.1" xmlns="http://www.w3.org/2000/svg" xmlns:xlink="http://www.w3.org/1999/xlink">
    <title>Model</title>
    <defs>
        <linearGradient x1="100%" y1="50.853253%" x2="8.33129883%" y2="50.0833737%" id="linearGradient-1">
            <stop stop-color="#FEF9DB" offset="0%"></stop>
            <stop stop-color="#FEF4BD" offset="44.2039696%"></stop>
            <stop stop-color="#FEEF9E" offset="60.7131546%"></stop>
            <stop stop-color="#FCF0AC" offset="100%"></stop>
        </linearGradient>
    </defs>
    <g id="九大图" stroke="none" stroke-width="1" fill="none" fill-rule="evenodd">
        <g transform="translate(-1607.000000, -769.000000)" id="Model">
            <g transform="translate(1607.000000, 769.000000)">
                <rect id="矩形" fill="#000000" fill-rule="nonzero" opacity="0" x="0" y="0" width="16" height="16"></rect>
                <polygon id="路径备份-2" fill="#FEEF9F" fill-rule="nonzero" points="14.5021191 13 1.50211909 12.9610898 1.98163524 2 5.83409181 2 6.79720595 4 14.5021191 4"></polygon>
                <path d="M1,13 C1.00557229,6 1.00701223,2.33333333 1.00431982,2 C1.00028121,1.5 1.46694447,1 1.93764635,1 C2.40834822,1 4.31247566,1 5.66691383,1 C6.60024036,1 6.60024036,2 6.60024036,2 L7.06690362,3 L15,3 C15.4666633,3 16,3.5 16,4 L16,13 L1,13 Z M2.00432712,13 L15.0043271,13 L15,4 L6.64718426,4 L5.71459479,2 L2.00432712,2 L2.00432712,13 Z" id="形状备份-2" fill="#97958C" fill-rule="nonzero"></path>
                <polygon id="路径备份" fill="url(#linearGradient-1)" points="2 4 15 4 15 14 2 14"></polygon>
                <path d="M15,15 C7,15 2.66666667,15 2,15 C1.33333333,15 1,14.6666667 1,14 L1,3 L6.5,3 C12.8333333,3 16,3.33333333 16,4 C16,9.08118636 16,13.3896174 16,14 C16,14.6666667 15.6666667,15 15,15 Z M2,14 L15,14 L15,3 L2,3 L2,14 Z" id="形状备份" fill="#97958C" fill-rule="nonzero"></path>
                <path d="M11.021875,8.4078736 L6.3953125,5.0484986 C6.2296875,4.9281861 6,5.0453736 6,5.2500611 L6,11.9688111 C6,12.1734986 6.23125,12.2891236 6.3953125,12.1703736 L11.021875,8.8109986 C11.159375,8.7109986 11.159375,8.5078736 11.021875,8.4078736 Z M6.996875,6.7172486 L9.6015625,8.6094361 L6.996875,10.5016236 L6.996875,6.7172486 Z" id="形状" fill="#4B4B4B" fill-rule="nonzero" transform="translate(8.562500, 8.609097) rotate(-90.000000) translate(-8.562500, -8.609097) "></path>
            </g>
        </g>
    </g>
</svg>