<?xml version="1.0" encoding="UTF-8"?>
<svg width="16px" height="16px" viewBox="0 0 16 16" version="1.1" xmlns="http://www.w3.org/2000/svg" xmlns:xlink="http://www.w3.org/1999/xlink">
    <title>Moe</title>
    <defs>
        <linearGradient x1="100%" y1="51.0594268%" x2="8.33129883%" y2="50.1035195%" id="linearGradient-1">
            <stop stop-color="#FEF9DB" offset="0%"></stop>
            <stop stop-color="#FEF4BD" offset="44.2039696%"></stop>
            <stop stop-color="#FEEF9E" offset="60.7131546%"></stop>
            <stop stop-color="#FCF0AC" offset="100%"></stop>
        </linearGradient>
    </defs>
    <g id="九大图" stroke="none" stroke-width="1" fill="none" fill-rule="evenodd">
        <g transform="translate(-453.000000, -965.000000)" id="Moe">
            <g transform="translate(453.000000, 965.000000)">
                <g id="jx" fill="#000000" fill-rule="nonzero" opacity="0">
                    <rect id="矩形" x="0" y="0" width="16" height="16"></rect>
                </g>
                <path d="M2,2 L14,2 C14.5522847,2 15,2.44771525 15,3 L15,13 C15,13.5522847 14.5522847,14 14,14 L2,14 C1.44771525,14 1,13.5522847 1,13 L1,3 C1,2.44771525 1.44771525,2 2,2 Z" id="矩形" stroke="#97958C" fill="url(#linearGradient-1)"></path>
                <path d="M8.32421875,11 L8.32421875,6.125 L9.98046875,11 L10.6640625,11 L12.328125,6.20703125 L12.328125,11 L13.0585938,11 L13.0585938,5.2734375 L12.0390625,5.2734375 L10.6679688,9.2578125 C10.5299479,9.66145833 10.4283854,9.96744792 10.3632812,10.1757812 C10.3059896,9.98828125 10.2148438,9.70572917 10.0898438,9.328125 L10.0898438,9.328125 L8.734375,5.2734375 L7.59375,5.2734375 L7.59375,11 L8.32421875,11 Z" id="M" fill="#000000" fill-rule="nonzero"></path>
            </g>
        </g>
    </g>
</svg>