<?xml version="1.0" encoding="UTF-8"?>
<svg width="16px" height="16px" viewBox="0 0 16 16" version="1.1" xmlns="http://www.w3.org/2000/svg" xmlns:xlink="http://www.w3.org/1999/xlink">
    <title>Note</title>
    <defs>
        <linearGradient x1="100%" y1="50%" x2="0%" y2="50%" id="linearGradient-1">
            <stop stop-color="#FFF7F0" offset="0%"></stop>
            <stop stop-color="#FED6B9" offset="100%"></stop>
        </linearGradient>
    </defs>
    <g id="九大图" stroke="none" stroke-width="1" fill="none" fill-rule="evenodd">
        <g transform="translate(-472.000000, -111.000000)" id="Note">
            <g transform="translate(472.000000, 111.000000)">
                <rect id="矩形" fill="#000000" fill-rule="nonzero" opacity="0" x="0" y="0" width="16" height="16"></rect>
                <path d="M14,6 C12.7777778,6 11.7777778,6 11,6 C10.132124,6 9.5,5.3836556 9.5,4.5 L9.5,1 L2,1 C1.56606198,1 1,1.5581722 1,2 C1,5.91111111 1,8.91111111 1,11 C1,11.5 1.56606198,12 2,12 L13,12 C13.433938,12 14,11.8 14,10.5 C14,9.41111111 14,7.91111111 14,6 Z M10.5,1 L10.5,4 C10.5,4.4418278 11,5 11.5,5 L14,5 L10.5,1 Z M10,1.36424205e-12 C10.4243117,1.36424205e-12 11,1.36424205e-12 11.5,0.5 C12.1796165,1.1184845 12.6796165,1.6184845 13,2 C13.8152181,2.97076897 14.5,3.5 15,5 C15,7.88053333 15,10.0472 15,11.5 C15,12.3 14.3836556,13 13.5,13 L1.5,13 C0.6163444,13 0,12.3 0,11.5 C0,9.18888889 0,5.85555556 0,1.5 C0,0.6163444 0.6163444,1.36424205e-12 1.5,1.36424205e-12 L10,1.36424205e-12 Z" id="形状" fill="#97958C" fill-rule="nonzero"></path>
                <path d="M14,6 C12.7777778,6 11.7777778,6 11,6 C10.132124,6 9.5,5.3836556 9.5,4.5 L9.5,1 L2,1 C1.56606198,1 1,1.5581722 1,2 C1,5.91111111 1,8.91111111 1,11 C1,11.5 1.56606198,12 2,12 L13,12 C13.433938,12 14,11.8 14,10.5 C14,9.41111111 14,7.91111111 14,6 Z" id="路径" fill="url(#linearGradient-1)" fill-rule="nonzero"></path>
                <rect id="矩形" fill="#97958C" x="2.6862915" y="9" width="8" height="1"></rect>
                <rect id="矩形" fill="#97958C" x="2.6862915" y="7" width="8" height="1"></rect>
            </g>
        </g>
    </g>
</svg>