<?xml version="1.0" encoding="UTF-8"?>
<svg width="16px" height="16px" viewBox="0 0 16 16" version="1.1" xmlns="http://www.w3.org/2000/svg" xmlns:xlink="http://www.w3.org/1999/xlink">
    <title>ObjectiveFunction</title>
    <defs>
        <linearGradient x1="100%" y1="51.0594268%" x2="8.33129883%" y2="50.1035195%" id="linearGradient-1">
            <stop stop-color="#FEF9DB" offset="0%"></stop>
            <stop stop-color="#FEF4BD" offset="44.2039696%"></stop>
            <stop stop-color="#FEEF9E" offset="60.7131546%"></stop>
            <stop stop-color="#FCF0AC" offset="100%"></stop>
        </linearGradient>
    </defs>
    <g id="九大图" stroke="none" stroke-width="1" fill="none" fill-rule="evenodd">
        <g transform="translate(-453.000000, -990.000000)" id="ObjectiveFunction">
            <g transform="translate(453.000000, 990.000000)">
                <g id="jx" fill="#000000" fill-rule="nonzero" opacity="0">
                    <rect id="矩形" x="0" y="0" width="16" height="16"></rect>
                </g>
                <path d="M14,2.5 L1.5,3 L2,13.5 L14.5,13 L14,2.5 Z" id="矩形" stroke="#97958C" fill="url(#linearGradient-1)"></path>
                <path d="M10.125,11.0976562 C10.6223958,11.0976562 11.0859375,10.9798177 11.515625,10.7441406 C11.9453125,10.5084635 12.2773438,10.1614583 12.5117188,9.703125 C12.7460938,9.24479167 12.8632812,8.72526042 12.8632812,8.14453125 C12.8632812,7.57161458 12.7519531,7.05924479 12.5292969,6.60742188 C12.3066406,6.15559896 11.9830729,5.80338542 11.5585938,5.55078125 C11.1341146,5.29817708 10.6575521,5.171875 10.1289062,5.171875 C9.32161458,5.171875 8.66276042,5.44075521 8.15234375,5.97851562 C7.64192708,6.51627604 7.38671875,7.26041667 7.38671875,8.2109375 C7.38671875,8.71354167 7.49609375,9.19010417 7.71484375,9.640625 C7.93359375,10.0911458 8.25520833,10.4466146 8.6796875,10.7070312 C9.10416667,10.9674479 9.5859375,11.0976562 10.125,11.0976562 Z M10.1210938,10.4492188 C9.56119792,10.4492188 9.09570312,10.250651 8.72460938,9.85351562 C8.35351562,9.45638021 8.16796875,8.91276042 8.16796875,8.22265625 C8.16796875,7.36067708 8.36132812,6.74544271 8.74804688,6.37695312 C9.13476562,6.00846354 9.59635417,5.82421875 10.1328125,5.82421875 C10.5104167,5.82421875 10.8509115,5.91992188 11.1542969,6.11132812 C11.4576823,6.30273438 11.688151,6.57226562 11.8457031,6.91992188 C12.0032552,7.26757812 12.0820312,7.67447917 12.0820312,8.140625 C12.0820312,8.87760417 11.8977865,9.44661458 11.5292969,9.84765625 C11.1608073,10.2486979 10.6914062,10.4492188 10.1210938,10.4492188 Z" id="O" fill="#000000" fill-rule="nonzero"></path>
            </g>
        </g>
    </g>
</svg>