<?xml version="1.0" encoding="UTF-8"?>
<svg width="16px" height="16px" viewBox="0 0 16 16" version="1.1" xmlns="http://www.w3.org/2000/svg" xmlns:xlink="http://www.w3.org/1999/xlink">
    <title>OpaqueAction</title>
    <defs>
        <linearGradient x1="100%" y1="50.7357131%" x2="8.33129883%" y2="50.0718886%" id="linearGradient-1">
            <stop stop-color="#E5E5C8" offset="0%"></stop>
            <stop stop-color="#FFFFF1" offset="44.2039696%"></stop>
            <stop stop-color="#E6E6CA" offset="100%"></stop>
        </linearGradient>
    </defs>
    <g id="九大图" stroke="none" stroke-width="1" fill="none" fill-rule="evenodd">
        <g transform="translate(-807.000000, -157.000000)" id="OpaqueAction">
            <g transform="translate(807.000000, 157.000000)">
                <rect id="矩形" fill="#000000" fill-rule="nonzero" opacity="0" x="0" y="0" width="16" height="16"></rect>
                <g id="Block"></g>
                <rect id="矩形" stroke="#97958C" fill="url(#linearGradient-1)" x="1.5" y="3.5" width="13" height="9" rx="4"></rect>
                <g id="jx"></g>
                <polygon id="X" fill="#48432E" fill-rule="nonzero" points="4.606 10.284 5.878 8.448 7.156 10.284 7.762 10.284 6.172 8.058 7.648 6 7.042 6 5.878 7.668 4.72 6 4.114 6 5.578 8.058 4 10.284"></polygon>
                <path d="M10.518,9.234 L10.518,9.096 C10.518,8.934 10.554,8.784 10.632,8.652 C10.692,8.544 10.782,8.436 10.908,8.328 C11.172,8.094 11.34,7.938 11.4,7.866 C11.544,7.668 11.622,7.434 11.622,7.164 C11.622,6.804 11.508,6.522 11.286,6.318 C11.058,6.102 10.746,6 10.362,6 C9.936,6 9.6,6.132 9.354,6.396 C9.12,6.648 9,6.984 9,7.404 L9.48,7.404 C9.48,7.11 9.546,6.882 9.672,6.714 C9.822,6.516 10.044,6.42 10.338,6.42 C10.59,6.42 10.788,6.486 10.932,6.63 C11.064,6.762 11.13,6.948 11.13,7.188 C11.13,7.356 11.07,7.512 10.956,7.662 C10.914,7.71 10.848,7.782 10.752,7.878 C10.428,8.166 10.224,8.394 10.146,8.574 C10.068,8.724 10.032,8.898 10.032,9.096 L10.032,9.234 L10.518,9.234 Z M10.278,10.368 C10.374,10.368 10.464,10.332 10.536,10.266 C10.602,10.2 10.638,10.116 10.638,10.008 C10.638,9.906 10.602,9.822 10.536,9.756 C10.464,9.684 10.38,9.654 10.278,9.654 C10.17,9.654 10.086,9.684 10.02,9.756 C9.948,9.822 9.912,9.906 9.912,10.008 C9.912,10.11 9.948,10.194 10.02,10.266 C10.086,10.332 10.17,10.368 10.278,10.368 Z" id="?" fill="#48432E" fill-rule="nonzero"></path>
            </g>
        </g>
    </g>
</svg>