<?xml version="1.0" encoding="UTF-8"?>
<svg width="16px" height="16px" viewBox="0 0 16 16" version="1.1" xmlns="http://www.w3.org/2000/svg" xmlns:xlink="http://www.w3.org/1999/xlink">
    <title>OpaqueExpression</title>
    <g id="九大图" stroke="none" stroke-width="1" fill="none" fill-rule="evenodd">
        <g transform="translate(-1608.000000, -1285.000000)" id="OpaqueExpression">
            <g transform="translate(1608.000000, 1285.000000)">
                <rect id="矩形" fill="#000000" fill-rule="nonzero" opacity="0" x="0" y="0" width="16" height="16"></rect>
                <g id="Block"></g>
                <path d="M3.00390625,10.6308594 L3.00390625,9.92773438 C2.79296875,9.92773438 2.65576172,9.91455078 2.59228516,9.88818359 C2.52880859,9.86181641 2.48144531,9.82324219 2.45019531,9.77246094 C2.41894531,9.72167969 2.40332031,9.63183594 2.40332031,9.50292969 C2.40332031,9.41308594 2.39648438,9.20605469 2.3828125,8.88183594 C2.37109375,8.66894531 2.34570312,8.49902344 2.30664062,8.37207031 C2.26757812,8.24511719 2.21142578,8.13720703 2.13818359,8.04833984 C2.06494141,7.95947266 1.97070312,7.88183594 1.85546875,7.81542969 C1.98632812,7.73144531 2.08349609,7.65039062 2.14697266,7.57226562 C2.21044922,7.49414062 2.26269531,7.39501953 2.30371094,7.27490234 C2.34472656,7.15478516 2.37011719,6.99804688 2.37988281,6.8046875 C2.39746094,6.4609375 2.40625,6.22753906 2.40625,6.10449219 C2.40625,5.98339844 2.42089844,5.89794922 2.45019531,5.84814453 C2.47949219,5.79833984 2.52490234,5.76123047 2.58642578,5.73681641 C2.64794922,5.71240234 2.78710938,5.70019531 3.00390625,5.70019531 L3.00390625,5.70019531 L3.00390625,5 L2.84863281,5 C2.59277344,5 2.40527344,5.01757812 2.28613281,5.05273438 C2.11035156,5.10546875 1.9765625,5.17724609 1.88476562,5.26806641 C1.79296875,5.35888672 1.72949219,5.47900391 1.69433594,5.62841797 C1.65917969,5.77783203 1.64160156,6.04199219 1.64160156,6.42089844 C1.64160156,6.65332031 1.63378906,6.81640625 1.61816406,6.91015625 C1.59863281,7.03515625 1.5625,7.13916016 1.50976562,7.22216797 C1.45703125,7.30517578 1.39453125,7.36425781 1.32226562,7.39941406 C1.25,7.43457031 1.14257812,7.45605469 1,7.46386719 L1,7.46386719 L1,8.16699219 C1.1796875,8.17675781 1.31298828,8.21533203 1.39990234,8.28271484 C1.48681641,8.35009766 1.55175781,8.46191406 1.59472656,8.61816406 C1.62597656,8.72558594 1.64160156,8.95898438 1.64160156,9.31835938 C1.64160156,9.62695312 1.65820312,9.85302734 1.69140625,9.99658203 C1.72460938,10.1401367 1.78955078,10.2607422 1.88623047,10.3583984 C1.98291016,10.4560547 2.1015625,10.5258789 2.2421875,10.5678711 C2.3828125,10.6098633 2.58496094,10.6308594 2.84863281,10.6308594 L2.84863281,10.6308594 L3.00390625,10.6308594 Z M4,5 L4,5.703125 C4.2109375,5.703125 4.34814453,5.71630859 4.41162109,5.74267578 C4.47509766,5.76904297 4.52246094,5.80761719 4.55371094,5.85839844 C4.58496094,5.90917969 4.60058594,5.99902344 4.60058594,6.12792969 C4.60058594,6.21777344 4.60742187,6.42480469 4.62109375,6.74902344 C4.6328125,6.96191406 4.65820312,7.13183594 4.69726562,7.25878906 C4.73632812,7.38574219 4.79248047,7.49365234 4.86572266,7.58251953 C4.93896484,7.67138672 5.03320312,7.74902344 5.1484375,7.81542969 C5.01757812,7.89941406 4.92041016,7.98046875 4.85693359,8.05859375 C4.79345703,8.13671875 4.74121094,8.23583984 4.70019531,8.35595703 C4.65917969,8.47607422 4.63378906,8.6328125 4.62402344,8.82617188 C4.60644531,9.16992188 4.59765625,9.40332031 4.59765625,9.52636719 C4.59765625,9.64746094 4.58300781,9.73291016 4.55371094,9.78271484 C4.52441406,9.83251953 4.47900391,9.86962891 4.41748047,9.89404297 C4.35595703,9.91845703 4.21679687,9.93066406 4,9.93066406 L4,9.93066406 L4,10.6308594 L4.15527344,10.6308594 C4.41113281,10.6308594 4.59863281,10.6132813 4.71777344,10.578125 C4.89355469,10.5253906 5.02734375,10.4536133 5.11914062,10.362793 C5.2109375,10.2719727 5.27441406,10.1518555 5.30957031,10.0024414 C5.34472656,9.85302734 5.36230469,9.58886719 5.36230469,9.20996094 C5.36230469,8.97753906 5.37011719,8.81445313 5.38574219,8.72070313 C5.40527344,8.59570313 5.44140625,8.49169922 5.49414062,8.40869141 C5.546875,8.32568359 5.609375,8.26660156 5.68164062,8.23144531 C5.75390625,8.19628906 5.86132812,8.17480469 6.00390625,8.16699219 L6.00390625,8.16699219 L6.00390625,7.46386719 C5.82421875,7.45410156 5.69091797,7.41552734 5.60400391,7.34814453 C5.51708984,7.28076172 5.45214844,7.16894531 5.40917969,7.01269531 C5.37792969,6.90527344 5.36230469,6.671875 5.36230469,6.3125 C5.36230469,6.00390625 5.34570312,5.77783203 5.3125,5.63427734 C5.27929687,5.49072266 5.21435547,5.37011719 5.11767578,5.27246094 C5.02099609,5.17480469 4.90234375,5.10498047 4.76171875,5.06298828 C4.62109375,5.02099609 4.41894531,5 4.15527344,5 L4.15527344,5 L4,5 Z M7.02392578,11 L8.25,9.15869141 L8.50488281,9.54980469 L9.46289062,11 L10.434082,11 L8.69824219,8.53027344 L10.3110352,6.33300781 L9.36621094,6.33300781 L8.57958984,7.43603516 C8.47119141,7.58544922 8.35253906,7.75683594 8.22363281,7.95019531 C8.14160156,7.80957031 8.03320312,7.63525391 7.8984375,7.42724609 L7.8984375,7.42724609 L7.18212891,6.33300781 L6.19335938,6.33300781 L7.77099609,8.57421875 L6.06591797,11 L7.02392578,11 Z M11.5678711,12.894043 C11.8198242,12.894043 12.0366211,12.833252 12.2182617,12.7116699 C12.3999023,12.5900879 12.5610352,12.3989258 12.7016602,12.1381836 C12.8071289,11.9448242 12.9550781,11.5917969 13.1455078,11.0791016 L13.1455078,11.0791016 L14.9208984,6.33300781 L14.1298828,6.33300781 L13.1323242,9.05322266 C13.0063477,9.39892578 12.8979492,9.75341797 12.8071289,10.1166992 C12.7075195,9.73876953 12.5947266,9.37841797 12.46875,9.03564453 L12.46875,9.03564453 L11.4975586,6.33300781 L10.6450195,6.33300781 L12.4160156,11.0087891 C12.3837891,11.09375 12.3603516,11.1582031 12.3457031,11.2021484 C12.234375,11.515625 12.1538086,11.7119141 12.1040039,11.7910156 C12.0366211,11.8964844 11.9501953,11.9785156 11.8447266,12.0371094 C11.7392578,12.0957031 11.5986328,12.125 11.4228516,12.125 C11.2939453,12.125 11.1430664,12.1015625 10.9702148,12.0546875 L10.9702148,12.0546875 L11.0581055,12.7973633 C11.2456055,12.8618164 11.4155273,12.894043 11.5678711,12.894043 Z" id="{}" fill="#000000" fill-rule="nonzero"></path>
            </g>
        </g>
    </g>
</svg>