<?xml version="1.0" encoding="UTF-8"?>
<svg width="16px" height="16px" viewBox="0 0 16 16" version="1.1" xmlns="http://www.w3.org/2000/svg" xmlns:xlink="http://www.w3.org/1999/xlink">
    <title>OpaqueBehavior</title>
    <g id="九大图" stroke="none" stroke-width="1" fill="none" fill-rule="evenodd">
        <g transform="translate(-806.000000, -758.000000)" id="OpaqueBehavior">
            <g transform="translate(806.000000, 758.000000)">
                <rect id="矩形" fill="#000000" fill-rule="nonzero" opacity="0" x="7.10542736e-15" y="7.10542736e-15" width="15.9843902" height="15.9843902"></rect>
                <path d="M6.99930389,3 C4.23792547,3.00038444 1.99967964,5.23920162 2,8.00058005 C2.00032036,10.7619585 4.23908558,13.0002563 7.00046402,13 C7.1681618,13 7.3339306,12.9917132 7.49738618,12.9755706 L7.5,8.5 L12,8.5 L12,7.999652 C11.9996156,5.23817193 9.76078397,2.99980777 6.99930389,3 Z" id="路径" fill="#FFFFFF"></path>
                <path d="M13,8.5 L7.5,8.5 L7.5,14 L6.31328336,13.9920315 C5.17549737,13.8635535 4.09819529,13.4123275 3.20847664,12.6915888 L2.27183287,11.742916 C1.5624009,10.8519254 1.12126546,9.77739079 1,8.64493659 L1.00617709,7.31198291 C1.13409787,6.1846099 1.57904125,5.11661053 2.28938883,4.23188461 L3.23416039,3.28906373 C4.11920615,2.57889019 5.187392,2.13407578 6.31490891,2.00617709 L7.64786257,2 C8.78050109,2.12108642 9.85526427,2.56211031 10.7464922,3.27150775 L11.6954902,4.20815152 C12.4161997,5.09751352 12.8674339,6.17449663 12.9959328,7.31198291 C12.9974324,7.82509645 12.9985571,8.2099316 12.9993069,8.46648837 C12.999424,8.50657701 12.9996551,8.51774755 13,8.5 Z M6.99930389,3 C4.23792547,3.00038444 1.99967964,5.23920162 2,8.00058005 C2.00032036,10.7619585 4.23908558,13.0002563 7.00046402,13 C7.1681618,13 7.3339306,12.9917132 7.49738618,12.9755706 L7.5,8.5 L12,8.5 L12,7.999652 C11.9996156,5.23817193 9.76078397,2.99980777 6.99930389,3 Z" id="形状" fill="#444444" fill-rule="nonzero"></path>
                <rect id="矩形" fill="#444444" x="6.5" y="3" width="1" height="10"></rect>
                <rect id="矩形" fill="#444444" transform="translate(6.889087, 7.889087) rotate(45.000000) translate(-6.889087, -7.889087) " x="6.3890873" y="2.8890873" width="1" height="10"></rect>
                <rect id="矩形" fill="#444444" transform="translate(5.121549, 6.121549) rotate(135.000000) translate(-5.121549, -6.121549) " x="4.62154852" y="3.62122583" width="1" height="5.00064538"></rect>
                <path d="M13.432,11.016 C12.908128,10.492128 12.5152241,10.0992241 12.2532881,9.83728809 C12.0168587,9.60085872 11.521943,10.001943 11.7349146,10.2149146 C12.0480447,10.5280447 12.5177398,10.9977398 13.144,11.624 C13.144,12.2355556 13.144,12.6942222 13.144,13 C13.144,13.2346667 13.784,13.2346667 13.784,13 C13.784,12.6871111 13.784,12.2177778 13.784,11.592 L13.784,11.56 C14.3639694,10.9800306 14.7989465,10.5450535 15.0889312,10.2550688 C15.3259541,10.0180459 14.8645264,9.58347363 14.6207896,9.82721045 C14.3566141,10.0913859 13.9603509,10.4876491 13.432,11.016 Z" id="路径" fill="#000000" fill-rule="nonzero"></path>
                <path d="M10.112,10.664 C9.7806607,10.3326607 9.53215622,10.0841562 9.36648657,9.91848657 C9.09232438,9.64432438 8.5975918,10.0455918 8.8483877,10.2963877 C9.02963487,10.4776349 9.30150564,10.7495056 9.664,11.112 C9.28486361,11.4911364 9.00051131,11.7754887 8.81094312,11.9650569 C8.57262874,12.2033713 9.01199227,12.6600077 9.2459884,12.4260116 C9.43843542,12.2335646 9.72710596,11.944894 10.112,11.56 C10.4725951,11.9205951 10.7430413,12.1910413 10.9233389,12.3713389 C11.1755592,12.6235592 11.6867103,12.2387103 11.4660654,12.0180654 C11.2647176,11.8167176 10.9626957,11.5146957 10.56,11.112 C10.9837231,10.6882769 11.2721851,10.3998149 11.425386,10.246614 C11.5355455,10.1364545 11.0573381,9.7186619 10.9632563,9.81274365 C10.8144566,9.96154343 10.5307045,10.2452955 10.112,10.664 Z" id="路径" fill="#000000" fill-rule="nonzero"></path>
                <rect id="矩形" fill="#444444" transform="translate(7.500000, 8.000000) rotate(90.000000) translate(-7.500000, -8.000000) " x="7" y="2.5" width="1" height="11"></rect>
            </g>
        </g>
    </g>
</svg>