<?xml version="1.0" encoding="UTF-8"?>
<svg width="16px" height="16px" viewBox="0 0 16 16" version="1.1" xmlns="http://www.w3.org/2000/svg" xmlns:xlink="http://www.w3.org/1999/xlink">
    <title>OutputPin</title>
    <defs>
        <linearGradient x1="100%" y1="50.9779638%" x2="8.33129883%" y2="50.0955595%" id="linearGradient-1">
            <stop stop-color="#FEF9DB" offset="0%"></stop>
            <stop stop-color="#FEF4BD" offset="44.2039696%"></stop>
            <stop stop-color="#FEEF9E" offset="60.7131546%"></stop>
            <stop stop-color="#FCF0AC" offset="100%"></stop>
        </linearGradient>
    </defs>
    <g id="九大图" stroke="none" stroke-width="1" fill="none" fill-rule="evenodd">
        <g transform="translate(-806.000000, -373.000000)" id="编组-22">
            <g transform="translate(806.000000, 373.000000)">
                <g id="OutputPin" transform="translate(1.000000, 0.000000)">
                    <g id="编组-15" transform="translate(0.545044, 0.000000)">
                        <g id="编组-62" transform="translate(3.454956, 4.000000)" fill="url(#linearGradient-1)" stroke="#97958C">
                            <path d="M1.5,0 L8,0 C8.55228475,-1.01453063e-16 9,0.44771525 9,1 L9,6 C9,6.55228475 8.55228475,7 8,7 L1.5,7 C0.94771525,7 0.5,6.55228475 0.5,6 L0.5,1 C0.5,0.44771525 0.94771525,1.01453063e-16 1.5,0 Z" id="矩形"></path>
                        </g>
                        <rect id="矩形" fill="#979487" x="0.45495581" y="0" width="2" height="1"></rect>
                        <rect id="矩形" fill="#979487" x="2.45495581" y="1" width="1" height="1"></rect>
                        <rect id="矩形" fill="#979487" x="3.45495581" y="2" width="1" height="11"></rect>
                        <rect id="矩形" fill="#979487" x="0.45495581" y="14" width="2" height="1"></rect>
                        <rect id="矩形" fill="#979487" x="2.45495581" y="13" width="1" height="1"></rect>
                    </g>
                    <path d="M6.33339388,7.82673496 L10.814116,7.82673496 L9.04987195,9.42871948 C8.96079437,9.50779515 8.92179928,9.62785978 8.94777059,9.74308632 C8.9737419,9.85831285 9.06067136,9.95091795 9.17537916,9.98555548 C9.29008695,10.020193 9.41486981,9.99151723 9.50209977,9.91047331 L11.8930182,7.73973948 C11.9612272,7.67760527 12,7.59030552 12,7.49886257 C12,7.40741961 11.9612272,7.32011986 11.8930182,7.25798565 L9.50209977,5.08725181 C9.43721053,5.02811405 9.35105926,4.99681209 9.26266706,5.000257 C9.17427486,5.00370192 9.0909116,5.04161038 9.03098283,5.10561267 C8.97099864,5.16951908 8.93928837,5.25425022 8.94283096,5.34115807 C8.94637356,5.42806592 8.98487868,5.51002798 9.04987195,5.56900565 L10.814116,7.17099018 L6.33339388,7.17099018 C6.21429044,7.17097035 6.10422569,7.23345814 6.04466815,7.33491035 C5.98511062,7.43636256 5.98511062,7.56136257 6.04466815,7.66281478 C6.10422569,7.764267 6.21429044,7.82675478 6.33339388,7.82673496" id="路径" fill="#48432E" fill-rule="nonzero"></path>
                </g>
            </g>
        </g>
    </g>
</svg>