<?xml version="1.0" encoding="UTF-8"?>
<svg width="16px" height="16px" viewBox="0 0 16 16" version="1.1" xmlns="http://www.w3.org/2000/svg" xmlns:xlink="http://www.w3.org/1999/xlink">
    <title>Package</title>
    <defs>
        <linearGradient x1="100%" y1="50.853253%" x2="8.33129883%" y2="50.0833737%" id="linearGradient-1">
            <stop stop-color="#FEF9DB" offset="0%"></stop>
            <stop stop-color="#FEF4BD" offset="44.2039696%"></stop>
            <stop stop-color="#FEEF9E" offset="60.7131546%"></stop>
            <stop stop-color="#FCF0AC" offset="100%"></stop>
        </linearGradient>
    </defs>
    <g id="九大图" stroke="none" stroke-width="1" fill="none" fill-rule="evenodd">
        <g transform="translate(-86.000000, -86.000000)" id="Package">
            <g transform="translate(86.000000, 86.000000)">
                <rect id="矩形" fill="#000000" fill-rule="nonzero" opacity="0" x="0" y="0" width="16" height="16"></rect>
                <polygon id="路径备份-2" fill="#FEEF9F" fill-rule="nonzero" points="13.5021191 13 0.502119095 12.9610898 0.981635236 2 4.83409181 2 5.79720595 4 13.5021191 4"></polygon>
                <path d="M-3.97903932e-13,13 C0.00557229029,6 0.00701223092,2.33333333 0.00431982188,2 C0.000281208318,1.5 0.466944471,1 0.937646347,1 C1.40834822,1 3.31247566,1 4.66691383,1 C5.60024036,1 5.60024036,2 5.60024036,2 L6.06690362,3 L14,3 C14.4666633,3 15,3.5 15,4 L15,13 L-3.97903932e-13,13 Z M1.00432712,13 L14.0043271,13 L14,4 L5.64718426,4 L4.71459479,2 L1.00432712,2 L1.00432712,13 Z" id="形状备份-2" fill="#97958C" fill-rule="nonzero"></path>
                <polygon id="路径备份" fill="url(#linearGradient-1)" points="1 4 14 4 14 14 1 14"></polygon>
                <path d="M14,15 C6,15 1.66666667,15 1,15 C0.333333333,15 0,14.6666667 0,14 L0,3 L5.5,3 C11.8333333,3 15,3.33333333 15,4 C15,9.08118636 15,13.3896174 15,14 C15,14.6666667 14.6666667,15 14,15 Z M1,14 L14,14 L14,3 L1,3 L1,14 Z" id="形状备份" fill="#97958C" fill-rule="nonzero"></path>
            </g>
        </g>
    </g>
</svg>