<?xml version="1.0" encoding="UTF-8"?>
<svg width="16px" height="16px" viewBox="0 0 16 16" version="1.1" xmlns="http://www.w3.org/2000/svg" xmlns:xlink="http://www.w3.org/1999/xlink">
    <title>Parallel</title>
    <g id="九大图" stroke="none" stroke-width="1" fill="none" fill-rule="evenodd">
        <g transform="translate(-1607.000000, -207.000000)" id="Parallel">
            <g transform="translate(1607.000000, 207.000000)">
                <rect id="矩形" fill="#000000" fill-rule="nonzero" opacity="0" x="0" y="0" width="16" height="16"></rect>
                <g id="Block"></g>
                <rect id="矩形" stroke="#515151" fill="#FFFFFF" x="1.5" y="2.5" width="13" height="12" rx="1"></rect>
                <path d="M9,2.5 L3,2.5 C2.58578644,2.5 2.21078644,2.66789322 1.93933983,2.93933983 C1.66789322,3.21078644 1.5,3.58578644 1.5,4 C1.5,4.41421356 1.66789322,4.78921356 1.93933983,5.06066017 C2.21078644,5.33210678 2.58578644,5.5 3,5.5 L9,5.5 C9.41421356,5.5 9.78921356,5.33210678 10.0606602,5.06066017 C10.3321068,4.78921356 10.5,4.41421356 10.5,4 C10.5,3.58578644 10.3321068,3.21078644 10.0606602,2.93933983 C9.78921356,2.66789322 9.41421356,2.5 9,2.5 Z" id="矩形" stroke="#515151" fill="#F7F7F7"></path>
                <path d="M8.375,13 L8.375,10.671875 L9.84375,10.671875 C10.6536458,10.671875 11.2135417,10.5032552 11.5234375,10.1660156 C11.8333333,9.82877604 11.9882812,9.41666667 11.9882812,8.9296875 C11.9882812,8.64583333 11.9303385,8.38541667 11.8144531,8.1484375 C11.6985677,7.91145833 11.5455729,7.72721354 11.3554688,7.59570312 C11.1653646,7.46419271 10.9296875,7.375 10.6484375,7.328125 C10.4479167,7.29166667 10.1575521,7.2734375 9.77734375,7.2734375 L9.77734375,7.2734375 L7.6171875,7.2734375 L7.6171875,13 L8.375,13 Z M9.85546875,9.99609375 L8.375,9.99609375 L8.375,7.94921875 L9.83984375,7.94921875 C10.1835938,7.94921875 10.4192708,7.96614583 10.546875,8 C10.7447917,8.0546875 10.9042969,8.16731771 11.0253906,8.33789062 C11.1464844,8.50846354 11.2070312,8.71354167 11.2070312,8.953125 C11.2070312,9.28385417 11.1041667,9.54036458 10.8984375,9.72265625 C10.6927083,9.90494792 10.3450521,9.99609375 9.85546875,9.99609375 L9.85546875,9.99609375 Z" id="P" fill="#515151" fill-rule="nonzero"></path>
            </g>
        </g>
    </g>
</svg>