<?xml version="1.0" encoding="UTF-8"?>
<svg width="16px" height="16px" viewBox="0 0 16 16" version="1.1" xmlns="http://www.w3.org/2000/svg" xmlns:xlink="http://www.w3.org/1999/xlink">
    <title>PartProperty</title>
    <defs>
        <linearGradient x1="100%" y1="51.0324362%" x2="8.33129883%" y2="50.1008822%" id="linearGradient-1">
            <stop stop-color="#FEF9DB" offset="0%"></stop>
            <stop stop-color="#FEF4BD" offset="44.2039696%"></stop>
            <stop stop-color="#FEEF9E" offset="60.7131546%"></stop>
            <stop stop-color="#FCF0AC" offset="100%"></stop>
        </linearGradient>
    </defs>
    <g id="九大图" stroke="none" stroke-width="1" fill="none" fill-rule="evenodd">
        <g transform="translate(-87.000000, -940.000000)" id="PartProperty">
            <g transform="translate(87.000000, 940.000000)">
                <rect id="矩形" fill="#000000" fill-rule="nonzero" opacity="0" x="0" y="0" width="16" height="16"></rect>
                <rect id="矩形" stroke="#97958C" fill="#97958C" x="0.5" y="1.5" width="14" height="12" rx="1"></rect>
                <rect id="矩形" fill="url(#linearGradient-1)" x="1" y="2" width="13" height="11" rx="1"></rect>
                <path d="M8.546875,11 L8.546875,8.38085938 L10.1992188,8.38085938 C11.1103516,8.38085938 11.7402344,8.19116211 12.0888672,7.81176758 C12.4375,7.43237305 12.6118164,6.96875 12.6118164,6.42089844 C12.6118164,6.1015625 12.5466309,5.80859375 12.4162598,5.54199219 C12.2858887,5.27539062 12.1137695,5.06811523 11.8999023,4.92016602 C11.6860352,4.7722168 11.4208984,4.671875 11.1044922,4.61914062 C10.8789062,4.578125 10.5522461,4.55761719 10.1245117,4.55761719 L10.1245117,4.55761719 L7.69433594,4.55761719 L7.69433594,11 L8.546875,11 Z M10.2124023,7.62060547 L8.546875,7.62060547 L8.546875,5.31787109 L10.1948242,5.31787109 C10.581543,5.31787109 10.8466797,5.33691406 10.9902344,5.375 C11.2128906,5.43652344 11.392334,5.56323242 11.5285645,5.75512695 C11.6647949,5.94702148 11.7329102,6.17773438 11.7329102,6.44726562 C11.7329102,6.81933594 11.6171875,7.10791016 11.3857422,7.31298828 C11.1542969,7.51806641 10.7631836,7.62060547 10.2124023,7.62060547 L10.2124023,7.62060547 Z" id="P" fill="#000000" fill-rule="nonzero"></path>
            </g>
        </g>
    </g>
</svg>