<?xml version="1.0" encoding="UTF-8"?>
<svg width="16px" height="16px" viewBox="0 0 16 16" version="1.1" xmlns="http://www.w3.org/2000/svg" xmlns:xlink="http://www.w3.org/1999/xlink">
    <title>ParticipantProperty</title>
    <defs>
        <linearGradient x1="100%" y1="51.0324362%" x2="8.33129883%" y2="50.1008822%" id="linearGradient-1">
            <stop stop-color="#FEF9DB" offset="0%"></stop>
            <stop stop-color="#FEF4BD" offset="44.2039696%"></stop>
            <stop stop-color="#FEEF9E" offset="60.7131546%"></stop>
            <stop stop-color="#FCF0AC" offset="100%"></stop>
        </linearGradient>
    </defs>
    <g id="九大图" stroke="none" stroke-width="1" fill="none" fill-rule="evenodd">
        <g transform="translate(-87.000000, -1035.000000)" id="ParticipantProperty">
            <g transform="translate(87.000000, 1035.000000)">
                <rect id="矩形" fill="#000000" fill-rule="nonzero" opacity="0" x="0" y="0" width="16" height="16"></rect>
                <rect id="矩形" stroke="#97958C" fill="#97958C" x="0.5" y="1.5" width="14" height="12" rx="1"></rect>
                <rect id="矩形" fill="url(#linearGradient-1)" x="1" y="2" width="13" height="11" rx="1"></rect>
                <path d="M3.203125,10 L3.203125,7.96289062 L4.48828125,7.96289062 C5.1969401,7.96289062 5.68684896,7.81534831 5.95800781,7.52026367 C6.22916667,7.22517904 6.36474609,6.86458333 6.36474609,6.43847656 C6.36474609,6.19010417 6.31404622,5.96223958 6.21264648,5.75488281 C6.11124674,5.54752604 5.9773763,5.38631185 5.81103516,5.27124023 C5.64469401,5.15616862 5.43847656,5.078125 5.19238281,5.03710938 C5.01692708,5.00520833 4.76285807,4.98925781 4.43017578,4.98925781 L4.43017578,4.98925781 L2.54003906,4.98925781 L2.54003906,10 L3.203125,10 Z M4.49853516,7.37158203 L3.203125,7.37158203 L3.203125,5.58056641 L4.48486328,5.58056641 C4.78564453,5.58056641 4.99186198,5.5953776 5.10351562,5.625 C5.27669271,5.67285156 5.41625977,5.77140299 5.5222168,5.9206543 C5.62817383,6.0699056 5.68115234,6.24934896 5.68115234,6.45898438 C5.68115234,6.7483724 5.59114583,6.97281901 5.41113281,7.13232422 C5.23111979,7.29182943 4.92692057,7.37158203 4.49853516,7.37158203 L4.49853516,7.37158203 Z M8.16259766,10.0820312 C8.40413411,10.0820312 8.63028971,10.0421549 8.84106445,9.96240234 C9.05183919,9.88264974 9.27115885,9.74593099 9.49902344,9.55224609 C9.5172526,9.72314453 9.55826823,9.87239583 9.62207031,10 L9.62207031,10 L10.2646484,10 C10.1871745,9.8610026 10.1353353,9.71573893 10.1091309,9.56420898 C10.0829264,9.41267904 10.0698242,9.05094401 10.0698242,8.47900391 L10.0698242,8.47900391 L10.0698242,7.65869141 C10.0698242,7.38525391 10.0595703,7.1961263 10.0390625,7.09130859 C10.0026042,6.9226888 9.93880208,6.78312174 9.84765625,6.67260742 C9.75651042,6.5620931 9.61409505,6.4703776 9.42041016,6.39746094 C9.22672526,6.32454427 8.9749349,6.28808594 8.66503906,6.28808594 C8.35286458,6.28808594 8.07828776,6.33081055 7.84130859,6.41625977 C7.60432943,6.50170898 7.42317708,6.62361654 7.29785156,6.78198242 C7.17252604,6.94034831 7.08251953,7.14827474 7.02783203,7.40576172 L7.02783203,7.40576172 L7.62939453,7.48779297 C7.69547526,7.23030599 7.79744466,7.05086263 7.93530273,6.94946289 C8.07316081,6.84806315 8.28678385,6.79736328 8.57617188,6.79736328 C8.88606771,6.79736328 9.11962891,6.86686198 9.27685547,7.00585938 C9.39306641,7.10839844 9.45117188,7.28499349 9.45117188,7.53564453 C9.45117188,7.55843099 9.45003255,7.61197917 9.44775391,7.69628906 C9.21305339,7.77832031 8.84733073,7.84895833 8.35058594,7.90820312 C8.10677083,7.93782552 7.92447917,7.96858724 7.80371094,8.00048828 C7.63964844,8.0460612 7.49210612,8.11328125 7.36108398,8.20214844 C7.23006185,8.29101562 7.12410482,8.40893555 7.04321289,8.5559082 C6.96232096,8.70288086 6.921875,8.86523438 6.921875,9.04296875 C6.921875,9.34602865 7.02897135,9.5949707 7.24316406,9.78979492 C7.45735677,9.98461914 7.76383464,10.0820312 8.16259766,10.0820312 Z M8.30957031,9.60009766 C8.0703125,9.60009766 7.88859049,9.54541016 7.7644043,9.43603516 C7.6402181,9.32666016 7.578125,9.18994141 7.578125,9.02587891 C7.578125,8.91878255 7.60660807,8.82137044 7.66357422,8.73364258 C7.72054036,8.64591471 7.80143229,8.57926432 7.90625,8.53369141 C8.01106771,8.48811849 8.18994141,8.44710286 8.44287109,8.41064453 C8.88948568,8.34684245 9.22444661,8.26936849 9.44775391,8.17822266 L9.44775391,8.17822266 L9.44775391,8.40380859 C9.44775391,8.67496745 9.41471354,8.88004557 9.34863281,9.01904297 C9.26204427,9.19905599 9.12646484,9.34090169 8.94189453,9.44458008 C8.75732422,9.54825846 8.54654948,9.60009766 8.30957031,9.60009766 Z M11.6318359,10 L11.6318359,8.09960938 C11.6318359,7.83984375 11.6660156,7.60058594 11.734375,7.38183594 C11.7799479,7.23828125 11.8562826,7.12605794 11.9633789,7.04516602 C12.0704753,6.96427409 12.1912435,6.92382812 12.3256836,6.92382812 C12.4760742,6.92382812 12.6264648,6.96826172 12.7768555,7.05712891 L12.7768555,7.05712891 L12.9887695,6.48632812 C12.7745768,6.35416667 12.5638021,6.28808594 12.3564453,6.28808594 C12.2128906,6.28808594 12.0812988,6.32910156 11.9616699,6.41113281 C11.842041,6.49316406 11.7115885,6.66292318 11.5703125,6.92041016 L11.5703125,6.92041016 L11.5703125,6.37011719 L11.0166016,6.37011719 L11.0166016,10 L11.6318359,10 Z" id="Par" fill="#000000" fill-rule="nonzero"></path>
            </g>
        </g>
    </g>
</svg>