<?xml version="1.0" encoding="UTF-8"?>
<svg width="16px" height="16px" viewBox="0 0 16 16" version="1.1" xmlns="http://www.w3.org/2000/svg" xmlns:xlink="http://www.w3.org/1999/xlink">
    <title>Port</title>
    <defs>
        <linearGradient x1="87.8173828%" y1="43.3929443%" x2="14.8284912%" y2="43.3929443%" id="linearGradient-1">
            <stop stop-color="#EEEEEE" offset="0%"></stop>
            <stop stop-color="#C4EAC7" offset="100%"></stop>
        </linearGradient>
    </defs>
    <g id="九大图" stroke="none" stroke-width="1" fill="none" fill-rule="evenodd">
        <g transform="translate(-88.000000, -1131.000000)" id="Port">
            <g transform="translate(88.000000, 1131.000000)">
                <rect id="矩形" fill="#000000" fill-rule="nonzero" opacity="0" x="0" y="0.470588235" width="16" height="15.0588235"></rect>
                <path d="M3,2 L14,2 C14.5522847,2 15,2.44771525 15,3 L15,12 C15,12.5522847 14.5522847,13 14,13 L3,13 C2.44771525,13 2,12.5522847 2,12 L2,3 C2,2.44771525 2.44771525,2 3,2 Z" id="矩形" fill="#979487"></path>
                <path d="M3.5,3 L13,3 C13.5522847,3 14,3.44771525 14,4 L14,11 C14,11.5522847 13.5522847,12 13,12 L3.5,12 C2.94771525,12 2.5,11.5522847 2.5,11 L2.5,4 C2.5,3.44771525 2.94771525,3 3.5,3 Z" id="矩形" fill="url(#linearGradient-1)"></path>
                <rect id="矩形" fill="#979487" x="0" y="1" width="3" height="1"></rect>
                <rect id="矩形" fill="#979487" x="2" y="2" width="1" height="12"></rect>
                <rect id="矩形" fill="#979487" x="0" y="13" width="3" height="1"></rect>
            </g>
        </g>
    </g>
</svg>