<?xml version="1.0" encoding="UTF-8"?>
<svg width="16px" height="16px" viewBox="0 0 16 16" version="1.1" xmlns="http://www.w3.org/2000/svg" xmlns:xlink="http://www.w3.org/1999/xlink">
    <title>Problem</title>
    <g id="九大图" stroke="none" stroke-width="1" fill="none" fill-rule="evenodd">
        <g transform="translate(-473.000000, -157.000000)" id="Problem">
            <g transform="translate(473.000000, 157.000000)">
                <rect id="矩形" fill="#000000" fill-rule="nonzero" opacity="0" x="0" y="0" width="16" height="16"></rect>
                <path d="M14,6 C12.7777778,6 11.7777778,6 11,6 C10.132124,6 9.5,5.3836556 9.5,4.5 L9.5,1 L2,1 C1.56606198,1 1,1.5581722 1,2 C1,5.91111111 1,8.91111111 1,11 C1,11.5 1.56606198,12 2,12 L13,12 C13.433938,12 14,11.8 14,10.5 C14,9.41111111 14,7.91111111 14,6 Z M10.5,1 L10.5,4 C10.5,4.4418278 11,5 11.5,5 L14,5 L10.5,1 Z M10,1.36424205e-12 C10.4243117,1.36424205e-12 11,1.36424205e-12 11.5,0.5 C13.5,2.83333333 14.6666667,4.33333333 15,5 C15,7.88053333 15,10.0472 15,11.5 C15,12.3 14.3836556,13 13.5,13 L1.5,13 C0.6163444,13 0,12.3 0,11.5 C0,9.18888889 0,5.85555556 0,1.5 C0,0.6163444 0.6163444,1.36424205e-12 1.5,1.36424205e-12 L10,1.36424205e-12 Z" id="形状" fill="#97958C" fill-rule="nonzero"></path>
                <rect id="矩形" fill="#979487" x="2.6862915" y="8" width="3" height="1"></rect>
                <rect id="矩形" fill="#979487" x="2.6862915" y="6" width="3" height="1"></rect>
                <rect id="矩形" fill="#979487" x="2.6862915" y="4" width="3" height="1"></rect>
                <path d="M7.65625,9.2265625 L7.65625,7.06640625 L8.41015625,7.06640625 C8.93359375,7.06640625 9.33333333,7.0390625 9.609375,6.984375 C9.8125,6.94010417 10.0123698,6.84960938 10.2089844,6.71289062 C10.405599,6.57617188 10.5677083,6.38802083 10.6953125,6.1484375 C10.8229167,5.90885417 10.8867188,5.61328125 10.8867188,5.26171875 C10.8867188,4.80598958 10.7760417,4.43424479 10.5546875,4.14648438 C10.3333333,3.85872396 10.0585938,3.671875 9.73046875,3.5859375 C9.51692708,3.52864583 9.05859375,3.5 8.35546875,3.5 L8.35546875,3.5 L6.5,3.5 L6.5,9.2265625 L7.65625,9.2265625 Z M8.2890625,6.09375 L7.65625,6.09375 L7.65625,4.46875 L8.3848852,4.46954719 C8.70790816,4.47273597 8.92857143,4.48549107 9.046875,4.5078125 C9.234375,4.54166667 9.38932292,4.62630208 9.51171875,4.76171875 C9.63411458,4.89713542 9.6953125,5.06901042 9.6953125,5.27734375 C9.6953125,5.44661458 9.65169271,5.59505208 9.56445312,5.72265625 C9.47721354,5.85026042 9.35677083,5.94401042 9.203125,6.00390625 C9.04947917,6.06380208 8.74479167,6.09375 8.2890625,6.09375 L8.2890625,6.09375 Z" id="P" fill="#E20202" fill-rule="nonzero"></path>
            </g>
        </g>
    </g>
</svg>