<?xml version="1.0" encoding="UTF-8"?>
<svg width="16px" height="16px" viewBox="0 0 16 16" version="1.1" xmlns="http://www.w3.org/2000/svg" xmlns:xlink="http://www.w3.org/1999/xlink">
    <title>ProxyPort</title>
    <defs>
        <linearGradient x1="87.8173828%" y1="43.3929443%" x2="14.8284912%" y2="43.3929443%" id="linearGradient-1">
            <stop stop-color="#EEEEEE" offset="0%"></stop>
            <stop stop-color="#C4EAC7" offset="100%"></stop>
        </linearGradient>
    </defs>
    <g id="九大图" stroke="none" stroke-width="1" fill="none" fill-rule="evenodd">
        <g transform="translate(-88.000000, -1154.000000)" id="ProxyPort">
            <g transform="translate(88.000000, 1154.000000)">
                <rect id="矩形" fill="#000000" fill-rule="nonzero" opacity="0" x="0" y="0.470588235" width="16" height="15.0588235"></rect>
                <path d="M3,2 L14,2 C14.5522847,2 15,2.44771525 15,3 L15,12 C15,12.5522847 14.5522847,13 14,13 L3,13 C2.44771525,13 2,12.5522847 2,12 L2,3 C2,2.44771525 2.44771525,2 3,2 Z" id="矩形" fill="#979487"></path>
                <path d="M3.5,3 L13,3 C13.5522847,3 14,3.44771525 14,4 L14,11 C14,11.5522847 13.5522847,12 13,12 L3.5,12 C2.94771525,12 2.5,11.5522847 2.5,11 L2.5,4 C2.5,3.44771525 2.94771525,3 3.5,3 Z" id="矩形" fill="url(#linearGradient-1)"></path>
                <rect id="矩形" fill="#979487" x="0" y="1" width="3" height="1"></rect>
                <rect id="矩形" fill="#979487" x="2" y="2" width="1" height="12"></rect>
                <rect id="矩形" fill="#979487" x="0" y="13" width="3" height="1"></rect>
                <path d="M7.7578125,10.7265625 L7.7578125,8.3984375 L9.2265625,8.3984375 C10.0364583,8.3984375 10.5963542,8.22981771 10.90625,7.89257812 C11.2161458,7.55533854 11.3710938,7.14322917 11.3710938,6.65625 C11.3710938,6.37239583 11.313151,6.11197917 11.1972656,5.875 C11.0813802,5.63802083 10.9283854,5.45377604 10.7382812,5.32226562 C10.5481771,5.19075521 10.3125,5.1015625 10.03125,5.0546875 C9.83072917,5.01822917 9.54036458,5 9.16015625,5 L9.16015625,5 L7,5 L7,10.7265625 L7.7578125,10.7265625 Z M9.23828125,7.72265625 L7.7578125,7.72265625 L7.7578125,5.67578125 L9.22265625,5.67578125 C9.56640625,5.67578125 9.80208333,5.69270833 9.9296875,5.7265625 C10.1276042,5.78125 10.2871094,5.89388021 10.4082031,6.06445312 C10.5292969,6.23502604 10.5898438,6.44010417 10.5898438,6.6796875 C10.5898438,7.01041667 10.4869792,7.26692708 10.28125,7.44921875 C10.0755208,7.63151042 9.72786458,7.72265625 9.23828125,7.72265625 L9.23828125,7.72265625 Z" id="P" fill="#000000" fill-rule="nonzero"></path>
            </g>
        </g>
    </g>
</svg>