<?xml version="1.0" encoding="UTF-8"?>
<svg width="16px" height="16px" viewBox="0 0 16 16" version="1.1" xmlns="http://www.w3.org/2000/svg" xmlns:xlink="http://www.w3.org/1999/xlink">
    <title>DeepHistory</title>
    <g id="九大图" stroke="none" stroke-width="1" fill="none" fill-rule="evenodd">
        <g transform="translate(-1180.000000, -277.000000)" fill-rule="nonzero" id="DeepHistory">
            <g transform="translate(1180.000000, 277.000000)">
                <rect id="矩形" fill="#000000" opacity="0" x="0" y="0" width="16" height="16"></rect>
                <g id="编组-12" transform="translate(2.000000, 2.000000)">
                    <path d="M0,6 C0,9.3137085 2.6862915,12 6,12 C9.3137085,12 12,9.3137085 12,6 C12,2.6862915 9.3137085,0 6,0 C2.6862915,0 0,2.6862915 0,6 Z" id="路径" stroke="#4B4B4B" fill="#FFFFFF"></path>
                    <polygon id="X" fill="#000000" points="6.729733 4.04443359 7.729733 4.04443359 7.729733 5 8.81139804 5 8.81139804 4.04443359 7.729733 4 7.729733 3 8.81139804 3 8.81139804 2 7.729733 2 7.729733 3 6.729733 3 6.729733 2 5.77056552 2 5.82799961 3 6.729733 3"></polygon>
                    <polygon id="H" fill="#000000" points="3.68694736 8.9185791 3.68694736 6.9185791 5.78716709 6.9185791 5.78716709 8.9185791 6.68890048 8.9185791 6.68890048 4 5.78716709 4 5.78716709 5.94799805 3.68694736 5.94799805 3.68694736 4 2.77056552 4 2.77056552 8.9185791"></polygon>
                </g>
            </g>
        </g>
    </g>
</svg>