<?xml version="1.0" encoding="UTF-8"?>
<svg width="17px" height="17px" viewBox="0 0 17 17" version="1.1" xmlns="http://www.w3.org/2000/svg" xmlns:xlink="http://www.w3.org/1999/xlink">
    <title>Junction</title>
    <defs>
        <linearGradient x1="50%" y1="100%" x2="50%" y2="3.98193359%" id="linearGradient-1">
            <stop stop-color="#4B4B4B" offset="0%"></stop>
            <stop stop-color="#D2D2D2" offset="100%"></stop>
        </linearGradient>
    </defs>
    <g id="九大图" stroke="none" stroke-width="1" fill="none" fill-rule="evenodd">
        <g transform="translate(-1179.000000, -348.000000)" id="编组-39">
            <g transform="translate(1179.770566, 348.000000)">
                <g id="Junction" transform="translate(0.229434, 0.000000)">
                    <g id="菱形" transform="translate(0.000000, 0.353553)">
                        <rect id="矩形" fill="#000000" fill-rule="nonzero" opacity="0" x="0" y="0" width="16" height="16"></rect>
                        <circle id="椭圆形" stroke="#515151" fill="url(#linearGradient-1)" cx="8" cy="8.64644661" r="4.5"></circle>
                    </g>
                    <g id="编组-7" transform="translate(3.000000, 13.353553) rotate(90.000000) translate(-3.000000, -13.353553) translate(0.500000, 10.853553)" fill="#0283E2" fill-rule="nonzero">
                        <path d="M0.163536453,3.5 L3.14644661,3.5 L3.14644661,0.5 C3.14644661,0.5 4.18791316,0.5 4.18791316,0.5 L4.18791316,4.41403125 C4.18602419,4.44209871 2.84456529,4.4409164 0.163536453,4.41048431 C0.16703459,4.35850682 0.163536453,3.5 0.163536453,3.5 Z" id="路径"></path>
                        <path d="M0.146446609,1 C0.146446609,1 0.644005203,0.5 0.644005203,0.5 L4.14644661,3.5 C4.14644661,3.5 3.14644661,4.43423096 3.14644661,4.43423096 L0.146446609,1 Z" id="路径"></path>
                    </g>
                    <g id="编组-7" transform="translate(13.000000, 13.500000) scale(1, -1) rotate(-90.000000) translate(-13.000000, -13.500000) translate(10.500000, 11.500000)" fill="#0283E2" fill-rule="nonzero">
                        <path d="M0,3.05015139 L2.96484189,3.05015139 L2.96484189,0 C2.96484189,0 4,0 4,0 L4,3.97946261 C3.99812247,4.00799929 2.66478914,4.00679721 0,3.97585637 C0.00347694775,3.92300998 0,3.05015139 0,3.05015139 Z" id="路径"></path>
                        <path d="M0.0170898437,0.626708984 C0.0170898437,0.626708984 0.581298828,0 0.581298828,0 L4,3.09741211 C4.10729843,3.2453315 3.1068675,3.96885854 3,3.8215332 L0.0170898437,0.626708984 Z" id="路径"></path>
                    </g>
                    <g id="编组-7" transform="translate(12.000000, 4.000000) rotate(90.000000) translate(-12.000000, -4.000000) translate(10.000000, 2.000000)" fill="#0283E2" fill-rule="nonzero">
                        <path d="M4.54747351e-13,2.99291992 L2.98657227,2.99291992 L2.98657227,0 C2.98657227,0 4,0 4,0 C4.0030447,2.58422245 4.0030447,3.91755579 4,4 C4,4 2.66666667,4 4.54747351e-13,4 C0.00349813687,3.94802252 4.54747351e-13,2.99291992 4.54747351e-13,2.99291992 Z" id="路径"></path>
                        <path d="M2.83328916e-13,0.587036133 C2.83328916e-13,0.587036133 0.647033691,0 0.647033691,0 L4,3.02746582 C4,3.02746582 3.1529541,4 3.1529541,4 L2.83328916e-13,0.587036133 Z" id="路径"></path>
                    </g>
                    <g id="编组-7" transform="translate(4.500000, 4.000000) scale(1, -1) rotate(-90.000000) translate(-4.500000, -4.000000) translate(2.500000, 1.500000)" fill="#0283E2" fill-rule="nonzero">
                        <path d="M0,3.05015139 L3.04888916,3.05015139 L2.96289062,0 C2.96289063,0 4,0 4,0 L4,3.97946261 C3.99812247,4.00799929 2.66478914,4.01484508 0,4 C0.00347694774,3.9471536 0,3.05015139 0,3.05015139 Z" id="路径"></path>
                        <path d="M0,0.615600586 C0,0.615600586 0.559753418,0 0.559753418,0 L4,3.04534912 C4.01741276,3.04534912 3.05914307,4.0076199 3.05914307,4.0076199 L0,0.615600586 Z" id="路径"></path>
                    </g>
                </g>
            </g>
        </g>
    </g>
</svg>