<?xml version="1.0" encoding="UTF-8"?>
<svg width="16px" height="16px" viewBox="0 0 16 16" version="1.1" xmlns="http://www.w3.org/2000/svg" xmlns:xlink="http://www.w3.org/1999/xlink">
    <title>ExitPoint</title>
    <g id="九大图" stroke="none" stroke-width="1" fill="none" fill-rule="evenodd">
        <g transform="translate(-1180.000000, -252.000000)" fill-rule="nonzero" id="ExitPoint">
            <g transform="translate(1180.000000, 252.000000)">
                <rect id="矩形" fill="#000000" opacity="0" x="0" y="0" width="16" height="16"></rect>
                <g id="编组-12" transform="translate(3.000000, 3.000000)">
                    <path d="M0,5 C0,7.76142375 2.23857625,10 5,10 C7.76142375,10 10,7.76142375 10,5 C10,2.23857625 7.76142375,0 5,0 C2.23857625,0 0,2.23857625 0,5 Z" id="路径" stroke="#4B4B4B" fill="#FFFFFF"></path>
                    <path d="M7.07287598,7.60693359 L2.28649902,2.78381348 C2.09488225,2.59219671 2.09488225,2.35046497 2.28649902,2.18280029 C2.47811579,1.99118352 2.71807751,2.21707464 2.88574219,2.40869141 L7.6362915,7.1260376 C7.82790827,7.31765437 7.96175837,7.68810926 7.7701416,7.85577393 C7.60247694,8.0473907 7.26449275,7.79855036 7.07287598,7.60693359 Z M7.71551514,2.706604 L2.76617432,7.7053833 C2.57455755,7.89700007 2.38049426,7.97793269 2.21282959,7.78631592 C2.02121282,7.59469915 2.02121282,7.27313342 2.21282959,7.10546875 L7.12567139,2.19360352 C7.31728816,2.00198675 7.54785047,2.00198675 7.71551514,2.19360352 C7.90713191,2.36126818 7.90713191,2.51498723 7.71551514,2.706604 Z" id="形状" fill="#000000"></path>
                </g>
            </g>
        </g>
    </g>
</svg>