<?xml version="1.0" encoding="UTF-8"?>
<svg width="16px" height="16px" viewBox="0 0 16 16" version="1.1" xmlns="http://www.w3.org/2000/svg" xmlns:xlink="http://www.w3.org/1999/xlink">
    <title>JoinVertical</title>
    <defs>
        <polygon id="path-1" points="7 2 9.07092285 2 10 2 10 13 7 13"></polygon>
    </defs>
    <g id="九大图" stroke="none" stroke-width="1" fill="none" fill-rule="evenodd">
        <g transform="translate(-808.000000, -612.000000)" id="编组-11">
            <g transform="translate(808.000000, 612.000000)">
                <g id="JoinVertical">
                    <rect id="矩形" fill="#000000" fill-rule="nonzero" opacity="0" x="1" y="0" width="16" height="16"></rect>
                    <g id="矩形">
                        <use fill="#515151" fill-rule="evenodd" xlink:href="#path-1"></use>
                        <path stroke="#515151" stroke-width="1" d="M10.5,1.5 L6.5,1.5 L6.5,13.5 L10.5,13.5 L10.5,1.5 Z"></path>
                        <path stroke="#FFFFFF" stroke-width="1" d="M9.5,2.5 L7.5,2.5 L7.5,12.5 L9.5,12.5 L9.5,2.5 Z" stroke-linejoin="square"></path>
                    </g>
                    <g id="编组-7" transform="translate(12.914214, 8.500000) rotate(-45.000000) translate(-12.914214, -8.500000) translate(10.414214, 6.000000)" fill="#0283E2" fill-rule="nonzero">
                        <path d="M0.422825181,3.21607204 L3.1237043,3.1237043 L3.21497954,0.423917683 C3.21497954,0.423917683 4.08311493,0.588840432 4.08311493,0.588840432 L3.90962883,3.93722461 C3.90773986,3.96529207 2.80164479,4.01308779 0.591343617,4.08061175 C0.594841754,4.02863427 0.422825181,3.21607204 0.422825181,3.21607204 Z" id="路径"></path>
                        <path d="M1.4835135,0.77640672 C1.4835135,0.77640672 2.17718364,1.47007686 3.56452392,2.85741714 C3.61858239,2.92983196 2.91109455,3.63642829 2.85741714,3.56452392 C1.47007686,2.17718364 0.77640672,1.4835135 0.77640672,1.4835135 C0.77640672,1.44779914 1.01210898,1.21209688 1.4835135,0.77640672 Z" id="路径"></path>
                    </g>
                    <g id="编组-7" transform="translate(3.535534, 4.828427) rotate(-45.000000) translate(-3.535534, -4.828427) translate(1.035534, 2.328427)" fill="#0283E2" fill-rule="nonzero">
                        <path d="M1.29204125,3.09822347 L3.76390215,3.35487553 L3.59833838,0.79192634 C3.59833838,0.79192634 4.19772003,0.197720025 4.19772003,0.197720025 L4.49377879,4.07715365 C4.49167825,4.10742055 3.21361814,3.99192475 0.659598454,3.73066627 C0.663488398,3.67461571 1.29204125,3.09822347 1.29204125,3.09822347 Z" id="路径"></path>
                        <path d="M1.28300694,0.223818467 C1.28300694,0.223818467 2.11252564,1.05333716 3.77156303,2.71237455 C3.8256215,2.78478937 3.19945212,3.41006723 3.14577471,3.33816287 C1.45586671,1.64825486 0.610912703,0.803300859 0.610912703,0.803300859 C0.610912703,0.793611037 0.834944115,0.60045024 1.28300694,0.223818467 Z" id="路径"></path>
                    </g>
                    <g id="编组-7" transform="translate(3.535534, 11.828427) rotate(-45.000000) translate(-3.535534, -11.828427) translate(1.035534, 9.328427)" fill="#0283E2" fill-rule="nonzero">
                        <path d="M1.36670523,3.02355948 L3.80938884,3.30938884 L3.51228058,0.877984135 C3.51228058,0.877984135 4.1243276,0.265937118 4.1243276,0.265937118 L4.53346851,4.03346851 C4.53157954,4.06153597 3.2591661,3.94172532 0.716228181,3.67403654 C0.719726318,3.62205906 1.36670523,3.02355948 1.36670523,3.02355948 Z" id="路径"></path>
                        <path d="M1.27807281,0.228752596 C1.27807281,0.228752596 2.21339819,1.16407798 4.08404895,3.03472873 C4.13810742,3.10714355 3.46661964,3.77773981 3.41294223,3.70583545 C1.63992255,1.73755362 0.753412703,0.753412703 0.753412703,0.753412703 C0.753412703,0.717698342 0.928299406,0.54281164 1.27807281,0.228752596 Z" id="路径"></path>
                    </g>
                </g>
            </g>
        </g>
    </g>
</svg>