<?xml version="1.0" encoding="UTF-8"?>
<svg width="16px" height="16px" viewBox="0 0 16 16" version="1.1" xmlns="http://www.w3.org/2000/svg" xmlns:xlink="http://www.w3.org/1999/xlink">
    <title>Terminate</title>
    <g id="九大图" stroke="none" stroke-width="1" fill="none" fill-rule="evenodd">
        <g transform="translate(-1180.000000, -204.000000)" fill="#000000" fill-rule="nonzero" id="Terminate">
            <g transform="translate(1180.000000, 204.000000)">
                <rect id="矩形" opacity="0" x="0" y="0" width="16" height="16"></rect>
                <g id="编组-12" transform="translate(3.000000, 3.000000)">
                    <path d="M8.7050301,9.50900751 L0.444293389,1.29916313 C0.113584859,0.97299587 0.113584859,0.561523651 0.444293389,0.276127294 C0.775001918,-0.0500399633 1.18914827,0.334468579 1.47851824,0.660635837 L9.67742057,8.69043339 C10.0081291,9.01660065 10.239139,9.64718354 9.90843046,9.93257987 C9.61906051,10.2587471 9.03573863,9.83517477 8.7050301,9.50900751 Z M9.81415146,1.16773829 L1.27215783,9.67658716 C0.941449304,10.0027544 0.606518362,10.1405167 0.31714841,9.81434947 C-0.0135601205,9.48818221 -0.0135601205,8.94081774 0.31714841,8.6554214 L8.79614891,0.294516381 C9.12685744,-0.031650876 9.52478151,-0.031650876 9.81415146,0.294516381 C10.14486,0.57991272 10.14486,0.841571037 9.81415146,1.16773829 Z" id="形状"></path>
                </g>
            </g>
        </g>
    </g>
</svg>