<?xml version="1.0" encoding="UTF-8"?>
<svg width="16px" height="16px" viewBox="0 0 16 16" version="1.1" xmlns="http://www.w3.org/2000/svg" xmlns:xlink="http://www.w3.org/1999/xlink">
    <title>ForkVertical</title>
    <g id="九大图" stroke="none" stroke-width="1" fill="none" fill-rule="evenodd">
        <g transform="translate(-1216.000000, -396.000000)" id="编组-14">
            <g transform="translate(1216.000000, 395.000000)">
                <g id="ForkVertical">
                    <rect id="矩形" fill="#000000" fill-rule="nonzero" opacity="0" x="1" y="0" width="16" height="16"></rect>
                    <rect id="矩形" fill="#515151" x="6" y="2" width="4" height="13"></rect>
                    <g id="编组-7" transform="translate(3.914214, 8.500000) rotate(-45.000000) translate(-3.914214, -8.500000) translate(1.414214, 6.000000)" fill="#0283E2" fill-rule="nonzero">
                        <path d="M0.652187257,2.98670996 L3.12132034,3.36396103 L2.93488145,0.704015764 C2.93488145,0.704015764 4.00792684,0.492073156 4.00792684,0.492073156 L3.83144019,3.94454809 C3.82955122,3.97261555 2.71458746,3.99558323 0.486548884,4.01345112 C0.490047021,3.96147363 0.652187257,2.98670996 0.652187257,2.98670996 Z" id="路径"></path>
                        <path d="M0.767766953,0.110912703 C0.767766953,0.110912703 1.84517797,1.07440974 4,3.00140381 C4.05405847,3.07381862 2.0181435,3.07330817 1.96446609,3.00140381 C0.728355627,1.51272078 0.110300393,0.768379263 0.110300393,0.768379263 C0.110300393,0.732664902 0.329455913,0.513509382 0.767766953,0.110912703 Z" id="路径"></path>
                    </g>
                    <g id="编组-7" transform="translate(12.207107, 4.500000) rotate(-45.000000) translate(-12.207107, -4.500000) translate(10.207107, 2.500000)" fill="#0283E2" fill-rule="nonzero">
                        <path d="M0.743010233,3.01434908 L3.23791415,3.26550993 L3.04110727,0.716252041 C3.04110727,0.716252041 3.76969507,0.23416116 3.76969507,0.23416116 L3.90962883,3.93722461 C3.90773986,3.96529207 2.70870426,3.89905406 0.312522019,3.73851058 C0.316020156,3.6865331 0.743010233,3.01434908 0.743010233,3.01434908 Z" id="路径"></path>
                        <path d="M0.800748043,0.0779316138 C0.800748043,0.0779316138 1.7349577,1.01214127 3.603377,2.88056058 C3.65743547,2.95297539 2.91447145,3.6950479 2.86079404,3.62314354 C1.08830141,1.65879755 0.202055094,0.676624562 0.202055094,0.676624562 C0.202055094,0.640910201 0.40161941,0.441345885 0.800748043,0.0779316138 Z" id="路径"></path>
                    </g>
                    <g id="编组-7" transform="translate(12.207107, 11.500000) rotate(-45.000000) translate(-12.207107, -11.500000) translate(10.207107, 9.500000)" fill="#0283E2" fill-rule="nonzero">
                        <path d="M0.760014632,2.99734468 L3.11291471,3.11291471 L2.96264535,0.794713963 C2.96264535,0.794713963 3.86526604,0.334634839 3.86526604,0.334634839 L3.90962883,3.93722461 C3.90773986,3.96529207 2.71921342,3.93816766 0.344049512,3.85585137 C0.347547649,3.80387388 0.760014632,2.99734468 0.760014632,2.99734468 Z" id="路径"></path>
                        <path d="M0.782804049,0.0570528506 C0.782804049,0.0570528506 1.71680549,0.991054288 3.58480836,2.85905716 C3.63886683,2.93147198 2.91351142,3.65593587 2.85983401,3.58403151 C1.00477206,1.72896955 0.0772410798,0.801438577 0.0772410798,0.801438577 C0.0772410798,0.765724216 0.312428736,0.51759564 0.782804049,0.0570528506 Z" id="路径"></path>
                    </g>
                </g>
            </g>
        </g>
    </g>
</svg>