<?xml version="1.0" encoding="UTF-8"?>
<svg width="16px" height="16px" viewBox="0 0 16 16" version="1.1" xmlns="http://www.w3.org/2000/svg" xmlns:xlink="http://www.w3.org/1999/xlink">
    <title>QuantityKind</title>
    <defs>
        <linearGradient x1="8.33129883%" y1="32.5463867%" x2="93.0472238%" y2="32.5463867%" id="linearGradient-1">
            <stop stop-color="#FCD4D9" offset="0%"></stop>
            <stop stop-color="#FDEBEE" offset="100%"></stop>
        </linearGradient>
    </defs>
    <g id="九大图" stroke="none" stroke-width="1" fill="none" fill-rule="evenodd">
        <g transform="translate(-86.000000, -230.000000)" id="QuantityKind">
            <g transform="translate(86.000000, 230.000000)">
                <rect id="矩形" fill="#000000" fill-rule="nonzero" opacity="0" x="0" y="0" width="16" height="16"></rect>
                <rect id="矩形" stroke="#97958C" fill="#97958C" x="0.5" y="1.5" width="14" height="12" rx="1"></rect>
                <path d="M2,2 L13,2 C13.5522847,2 14,2.44771525 14,3 L14,12 C14,12.5522847 13.5522847,13 13,13 L2,13 C1.44771525,13 1,12.5522847 1,12 L1,3 C1,2.44771525 1.44771525,2 2,2 Z" id="矩形" fill="url(#linearGradient-1)"></path>
                <path d="M11.3632812,11.2734375 L11.5859375,10.7460938 C11.2890625,10.6341146 10.9648438,10.4570312 10.6132812,10.2148438 C10.9023438,9.93619792 11.1184896,9.60872396 11.2617188,9.23242188 C11.4049479,8.85611979 11.4765625,8.43229167 11.4765625,7.9609375 C11.4765625,7.39322917 11.3652344,6.88346354 11.1425781,6.43164062 C10.9199219,5.97981771 10.5963542,5.62825521 10.171875,5.37695312 C9.74739583,5.12565104 9.27083333,5 8.7421875,5 C8.21875,5 7.74544271,5.12109375 7.32226562,5.36328125 C6.89908854,5.60546875 6.57291667,5.95833333 6.34375,6.421875 C6.11458333,6.88541667 6,7.39973958 6,7.96484375 C6,8.53255208 6.11393229,9.04296875 6.34179688,9.49609375 C6.56966146,9.94921875 6.89453125,10.3007812 7.31640625,10.5507812 C7.73828125,10.8007812 8.20833333,10.9257812 8.7265625,10.9257812 C9.23958333,10.9257812 9.70833333,10.8072917 10.1328125,10.5703125 C10.5416667,10.890625 10.9518229,11.125 11.3632812,11.2734375 L11.3632812,11.2734375 Z M8.74609375,10.2773438 C8.17317708,10.2773438 7.70247396,10.078125 7.33398438,9.6796875 C6.96549479,9.28125 6.78125,8.70963542 6.78125,7.96484375 C6.78125,7.19661458 6.96744792,6.61914062 7.33984375,6.23242188 C7.71223958,5.84570312 8.18098958,5.65234375 8.74609375,5.65234375 C9.12369792,5.65234375 9.46419271,5.74804688 9.76757812,5.93945312 C10.0709635,6.13085938 10.3014323,6.39973958 10.4589844,6.74609375 C10.6165365,7.09244792 10.6953125,7.49739583 10.6953125,7.9609375 C10.6953125,8.77604167 10.4726562,9.38671875 10.0273438,9.79296875 C9.74348958,9.55078125 9.3828125,9.36848958 8.9453125,9.24609375 L8.9453125,9.24609375 L8.76171875,9.796875 C9.02473958,9.86197917 9.27473958,9.97135417 9.51171875,10.125 C9.27213542,10.2265625 9.01692708,10.2773438 8.74609375,10.2773438 Z" id="Q" fill="#000000" fill-rule="nonzero"></path>
            </g>
        </g>
    </g>
</svg>