<?xml version="1.0" encoding="UTF-8"?>
<svg width="16px" height="16px" viewBox="0 0 16 16" version="1.1" xmlns="http://www.w3.org/2000/svg" xmlns:xlink="http://www.w3.org/1999/xlink">
    <title>Rationale</title>
    <g id="九大图" stroke="none" stroke-width="1" fill="none" fill-rule="evenodd">
        <g transform="translate(-473.000000, -181.000000)" id="Rationale">
            <g transform="translate(473.000000, 181.000000)">
                <rect id="矩形" fill="#000000" fill-rule="nonzero" opacity="0" x="0" y="0" width="16" height="16"></rect>
                <path d="M14,6 C12.7777778,6 11.7777778,6 11,6 C10.132124,6 9.5,5.3836556 9.5,4.5 L9.5,1 L2,1 C1.56606198,1 1,1.5581722 1,2 C1,5.91111111 1,8.91111111 1,11 C1,11.5 1.56606198,12 2,12 L13,12 C13.433938,12 14,11.8 14,10.5 C14,9.41111111 14,7.91111111 14,6 Z M10.5,1 L10.5,4 C10.5,4.4418278 11,5 11.5,5 L14,5 L10.5,1 Z M10,1.36424205e-12 C10.4243117,1.36424205e-12 11,1.36424205e-12 11.5,0.5 C13.8333333,3.16666667 15,4.66666667 15,5 C15,5.5 15,9.3208 15,11.5 C15,12.3 14.3836556,13 13.5,13 L1.5,13 C0.6163444,13 0,12.3 0,11.5 C0,9.18888889 0,5.85555556 0,1.5 C0,0.6163444 0.6163444,1.36424205e-12 1.5,1.36424205e-12 L10,1.36424205e-12 Z" id="形状" fill="#97958C" fill-rule="nonzero"></path>
                <rect id="矩形" fill="#979487" x="2.6862915" y="8" width="3" height="1"></rect>
                <rect id="矩形" fill="#979487" x="2.6862915" y="6" width="3" height="1"></rect>
                <rect id="矩形" fill="#979487" x="2.6862915" y="4" width="3" height="1"></rect>
                <path d="M7.428479,9 L7.428479,6.609375 L7.662854,6.609375 C7.928479,6.609375 8.12248942,6.63085938 8.24488525,6.67382812 C8.36728108,6.71679688 8.4831665,6.79622396 8.5925415,6.91210938 C8.7019165,7.02799479 8.9050415,7.30859375 9.2019165,7.75390625 L9.2019165,7.75390625 L10.037854,9 L11.4206665,9 L10.7214478,7.8828125 C10.4454061,7.4375 10.226005,7.12760417 10.0632446,6.953125 C9.90048421,6.77864583 9.694104,6.61848958 9.444104,6.47265625 C9.94670817,6.39973958 10.3243123,6.22330729 10.5769165,5.94335938 C10.8295207,5.66341146 10.9558228,5.30859375 10.9558228,4.87890625 C10.9558228,4.54036458 10.8724894,4.23958333 10.7058228,3.9765625 C10.5391561,3.71354167 10.3171509,3.53059896 10.0398071,3.42773438 C9.76246338,3.32486979 9.31780192,3.2734375 8.70582275,3.2734375 L8.70582275,3.2734375 L6.272229,3.2734375 L6.272229,9 L7.428479,9 Z M8.28394775,5.6953125 L7.428479,5.6953125 L7.428479,4.2421875 L8.49781494,4.24249268 C8.86695556,4.24391683 9.0925415,4.25032552 9.17457275,4.26171875 C9.36207275,4.29296875 9.50725504,4.36783854 9.61011963,4.48632812 C9.71298421,4.60481771 9.7644165,4.76041667 9.7644165,4.953125 C9.7644165,5.125 9.725354,5.26822917 9.647229,5.3828125 C9.569104,5.49739583 9.46103108,5.578125 9.32301025,5.625 C9.18498942,5.671875 8.83863525,5.6953125 8.28394775,5.6953125 L8.28394775,5.6953125 Z" id="R" fill="#E20202" fill-rule="nonzero"></path>
            </g>
        </g>
    </g>
</svg>