<?xml version="1.0" encoding="UTF-8"?>
<svg width="17px" height="16px" viewBox="0 0 17 16" version="1.1" xmlns="http://www.w3.org/2000/svg" xmlns:xlink="http://www.w3.org/1999/xlink">
    <title>Realization</title>
    <g id="九大图" stroke="none" stroke-width="1" fill="none" fill-rule="evenodd">
        <g transform="translate(-1606.000000, -746.000000)" fill="#0283E2" fill-rule="nonzero" id="编组-37">
            <g transform="translate(1606.000000, 746.499695)">
                <g id="箭头" transform="translate(12.360595, 4.000000) rotate(88.000000) translate(-12.360595, -4.000000) translate(8.860595, 0.000000)">
                    <path d="M3.4617435,7.50246843 C3.53527568,7.63218915 3.66599958,7.72105296 3.81408523,7.74045999 C3.83553212,7.74352426 3.85697901,7.74454568 3.8784259,7.74454568 C4.00404339,7.74454568 4.12659704,7.69449596 4.21749099,7.60461073 L6.81154322,5.01121768 C6.91775638,4.90498968 6.96779912,4.75586192 6.94737351,4.60775558 C6.9269479,4.45964925 6.83911779,4.3289071 6.70941518,4.25536464 L0.711435372,0.851983133 C0.524541058,0.745755138 0.288625285,0.777419252 0.136454505,0.929611282 C-0.0157162748,1.08180331 -0.0473759673,1.31775203 0.0588371946,1.50467244 L3.4617435,7.50246843 Z M5.68813477,4.77833323 L3.98463906,6.48206683 L1.74905626,2.54243823 L5.68813477,4.77833323 Z" id="形状"></path>
                </g>
                <g id="84-虚线" transform="translate(6.000000, 10.157159) rotate(-45.000000) translate(-6.000000, -10.157159) translate(-1.000000, 9.157159)">
                    <path d="M3.66666667,0.666666672 L1.26666667,0.666666672 C1.04575277,0.666666672 0.866666672,0.890524297 0.866666672,1.16666667 C0.866666672,1.44280905 1.04575277,1.66666667 1.26666667,1.66666667 L3.66666667,1.66666667 C3.88758057,1.66666667 4.06666667,1.44280905 4.06666667,1.16666667 C4.06666667,0.890524297 3.88758057,0.666666672 3.66666667,0.666666672 L3.66666667,0.666666672 Z M8.81421356,0.666666672 L6.41421356,0.666666672 C6.19329966,0.666666672 6.01421356,0.890524297 6.01421356,1.16666667 C6.01421356,1.44280905 6.19329966,1.66666667 6.41421356,1.66666667 L8.81421356,1.66666667 C9.03512746,1.66666667 9.21421356,1.44280905 9.21421356,1.16666667 C9.21421356,0.890524297 9.03512746,0.666666672 8.81421356,0.666666672 L8.81421356,0.666666672 Z M13.195712,0.651329856 L11.0623786,0.651329856 C10.8414647,0.651329856 10.6623786,0.875187481 10.6623786,1.15132986 C10.6623786,1.42747223 10.8414647,1.65132986 11.0623786,1.65132986 L13.195712,1.65132986 C13.4166259,1.65132986 13.595712,1.42747223 13.595712,1.15132986 C13.595712,0.875187481 13.4166259,0.651329856 13.195712,0.651329856 L13.195712,0.651329856 Z" id="形状"></path>
                </g>
            </g>
        </g>
    </g>
</svg>