<?xml version="1.0" encoding="UTF-8"?>
<svg width="16px" height="16px" viewBox="0 0 16 16" version="1.1" xmlns="http://www.w3.org/2000/svg" xmlns:xlink="http://www.w3.org/1999/xlink">
    <title>ReferenceProperty</title>
    <defs>
        <linearGradient x1="100%" y1="51.0324362%" x2="8.33129883%" y2="50.1008822%" id="linearGradient-1">
            <stop stop-color="#FEF9DB" offset="0%"></stop>
            <stop stop-color="#FEF4BD" offset="44.2039696%"></stop>
            <stop stop-color="#FEEF9E" offset="60.7131546%"></stop>
            <stop stop-color="#FCF0AC" offset="100%"></stop>
        </linearGradient>
    </defs>
    <g id="九大图" stroke="none" stroke-width="1" fill="none" fill-rule="evenodd">
        <g transform="translate(-87.000000, -964.000000)" id="ReferenceProperty">
            <g transform="translate(87.000000, 964.000000)">
                <rect id="矩形" fill="#000000" fill-rule="nonzero" opacity="0" x="0" y="0" width="16" height="16"></rect>
                <rect id="矩形" stroke="#97958C" fill="#97958C" x="0.5" y="1.5" width="14" height="12" rx="1"></rect>
                <rect id="矩形" fill="url(#linearGradient-1)" x="1" y="2" width="13" height="11" rx="1"></rect>
                <path d="M7.56005859,11 L7.56005859,8.13916016 L8.54882812,8.13916016 C8.76855469,8.13916016 8.92675781,8.14941406 9.0234375,8.16992188 C9.15527344,8.20214844 9.28491211,8.25927734 9.41235352,8.34130859 C9.53979492,8.42333984 9.68408203,8.56689453 9.84521484,8.77197266 C10.0063477,8.97705078 10.2114258,9.27294922 10.4604492,9.65966797 L10.4604492,9.65966797 L11.3129883,11 L12.3852539,11 L11.2646484,9.24658203 C11.0419922,8.90380859 10.8061523,8.61816406 10.5571289,8.38964844 C10.4399414,8.28417969 10.2685547,8.17724609 10.0429688,8.06884766 C10.6611328,7.98388672 11.1181641,7.78466797 11.4140625,7.47119141 C11.7099609,7.15771484 11.8579102,6.77246094 11.8579102,6.31542969 C11.8579102,5.9609375 11.7685547,5.63720703 11.5898438,5.34423828 C11.4111328,5.05126953 11.1723633,4.84692383 10.8735352,4.73120117 C10.574707,4.61547852 10.1381836,4.55761719 9.56396484,4.55761719 L9.56396484,4.55761719 L6.70751953,4.55761719 L6.70751953,11 L7.56005859,11 Z M9.39257812,7.40087891 L7.56005859,7.40087891 L7.56005859,5.26953125 L9.59912109,5.26953125 C10.0766602,5.26953125 10.4260254,5.36767578 10.6472168,5.56396484 C10.8684082,5.76025391 10.9790039,6.01074219 10.9790039,6.31542969 C10.9790039,6.5234375 10.921875,6.71606445 10.8076172,6.89331055 C10.6933594,7.07055664 10.5263672,7.19946289 10.3066406,7.2800293 C10.0869141,7.3605957 9.78222656,7.40087891 9.39257812,7.40087891 L9.39257812,7.40087891 Z" id="R" fill="#000000" fill-rule="nonzero"></path>
            </g>
        </g>
    </g>
</svg>