<?xml version="1.0" encoding="UTF-8"?>
<svg width="16px" height="16px" viewBox="0 0 16 16" version="1.1" xmlns="http://www.w3.org/2000/svg" xmlns:xlink="http://www.w3.org/1999/xlink">
    <title>Refine</title>
    <defs>
        <filter id="filter-1">
            <feColorMatrix in="SourceGraphic" type="matrix" values="0 0 0 0 0.007843 0 0 0 0 0.513725 0 0 0 0 0.886275 0 0 0 1.000000 0"></feColorMatrix>
        </filter>
    </defs>
    <g id="九大图" stroke="none" stroke-width="1" fill="none" fill-rule="evenodd">
        <g transform="translate(-1215.000000, -1086.000000)">
            <g id="编组-7" transform="translate(1224.000000, 1095.000000)">
                <g filter="url(#filter-1)" id="编组-46">
                    <g transform="translate(-0.000000, 0.085083)"></g>
                </g>
            </g>
            <g id="Allocate" transform="translate(1214.000000, 1086.000000)">
                <g id="编组-26" transform="translate(0.146447, 0.000000)">
                    <g id="Allocate">
                        <rect id="矩形" fill="#000000" fill-rule="nonzero" opacity="0" x="0" y="0" width="16" height="16"></rect>
                        <g id="jx" transform="translate(1.000000, 1.000000)"></g>
                        <polygon id="路径" fill="#0283E2" points="9.85355339 1 14.8535534 1 14.8535534 2 9.85355339 2"></polygon>
                        <polygon id="路径" fill="#0283E2" points="13.8535534 1 14.8535534 1 14.8535534 6 13.8535534 6"></polygon>
                        <path d="M11.250823,15 L11.250823,12.609375 L11.485198,12.609375 C11.750823,12.609375 11.9448334,12.6308594 12.0672292,12.6738281 C12.1896251,12.7167969 12.3055105,12.796224 12.4148855,12.9121094 C12.5242605,13.0279948 12.7273855,13.3085938 13.0242605,13.7539062 L13.0242605,13.7539062 L13.860198,15 L15.2430105,15 L14.5437917,13.8828125 C14.2677501,13.4375 14.048349,13.1276042 13.8855886,12.953125 C13.7228282,12.7786458 13.516448,12.6184896 13.266448,12.4726562 C13.7690522,12.3997396 14.1466563,12.2233073 14.3992605,11.9433594 C14.6518647,11.6634115 14.7781667,11.3085938 14.7781667,10.8789062 C14.7781667,10.5403646 14.6948334,10.2395833 14.5281667,9.9765625 C14.3615001,9.71354167 14.1394949,9.53059896 13.8621511,9.42773438 C13.5848074,9.32486979 13.1401459,9.2734375 12.5281667,9.2734375 L12.5281667,9.2734375 L10.094573,9.2734375 L10.094573,15 L11.250823,15 Z M12.1062917,11.6953125 L11.250823,11.6953125 L11.250823,10.2421875 L12.3201589,10.2424927 C12.6892996,10.2439168 12.9148855,10.2503255 12.9969167,10.2617188 C13.1844167,10.2929688 13.329599,10.3678385 13.4324636,10.4863281 C13.5353282,10.6048177 13.5867605,10.7604167 13.5867605,10.953125 C13.5867605,11.125 13.547698,11.2682292 13.469573,11.3828125 C13.391448,11.4973958 13.2833751,11.578125 13.1453542,11.625 C13.0073334,11.671875 12.6609792,11.6953125 12.1062917,11.6953125 L12.1062917,11.6953125 Z" id="R" fill="#0283E2" fill-rule="nonzero"></path>
                    </g>
                </g>
                <g id="84-虚线" transform="translate(7.646447, 7.585786) rotate(-45.000000) translate(-7.646447, -7.585786) translate(-1.853553, 6.585786)" fill="#0283E2" fill-rule="nonzero" stroke="#0283E2" stroke-width="0.2">
                    <path d="M3.37377345,0.959559891 L0.973773453,0.959559891 C0.752859553,0.959559891 0.573773453,1.18341752 0.573773453,1.45955989 C0.573773453,1.73570227 0.752859553,1.95955989 0.973773453,1.95955989 L3.37377345,1.95955989 C3.59468735,1.95955989 3.77377345,1.73570227 3.77377345,1.45955989 C3.77377345,1.18341752 3.59468735,0.959559891 3.37377345,0.959559891 L3.37377345,0.959559891 Z M8.52132034,0.959559891 L6.12132034,0.959559891 C5.90040644,0.959559891 5.72132034,1.18341752 5.72132034,1.45955989 C5.72132034,1.73570227 5.90040644,1.95955989 6.12132034,1.95955989 L8.52132034,1.95955989 C8.74223424,1.95955989 8.92132034,1.73570227 8.92132034,1.45955989 C8.92132034,1.18341752 8.74223424,0.959559891 8.52132034,0.959559891 L8.52132034,0.959559891 Z M18.5497475,0.959559891 L16.4164141,0.959559891 C16.1955002,0.959559891 16.0164141,1.18341752 16.0164141,1.45955989 C16.0164141,1.73570227 16.1955002,1.95955989 16.4164141,1.95955989 L18.5497475,1.95955989 C18.7706614,1.95955989 18.9497475,1.73570227 18.9497475,1.45955989 C18.9497475,1.18341752 18.7706614,0.959559891 18.5497475,0.959559891 L18.5497475,0.959559891 Z M11.2688672,0.959559891 C11.0479533,0.959559891 10.8688672,1.18341752 10.8688672,1.45955989 C10.8688672,1.73570227 11.0479533,1.95955989 11.2688672,1.95955989 L13.6688672,1.95955989 C13.8897811,1.95955989 14.0688672,1.73570227 14.0688672,1.45955989 C14.0688672,1.18341752 13.8897811,0.959559891 13.6688672,0.959559891 L11.2688672,0.959559891 Z" id="形状"></path>
                </g>
            </g>
        </g>
    </g>
</svg>