<?xml version="1.0" encoding="UTF-8"?>
<svg width="16px" height="16px" viewBox="0 0 16 16" version="1.1" xmlns="http://www.w3.org/2000/svg" xmlns:xlink="http://www.w3.org/1999/xlink">
    <title>Relation</title>
    <g id="九大图" stroke="none" stroke-width="1" fill="none" fill-rule="evenodd">
        <g id="编组-38" transform="translate(-1.000000, -1.000000)">
            <g id="Usage" fill="#000000" fill-rule="nonzero" opacity="0">
                <g id="jx">
                    <rect id="矩形" x="0" y="0" width="16" height="16"></rect>
                </g>
            </g>
            <g id="Satisfy">
                <rect id="矩形" fill="#000000" fill-rule="nonzero" opacity="0" x="0" y="0" width="16" height="16"></rect>
                <g id="jx"></g>
                <g id="编组-51">
                    <g id="编组-26" transform="translate(1.146447, 1.000000)">
                        <g id="Allocate">
                            <rect id="矩形" fill="#000000" fill-rule="nonzero" opacity="0" x="0" y="0" width="16" height="16"></rect>
                            <g id="jx"></g>
                            <polygon id="路径" fill="#0283E2" points="9.85355339 0 13.8535534 0 13.8535534 1 9.85355339 1"></polygon>
                            <polygon id="路径" fill="#0283E2" points="12.8535534 0 13.8535534 0 13.8535534 4 12.8535534 4"></polygon>
                        </g>
                    </g>
                    <g id="84-虚线" transform="translate(8.000000, 7.939340) rotate(-45.000000) translate(-8.000000, -7.939340) translate(-1.500000, 6.439340)" fill="#0283E2" fill-rule="nonzero" stroke="#0283E2" stroke-width="0.2">
                        <path d="M3.37377345,0.959559891 L0.973773453,0.959559891 C0.752859553,0.959559891 0.573773453,1.22818904 0.573773453,1.55955989 C0.573773453,1.89093074 0.752859553,2.15955989 0.973773453,2.15955989 L3.37377345,2.15955989 C3.59468735,2.15955989 3.77377345,1.89093074 3.77377345,1.55955989 C3.77377345,1.22818904 3.59468735,0.959559891 3.37377345,0.959559891 L3.37377345,0.959559891 Z M8.52132034,0.959559891 C8.74223424,0.959559891 8.92132034,1.22818904 8.92132034,1.55955989 C8.92132034,1.89093074 8.74223424,2.15955989 8.52132034,2.15955989 L8.52132034,2.15955989 L6.12132034,2.15955989 C5.90040644,2.15955989 5.72132034,1.89093074 5.72132034,1.55955989 C5.72132034,1.22818904 5.90040644,0.959559891 6.12132034,0.959559891 L6.12132034,0.959559891 Z M11.2688672,2.15955989 C11.0479533,2.15955989 10.8688672,1.89093074 10.8688672,1.55955989 C10.8688672,1.22818904 11.0479533,0.959559891 11.2688672,0.959559891 L11.2688672,0.959559891 L18.5497475,0.959559891 C18.7706614,0.959559891 18.7706614,2.15955989 18.5497475,2.15955989 L18.5497475,2.15955989 L16.4164141,2.15955989 C16.4140277,2.15955989 16.4116462,2.15952854 16.4092697,2.15946611 Z" id="形状"></path>
                    </g>
                </g>
                <line x1="5" y1="16" x2="16" y2="5" id="直线-8" stroke="#0283E2" stroke-width="1.2" stroke-linecap="square"></line>
            </g>
        </g>
    </g>
</svg>