<?xml version="1.0" encoding="UTF-8"?>
<svg width="16px" height="16px" viewBox="0 0 16 16" version="1.1" xmlns="http://www.w3.org/2000/svg" xmlns:xlink="http://www.w3.org/1999/xlink">
    <title>ReplyMessage</title>
    <g id="九大图" stroke="none" stroke-width="1" fill="none" fill-rule="evenodd">
        <g transform="translate(-1608.000000, -393.000000)" id="编组-41">
            <g transform="translate(1607.000000, 393.000000)">
                <g id="ReplyMessage" transform="translate(0.000000, 1.000000)">
                    <rect id="矩形" fill="#000000" fill-rule="nonzero" opacity="0" x="2" y="1" width="16" height="16"></rect>
                    <g id="Block" transform="translate(2.000000, 1.000000)"></g>
                    <g id="编组-7" transform="translate(8.843146, 8.792893) rotate(-45.000000) translate(-8.843146, -8.792893) translate(2.843146, 2.792893)" fill="#0283E2" fill-rule="nonzero">
                        <path d="M10.0999877,6.18632063 C11.0529821,7.13931505 11.5294793,7.61581226 11.5294793,7.61581226 C11.5294793,7.61581226 10.9465823,8.44764674 10.9465823,8.44764674 C10.9465823,8.44764674 11.6208888,9.12195315 11.6208888,9.12195315 C11.6208888,9.12195315 10.9072219,9.83562001 10.9072219,9.83562001 C10.9072219,9.83562001 11.5964611,10.5248592 11.5964611,10.5248592 C11.5964611,10.5248592 11.3681685,10.7531518 10.9115833,11.2097371 C10.9114332,11.2119458 10.2071867,11.9161924 10.2061573,11.915163 C10.2061573,11.915163 9.51691808,11.2259238 9.51691808,11.2259238 C9.51691808,11.2259238 8.7139134,11.8039871 8.7139134,11.8039871 C8.7139134,11.8039871 8.14997747,11.2400512 8.1520777,11.2421514 C8.15208802,11.2421617 7.46491009,11.929319 7.46491009,11.929319 C7.46491009,11.929319 6.94692329,11.4113322 5.91094971,10.3753586 C5.91296338,10.3457129 8.48566264,10.9014537 9.54803763,9.84619145 C10.578679,8.82245038 10.0999877,6.18632063 10.0999877,6.18632063 Z" id="路径"></path>
                        <path d="M8.1099593,6.96886247 C8.1099593,6.96886247 8.91687045,7.77577362 10.5306927,9.38959591 C10.5847512,9.46201072 9.14568081,10.9001896 9.0920034,10.8282852 C7.47818111,9.21446295 6.67126997,8.40755181 6.67126997,8.40755181 C6.67126997,8.37183745 7.15083308,7.89227434 8.1099593,6.96886247 Z" id="路径"></path>
                        <path d="M5.25628533,4.1151885 C5.25628533,4.1151885 5.96704618,4.82594936 7.3885679,6.24747107 C7.44262637,6.31988588 6.00355597,7.75806477 5.94987856,7.68616041 C4.52835685,6.26463869 3.81759599,5.55387784 3.81759599,5.55387784 C3.81759599,5.51816347 4.29715911,5.03860036 5.25628533,4.1151885 Z" id="路径"></path>
                        <path d="M1.6790123,0.643318169 C1.6790123,0.643318169 2.61408797,1.57839384 4.48423931,3.44854518 C4.53829778,3.52095999 3.17402582,4.88434044 3.12034841,4.81243608 C1.25019707,2.94228474 0.315121401,2.00720907 0.315121401,2.00720907 C0.315121401,1.97149471 0.769751701,1.51686441 1.6790123,0.643318169 Z" id="路径"></path>
                    </g>
                </g>
            </g>
        </g>
    </g>
</svg>