<?xml version="1.0" encoding="UTF-8"?>
<svg width="16px" height="16px" viewBox="0 0 16 16" version="1.1" xmlns="http://www.w3.org/2000/svg" xmlns:xlink="http://www.w3.org/1999/xlink">
    <title>Requirement</title>
    <defs>
        <linearGradient x1="8.33129883%" y1="32.5463867%" x2="93.0472238%" y2="32.5463867%" id="linearGradient-1">
            <stop stop-color="#FCD4D9" offset="0%"></stop>
            <stop stop-color="#FDEBEE" offset="100%"></stop>
        </linearGradient>
    </defs>
    <g id="九大图" stroke="none" stroke-width="1" fill="none" fill-rule="evenodd">
        <g transform="translate(-1215.000000, -917.000000)" id="Requirement">
            <g transform="translate(1215.000000, 917.000000)">
                <rect id="矩形" fill="#000000" fill-rule="nonzero" opacity="0" x="0" y="0" width="16" height="16"></rect>
                <rect id="矩形" stroke="#97958C" fill="#97958C" x="0.5" y="1.5" width="14" height="12" rx="1"></rect>
                <path d="M2,2 L13,2 C13.5522847,2 14,2.44771525 14,3 L14,12 C14,12.5522847 13.5522847,13 13,13 L2,13 C1.44771525,13 1,12.5522847 1,12 L1,3 C1,2.44771525 1.44771525,2 2,2 Z" id="矩形" fill="url(#linearGradient-1)"></path>
                <path d="M7.38671875,10 L7.38671875,7.45703125 L8.265625,7.45703125 C8.4609375,7.45703125 8.6015625,7.46614583 8.6875,7.484375 C8.8046875,7.51302083 8.91992188,7.56380208 9.03320312,7.63671875 C9.14648438,7.70963542 9.27473958,7.83723958 9.41796875,8.01953125 C9.56119792,8.20182292 9.74348958,8.46484375 9.96484375,8.80859375 L9.96484375,8.80859375 L10.7226562,10 L11.6757812,10 L10.6796875,8.44140625 C10.4817708,8.13671875 10.2721354,7.8828125 10.0507812,7.6796875 C9.94661458,7.5859375 9.79427083,7.49088542 9.59375,7.39453125 C10.1432292,7.31901042 10.5494792,7.14192708 10.8125,6.86328125 C11.0755208,6.58463542 11.2070312,6.2421875 11.2070312,5.8359375 C11.2070312,5.52083333 11.1276042,5.23307292 10.96875,4.97265625 C10.8098958,4.71223958 10.5976562,4.53059896 10.3320312,4.42773438 C10.0664062,4.32486979 9.67838542,4.2734375 9.16796875,4.2734375 L9.16796875,4.2734375 L6.62890625,4.2734375 L6.62890625,10 L7.38671875,10 Z M9.015625,6.80078125 L7.38671875,6.80078125 L7.38671875,4.90625 L9.19921875,4.90625 C9.62369792,4.90625 9.93424479,4.99348958 10.1308594,5.16796875 C10.327474,5.34244792 10.4257812,5.56510417 10.4257812,5.8359375 C10.4257812,6.02083333 10.375,6.19205729 10.2734375,6.34960938 C10.171875,6.50716146 10.0234375,6.62174479 9.828125,6.69335938 C9.6328125,6.76497396 9.36197917,6.80078125 9.015625,6.80078125 L9.015625,6.80078125 Z" id="R" fill="#000000" fill-rule="nonzero"></path>
            </g>
        </g>
    </g>
</svg>