<?xml version="1.0" encoding="UTF-8"?>
<svg width="16px" height="16px" viewBox="0 0 16 16" version="1.1" xmlns="http://www.w3.org/2000/svg" xmlns:xlink="http://www.w3.org/1999/xlink">
    <title>RequirementTable</title>
    <g id="九大图" stroke="none" stroke-width="1" fill="none" fill-rule="evenodd">
        <g id="用例图图元SVG" transform="translate(-130.000000, -820.000000)">
            <g id="RequirementTable" transform="translate(130.000000, 820.000000)">
                <g id="blank-空白文档">
                    <polygon id="矩形" fill="#000000" fill-rule="nonzero" opacity="0" points="3.42226247e-14 0 16 0 16 16 -5.04870979e-29 16"></polygon>
                    <polygon id="形状" fill="#97958C" fill-rule="nonzero" points="11.9863063 0 -5.04870979e-29 0 -5.04870979e-29 16 16 16 16 4.24264751"></polygon>
                    <polygon id="路径" fill="#FFFFFF" points="15 15 0.916137695 15 0.916137695 1 11.9949341 1 12.0430979 4.22354597 15 4.25749199"></polygon>
                </g>
                <g id="表-表格_jurassic" fill-rule="nonzero">
                    <path d="M0,0 L0,16 L16,16 L16,4 L12,0 L0,0 Z M5,15 L1,15 L1,13 L4,13 L4,12 L1,12 L1,9 L4,9 L4,8 L1,8 L1,5 L5,5 L5,6 L6,6 L6,5 L10,5 L10,6 L11,6 L11,5 L15,5 L15,8 L12,8 L12,9 L15,9 L15,12 L12,12 L12,13 L15,13 L15,15 L11,15 L11,13 L10,13 L10,15 L6,15 L6,13 L5,13 L5,15 Z" id="形状" fill="#97958C"></path>
                    <polygon id="路径" fill="#FFFFFF" points="11 1 14 4 11 4"></polygon>
                    <path d="M6.66166439,12 L6.66166439,9.77967258 L7.42905866,9.77967258 C7.59959072,9.77967258 7.72237381,9.78763074 7.79740791,9.80354707 C7.89972715,9.82855844 8.00034106,9.87289677 8.09924966,9.93656207 C8.19815825,10.0002274 8.31014097,10.1116417 8.43519782,10.2708049 C8.56025466,10.4299682 8.71941792,10.659618 8.91268759,10.9597544 L8.91268759,10.9597544 L9.57435198,12 L10.4065484,12 L9.53683492,10.6391542 C9.3640291,10.3731241 9.18099136,10.1514325 8.98772169,9.97407913 C8.89677126,9.89222374 8.76375625,9.80923147 8.58867667,9.72510232 C9.0684402,9.65916326 9.42314688,9.50454752 9.65279673,9.26125512 C9.88244657,9.01796271 9.99727149,8.71896317 9.99727149,8.36425648 C9.99727149,8.08913142 9.92792178,7.83788085 9.78922237,7.61050477 C9.65052296,7.38312869 9.46521146,7.22453388 9.23328786,7.13472033 C9.00136426,7.04490678 8.6625739,7 8.21691678,7 L8.21691678,7 L6,7 L6,12 L6.66166439,12 Z M8.08390177,9.20668486 L6.66166439,9.20668486 L6.66166439,7.55252387 L8.24420191,7.55252387 C8.61482492,7.55252387 8.8859709,7.62869486 9.05763984,7.78103683 C9.22930878,7.93337881 9.31514325,8.12778536 9.31514325,8.36425648 C9.31514325,8.5256935 9.27080491,8.67519327 9.18212824,8.8127558 C9.09345157,8.95031833 8.9638472,9.0503638 8.79331514,9.11289222 C8.62278308,9.17542065 8.38631196,9.20668486 8.08390177,9.20668486 L8.08390177,9.20668486 Z" id="R" fill="#000000"></path>
                    <polygon id="路径" fill="#EAEDC5" points="10 4 6 4 6 1 10 1"></polygon>
                    <polygon id="路径" fill="#EAEDC5" points="1 1 5 1 5 4 1 4"></polygon>
                </g>
            </g>
        </g>
    </g>
</svg>