<?xml version="1.0" encoding="UTF-8"?>
<svg width="16px" height="16px" viewBox="0 0 16 16" version="1.1" xmlns="http://www.w3.org/2000/svg" xmlns:xlink="http://www.w3.org/1999/xlink">
    <title>Satisfy</title>
    <g id="九大图" stroke="none" stroke-width="1" fill="none" fill-rule="evenodd">
        <g transform="translate(-1215.000000, -963.000000)" id="Allocate">
            <g transform="translate(1214.000000, 963.000000)">
                <g id="编组-26" transform="translate(0.146447, 0.000000)">
                    <g id="Allocate">
                        <rect id="矩形" fill="#000000" fill-rule="nonzero" opacity="0" x="0" y="0" width="16" height="16"></rect>
                        <g id="jx" transform="translate(1.000000, 1.000000)"></g>
                        <polygon id="路径" fill="#0283E2" points="9.85355339 1 14.8535534 1 14.8535534 2 9.85355339 2"></polygon>
                        <polygon id="路径" fill="#0283E2" points="13.8535534 1 14.8535534 1 14.8535534 6 13.8535534 6"></polygon>
                        <path d="M12.0509413,15.1015625 C12.5483372,15.1015625 12.9637017,15.031901 13.2970351,14.8925781 C13.6303684,14.7532552 13.8881809,14.5403646 14.0704726,14.2539062 C14.2527642,13.9674479 14.3439101,13.6601562 14.3439101,13.3320312 C14.3439101,12.9700521 14.2677382,12.6660156 14.1153945,12.4199219 C13.9630507,12.1738281 13.7521132,11.9798177 13.482582,11.8378906 C13.2130507,11.6959635 12.7970351,11.5585938 12.2345351,11.4257812 C11.6720351,11.2929688 11.3178684,11.1653646 11.1720351,11.0429688 C11.0574517,10.9466146 11.0001601,10.8307292 11.0001601,10.6953125 C11.0001601,10.546875 11.061358,10.4283854 11.1837538,10.3398438 C11.373858,10.2018229 11.6368788,10.1328125 11.9728163,10.1328125 C12.2983372,10.1328125 12.5424778,10.1972656 12.7052382,10.3261719 C12.8679986,10.4550781 12.9741184,10.6666667 13.0235976,10.9609375 L13.0235976,10.9609375 L14.1798476,10.9101562 C14.1616184,10.3841146 13.9708632,9.96354167 13.607582,9.6484375 C13.2443007,9.33333333 12.7032851,9.17578125 11.9845351,9.17578125 C11.5444309,9.17578125 11.1687799,9.2421875 10.857582,9.375 C10.546384,9.5078125 10.3081028,9.70117188 10.1427382,9.95507812 C9.97737362,10.2089844 9.89469133,10.4817708 9.89469133,10.7734375 C9.89469133,11.2265625 10.0704726,11.6106771 10.4220351,11.9257812 C10.6720351,12.1497396 11.1069309,12.3385417 11.7267226,12.4921875 C12.2084934,12.6119792 12.5170872,12.6953125 12.6525038,12.7421875 C12.8504205,12.8125 12.9890924,12.8951823 13.0685195,12.9902344 C13.1479465,13.0852865 13.1876601,13.2005208 13.1876601,13.3359375 C13.1876601,13.546875 13.093259,13.7311198 12.904457,13.8886719 C12.7156549,14.046224 12.4350559,14.125 12.0626601,14.125 C11.7110976,14.125 11.4318007,14.0364583 11.2247695,13.859375 C11.0177382,13.6822917 10.8803684,13.4049479 10.8126601,13.0273438 L10.8126601,13.0273438 L9.68766008,13.1367188 C9.76318091,13.7773438 9.99495175,14.264974 10.3829726,14.5996094 C10.7709934,14.9342448 11.326983,15.1015625 12.0509413,15.1015625 Z" id="S" fill="#0283E2" fill-rule="nonzero"></path>
                    </g>
                </g>
                <g id="84-虚线" transform="translate(7.646447, 7.585786) rotate(-45.000000) translate(-7.646447, -7.585786) translate(-1.853553, 6.585786)" fill="#0283E2" fill-rule="nonzero" stroke="#0283E2" stroke-width="0.2">
                    <path d="M3.37377345,0.959559891 L0.973773453,0.959559891 C0.752859553,0.959559891 0.573773453,1.18341752 0.573773453,1.45955989 C0.573773453,1.73570227 0.752859553,1.95955989 0.973773453,1.95955989 L3.37377345,1.95955989 C3.59468735,1.95955989 3.77377345,1.73570227 3.77377345,1.45955989 C3.77377345,1.18341752 3.59468735,0.959559891 3.37377345,0.959559891 L3.37377345,0.959559891 Z M8.52132034,0.959559891 L6.12132034,0.959559891 C5.90040644,0.959559891 5.72132034,1.18341752 5.72132034,1.45955989 C5.72132034,1.73570227 5.90040644,1.95955989 6.12132034,1.95955989 L8.52132034,1.95955989 C8.74223424,1.95955989 8.92132034,1.73570227 8.92132034,1.45955989 C8.92132034,1.18341752 8.74223424,0.959559891 8.52132034,0.959559891 L8.52132034,0.959559891 Z M18.5497475,0.959559891 L16.4164141,0.959559891 C16.1955002,0.959559891 16.0164141,1.18341752 16.0164141,1.45955989 C16.0164141,1.73570227 16.1955002,1.95955989 16.4164141,1.95955989 L18.5497475,1.95955989 C18.7706614,1.95955989 18.9497475,1.73570227 18.9497475,1.45955989 C18.9497475,1.18341752 18.7706614,0.959559891 18.5497475,0.959559891 L18.5497475,0.959559891 Z M11.2688672,0.959559891 C11.0479533,0.959559891 10.8688672,1.18341752 10.8688672,1.45955989 C10.8688672,1.73570227 11.0479533,1.95955989 11.2688672,1.95955989 L13.6688672,1.95955989 C13.8897811,1.95955989 14.0688672,1.73570227 14.0688672,1.45955989 C14.0688672,1.18341752 13.8897811,0.959559891 13.6688672,0.959559891 L11.2688672,0.959559891 Z" id="形状"></path>
                </g>
            </g>
        </g>
    </g>
</svg>