<?xml version="1.0" encoding="UTF-8"?>
<svg width="16px" height="16px" viewBox="0 0 16 16" version="1.1" xmlns="http://www.w3.org/2000/svg" xmlns:xlink="http://www.w3.org/1999/xlink">
    <title>Sensor</title>
    <defs>
        <linearGradient x1="25.8319214%" y1="0%" x2="50%" y2="100%" id="linearGradient-1">
            <stop stop-color="#E3E6B7" offset="0%"></stop>
            <stop stop-color="#EEF0CC" offset="100%"></stop>
        </linearGradient>
        <linearGradient x1="50%" y1="0%" x2="50%" y2="100%" id="linearGradient-2">
            <stop stop-color="#E7E9BD" offset="0%"></stop>
            <stop stop-color="#EBEEC6" offset="100%"></stop>
        </linearGradient>
    </defs>
    <g id="九大图" stroke="none" stroke-width="1" fill="none" fill-rule="evenodd">
        <g transform="translate(-807.000000, -1110.000000)" id="Sensor">
            <g transform="translate(807.000000, 1110.000000)">
                <g id="立方体">
                    <path d="M3.4291351,0.00267411803 L-2.37027009e-14,3.1330901 L-2.37027009e-14,15.9928617 L12.6025884,15.9928617 L15.9481534,12.6104854 L15.9481534,0.00267411803 L3.4291351,0.00267411803 Z M11.8028994,15.1878173 L0.565656566,15.1878173 L0.565656566,3.57360406 L12.2020202,3.57360406 L12.2020202,15.1878173 L11.8028994,15.1878173 Z M1.0870423,3.00507614 L3.66145833,0.645383883 L14.9480745,0.645383883 L12.3742898,3.00507614 L1.0870423,3.00507614 Z M12.7940341,14.9762849 L12.7940341,3.40244289 L15.4564394,1.01197652 L15.4564394,12.3531885 L12.7940341,14.9762849 Z" id="形状" fill="#515151" fill-rule="nonzero"></path>
                    <polygon id="矩形" fill="url(#linearGradient-1)" points="0.565656566 3.57360406 12.2020202 3.57360406 12.2020202 15.2690355 0.565656566 15.2690355"></polygon>
                    <polygon id="路径" fill="#FFFBE4" points="1.0870423 3.00507614 3.66145833 0.645383883 14.9480745 0.645383883 12.3742898 3.00507614"></polygon>
                    <polygon id="路径" fill="#D8DE9E" points="12.7940341 14.9762849 12.7940341 3.40244289 15.4564394 1.01197652 15.4564394 12.3531885"></polygon>
                </g>
                <path d="M13.1649076,8.30951179 C12.8886794,7.65619848 12.4935012,7.07033249 11.9899463,6.5664613 C11.4863915,6.0625901 10.9008933,5.66716362 10.2479901,5.39076183 C9.57261868,5.10510257 8.85363222,4.95962795 8.11482077,4.95962795 C7.37600932,4.95962795 6.65702286,5.10510257 5.9816514,5.39076183 C5.32874825,5.66716362 4.74325009,6.0625901 4.23969524,6.5664613 C3.73614038,7.07033249 3.34096217,7.65619848 3.06473391,8.30951179 C2.77793233,8.98530755 2.63254904,9.70474569 2.63254904,10.4440213 C2.63254904,10.4742505 2.63254904,10.6048312 2.63254904,10.8357637 L4.31039361,10.8357637 L13.5944923,10.7798005 C13.5944923,10.5868941 13.5944923,10.4749677 13.5944923,10.4440213 C13.5957708,9.70474569 13.4503875,8.98530755 13.1649076,8.30951179 Z M4.26612856,10.8116753 C4.44191018,10.8116753 4.58332847,10.6701682 4.58332847,10.4942761 C4.58332847,10.3183841 4.44191018,10.176877 4.26612856,10.176877 L3.27620052,10.176877 C3.29734718,9.78012799 3.36739549,9.39660398 3.47973713,9.03027243 L4.05466196,9.21277696 C4.07448695,9.21938944 4.09431195,9.22203444 4.11413694,9.22203444 C4.19872358,9.22203444 4.27670189,9.16781208 4.30313522,9.08317229 C4.33617688,8.97869506 4.27802356,8.86760535 4.17361192,8.83454294 L3.61058209,8.6560059 C3.80751036,8.16271467 4.08241695,7.70777585 4.42076352,7.30970438 L4.88466838,7.69851837 C4.92167504,7.72893579 4.96661169,7.74480575 5.01154835,7.74480575 C5.06838,7.74480575 5.12388998,7.72100081 5.16353997,7.67339094 C5.23358828,7.58875116 5.22301495,7.46443648 5.13842831,7.39434416 L4.68906177,7.01743263 C5.06297373,6.64340953 5.4950424,6.33255342 5.96843473,6.09697501 L6.11646136,6.68416349 C6.13892968,6.77409326 6.21955133,6.83360561 6.30810297,6.83360561 C6.32396296,6.83360561 6.33982296,6.83228311 6.35700462,6.82699312 C6.46273792,6.80054319 6.52749957,6.69209847 6.50106624,6.58629875 L6.34907462,5.9832403 C6.34510962,5.96604785 6.33850129,5.95017789 6.32924963,5.93430793 C6.77597283,5.75709339 7.25441602,5.64335868 7.75532754,5.60632878 L7.75532754,6.68416349 C7.75532754,6.86005554 7.89674584,7.00156267 8.07252745,7.00156267 C8.24830907,7.00156267 8.38972736,6.86005554 8.38972736,6.68416349 L8.38972736,5.60236129 C8.94614886,5.63410121 9.47878037,5.75973838 9.97044023,5.96340285 L9.79730195,6.37602179 C9.75500863,6.47653153 9.80258861,6.59291123 9.90303525,6.63523112 C9.92814691,6.64581109 9.95458024,6.65110108 9.97969189,6.65110108 C10.0576702,6.65110108 10.1303619,6.6048137 10.1620818,6.52943139 L10.3299335,6.13003742 C10.7819433,6.36279682 11.1929815,6.66564854 11.5485098,7.02272262 L11.2286665,7.34144429 C11.1506882,7.4181491 11.1506882,7.54378627 11.2273449,7.62181357 C11.2656732,7.66016597 11.3172182,7.68000342 11.3674415,7.68000342 C11.4176648,7.68000342 11.4692098,7.66016597 11.5075381,7.62181357 L11.816808,7.31499436 C12.1366513,7.69322839 12.4009845,8.12171728 12.5939478,8.58723608 L12.1260779,8.65997339 C12.0177013,8.67716584 11.943688,8.77899808 11.9608696,8.8861203 C11.9767296,8.98398505 12.0599946,9.05407737 12.1564763,9.05407737 C12.1670496,9.05407737 12.1776229,9.05275487 12.1868746,9.05143238 L12.7340444,8.9654701 C12.8569594,9.34899411 12.933616,9.75500056 12.9560844,10.1729095 L11.880248,10.1729095 C11.7044664,10.1729095 11.5630481,10.3144166 11.5630481,10.4903087 C11.5630481,10.6662007 11.6849126,10.7798005 11.8606942,10.7798005 L4.26612856,10.8116753 Z" id="形状" fill="#4B4B4B" fill-rule="nonzero" transform="translate(8.113525, 7.897696) rotate(48.000000) translate(-8.113525, -7.897696) "></path>
                <polygon id="矩形" fill="url(#linearGradient-2)" transform="translate(6.101010, 10.020202) rotate(3.000000) translate(-6.101010, -10.020202) " points="3.15624361 7.09960955 5.40432416 9.09297472 9.04577659 12.9407945 5.32351608 10.7899444"></polygon>
                <polygon id="路径" fill="#4B4B4B" transform="translate(7.396367, 8.371083) rotate(45.000000) translate(-7.396367, -8.371083) " points="7.35258181 7.11855745 7.92161934 9.62360796 6.87111429 9.62347286"></polygon>
            </g>
        </g>
    </g>
</svg>