<?xml version="1.0" encoding="UTF-8"?>
<svg width="16px" height="16px" viewBox="0 0 16 16" version="1.1" xmlns="http://www.w3.org/2000/svg" xmlns:xlink="http://www.w3.org/1999/xlink">
    <title>Signal</title>
    <defs>
        <linearGradient x1="8.33129883%" y1="32.5463867%" x2="93.0472238%" y2="32.5463867%" id="linearGradient-1">
            <stop stop-color="#FCD4A2" offset="0%"></stop>
            <stop stop-color="#FDEBEE" offset="100%"></stop>
        </linearGradient>
    </defs>
    <g id="九大图" stroke="none" stroke-width="1" fill="none" fill-rule="evenodd">
        <g transform="translate(-86.000000, -278.000000)" id="Signal">
            <g transform="translate(86.000000, 278.000000)">
                <rect id="矩形" fill="#000000" fill-rule="nonzero" opacity="0" x="0" y="0" width="16" height="16"></rect>
                <rect id="矩形" stroke="#97958C" fill="#97958C" x="0.5" y="1.5" width="14" height="12" rx="1"></rect>
                <path d="M2,2 L13,2 C13.5522847,2 14,2.44771525 14,3 L14,12 C14,12.5522847 13.5522847,13 13,13 L2,13 C1.44771525,13 1,12.5522847 1,12 L1,3 C1,2.44771525 1.44771525,2 2,2 Z" id="矩形" fill="url(#linearGradient-1)"></path>
                <path d="M9.80078125,11.0976562 C10.2096354,11.0976562 10.577474,11.0227865 10.9042969,10.8730469 C11.2311198,10.7233073 11.4817708,10.5136719 11.65625,10.2441406 C11.8307292,9.97460938 11.9179688,9.6875 11.9179688,9.3828125 C11.9179688,9.07552083 11.8385417,8.80403646 11.6796875,8.56835938 C11.5208333,8.33268229 11.2747396,8.13802083 10.9414062,7.984375 C10.7122396,7.88020833 10.2897135,7.75846354 9.67382812,7.61914062 C9.05794271,7.47981771 8.67708333,7.34375 8.53125,7.2109375 C8.3828125,7.078125 8.30859375,6.90885417 8.30859375,6.703125 C8.30859375,6.46614583 8.41341146,6.26367188 8.62304688,6.09570312 C8.83268229,5.92773438 9.16666667,5.84375 9.625,5.84375 C10.0651042,5.84375 10.3977865,5.93619792 10.6230469,6.12109375 C10.8483073,6.30598958 10.9804688,6.57942708 11.0195312,6.94140625 L11.0195312,6.94140625 L11.7460938,6.88671875 C11.7330729,6.55078125 11.6393229,6.25 11.4648438,5.984375 C11.2903646,5.71875 11.0410156,5.51757812 10.7167969,5.38085938 C10.3925781,5.24414062 10.0182292,5.17578125 9.59375,5.17578125 C9.20833333,5.17578125 8.85807292,5.24088542 8.54296875,5.37109375 C8.22786458,5.50130208 7.98828125,5.69205729 7.82421875,5.94335938 C7.66015625,6.19466146 7.578125,6.46484375 7.578125,6.75390625 C7.578125,7.01692708 7.64518229,7.25455729 7.77929688,7.46679688 C7.91341146,7.67903646 8.1171875,7.85677083 8.390625,8 C8.6015625,8.11197917 8.97005208,8.23111979 9.49609375,8.35742188 C10.0221354,8.48372396 10.3619792,8.57682292 10.515625,8.63671875 C10.7552083,8.72786458 10.9270833,8.84049479 11.03125,8.97460938 C11.1354167,9.10872396 11.1875,9.265625 11.1875,9.4453125 C11.1875,9.62239583 11.1334635,9.78580729 11.0253906,9.93554688 C10.9173177,10.0852865 10.7526042,10.203125 10.53125,10.2890625 C10.3098958,10.375 10.0546875,10.4179688 9.765625,10.4179688 C9.44010417,10.4179688 9.14713542,10.3613281 8.88671875,10.2480469 C8.62630208,10.1347656 8.43424479,9.98632812 8.31054688,9.80273438 C8.18684896,9.61914062 8.10807292,9.38411458 8.07421875,9.09765625 L8.07421875,9.09765625 L7.359375,9.16015625 C7.36979167,9.54296875 7.47460938,9.88606771 7.67382812,10.1894531 C7.87304688,10.4928385 8.14778646,10.7200521 8.49804688,10.8710938 C8.84830729,11.0221354 9.28255208,11.0976562 9.80078125,11.0976562 Z" id="S" fill="#000000" fill-rule="nonzero"></path>
            </g>
        </g>
    </g>
</svg>