<?xml version="1.0" encoding="UTF-8"?>
<svg width="16px" height="16px" viewBox="0 0 16 16" version="1.1" xmlns="http://www.w3.org/2000/svg" xmlns:xlink="http://www.w3.org/1999/xlink">
    <title>SpecifyBehavior</title>
    <g id="九大图" stroke="none" stroke-width="1" fill="none" fill-rule="evenodd">
        <g transform="translate(-1610.000000, -899.000000)" fill-rule="nonzero" id="SpecifyBehavior">
            <g transform="translate(1610.000000, 899.000000)">
                <rect id="矩形" fill="#000000" opacity="0" x="0" y="0" width="16" height="16"></rect>
                <path d="M5.4,8.9 L3.4,8.9 L3.4,7.9 C3.4,7.52589928 3.4,7.19256594 3.4,6.9 L5.4,6.9 L5.4,7.9 L5.4,8.9 Z M5.4,11.9 L3.4,11.9 L3.4,10.9 C3.4,10.5258993 3.4,10.1925659 3.4,9.9 L5.4,9.9 L5.4,10.9 L5.4,11.9 Z" id="形状" fill="#000000"></path>
                <polygon id="路径" fill="#F44336" points="7.5 14 9.3 14 9.25 4.75 13.75 4.75 13.75 3 3 3 3 4.75 7.5 4.75"></polygon>
            </g>
        </g>
    </g>
</svg>