<?xml version="1.0" encoding="UTF-8"?>
<svg width="16px" height="16px" viewBox="0 0 16 16" version="1.1" xmlns="http://www.w3.org/2000/svg" xmlns:xlink="http://www.w3.org/1999/xlink">
    <title>StateMachine</title>
    <defs>
        <linearGradient x1="100%" y1="50.3263136%" x2="8.33129883%" y2="50.031885%" id="linearGradient-1">
            <stop stop-color="#FEF9DB" offset="0%"></stop>
            <stop stop-color="#FEF4BD" offset="44.2039696%"></stop>
            <stop stop-color="#FEEF9E" offset="60.7131546%"></stop>
            <stop stop-color="#FCF0AC" offset="100%"></stop>
        </linearGradient>
        <linearGradient x1="100%" y1="51.4419976%" x2="8.33129883%" y2="50.1409016%" id="linearGradient-2">
            <stop stop-color="#FEF9DB" offset="0%"></stop>
            <stop stop-color="#FEF4BD" offset="44.2039696%"></stop>
            <stop stop-color="#FEEF9E" offset="60.7131546%"></stop>
            <stop stop-color="#FCF0AC" offset="100%"></stop>
        </linearGradient>
    </defs>
    <g id="九大图" stroke="none" stroke-width="1" fill="none" fill-rule="evenodd">
        <g transform="translate(-1216.000000, -516.000000)" id="StateMachine">
            <g transform="translate(1216.000000, 516.000000)">
                <g id="编组-51">
                    <g id="blank-空白文档备份" fill="#000000" fill-rule="nonzero" opacity="0">
                        <polygon id="矩形" points="3.42226247e-14 0 16 0 16 16 -5.04870979e-29 16"></polygon>
                    </g>
                    <path d="M5.23076923,1.26923077 L10.9036134,1.26923077 C12.6137005,1.26923077 14,2.65553028 14,4.36561739 C14,6.0868065 12.6251473,7.49279672 10.9043897,7.5313367 L5.22995921,7.6584275 C3.48560787,7.69749592 2.0398605,6.31509097 2.00079208,4.57073962 C2.00026404,4.54716344 2,4.52358209 2,4.5 C2,2.71569542 3.44646465,1.26923077 5.23076923,1.26923077 Z" id="矩形" fill="#4B4B4B"></path>
                    <path d="M5.37851187,2.19230769 L10.7204214,2.19230769 C11.9793979,2.19230769 13,3.21290978 13,4.47188627 C13,5.73809237 11.9868258,6.77151218 10.7208675,6.79656126 L5.3780464,6.90227784 C4.09041755,6.92775571 3.02593422,5.90458018 3.00045635,4.61695133 C3.00015212,4.60157595 3,4.58619795 3,4.57081956 C3,3.25720373 4.06489604,2.19230769 5.37851187,2.19230769 Z" id="矩形" fill="url(#linearGradient-1)"></path>
                    <line x1="5.5" y1="3.5" x2="5.5" y2="5.5" id="直线-2" stroke-opacity="0.65" stroke="#000000" stroke-linecap="square"></line>
                    <line x1="6.5" y1="4.5" x2="7.5" y2="4.5" id="直线-3" stroke-opacity="0.65" stroke="#000000" stroke-linecap="square"></line>
                </g>
                <polygon id="矩形" fill="#4B4B4B" points="8 3 12 3 12 6 8 6"></polygon>
                <polygon id="矩形" fill="#FFFFFF" points="9 4 11 4 11 5 9 5"></polygon>
                <path d="M12.5,7.5 L12.5,11.5" id="直线" stroke-opacity="0.65" stroke="#000000" stroke-linecap="square"></path>
                <polygon id="矩形" fill="#4B4B4B" points="3 9 8 9 8 14 3 14"></polygon>
                <polygon id="矩形" fill="url(#linearGradient-2)" points="4 9.96472168 7 9.96472168 7 12.9647217 4 12.9647217"></polygon>
                <rect id="矩形" fill="#4B4B4B" transform="translate(5.500000, 11.500000) rotate(90.000000) translate(-5.500000, -11.500000) " x="5" y="11" width="1" height="1"></rect>
                <rect id="矩形" fill="#484848" x="10" y="11" width="2" height="1"></rect>
                <rect id="矩形" fill="#4B4B4B" x="8" y="11" width="1" height="1"></rect>
                <rect id="矩形" fill="#4B4B4B" transform="translate(9.500000, 11.500000) rotate(90.000000) translate(-9.500000, -11.500000) " x="8" y="11" width="3" height="1"></rect>
            </g>
        </g>
    </g>
</svg>