<?xml version="1.0" encoding="UTF-8"?>
<svg width="16px" height="16px" viewBox="0 0 16 16" version="1.1" xmlns="http://www.w3.org/2000/svg" xmlns:xlink="http://www.w3.org/1999/xlink">
    <title>SysMLParametricDiagram</title>
    <defs>
        <linearGradient x1="100%" y1="51.4419976%" x2="8.33129883%" y2="50.1409016%" id="linearGradient-1">
            <stop stop-color="#FEF9DB" offset="0%"></stop>
            <stop stop-color="#FEF4BD" offset="44.2039696%"></stop>
            <stop stop-color="#FEEF9E" offset="60.7131546%"></stop>
            <stop stop-color="#FCF0AC" offset="100%"></stop>
        </linearGradient>
    </defs>
    <g id="九大图" stroke="none" stroke-width="1" fill="none" fill-rule="evenodd">
        <g id="用例图图元SVG" transform="translate(-79.000000, -610.000000)">
            <g id="SysMLParametricDiagram" transform="translate(79.000000, 610.000000)">
                <g id="blank-空白文档">
                    <polygon id="矩形" fill="#000000" fill-rule="nonzero" opacity="0" points="3.42226247e-14 0 16 0 16 16 -5.04870979e-29 16"></polygon>
                    <polygon id="形状" fill="#97958C" fill-rule="nonzero" points="11.9863063 0 -5.04870979e-29 0 -5.04870979e-29 16 16 16 16 4.24264751"></polygon>
                    <polygon id="路径" fill="#EAEDC5" points="15 15 0.916137695 15 0.916137695 1 11.9949341 1 12.0430979 4.22354597 15 4.25749199"></polygon>
                </g>
                <g id="编组-6" transform="translate(2.000000, 2.000000)">
                    <rect id="矩形" fill="#4B4B4B" x="0" y="0" width="5" height="5"></rect>
                    <rect id="矩形" fill="url(#linearGradient-1)" x="1" y="1" width="3" height="3"></rect>
                    <rect id="矩形" fill="#4B4B4B" x="7" y="7" width="5" height="5"></rect>
                    <rect id="矩形" fill="url(#linearGradient-1)" x="8" y="8" width="3" height="3"></rect>
                    <rect id="矩形" fill="#4B4B4B" x="0" y="7" width="5" height="5"></rect>
                    <rect id="矩形" fill="url(#linearGradient-1)" x="1" y="8" width="3" height="3"></rect>
                    <polygon id="矩形" fill="#4B4B4B" points="7 0 11.5 0 12 1 12 5 7 5"></polygon>
                    <rect id="矩形" fill="url(#linearGradient-1)" x="8" y="1" width="3" height="3"></rect>
                    <line x1="5" y1="10" x2="7" y2="10" id="直线-4" stroke="#4B4B4B" stroke-linecap="square"></line>
                    <line x1="2.5" y1="7.5" x2="2.5" y2="9" id="直线-4" stroke="#4B4B4B" stroke-linecap="square"></line>
                    <line x1="2.5" y1="0.5" x2="2.5" y2="2" id="直线-4" stroke="#4B4B4B" stroke-linecap="square"></line>
                    <line x1="5" y1="3" x2="7" y2="3" id="直线-4" stroke="#4B4B4B" stroke-linecap="square"></line>
                    <line x1="10" y1="5" x2="10" y2="7" id="直线-4" stroke="#4B4B4B" stroke-linecap="square"></line>
                </g>
                <path d="M11,1 C11.5555556,1 11.8888889,1 12,1 C12.1111111,1 12.1388889,1 12.0833333,1 C14.0833333,3.22222222 15.0833333,4.33333333 15.0833333,4.33333333 C15.0833333,4.33333333 15.0555556,4.55555556 15,5 L11,5 L11,1 Z" id="路径" stroke="#97958C" fill="#FFFFFF" fill-rule="nonzero"></path>
            </g>
        </g>
    </g>
</svg>