<?xml version="1.0" encoding="UTF-8"?>
<svg width="16px" height="16px" viewBox="0 0 16 16" version="1.1" xmlns="http://www.w3.org/2000/svg" xmlns:xlink="http://www.w3.org/1999/xlink">
    <title>SysMLSequenceDiagram</title>
    <defs>
        <linearGradient x1="55.5555556%" y1="51.4419976%" x2="45.3701443%" y2="50.1409016%" id="linearGradient-1">
            <stop stop-color="#FEF9DB" offset="0%"></stop>
            <stop stop-color="#FEF4BD" offset="44.2039696%"></stop>
            <stop stop-color="#FEEF9E" offset="60.7131546%"></stop>
            <stop stop-color="#FCF0AC" offset="100%"></stop>
        </linearGradient>
        <linearGradient x1="51.0204082%" y1="51.4419976%" x2="49.1496183%" y2="50.1409016%" id="linearGradient-2">
            <stop stop-color="#FEF9DB" offset="0%"></stop>
            <stop stop-color="#FEF4BD" offset="44.2039696%"></stop>
            <stop stop-color="#FEEF9E" offset="60.7131546%"></stop>
            <stop stop-color="#FCF0AC" offset="100%"></stop>
        </linearGradient>
    </defs>
    <g id="九大图" stroke="none" stroke-width="1" fill="none" fill-rule="evenodd">
        <g id="用例图图元SVG" transform="translate(-79.000000, -513.000000)">
            <g id="SysMLSequenceDiagram" transform="translate(79.000000, 513.000000)">
                <g id="编组-52">
                    <g id="编组-51">
                        <g id="blank-空白文档备份">
                            <polygon id="矩形" fill="#000000" fill-rule="nonzero" opacity="0" points="3.42226247e-14 0 16 0 16 16 0 16"></polygon>
                            <polygon id="形状" fill="#97958C" fill-rule="nonzero" points="11.9863063 0 0 0 0 16 16 16 16 4.24264751"></polygon>
                            <polygon id="路径" fill="#EAEDC5" points="15 15 0.916137695 15 0.916137695 1 11.9949341 1 12.0430979 4.22354597 15 4.25749199"></polygon>
                        </g>
                        <rect id="矩形" stroke-opacity="0.65" stroke="#000000" fill="#D8D8D8" transform="translate(12.500000, 6.000000) rotate(90.000000) translate(-12.500000, -6.000000) " x="12" y="6" width="1" height="1"></rect>
                    </g>
                    <polygon id="矩形" fill="#57533A" points="2 4 5 4 5 9 2 9"></polygon>
                    <polygon id="矩形" fill="url(#linearGradient-1)" points="3 5 4 5 4 8 3 8"></polygon>
                    <polygon id="矩形" fill="#57533A" points="9 7 12 7 12 12 9 12"></polygon>
                    <polygon id="矩形" fill="#FFFDE1" points="10 8 11 8 11 11 10 11"></polygon>
                    <polygon id="矩形" fill="#57533A" points="7 4 10 4 10 13 7 13"></polygon>
                    <polygon id="矩形" fill="url(#linearGradient-2)" points="8 5 9 5 9 12 8 12"></polygon>
                    <rect id="矩形" fill="#4B4B4B" transform="translate(8.000000, 3.000000) rotate(90.000000) translate(-8.000000, -3.000000) " x="7" y="2.5" width="2" height="1"></rect>
                    <rect id="矩形" fill="#4B4B4B" x="12" y="13" width="1" height="1"></rect>
                    <rect id="矩形" fill="#4B4B4B" transform="translate(6.500000, 5.500000) rotate(90.000000) translate(-6.500000, -5.500000) " x="5" y="5" width="3" height="1"></rect>
                    <rect id="矩形" fill="#4A4A4A" transform="translate(5.500000, 5.500000) rotate(90.000000) translate(-5.500000, -5.500000) " x="5" y="5" width="1" height="1"></rect>
                    <rect id="矩形" fill="#4A4A4A" transform="translate(3.500000, 3.500000) rotate(90.000000) translate(-3.500000, -3.500000) " x="3" y="3" width="1" height="1"></rect>
                    <rect id="矩形" fill="#4A4A4A" transform="translate(3.500000, 9.500000) rotate(90.000000) translate(-3.500000, -9.500000) " x="2.75" y="9" width="1.5" height="1"></rect>
                    <rect id="矩形" fill="#4A4A4A" transform="translate(3.500000, 13.000000) rotate(90.000000) translate(-3.500000, -13.000000) " x="2.5" y="12.5" width="2" height="1"></rect>
                    <polygon id="矩形" fill="#57533A" points="11 7 14 7 14 12 11 12"></polygon>
                    <polygon id="矩形" fill="#FFFDE1" points="12 8 13 8 13 11 12 11"></polygon>
                    <path d="M11,1 C11.5555556,1 11.8888889,1 12,1 C12.1111111,1 12.1388889,1 12.0833333,1 C14.0833333,3.22222222 15.0833333,4.33333333 15.0833333,4.33333333 C15.0833333,4.33333333 15.1846547,4.27065796 15.5,4.5 L15.5,5 L11,5 L11,1 Z" id="路径" stroke="#97958C" fill="#FFFFFF" fill-rule="nonzero"></path>
                </g>
            </g>
        </g>
    </g>
</svg>