<?xml version="1.0" encoding="UTF-8"?>
<svg width="16px" height="16px" viewBox="0 0 16 16" version="1.1" xmlns="http://www.w3.org/2000/svg" xmlns:xlink="http://www.w3.org/1999/xlink">
    <title>SysMLUseCaseDiagram</title>
    <defs>
        <linearGradient x1="100%" y1="50.8111237%" x2="8.33129883%" y2="50.0792571%" id="linearGradient-1">
            <stop stop-color="#FEF9DB" offset="0%"></stop>
            <stop stop-color="#FEF4BD" offset="44.2039696%"></stop>
            <stop stop-color="#FEEF9E" offset="60.7131546%"></stop>
            <stop stop-color="#FCF0AC" offset="100%"></stop>
        </linearGradient>
    </defs>
    <g id="九大图" stroke="none" stroke-width="1" fill="none" fill-rule="evenodd">
        <g id="用例图图元SVG" transform="translate(-136.000000, -652.000000)">
            <g id="SysMLUseCaseDiagram" transform="translate(136.000000, 652.000000)">
                <g id="编组-51">
                    <g id="blank-空白文档">
                        <polygon id="矩形" fill="#000000" fill-rule="nonzero" opacity="0" points="3.42226247e-14 0 16 0 16 16 -5.04870979e-29 16"></polygon>
                        <polygon id="形状" fill="#97958C" fill-rule="nonzero" points="11.9863063 0 -5.04870979e-29 0 -5.04870979e-29 16 16 16 16 4.24264751"></polygon>
                        <polygon id="路径" fill="#EAEDC5" points="15 15 0.916137695 15 0.916137695 1 11.9949341 1 12.0430979 4.22354597 15 4.25749199"></polygon>
                    </g>
                </g>
                <g id="Actor" transform="translate(2.000000, 3.000000)">
                    <path d="M2.15196315,1.23461508 C1.84316012,2 2.01350266,2.84217602 2.58553994,3.41416366 C3.15757723,3.98615129 4.01787499,4.15726031 4.76527773,3.84770283 C5.51268046,3.53814536 6,2.80888344 6,1.99997077 C6,0.895417421 5.10450487,0 3.99985563,0 C3.19087274,0 2.46076619,0.469230158 2.15196315,1.23461508 Z" id="形状" stroke="#4B4B4B" fill="#FEF4C0"></path>
                    <path d="M5,8 C5.30843577,8.61363432 5.70425888,9.36107824 6,10 C6.27087718,10.5852055 5.27317678,10.2909549 5,10 C4.42857143,9.39138328 4.21728289,8.00491144 4,8 C3.83198114,7.99620212 3.61361382,9.66535672 3,10 C2.38668383,10.3344809 1.4174593,10.0850218 1.5,10 C1.91752769,9.56992163 2.79778918,8.41239828 3,8 C3.67977524,6.61363432 3.5,6 3.5,6 C1.16666667,6.06762704 0,6.06762704 0,6 C0,5.62249729 0,5 0,5 C0,5 1.16666667,5 3.5,5 L3.42975725,4 C3.98310547,4 4.18330671,4 4.57142857,4 C4.53013393,4.66666667 4.5063244,5 4.5,5 C4.5,5 5.66666667,5 8,5 C8,5 8,6 8,6 L4.5,6 C4.49051339,6.3632681 4.58495107,7.17425834 5,8 Z" id="形状" fill="#4B4B4B" fill-rule="nonzero"></path>
                </g>
                <line x1="10" y1="9" x2="12" y2="12" id="直线-5" stroke="#4B4B4B" stroke-linecap="square"></line>
                <path d="M12,14 C13.1045695,14 14,13.3284271 14,12.5 C14,11.6715729 13.1045695,11 12,11 C10.8954305,11 10,11.6715729 10,12.5 C10,13.3284271 10.8954305,14 12,14 Z" id="椭圆形" stroke="#4B4B4B" fill="url(#linearGradient-1)"></path>
                <path d="M10.5,0.5 C11.0555556,0.5 11.3888889,0.5 11.5,0.5 C11.6111111,0.5 11.6388889,0.5 11.5833333,0.5 C13.5833333,2.72222222 14.5833333,3.83333333 14.5833333,3.83333333 C14.5833333,3.83333333 14.7222222,4.05555556 15,4.5 L10.5,4.5 L10.5,0.5 Z" id="路径" stroke="#97958C" fill="#FFFFFF" fill-rule="nonzero"></path>
            </g>
        </g>
    </g>
</svg>