<?xml version="1.0" encoding="UTF-8"?>
<svg width="17px" height="17px" viewBox="0 0 17 17" version="1.1" xmlns="http://www.w3.org/2000/svg" xmlns:xlink="http://www.w3.org/1999/xlink">
    <title>iconSD</title>
    <defs>
        <linearGradient x1="0%" y1="50%" x2="100%" y2="50%" id="linearGradient-1">
            <stop stop-color="#DEDEDE" offset="0%"></stop>
            <stop stop-color="#FFFFFF" offset="100%"></stop>
        </linearGradient>
        <linearGradient x1="68%" y1="51.4419976%" x2="34.9992676%" y2="50.1409016%" id="linearGradient-2">
            <stop stop-color="#FEF9DB" offset="0%"></stop>
            <stop stop-color="#FEF4BD" offset="44.2039696%"></stop>
            <stop stop-color="#FEEF9E" offset="60.7131546%"></stop>
            <stop stop-color="#FCF0AC" offset="100%"></stop>
        </linearGradient>
        <linearGradient x1="55.5555556%" y1="51.4419976%" x2="45.3701443%" y2="50.1409016%" id="linearGradient-3">
            <stop stop-color="#FEF9DB" offset="0%"></stop>
            <stop stop-color="#FEF4BD" offset="44.2039696%"></stop>
            <stop stop-color="#FEEF9E" offset="60.7131546%"></stop>
            <stop stop-color="#FCF0AC" offset="100%"></stop>
        </linearGradient>
    </defs>
    <g id="九大图" stroke="none" stroke-width="1" fill="none" fill-rule="evenodd">
        <g id="用例图图元SVG" transform="translate(-678.000000, -610.000000)">
            <g id="iconSD" transform="translate(678.000000, 611.000000)">
                <g id="编组-52">
                    <g id="编组-51">
                        <g id="blank-空白文档备份">
                            <polygon id="矩形" fill="#000000" fill-rule="nonzero" opacity="0" points="3.42226247e-14 0 16 0 16 16 -5.04870979e-29 16"></polygon>
                            <polygon id="形状" fill="#97958C" fill-rule="nonzero" points="11.9863063 0 -5.04870979e-29 0 -5.04870979e-29 16 16 16 16 4.24264751"></polygon>
                            <polygon id="路径" fill="url(#linearGradient-1)" points="15 15 0.916137695 15 0.916137695 1 11.9949341 1 12.0430979 4.22354597 15 4.25749199"></polygon>
                        </g>
                        <rect id="矩形" stroke-opacity="0.65" stroke="#000000" fill="#D8D8D8" transform="translate(12.500000, 5.000000) rotate(90.000000) translate(-12.500000, -5.000000) " x="12" y="5" width="1" height="1"></rect>
                        <polygon id="路径" stroke="#97958C" fill="#FFFFFF" fill-rule="nonzero" points="11.434082 0.384277344 15.3425293 4.59619141 11.434082 4.59619141"></polygon>
                    </g>
                    <path d="M4,4.5 L2.5,5 L3,8.5 L4.5,8 L4,4.5 Z" id="矩形" stroke-opacity="0.65" stroke="#000000" fill="url(#linearGradient-2)"></path>
                    <path d="M9,4.5 L7.5,5 L8,12.5 L9.5,12 L9,4.5 Z" id="矩形" stroke-opacity="0.65" stroke="#000000" fill="url(#linearGradient-3)"></path>
                    <rect id="矩形" stroke-opacity="0.65" stroke="#000000" fill="#D8D8D8" transform="translate(8.500000, 3.000000) rotate(90.000000) translate(-8.500000, -3.000000) " x="8" y="3" width="1" height="1"></rect>
                    <rect id="矩形" stroke-opacity="0.65" stroke="#000000" fill="#D8D8D8" x="12.5" y="12.5" width="1" height="1"></rect>
                    <rect id="矩形" stroke-opacity="0.65" stroke="#000000" fill="#D8D8D8" x="5.5" y="5.5" width="1" height="1"></rect>
                    <rect id="矩形" stroke-opacity="0.65" stroke="#000000" fill="#D8D8D8" transform="translate(6.500000, 5.500000) rotate(90.000000) translate(-6.500000, -5.500000) " x="5.5" y="5.5" width="2" height="1"></rect>
                    <rect id="矩形" stroke-opacity="0.65" stroke="#000000" fill="#D8D8D8" transform="translate(3.500000, 3.000000) rotate(90.000000) translate(-3.500000, -3.000000) " x="3" y="3" width="1" height="1"></rect>
                    <rect id="矩形" stroke-opacity="0.65" stroke="#000000" fill="#D8D8D8" transform="translate(3.500000, 9.500000) rotate(90.000000) translate(-3.500000, -9.500000) " x="3.5" y="9.5" width="1" height="1"></rect>
                    <rect id="矩形" stroke-opacity="0.65" stroke="#000000" fill="#D8D8D8" transform="translate(3.500000, 12.000000) rotate(90.000000) translate(-3.500000, -12.000000) " x="3" y="12" width="1" height="1"></rect>
                </g>
                <rect id="矩形" stroke-opacity="0.65" stroke="#000000" fill="#FFFDE1" x="9.5" y="6.5" width="2" height="4"></rect>
                <rect id="矩形" stroke-opacity="0.65" stroke="#000000" fill="#FFFDE7" x="11.5" y="6.5" width="2" height="4"></rect>
            </g>
        </g>
    </g>
</svg>