<?xml version="1.0" encoding="UTF-8"?>
<svg width="16px" height="16px" viewBox="0 0 16 16" version="1.1" xmlns="http://www.w3.org/2000/svg" xmlns:xlink="http://www.w3.org/1999/xlink">
    <title>SysMLActivityDiagram</title>
    <defs>
        <linearGradient x1="100%" y1="50.8111237%" x2="8.33129883%" y2="50.0792571%" id="linearGradient-1">
            <stop stop-color="#FEF9DB" offset="0%"></stop>
            <stop stop-color="#FEF4BD" offset="44.2039696%"></stop>
            <stop stop-color="#FEEF9E" offset="60.7131546%"></stop>
            <stop stop-color="#FCF0AC" offset="100%"></stop>
        </linearGradient>
        <linearGradient x1="100%" y1="50.0225312%" x2="8.33129883%" y2="50.0022016%" id="linearGradient-2">
            <stop stop-color="#FEF9DB" offset="0%"></stop>
            <stop stop-color="#FEF4BD" offset="44.2039696%"></stop>
            <stop stop-color="#FEEF9E" offset="60.7131546%"></stop>
            <stop stop-color="#FCF0AC" offset="100%"></stop>
        </linearGradient>
    </defs>
    <g id="九大图" stroke="none" stroke-width="1" fill="none" fill-rule="evenodd">
        <g id="用例图图元SVG" transform="translate(-130.000000, -415.000000)">
            <g id="SysMLActivityDiagram" transform="translate(130.000000, 415.000000)">
                <g id="blank-空白文档">
                    <polygon id="矩形" fill="#000000" fill-rule="nonzero" opacity="0" points="3.42226247e-14 0 16 0 16 16 -5.04870979e-29 16"></polygon>
                    <polygon id="形状" fill="#97958C" fill-rule="nonzero" points="11.9863063 0 -5.04870979e-29 0 -5.04870979e-29 16 16 16 16 4.24264751"></polygon>
                    <polygon id="路径" fill="#EAEDC5" points="15 15 0.916137695 15 0.916137695 1 11.9949341 1 12.0430979 4.22354597 15 4.25749199"></polygon>
                </g>
                <rect id="矩形" fill="#000000" opacity="0.65" x="2" y="3" width="3" height="3" rx="1"></rect>
                <polygon id="路径" fill="#000000" fill-rule="nonzero" opacity="0.65" transform="translate(6.000000, 4.501770) rotate(89.000000) translate(-6.000000, -4.501770) " points="6.50633057 3.51045572 5.52857424 3.49338892 5.49366943 5.49308431 6.47142576 5.51015111"></polygon>
                <rect id="矩形" fill="#4B4B4B" x="7" y="2" width="6" height="5" rx="1"></rect>
                <rect id="矩形" fill="url(#linearGradient-1)" x="8" y="3" width="4" height="3"></rect>
                <path d="M9.5,6.5 L9.5,10.6534424" id="直线" stroke="#4B4B4B" stroke-linecap="square"></path>
                <rect id="矩形" fill="#4B4B4B" x="8" y="9" width="3" height="1"></rect>
                <rect id="矩形" fill="#4B4B4B" x="4" y="11" width="10" height="3" rx="1"></rect>
                <rect id="矩形" fill="url(#linearGradient-2)" x="5" y="12" width="8" height="1"></rect>
                <path d="M11,1 C11.5555556,1 11.8888889,1 12,1 C12.1111111,1 12.1388889,1 12.0833333,1 C14.0833333,3.22222222 15.0833333,4.33333333 15.0833333,4.33333333 C15.0833333,4.33333333 15.1846547,4.27065796 15.5,4.5 L15.5,5 L11,5 L11,1 Z" id="路径" stroke="#97958C" fill="#FFFFFF" fill-rule="nonzero"></path>
            </g>
        </g>
    </g>
</svg>