<?xml version="1.0" encoding="UTF-8"?>
<svg width="16px" height="16px" viewBox="0 0 16 16" version="1.1" xmlns="http://www.w3.org/2000/svg" xmlns:xlink="http://www.w3.org/1999/xlink">
    <title>SysMLRequirementDiagram</title>
    <g id="九大图" stroke="none" stroke-width="1" fill="none" fill-rule="evenodd">
        <g id="用例图图元SVG" transform="translate(-80.000000, -711.000000)">
            <g id="SysMLRequirementDiagram" transform="translate(80.000000, 711.000000)">
                <g id="blank-空白文档">
                    <polygon id="矩形" fill="#000000" fill-rule="nonzero" opacity="0" points="3.42226247e-14 0 16 0 16 16 -5.04870979e-29 16"></polygon>
                    <polygon id="形状" fill="#97958C" fill-rule="nonzero" points="11.9863063 0 -5.04870979e-29 0 -5.04870979e-29 16 16 16 16 4.24264751"></polygon>
                    <polygon id="路径" fill="#EAEDC5" points="15 15 0.916137695 15 0.916137695 1 11.9949341 1 12.0430979 4.22354597 15 4.25749199"></polygon>
                </g>
                <g id="树型" transform="translate(2.000000, 1.000000)" fill-rule="nonzero">
                    <path d="M5.98957813,10.0034844 L5.98957813,12.9943594 L12.0175781,12.9943594 L12.0175781,10.0034844 L5.98957813,10.0034844 Z M0.001171875,0.985 L0.001171875,4.985 L8.00271875,4.985 L8.00271875,0.985 L0.001171875,0.985 Z M5.98957813,6.00326562 L5.98957813,8.99414062 L12.0035938,8.99414062 L12.0035938,6.00326562 L5.98957813,6.00326562 Z M2.00057813,4.98501562 L3.00057813,4.98501562 L3.00057813,11.9956406 L2.00057813,11.9956406 L2.00057813,4.98501562 Z" id="形状" fill="#4B4B4B"></path>
                    <path d="M3.00078125,10.9969063 L6.98959375,10.9969063 L6.98959375,11.9956406 L3.00078125,11.9956406 L3.00078125,10.9969063 Z M3.00078125,7 L6.98959375,7 L6.98959375,7.99032813 L3.00078125,7.99032813 L3.00078125,7 Z" id="形状" fill="#4B4B4B"></path>
                    <g id="编组-54" transform="translate(1.001359, 1.999266)">
                        <polygon id="路径" fill="#FFFCDD" points="5.99803125 6.0005 5.99803125 4.99740625 9.987 4.99740625 9.987 6.0005"></polygon>
                        <polygon id="路径" fill="#FCF9DA" points="6.00117188 2 9.05941988e-14 2 9.05941988e-14 0 6.00117188 0"></polygon>
                        <polygon id="路径" fill="#FFFCDD" points="5.99803125 10.0005 5.99803125 8.99740625 9.987 8.99740625 9.987 10.0005"></polygon>
                    </g>
                </g>
                <polygon id="路径" fill="#4B4B4B" fill-rule="nonzero" points="4.00057813 2.98501562 5.00057813 2.98501562 5.00057813 9.99564062 4.00057813 9.99564062"></polygon>
                <polygon id="路径" fill="#4B4B4B" fill-rule="nonzero" points="10 8 11 8 11 9 10 9"></polygon>
                <polygon id="路径" fill="#4B4B4B" fill-rule="nonzero" points="10 12 11 12 11 13 10 13"></polygon>
                <path d="M10,0.5 C10.5555556,0.5 10.8888889,0.5 11,0.5 C11.1111111,0.5 11.1388889,0.5 11.0833333,0.5 C13.0833333,2.72222222 14.0833333,3.83333333 14.0833333,3.83333333 C14.0833333,3.83333333 14.8430787,3.7489259 15,4 C15.0345727,4.05531636 15.0345727,4.22198302 15,4.5 L10,4.5 L10,0.5 Z" id="路径" stroke="#97958C" fill="#FFFFFF" fill-rule="nonzero"></path>
            </g>
        </g>
    </g>
</svg>