<?xml version="1.0" encoding="UTF-8"?>
<svg width="17px" height="16px" viewBox="0 0 17 16" version="1.1" xmlns="http://www.w3.org/2000/svg" xmlns:xlink="http://www.w3.org/1999/xlink">
    <title>SysMLInternalBlockDiagram</title>
    <defs>
        <linearGradient x1="90.5%" y1="51.4419976%" x2="16.2483521%" y2="50.1409016%" id="linearGradient-1">
            <stop stop-color="#FEF9DB" offset="0%"></stop>
            <stop stop-color="#FEF4BD" offset="44.2039696%"></stop>
            <stop stop-color="#FEEF9E" offset="60.7131546%"></stop>
            <stop stop-color="#FCF0AC" offset="100%"></stop>
        </linearGradient>
    </defs>
    <g id="九大图" stroke="none" stroke-width="1" fill="none" fill-rule="evenodd">
        <g id="用例图图元SVG" transform="translate(-135.000000, -559.000000)">
            <g id="SysMLInternalBlockDiagram" transform="translate(135.000000, 559.000000)">
                <g id="blank-空白文档">
                    <polygon id="矩形" opacity="0" fill-rule="nonzero" points="3.42226247e-14 0 16 0 16 16 0 16"></polygon>
                    <polygon id="形状" fill="#97958C" fill-rule="nonzero" points="11.9863063 0 0 0 0 16 16 16 16 4.24264751"></polygon>
                    <polygon id="路径" fill="#EAEDC5" points="15 15 0.916137695 15 0.916137695 1 11.9949341 1 12.0430979 4.22354597 15 4.25749199"></polygon>
                </g>
                <polygon id="矩形" fill="#4B4B4B" points="3 2 14 2 14 14 3 14"></polygon>
                <polygon id="矩形" fill="url(#linearGradient-1)" points="4 3 13 3 13 13 4 13"></polygon>
                <rect id="矩形" fill="#4B4B4B" x="7" y="4" width="5" height="8"></rect>
                <rect id="矩形" fill="#FFFFFF" x="8" y="5" width="3" height="6"></rect>
                <rect id="矩形" fill="#4B4B4B" x="2" y="6.5" width="3" height="3"></rect>
                <rect id="矩形" fill="#FFFACC" x="3" y="7.5" width="1" height="1"></rect>
                <rect id="矩形" fill="#4B4B4B" x="6" y="6.5" width="3" height="3"></rect>
                <rect id="矩形" fill="#FFFACC" x="7" y="7.5" width="1" height="1"></rect>
                <path d="M11,1 C11.5555556,1 11.8888889,1 12,1 C12.1111111,1 12.1388889,1 12.0833333,1 C14.0833333,3.22222222 15.0833333,4.33333333 15.0833333,4.33333333 C15.0833333,4.33333333 15.1846547,4.27065796 15.5,4.5 C15.5824289,4.55994828 15.5824289,4.72661495 15.5,5 L11,5 L11,1 Z" id="路径" stroke="#97958C" fill="#FFFFFF" fill-rule="nonzero"></path>
            </g>
        </g>
    </g>
</svg>