<?xml version="1.0" encoding="UTF-8"?>
<svg width="16px" height="16px" viewBox="0 0 16 16" version="1.1" xmlns="http://www.w3.org/2000/svg" xmlns:xlink="http://www.w3.org/1999/xlink">
    <title>SysMLPackageDiagram</title>
    <defs>
        <linearGradient x1="100%" y1="50.5191191%" x2="8.33129883%" y2="50.0507246%" id="linearGradient-1">
            <stop stop-color="#FEF9DB" offset="0%"></stop>
            <stop stop-color="#FEF4BD" offset="44.2039696%"></stop>
            <stop stop-color="#FEEF9E" offset="60.7131546%"></stop>
            <stop stop-color="#FCF0AC" offset="100%"></stop>
        </linearGradient>
        <linearGradient x1="100%" y1="50.9228785%" x2="8.33129883%" y2="50.090177%" id="linearGradient-2">
            <stop stop-color="#FEF9DB" offset="0%"></stop>
            <stop stop-color="#FEF4BD" offset="44.2039696%"></stop>
            <stop stop-color="#FEEF9E" offset="60.7131546%"></stop>
            <stop stop-color="#FCF0AC" offset="100%"></stop>
        </linearGradient>
        <linearGradient x1="100%" y1="50.2307196%" x2="8.33129883%" y2="50.0225442%" id="linearGradient-3">
            <stop stop-color="#FEF9DB" offset="0%"></stop>
            <stop stop-color="#FEF4BD" offset="44.2039696%"></stop>
            <stop stop-color="#FEEF9E" offset="60.7131546%"></stop>
            <stop stop-color="#FCF0AC" offset="100%"></stop>
        </linearGradient>
    </defs>
    <g id="九大图" stroke="none" stroke-width="1" fill="none" fill-rule="evenodd">
        <g id="用例图图元SVG" transform="translate(-129.000000, -320.000000)">
            <g id="SysMLPackageDiagram" transform="translate(129.000000, 320.000000)">
                <g id="iconBDD">
                    <g id="blank-空白文档">
                        <polygon id="矩形" fill="#000000" fill-rule="nonzero" opacity="0" points="3.42226247e-14 0 16 0 16 16 0 16"></polygon>
                        <polygon id="形状" fill="#97958C" fill-rule="nonzero" points="11.9863063 0 0 0 0 16 16 16 16 4.24264751"></polygon>
                        <polygon id="路径" fill="#EAEDC5" points="15 15 0.916137695 15 0.916137695 1 11.9949341 1 12.0430979 4.22354597 15 4.25749199"></polygon>
                        <g id="编组-3" transform="translate(4.000000, 5.000000)">
                            <g id="路径">
                                <path d="M5,0.67824828 L5,2.72853412 C4.99227647,2.8846336 4.84920597,3.00568761 4.6797619,2.99949218 L1.34642857,2.99949218 C1.2493173,3.00474034 1.15547294,2.96627337 1.09467492,2.89629791 C1.03387691,2.82632246 1.01367364,2.73352636 1.04047619,2.64735641 C0.990716697,2.81568003 1.00103416,2.80821839 1.07142857,2.62497147 C1.11703945,2.50623972 0.87894421,2.63123836 0.357142857,2.9999674 C0.202799529,3.00681135 0.00833320373,1.93394157 0,1.79176041 L0,0.244934792 C0.00833320631,0.102753634 0.139704291,-0.00653930127 0.294047617,0.00030464978 L1.87619048,0.00030464978 C1.98525459,-0.0022032457 2.08726402,0.0498320913 2.14285714,0.136332175 L2.30238095,0.403999237 L4.68333333,0.403999237 C4.8527439,0.399686242 4.99417554,0.522173059 5,0.67824828 Z" stroke="#4B4B4B" stroke-width="2"></path>
                                <path d="M0.238095239,2 L4.76190476,2 C4.92063492,2 5,2.07355645 5,2.22066936 L5,4.77933064 C5,4.92644355 4.92063492,5 4.76190476,5 L0.238095239,5 C0.0793650798,5 0,4.92644355 0,4.77933064 L0,2.22066936 C0,2.07355645 0.0793650798,2 0.238095239,2 Z" stroke="#4B4B4B" stroke-width="2"></path>
                                <path d="M5,0.67824828 L5,2.72853412 C4.99227647,2.8846336 4.84920597,3.00568761 4.6797619,2.99949218 L1.34642857,2.99949218 C1.2493173,3.00474034 1.15547294,2.96627337 1.09467492,2.89629791 C1.03387691,2.82632246 1.01367364,2.73352636 1.04047619,2.64735641 C0.990716697,2.81568003 1.00103416,2.80821839 1.07142857,2.62497147 C1.11703945,2.50623972 0.87894421,2.63123836 0.357142857,2.9999674 C0.202799529,3.00681135 0.00833320373,1.93394157 0,1.79176041 L0,0.244934792 C0.00833320631,0.102753634 0.139704291,-0.00653930127 0.294047617,0.00030464978 L1.87619048,0.00030464978 C1.98525459,-0.0022032457 2.08726402,0.0498320913 2.14285714,0.136332175 L2.30238095,0.403999237 L4.68333333,0.403999237 C4.8527439,0.399686242 4.99417554,0.522173059 5,0.67824828 Z" fill="url(#linearGradient-1)"></path>
                                <path d="M0.238095239,1 L4.76190476,1 C4.92063492,1 5,1.09807527 5,1.29422582 L5,4.70577418 C5,4.90192473 4.92063492,5 4.76190476,5 L0.238095239,5 C0.0793650798,5 0,4.90192473 0,4.70577418 L0,1.29422582 C0,1.09807527 0.0793650798,1 0.238095239,1 Z" fill="url(#linearGradient-2)"></path>
                            </g>
                            <path d="M8,3.45216552 L8,4.81902275 C7.99227647,4.92308907 7.84920597,5.00379174 7.6797619,4.99966145 L4.34642857,4.99966145 C4.2493173,5.00316022 4.15547294,4.97751558 4.09467492,4.93086528 C4.03387691,4.88421497 4.01367364,4.82235091 4.04047619,4.76490427 C3.9907167,4.87712002 4.00103416,4.87214559 4.07142857,4.74998098 C4.11703945,4.67082648 3.92656326,4.75416615 3.5,5 C3,5 3.0083332,4.59478744 3,4.5 L3,3.16328986 C3.00833321,3.06850242 3.13970429,2.99564047 3.29404762,3.0002031 L4.87619048,3.0002031 C4.98525459,2.99853117 5.08726402,3.03322139 5.14285714,3.09088812 L5.30238095,3.26933282 L7.68333333,3.26933282 C7.8527439,3.26645749 7.99417554,3.34811537 8,3.45216552 Z" id="路径" stroke="#4B4B4B" stroke-width="2"></path>
                            <path d="M3.23809524,5 L7.76190476,5 C7.92063492,5 8,5.04903764 8,5.14711291 L8,6.85288709 C8,6.95096236 7.92063492,7 7.76190476,7 L3.23809524,7 C3.07936508,7 3,6.95096236 3,6.85288709 L3,5 C3,5 3.07936508,5 3.23809524,5 Z" id="路径" stroke="#4B4B4B" stroke-width="2"></path>
                            <path d="M8,3.45216552 L8,4.81902275 C7.99227647,4.92308907 7.84920597,5.00379174 7.6797619,4.99966145 L4.34642857,4.99966145 C4.2493173,5.00316022 4.15547294,4.97751558 4.09467492,4.93086528 C4.03387691,4.88421497 4.01367364,4.82235091 4.04047619,4.76490427 C3.9907167,4.87712002 4.00103416,4.87214559 4.07142857,4.74998098 C4.11703945,4.67082648 3.87894421,4.75415891 3.35714286,4.99997827 C3.20279953,5.0045409 3.0083332,4.28929438 3,4.19450694 L3,3.16328986 C3.00833321,3.06850242 3.13970429,2.99564047 3.29404762,3.0002031 L4.87619048,3.0002031 C4.98525459,2.99853117 5.08726402,3.03322139 5.14285714,3.09088812 L5.30238095,3.26933282 L7.68333333,3.26933282 C7.8527439,3.26645749 7.99417554,3.34811537 8,3.45216552 Z" id="路径" fill="url(#linearGradient-3)"></path>
                            <path d="M3.23809524,4 L7.76190476,4 C7.92063492,4 8,4.07355645 8,4.22066936 L8,6.77933064 C8,6.92644355 7.92063492,7 7.76190476,7 L3.23809524,7 C3.07936508,7 3,6.92644355 3,6.77933064 L3,4.22066936 C3,4.07355645 3.07936508,4 3.23809524,4 Z" id="路径" fill="url(#linearGradient-1)"></path>
                        </g>
                    </g>
                </g>
                <path d="M11,1 C11.5555556,1 11.8888889,1 12,1 C12.1111111,1 12.1388889,1 12.0833333,1 C14.0833333,3.22222222 15.0833333,4.33333333 15.0833333,4.33333333 C15.0833333,4.33333333 15.1846547,4.27065796 15.5,4.5 L15.5,5 L11,5 L11,1 Z" id="路径" stroke="#97958C" fill="#FFFFFF" fill-rule="nonzero"></path>
            </g>
        </g>
    </g>
</svg>