<?xml version="1.0" encoding="UTF-8"?>
<svg width="16px" height="16px" viewBox="0 0 16 16" version="1.1" xmlns="http://www.w3.org/2000/svg" xmlns:xlink="http://www.w3.org/1999/xlink">
    <title>SystemContext</title>
    <defs>
        <linearGradient x1="100%" y1="51.0594268%" x2="8.33129883%" y2="50.1035195%" id="linearGradient-1">
            <stop stop-color="#FEF9DB" offset="0%"></stop>
            <stop stop-color="#FEF4BD" offset="44.2039696%"></stop>
            <stop stop-color="#FEEF9E" offset="60.7131546%"></stop>
            <stop stop-color="#FCF0AC" offset="100%"></stop>
        </linearGradient>
    </defs>
    <g id="九大图" stroke="none" stroke-width="1" fill="none" fill-rule="evenodd">
        <g transform="translate(-808.000000, -1012.000000)" id="SystemContext">
            <g transform="translate(808.000000, 1012.000000)">
                <g id="jx" fill="#000000" fill-rule="nonzero" opacity="0">
                    <rect id="矩形" x="0" y="0" width="16" height="16"></rect>
                </g>
                <rect id="矩形" stroke="#97958C" fill="url(#linearGradient-1)" x="1" y="2" width="14" height="12" rx="1"></rect>
                <polygon id="矩形" fill="#979487" points="2 10.9974365 14 10.9974365 14 12.0327148 2 12.0327148"></polygon>
                <g id="编组-62" transform="translate(2.000000, 11.000000)"></g>
                <path d="M10.0898438,10.0976562 C10.6861979,10.0976562 11.1907552,9.93424479 11.6035156,9.60742188 C12.016276,9.28059896 12.3020833,8.80598958 12.4609375,8.18359375 L12.4609375,8.18359375 L11.703125,7.9921875 C11.5989583,8.47395833 11.3997396,8.83723958 11.1054688,9.08203125 C10.8111979,9.32682292 10.4518229,9.44921875 10.0273438,9.44921875 C9.67838542,9.44921875 9.35416667,9.359375 9.0546875,9.1796875 C8.75520833,9 8.53450521,8.72851562 8.39257812,8.36523438 C8.25065104,8.00195312 8.1796875,7.57682292 8.1796875,7.08984375 C8.1796875,6.71223958 8.23958333,6.34570312 8.359375,5.99023438 C8.47916667,5.63476562 8.68684896,5.3515625 8.98242188,5.140625 C9.27799479,4.9296875 9.64583333,4.82421875 10.0859375,4.82421875 C10.46875,4.82421875 10.7864583,4.91927083 11.0390625,5.109375 C11.2916667,5.29947917 11.484375,5.60286458 11.6171875,6.01953125 L11.6171875,6.01953125 L12.3632812,5.84375 C12.2096354,5.31510417 11.9375,4.90494792 11.546875,4.61328125 C11.15625,4.32161458 10.6744792,4.17578125 10.1015625,4.17578125 C9.59635417,4.17578125 9.13346354,4.29101562 8.71289062,4.52148438 C8.29231771,4.75195312 7.96809896,5.08919271 7.74023438,5.53320312 C7.51236979,5.97721354 7.3984375,6.49739583 7.3984375,7.09375 C7.3984375,7.640625 7.49934896,8.15234375 7.70117188,8.62890625 C7.90299479,9.10546875 8.19726562,9.46940104 8.58398438,9.72070312 C8.97070312,9.97200521 9.47265625,10.0976562 10.0898438,10.0976562 Z" id="C" fill="#000000" fill-rule="nonzero"></path>
            </g>
        </g>
    </g>
</svg>