<?xml version="1.0" encoding="UTF-8"?>
<svg width="16px" height="16px" viewBox="0 0 16 16" version="1.1" xmlns="http://www.w3.org/2000/svg" xmlns:xlink="http://www.w3.org/1999/xlink">
    <title>TestCase</title>
    <defs>
        <linearGradient x1="100%" y1="51.0324362%" x2="8.33129883%" y2="50.1008822%" id="linearGradient-1">
            <stop stop-color="#FEF9DB" offset="0%"></stop>
            <stop stop-color="#FEF4BD" offset="44.2039696%"></stop>
            <stop stop-color="#FEEF9E" offset="60.7131546%"></stop>
            <stop stop-color="#FCF0AC" offset="100%"></stop>
        </linearGradient>
    </defs>
    <g id="九大图" stroke="none" stroke-width="1" fill="none" fill-rule="evenodd">
        <g transform="translate(-1215.000000, -1109.000000)" id="TestCase">
            <g transform="translate(1215.000000, 1109.000000)">
                <rect id="矩形" fill="#000000" fill-rule="nonzero" opacity="0" x="0" y="0" width="16" height="16"></rect>
                <rect id="矩形" stroke="#97958C" fill="#97958C" x="0.5" y="1.5" width="14" height="12" rx="1"></rect>
                <rect id="矩形" fill="url(#linearGradient-1)" x="1" y="2" width="13" height="11" rx="1"></rect>
                <path d="M5.47802734,10 L5.47802734,5.58056641 L7.13574219,5.58056641 L7.13574219,4.98925781 L3.1640625,4.98925781 L3.1640625,5.58056641 L4.81494141,5.58056641 L4.81494141,10 L5.47802734,10 Z M9.97949219,10.0854492 C10.5013021,10.0854492 10.9427897,9.94246419 11.3039551,9.65649414 C11.6651204,9.37052409 11.9152018,8.95524089 12.0541992,8.41064453 L12.0541992,8.41064453 L11.3911133,8.24316406 C11.2999674,8.66471354 11.125651,8.98258464 10.8681641,9.19677734 C10.6106771,9.41097005 10.296224,9.51806641 9.92480469,9.51806641 C9.61946615,9.51806641 9.33577474,9.43945312 9.07373047,9.28222656 C8.8116862,9.125 8.61857096,8.88745117 8.49438477,8.56958008 C8.37019857,8.25170898 8.30810547,7.87972005 8.30810547,7.45361328 C8.30810547,7.12320964 8.36051432,6.80249023 8.46533203,6.49145508 C8.57014974,6.18041992 8.75187174,5.93261719 9.01049805,5.74804688 C9.26912435,5.56347656 9.59098307,5.47119141 9.97607422,5.47119141 C10.3110352,5.47119141 10.5890299,5.55436198 10.8100586,5.72070312 C11.0310872,5.88704427 11.199707,6.15250651 11.315918,6.51708984 L11.315918,6.51708984 L11.96875,6.36328125 C11.8343099,5.90071615 11.5961914,5.54182943 11.2543945,5.28662109 C10.9125977,5.03141276 10.4910482,4.90380859 9.98974609,4.90380859 C9.5476888,4.90380859 9.14265951,5.00463867 8.7746582,5.20629883 C8.4066569,5.40795898 8.12296549,5.70304362 7.92358398,6.09155273 C7.72420247,6.48006185 7.62451172,6.93522135 7.62451172,7.45703125 C7.62451172,7.93554688 7.71280924,8.38330078 7.8894043,8.80029297 C8.06599935,9.21728516 8.32348633,9.53572591 8.66186523,9.75561523 C9.00024414,9.97550456 9.43945312,10.0854492 9.97949219,10.0854492 Z" id="TC" fill="#000000" fill-rule="nonzero"></path>
            </g>
        </g>
    </g>
</svg>