<?xml version="1.0" encoding="UTF-8"?>
<svg width="17px" height="16px" viewBox="0 0 17 16" version="1.1" xmlns="http://www.w3.org/2000/svg" xmlns:xlink="http://www.w3.org/1999/xlink">
    <title>TextBox</title>
    <g id="九大图" stroke="none" stroke-width="1" fill="none" fill-rule="evenodd">
        <g transform="translate(-472.000000, -420.000000)" id="TextBox">
            <g transform="translate(472.686292, 420.000000)">
                <rect id="矩形" fill="#000000" fill-rule="nonzero" opacity="0" x="0" y="0" width="16" height="16"></rect>
                <rect id="矩形" stroke="#97958C" fill="#97958C" x="0.813708499" y="1.5" width="14" height="12" rx="1"></rect>
                <path d="M2.3137085,2 L13.3137085,2 C13.8659932,2 14.3137085,2.44771525 14.3137085,3 L14.3137085,12 C14.3137085,12.5522847 13.8659932,13 13.3137085,13 L2.3137085,13 C1.76142375,13 1.3137085,12.5522847 1.3137085,12 L1.3137085,3 C1.3137085,2.44771525 1.76142375,2 2.3137085,2 Z" id="矩形" fill="#FFFFFF"></path>
                <path d="M11.1537085,5.12 L3.8737085,5.12 C3.5617085,5.12 3.3137085,4.872 3.3137085,4.56 C3.3137085,4.248 3.5617085,4 3.8737085,4 L11.1537085,4 C11.4657085,4 11.7137085,4.248 11.7137085,4.56 C11.7137085,4.872 11.4657085,5.12 11.1537085,5.12 Z M7.5377085,11.64 C7.2337085,11.64 6.9777085,11.392 6.9777085,11.08 L6.9377085,4.6 C6.9377085,4.288 7.1857085,4.04 7.4977085,4.04 C7.8017085,4.04 8.0577085,4.288 8.0577085,4.6 L8.0977085,11.08 C8.0977085,11.384 7.8497085,11.64 7.5377085,11.64 L7.5377085,11.64 Z" id="形状" fill="#000000" fill-rule="nonzero"></path>
            </g>
        </g>
    </g>
</svg>