<?xml version="1.0" encoding="UTF-8"?>
<svg width="16px" height="16px" viewBox="0 0 16 16" version="1.1" xmlns="http://www.w3.org/2000/svg" xmlns:xlink="http://www.w3.org/1999/xlink">
    <title>TimeExpression</title>
    <g id="九大图" stroke="none" stroke-width="1" fill="none" fill-rule="evenodd">
        <g transform="translate(-1893.000000, -842.000000)" fill-rule="nonzero" id="TimeExpression">
            <g transform="translate(1893.000000, 842.000000)">
                <rect id="矩形" fill="#000000" opacity="0" x="0" y="0" width="16" height="16"></rect>
                <path d="M4,10.75 L4.75,11.5 L5.5,10.75 L4.75,10 L4,10.75 Z M5.5,4.75 L4.75,4 L4,4.75 L4.75,5.5 L5.5,4.75 Z M7.2,13.5 L8.7,13.5 L8.7,12 L7.2,12 L7.2,13.5 Z M7.2,4.5 L8.7,4.5 L8.7,3 L7.2,3 L7.2,4.5 Z M12,7 L12,8.5 L13.5,8.5 L13.5,7 L12,7 Z M3,7 L3,8.5 L4.5,8.5 L4.5,7 L3,7 Z M8,1 C4.13400675,1 1,4.13400675 1,8 C1,11.8659932 4.13400675,15 8,15 C11.8659932,15 15,11.8659932 15,8 C15,4.13400675 11.8659932,1 8,1 Z M8,14 C4.6862915,14 2,11.3137085 2,8 C2,4.6862915 4.6862915,2 8,2 C11.3137085,2 14,4.6862915 14,8 C14,11.3137085 11.3137085,14 8,14 Z M11,4.75054074 L11.7505423,5.5 L12.5,4.75054074 L11.7505423,4 L11,4.75054074 Z M11,10.75 L11.75,11.5 L12.5,10.75 L11.75,10 L11,10.75 Z" id="形状" fill="#444444"></path>
                <path d="M10.5395041,5 C10.2851792,5 10.0790082,5.21284481 10.0790082,5.4754022 L10.0790082,8.58315212 L8.47865863,6.54560028 C8.24323436,6.32836639 8.04220828,5.94649348 7.69457559,6.2424554 C7.34694291,6.53841731 7.54088831,6.82821219 7.69457559,7.08392967 C8.39736466,7.978311 9.12103603,8.88585611 9.8655897,9.806565 C9.97669684,9.94395917 10.1898695,10.0081615 10.5051076,9.99917191 C10.7594325,9.99917191 11,9.76371006 11,9.50115268 L11,5.4754022 C11,5.21284481 10.793829,5 10.5395041,5 Z" id="z" fill="#5263BB" transform="translate(9.250000, 7.500000) scale(-1, 1) translate(-9.250000, -7.500000) "></path>
            </g>
        </g>
    </g>
</svg>