<?xml version="1.0" encoding="UTF-8"?>
<svg width="16px" height="16px" viewBox="0 0 16 16" version="1.1" xmlns="http://www.w3.org/2000/svg" xmlns:xlink="http://www.w3.org/1999/xlink">
    <title>DurationConstraint  </title>
    <defs>
        <filter id="filter-1">
            <feColorMatrix in="SourceGraphic" type="matrix" values="0 0 0 0 0.000000 0 0 0 0 0.000000 0 0 0 0 0.000000 0 0 0 1.000000 0"></feColorMatrix>
        </filter>
    </defs>
    <g id="九大图" stroke="none" stroke-width="1" fill="none" fill-rule="evenodd">
        <g transform="translate(-455.000000, -277.000000)" id="编组-19">
            <g transform="translate(443.000000, 274.000000)">
                <g id="DurationConstraint--">
                    <g id="Constraint" transform="translate(15.000000, 0.000000)" fill="#000000" fill-rule="nonzero">
                        <g id="jx" transform="translate(0.000000, 12.000000)" opacity="0">
                            <rect id="矩形" x="0" y="0" width="16" height="16"></rect>
                        </g>
                        <path d="M5.865979,11.2626953 L5.865979,10.5595703 C5.6550415,10.5595703 5.51783447,10.5463867 5.45435791,10.5200195 C5.39088134,10.4936523 5.34351806,10.4550781 5.31226806,10.4042969 C5.28101806,10.3535156 5.26539306,10.2636719 5.26539306,10.1347656 C5.26539306,10.0449219 5.25855713,9.83789062 5.24488525,9.51367188 C5.2331665,9.30078125 5.20777588,9.13085938 5.16871338,9.00390625 C5.12965088,8.87695312 5.07349853,8.76904297 5.00025634,8.68017578 C4.92701416,8.59130859 4.83277588,8.51367188 4.7175415,8.44726562 C4.84840088,8.36328125 4.94556884,8.28222656 5.00904541,8.20410156 C5.07252197,8.12597656 5.12476806,8.02685547 5.16578369,7.90673828 C5.20679931,7.78662109 5.23218994,7.62988281 5.24195556,7.43652344 C5.25953369,7.09277344 5.26832275,6.859375 5.26832275,6.73632812 C5.26832275,6.61523438 5.28297119,6.52978516 5.31226806,6.47998047 C5.34156494,6.43017578 5.38697509,6.39306641 5.44849853,6.36865234 C5.51002197,6.34423828 5.64918213,6.33203125 5.865979,6.33203125 L5.865979,6.33203125 L5.865979,5.63183594 L5.71070556,5.63183594 C5.45484619,5.63183594 5.26734619,5.64941406 5.14820556,5.68457031 C4.97242431,5.73730469 4.83863525,5.80908203 4.74683838,5.89990234 C4.6550415,5.99072266 4.59156494,6.11083984 4.55640869,6.26025391 C4.52125244,6.40966797 4.50367431,6.67382812 4.50367431,7.05273438 C4.50367431,7.28515625 4.49586181,7.44824219 4.48023681,7.54199219 C4.46070556,7.66699219 4.42457275,7.77099609 4.37183838,7.85400391 C4.319104,7.93701172 4.256604,7.99609375 4.18433838,8.03125 C4.11207275,8.06640625 4.00465088,8.08789062 3.86207275,8.09570312 L3.86207275,8.09570312 L3.86207275,8.79882812 C4.04176025,8.80859375 4.17506103,8.84716797 4.26197509,8.91455078 C4.34888916,8.98193359 4.41383056,9.09375 4.45679931,9.25 C4.48804931,9.35742188 4.50367431,9.59082031 4.50367431,9.95019531 C4.50367431,10.2587891 4.52027588,10.4848633 4.553479,10.628418 C4.58668213,10.7719727 4.65162353,10.8925781 4.74830322,10.9902344 C4.84498291,11.0878906 4.96363525,11.1577148 5.10426025,11.199707 C5.24488525,11.2416992 5.44703369,11.2626953 5.71070556,11.2626953 L5.71070556,11.2626953 L5.865979,11.2626953 Z M7.975354,11.2626953 C8.23121338,11.2626953 8.41871338,11.2451172 8.537854,11.2099609 C8.71558838,11.1572266 8.850354,11.0854492 8.94215088,10.9946289 C9.03394775,10.9038086 9.09693603,10.7832031 9.13111572,10.6328125 C9.16529541,10.4824219 9.18238525,10.2177734 9.18238525,9.83886719 C9.18238525,9.60839844 9.19019775,9.44628906 9.20582275,9.35253906 C9.22730713,9.22753906 9.26392822,9.12353516 9.31568603,9.04052734 C9.36744384,8.95751953 9.42945556,8.8984375 9.50172119,8.86328125 C9.57398681,8.828125 9.68140869,8.80664062 9.82398681,8.79882812 L9.82398681,8.79882812 L9.82398681,8.09570312 C9.64429931,8.0859375 9.51051025,8.04736328 9.42261963,7.97998047 C9.334729,7.91259766 9.26929931,7.80078125 9.22633056,7.64453125 C9.19703369,7.53515625 9.18238525,7.30175781 9.18238525,6.94433594 C9.18238525,6.63574219 9.16529541,6.40966797 9.13111572,6.26611328 C9.09693603,6.12255859 9.03199463,6.00146484 8.9362915,5.90283203 C8.84058838,5.80419922 8.72242431,5.734375 8.58179931,5.69335938 C8.44117431,5.65234375 8.23902588,5.63183594 7.975354,5.63183594 L7.975354,5.63183594 L7.82008056,5.63183594 L7.82008056,6.33203125 C8.04078369,6.33203125 8.18287353,6.34521484 8.24635009,6.37158203 C8.30982666,6.39794922 8.35377197,6.43554688 8.37818603,6.484375 C8.40260009,6.53320312 8.41578369,6.63085938 8.41773681,6.77734375 C8.42750244,7.2421875 8.44312744,7.54296875 8.46461181,7.6796875 C8.49781494,7.87890625 8.56031494,8.04296875 8.65211181,8.171875 C8.71851806,8.26171875 8.82398681,8.35351562 8.96851806,8.44726562 C8.85718994,8.51171875 8.76588134,8.58642578 8.69459228,8.67138672 C8.62330322,8.75634766 8.56617431,8.85986328 8.52320556,8.98193359 C8.48023681,9.10400391 8.45386963,9.26660156 8.444104,9.46972656 C8.428479,9.80566406 8.42017822,10.0332031 8.41920166,10.1523438 C8.41822509,10.2714844 8.40260009,10.355957 8.37232666,10.4057617 C8.34205322,10.4555664 8.29468994,10.4936523 8.23023681,10.5200195 C8.16578369,10.5463867 8.02906494,10.5595703 7.82008056,10.5595703 L7.82008056,10.5595703 L7.82008056,11.2626953 L7.975354,11.2626953 Z" id="{}"></path>
                    </g>
                    <rect id="矩形" fill="#000000" x="13.6862915" y="12" width="13" height="1"></rect>
                    <g id="展开收缩" transform="translate(12.000000, 12.686292) rotate(-45.000000) translate(-12.000000, -12.686292) translate(4.000000, 4.686292)" fill="#000000" fill-rule="nonzero">
                        <rect id="矩形" opacity="0" x="0" y="0" width="16" height="16"></rect>
                        <path d="M11.0751376,7.30963867 C10.9371238,7.33083375 10.6588115,7.60534463 10.6220368,7.76273953 L10.308863,9.61483472 L8.85570126,8.14640786 C8.7188526,8.00658291 8.62213004,8.34545642 8.48528137,8.48528137 C8.34843271,8.62510633 8.21082786,8.52565657 8.34767652,8.66548153 L9.79284248,10.1420781 L8.04014636,10.34463 C7.68108722,10.4913861 7.81530647,11.0873844 7.81530647,11.0873844 C7.81530647,11.0873844 7.81530647,11.0873844 8.81521848,11.1197021 L10.7878333,10.6635219 C10.7878333,10.6635219 10.7878333,10.6635219 10.8562577,10.6635219 C10.8562577,10.6635219 10.924682,10.6635219 10.924682,10.6635219 C10.9931063,10.5936094 11.0615307,10.5236969 11.129955,10.4537844 C11.129955,10.4537844 11.129955,10.383872 11.129955,10.383872 C11.129955,10.383872 11.129955,10.383872 11.129955,10.3139595 L11.4517398,8.34725009 C11.4517398,8.13751265 11.2131514,7.28844358 11.0751376,7.30963867 Z" id="形状"></path>
                    </g>
                    <g filter="url(#filter-1)" id="_点箭头">
                        <g transform="translate(17.686292, 10.000000) rotate(-115.000000) translate(-17.686292, -10.000000) translate(10.686292, 6.000000)">
                            <path d="M4.3031368,3.55063548 C4.3031368,3.55063548 8.23886525,3.67408029 8.27205215,3.60429609 C8.30523905,3.53451188 8.30408482,2.68743047 8.30408482,2.68743047 C8.30408482,2.68743047 4.33085453,2.54868274 4.33085453,2.54868274 C4.31237604,3.21665123 4.3031368,3.55063548 4.3031368,3.55063548 Z" id="路径" fill="#0283E2" fill-rule="nonzero" transform="translate(6.303611, 3.087176) rotate(23.000000) translate(-6.303611, -3.087176) "></path>
                            <path d="M0.68176667,1.56736879 C0.68176667,1.56736879 3.6553857,1.78056563 3.6553857,1.78056563 C3.6553857,1.78056563 3.69146953,0.747259925 3.69146953,0.747259925 C3.69146953,0.747259925 0.714036364,0.643285668 0.714036364,0.643285668 C0.714036364,0.643285668 0.68176667,1.56736879 0.68176667,1.56736879 Z" id="路径" fill="#0283E2" fill-rule="nonzero" transform="translate(2.186618, 1.211926) rotate(23.000000) translate(-2.186618, -1.211926) "></path>
                            <path d="M9.81288847,6.95202529 C9.81288847,6.95202529 9.08704241,6.2510839 9.08704241,6.2510839 L11.8490557,3.39093546 C11.8678259,3.37270453 12.2425464,3.77092509 12.5358059,4.05412245 L9.81288847,6.95202529 Z" id="路径" fill="#0283E2" fill-rule="nonzero" transform="translate(10.811424, 5.171178) rotate(71.000000) translate(-10.811424, -5.171178) "></path>
                        </g>
                    </g>
                </g>
            </g>
        </g>
    </g>
</svg>