<?xml version="1.0" encoding="UTF-8"?>
<svg width="16px" height="16px" viewBox="0 0 16 16" version="1.1" xmlns="http://www.w3.org/2000/svg" xmlns:xlink="http://www.w3.org/1999/xlink">
    <title>Trigger</title>
    <g id="九大图" stroke="none" stroke-width="1" fill="none" fill-rule="evenodd">
        <g transform="translate(-2009.000000, -503.000000)" id="Trigger">
            <g transform="translate(2009.000000, 503.000000)">
                <rect id="矩形" fill="#000000" fill-rule="nonzero" opacity="0" x="0" y="0" width="16" height="16"></rect>
                <rect id="矩形" stroke="#97958C" fill="#97958C" x="0.5" y="1.5" width="14" height="12" rx="1"></rect>
                <rect id="矩形" fill="#FFFFFF" x="1" y="2" width="13" height="11" rx="1"></rect>
                <path d="M6,9 L6,10 L7,10 L7,11 L6,11 L6,12 L5,12 L5,11 L4,11 L4,10 L5,10 L5,9 L6,9 Z M10.5,3 L8.5,6 L11,6.0000301 L11,7 L8,10 L7,10 L7,9 L9.03506836,7.00664063 L7,7 L7,6 L9,3 L10.5,3 Z" id="形状结合" fill="#48432E" fill-rule="nonzero"></path>
            </g>
        </g>
    </g>
</svg>