<?xml version="1.0" encoding="UTF-8"?>
<svg width="16px" height="16px" viewBox="0 0 16 16" version="1.1" xmlns="http://www.w3.org/2000/svg" xmlns:xlink="http://www.w3.org/1999/xlink">
    <title>Unit</title>
    <defs>
        <linearGradient x1="8.33129883%" y1="32.5463867%" x2="93.0472238%" y2="32.5463867%" id="linearGradient-1">
            <stop stop-color="#FCD4D9" offset="0%"></stop>
            <stop stop-color="#FDEBEE" offset="100%"></stop>
        </linearGradient>
    </defs>
    <g id="九大图" stroke="none" stroke-width="1" fill="none" fill-rule="evenodd">
        <g transform="translate(-86.000000, -206.000000)" id="Unit">
            <g transform="translate(86.000000, 206.000000)">
                <rect id="矩形" fill="#000000" fill-rule="nonzero" opacity="0" x="0" y="0" width="16" height="16"></rect>
                <rect id="矩形" stroke="#97958C" fill="#97958C" x="0.5" y="1.5" width="14" height="12" rx="1"></rect>
                <path d="M2,2 L13,2 C13.5522847,2 14,2.44771525 14,3 L14,12 C14,12.5522847 13.5522847,13 13,13 L2,13 C1.44771525,13 1,12.5522847 1,12 L1,3 C1,2.44771525 1.44771525,2 2,2 Z" id="矩形" fill="url(#linearGradient-1)"></path>
                <path d="M9.265625,10.8242188 C9.81770833,10.8242188 10.2636719,10.718099 10.6035156,10.5058594 C10.9433594,10.2936198 11.1783854,10.0182292 11.3085938,9.6796875 C11.4388021,9.34114583 11.5039062,8.88411458 11.5039062,8.30859375 L11.5039062,8.30859375 L11.5039062,5 L10.7460938,5 L10.7460938,8.3046875 C10.7460938,9.0234375 10.6276042,9.50911458 10.390625,9.76171875 C10.1536458,10.0143229 9.75651042,10.140625 9.19921875,10.140625 C8.87369792,10.140625 8.59830729,10.0768229 8.37304688,9.94921875 C8.14778646,9.82161458 7.98893229,9.63997396 7.89648438,9.40429688 C7.80403646,9.16861979 7.7578125,8.80208333 7.7578125,8.3046875 L7.7578125,8.3046875 L7.7578125,5 L7,5 L7,8.30859375 C7,8.91536458 7.07291667,9.39388021 7.21875,9.74414062 C7.36458333,10.094401 7.60807292,10.3619792 7.94921875,10.546875 C8.29036458,10.7317708 8.72916667,10.8242188 9.265625,10.8242188 Z" id="U" fill="#000000" fill-rule="nonzero"></path>
            </g>
        </g>
    </g>
</svg>