<?xml version="1.0" encoding="UTF-8"?>
<svg width="16px" height="16px" viewBox="0 0 16 16" version="1.1" xmlns="http://www.w3.org/2000/svg" xmlns:xlink="http://www.w3.org/1999/xlink">
    <title>Usage</title>
    <g id="九大图" stroke="none" stroke-width="1" fill="none" fill-rule="evenodd">
        <g transform="translate(-87.000000, -589.000000)">
            <path d="M98.4982461,603.509932 C98.9513711,603.509932 99.3185586,603.451989 99.5998086,603.336104 C99.8810586,603.220218 100.105668,603.064619 100.273637,602.869307 C100.441606,602.673994 100.55684,602.434411 100.61934,602.150557 C100.68184,601.866703 100.71309,601.381025 100.71309,600.693525 L100.71309,600.693525 L100.71309,597.685713 L99.5568399,597.685713 L99.5568399,600.853682 C99.5568399,601.306807 99.5399128,601.631025 99.5060586,601.826338 C99.4722045,602.02165 99.3719441,602.186364 99.2052774,602.320479 C99.0386107,602.454593 98.7912149,602.52165 98.4630899,602.52165 C98.1401732,602.52165 97.8856159,602.450687 97.699418,602.30876 C97.5132201,602.166833 97.3953816,601.978682 97.3459024,601.744307 C97.3172566,601.598473 97.3029336,601.279463 97.3029336,600.787275 L97.3029336,600.787275 L97.3029336,597.685713 L96.1466836,597.685713 L96.1466836,600.7404 C96.1466836,601.381025 96.1844441,601.8654 96.2599649,602.193525 C96.3120482,602.41488 96.4201211,602.626468 96.5841836,602.828291 C96.7482461,603.030114 96.9715534,603.194176 97.2541055,603.320479 C97.5366576,603.446781 97.9513711,603.509932 98.4982461,603.509932 Z" id="U" fill="#0283E2" fill-rule="nonzero"></path>
            <g id="编组-38" transform="translate(86.000000, 589.000000)">
                <g id="Usage" fill="#000000" fill-rule="nonzero" opacity="0">
                    <g id="jx">
                        <rect id="矩形" x="0" y="0" width="16" height="16"></rect>
                    </g>
                </g>
                <g id="Satisfy">
                    <rect id="矩形" fill="#000000" fill-rule="nonzero" opacity="0" x="0" y="0" width="16" height="16"></rect>
                    <g id="jx"></g>
                    <g id="编组-51">
                        <g id="编组-26" transform="translate(1.146447, 1.000000)">
                            <g id="Allocate">
                                <rect id="矩形" fill="#000000" fill-rule="nonzero" opacity="0" x="0" y="0" width="16" height="16"></rect>
                                <g id="jx"></g>
                                <polygon id="路径" fill="#0283E2" points="8.85355339 0 13.8535534 0 13.8535534 1 8.85355339 1"></polygon>
                                <polygon id="路径" fill="#0283E2" points="12.8535534 0 13.8535534 0 13.8535534 5 12.8535534 5"></polygon>
                            </g>
                        </g>
                        <g id="84-虚线" transform="translate(8.000000, 7.939340) rotate(-45.000000) translate(-8.000000, -7.939340) translate(-1.500000, 6.439340)" fill="#0283E2" fill-rule="nonzero" stroke="#0283E2" stroke-width="0.2">
                            <path d="M3.37377345,0.959559891 L0.973773453,0.959559891 C0.752859553,0.959559891 0.573773453,1.22818904 0.573773453,1.55955989 C0.573773453,1.89093074 0.752859553,2.15955989 0.973773453,2.15955989 L3.37377345,2.15955989 C3.59468735,2.15955989 3.77377345,1.89093074 3.77377345,1.55955989 C3.77377345,1.22818904 3.59468735,0.959559891 3.37377345,0.959559891 L3.37377345,0.959559891 Z M8.52132034,0.959559891 L6.12132034,0.959559891 C5.90040644,0.959559891 5.72132034,1.22818904 5.72132034,1.55955989 C5.72132034,1.89093074 5.90040644,2.15955989 6.12132034,2.15955989 L8.52132034,2.15955989 C8.74223424,2.15955989 8.92132034,1.89093074 8.92132034,1.55955989 C8.92132034,1.22818904 8.74223424,0.959559891 8.52132034,0.959559891 L8.52132034,0.959559891 Z M18.5497475,0.959559891 L16.4164141,0.959559891 C16.1955002,0.959559891 16.0164141,1.22818904 16.0164141,1.55955989 C16.0164141,1.89093074 16.1955002,2.15955989 16.4164141,2.15955989 L18.5497475,2.15955989 C18.7706614,2.15955989 18.9497475,1.89093074 18.9497475,1.55955989 C18.9497475,1.22818904 18.7706614,0.959559891 18.5497475,0.959559891 L18.5497475,0.959559891 Z M11.2688672,0.959559891 C11.0479533,0.959559891 10.8688672,1.22818904 10.8688672,1.55955989 C10.8688672,1.89093074 11.0479533,2.15955989 11.2688672,2.15955989 L13.6688672,2.15955989 C13.8897811,2.15955989 14.0688672,1.89093074 14.0688672,1.55955989 C14.0688672,1.22818904 13.8897811,0.959559891 13.6688672,0.959559891 L11.2688672,0.959559891 Z" id="形状"></path>
                        </g>
                    </g>
                </g>
            </g>
        </g>
    </g>
</svg>