<?xml version="1.0" encoding="UTF-8"?>
<svg width="16px" height="16px" viewBox="0 0 16 16" version="1.1" xmlns="http://www.w3.org/2000/svg" xmlns:xlink="http://www.w3.org/1999/xlink">
    <title>UserSystem</title>
    <defs>
        <linearGradient x1="26.4895254%" y1="0%" x2="50%" y2="100%" id="linearGradient-1">
            <stop stop-color="#E3E6B7" offset="0%"></stop>
            <stop stop-color="#EEF0CC" offset="100%"></stop>
        </linearGradient>
    </defs>
    <g id="九大图" stroke="none" stroke-width="1" fill="none" fill-rule="evenodd">
        <g transform="translate(-807.000000, -1134.000000)" id="UserSystem">
            <g transform="translate(807.000000, 1134.000000)">
                <g id="立方体">
                    <path d="M3.4291351,0.00267411803 L-2.37027009e-14,3.1330901 L-2.37027009e-14,15.9928617 L12.6025884,15.9928617 L15.9481534,12.6104854 L15.9481534,0.00267411803 L3.4291351,0.00267411803 Z M11.8028994,15.1878173 L0.565656566,15.1878173 L0.565656566,3.57360406 L12.2020202,3.57360406 L12.2020202,15.1878173 L11.8028994,15.1878173 Z M1.0870423,3.00507614 L3.66145833,0.645383883 L14.9480745,0.645383883 L12.3742898,3.00507614 L1.0870423,3.00507614 Z M12.7940341,14.9762849 L12.7940341,3.40244289 L15.4564394,1.01197652 L15.4564394,12.3531885 L12.7940341,14.9762849 Z" id="形状" fill="#515151" fill-rule="nonzero"></path>
                    <polygon id="矩形" fill="url(#linearGradient-1)" points="0.565656566 3.49238579 12.2020202 3.49238579 12.2020202 15.3502538 0.565656566 15.3502538"></polygon>
                    <polygon id="路径" fill="#FFFBE4" points="1.0870423 3.00507614 3.66145833 0.645383883 14.9480745 0.645383883 12.3742898 3.00507614"></polygon>
                    <polygon id="路径" fill="#D8DE9E" points="12.7940341 14.9762849 12.7940341 3.40244289 15.4564394 1.01197652 15.4564394 12.3531885"></polygon>
                </g>
                <g id="编组" transform="translate(3.000000, 4.000000)" fill="#4B4B4B" fill-rule="nonzero">
                    <path d="M3.45871249,0 C2.09732518,0 0.9928034,1.09099702 0.9928034,2.43571429 C0.9928034,3.78043155 2.09732518,4.87142857 3.45871249,4.87142857 C4.8200998,4.87142857 5.92462158,3.78043155 5.92462158,2.43571429 C5.92462158,1.09099702 4.82138413,0 3.45871249,0 Z" id="路径"></path>
                    <path d="M4.19233287,7.61183733 L3.97285668,8.1798882 L3.97285668,9.22427804 L6.92791193,9.22427804 L6.92791193,10.0529611 L3.97285668,10.0529611 L3.97285668,11 L3.06735507,11 L3.06735507,10.0529611 L0,10.0529611 L0,9.22427804 L2.99642533,9.22427804 L2.99642533,8.1798882 L2.74019082,7.53824351 L0.308277477,5.22446289 L0.932095614,4.63571429 C2.26339444,5.91134905 3.20877353,6.89046108 3.52780984,7.19814802 C3.60903838,7.09374419 3.77853856,6.88370884 4.03631037,6.56804199 L5.93510853,4.63571429 L6.63078169,5.27920968 L4.19233287,7.61183733 Z" id="路径" transform="translate(3.463956, 7.817857) rotate(-180.000000) translate(-3.463956, -7.817857) "></path>
                </g>
                <path d="M6.5,5 C6.90046838,5 7.27751756,5.1557377 7.56088993,5.43911007 C7.8442623,5.72248244 8,6.09953162 8,6.5 C8,6.90046838 7.8442623,7.27751756 7.56088993,7.56088993 C7.27751756,7.8442623 6.90046838,8 6.5,8 C6.09953162,8 5.72248244,7.8442623 5.43911007,7.56088993 C5.1557377,7.27751756 5,6.90046838 5,6.5 C5,6.09953162 5.1557377,5.72248244 5.43911007,5.43911007 C5.72248244,5.1557377 6.09953162,5 6.5,5" id="路径" fill="#E7E9BE"></path>
            </g>
        </g>
    </g>
</svg>