<?xml version="1.0" encoding="UTF-8"?>
<svg width="14px" height="14px" viewBox="0 0 14 14" version="1.1" xmlns="http://www.w3.org/2000/svg" xmlns:xlink="http://www.w3.org/1999/xlink">
    <title>icondr</title>
    <defs>
        <linearGradient x1="0%" y1="50%" x2="100%" y2="50%" id="linearGradient-1">
            <stop stop-color="#DEDEDE" offset="0%"></stop>
            <stop stop-color="#FFFFFF" offset="100%"></stop>
        </linearGradient>
    </defs>
    <g id="效果图" stroke="none" stroke-width="1" fill="none" fill-rule="evenodd">
        <g id="icondr" transform="translate(7.000000, 7.000000) scale(-1, 1) rotate(-360.000000) translate(-7.000000, -7.000000) ">
            <rect id="矩形" fill="#000000" fill-rule="nonzero" opacity="0" x="0" y="0.5" width="14" height="13"></rect>
            <path d="M11.7777778,2 L3.22222222,2 C2.54725,2 2,2.54725 2,3.22222222 L2,11.7777778 C2,12.45275 2.54725,13 3.22222222,13 L11.7777778,13 C12.45275,13 13,12.45275 13,11.7777778 L13,3.22222222 C13,2.54725 12.45275,2 11.7777778,2 Z" id="形状" fill="url(#linearGradient-1)"></path>
            <path d="M12.0628001,13 C12.4108871,13 13,12.3480869 13,12 L13,10.5 C13,10.3101344 12.6898656,10.2064209 12.5,10.2064209 C12.3101344,10.2064209 12,10.3101344 12,10.5 L12,12 L3,12 L3,3 L12,3 L12,4.5 C12,4.68986562 12.3101344,4.79614258 12.5,4.79614258 C12.6898656,4.79614258 13,4.6898656 13,4.5 L13,3 C13,2.65191304 12.4108871,2 12.0628001,2 L2.92153422,2 C2.57344726,2 2,2.65191305 2,3 L2,12 C2,12.348087 2.62026876,13 3,13 L12.0628001,13 Z" id="路径" fill="#414F58" fill-rule="nonzero" transform="translate(7.500000, 7.500000) rotate(-180.000000) translate(-7.500000, -7.500000) "></path>
            <path d="M7.47291485,9.81707764 C9.15763828,8.33167521 10,7.559316 10,7.5 C10,7.44145711 9.15763828,6.7006497 7.47291485,5.27757777 C7.33483502,5.13006534 6.62398071,5.13006534 6.48590088,5.27757777 C6.34782105,5.4250902 6.52211433,5.82830567 6.66019416,5.9758181 L8.00085449,7 L3,7 C2.79288025,7 2.5,7.27873137 2.5,7.5 C2.5,7.72126863 2.79288027,7.99999998 3,8 L8.00085449,8 L6.66019416,9.03839111 C6.52211433,9.18590354 6.34782105,9.66956521 6.48590088,9.81707764 C6.66019416,10.0107679 7.40387494,9.89083385 7.47291485,9.81707764 Z" id="路径" fill="#414F58" fill-rule="nonzero"></path>
        </g>
    </g>
</svg>