<?xml version="1.0" encoding="UTF-8"?>
<svg width="14px" height="14px" viewBox="0 0 14 14" version="1.1" xmlns="http://www.w3.org/2000/svg" xmlns:xlink="http://www.w3.org/1999/xlink">
    <title>icondc</title>
    <defs>
        <linearGradient x1="0%" y1="50%" x2="100%" y2="50%" id="linearGradient-1">
            <stop stop-color="#DEDEDE" offset="0%"></stop>
            <stop stop-color="#FFFFFF" offset="100%"></stop>
        </linearGradient>
    </defs>
    <g id="效果图" stroke="none" stroke-width="1" fill="none" fill-rule="evenodd">
        <g id="icondc" transform="translate(7.000000, 7.000000) rotate(360.000000) translate(-7.000000, -7.000000) ">
            <rect id="矩形" fill="#000000" fill-rule="nonzero" opacity="0" x="0" y="0.5" width="14" height="13"></rect>
            <path d="M10.7777778,2 L2.22222222,2 C1.54725,2 1,2.54725 1,3.22222222 L1,11.7777778 C1,12.45275 1.54725,13 2.22222222,13 L10.7777778,13 C11.45275,13 12,12.45275 12,11.7777778 L12,3.22222222 C12,2.54725 11.45275,2 10.7777778,2 Z" id="形状" fill="url(#linearGradient-1)"></path>
            <path d="M10.7777778,2 L2.22222222,2 C1.54725,2 1,2.54725 1,3.22222222 L1,11.7777778 C1,12.45275 1.54725,13 2.22222222,13 L10.7777778,13 C11.45275,13 12,12.45275 12,11.7777778 L12,3.22222222 C12,2.54725 11.45275,2 10.7777778,2 Z" id="路径" fill="url(#linearGradient-1)"></path>
            <path d="M10.9033264,13.0776989 C11.2514134,13.0776989 11.914289,12.458377 11.9206265,12.0953036 L11.9468051,10.5955321 C11.9468051,10.4056664 11.6419826,10.2868516 11.452117,10.2868516 C11.2622514,10.2868516 10.9469574,10.3882141 10.9469574,10.5780797 L10.9207788,12.0778512 L1.92214955,11.9207795 L2.07913599,2.92703236 L11.0777652,3.08410401 L11.0516719,4.57899349 C11.0516719,4.76885911 11.3568876,4.86514325 11.5467533,4.86514325 C11.7366189,4.86514325 12.0515195,4.7863115 12.0515195,4.59644589 L12.0776129,3.10155642 C12.0776129,2.75346946 11.4433898,2.07937423 11.0953029,2.07937425 L2.09667361,1.92230259 C1.74858665,1.92230259 1.0792883,2.561493 1.0792883,2.90957995 L0.922301854,11.9033271 C0.922301854,12.2514141 1.5249659,12.9206273 1.90469714,12.9206272 L10.9033264,13.0776989 Z" id="路径" fill="#414F58" fill-rule="nonzero" transform="translate(6.499957, 7.500001) rotate(-1.000000) translate(-6.499957, -7.500001) "></path>
            <path d="M8.72674561,9.64233398 C8.83215332,9.78387451 9.34628296,10.0395508 9.47291485,9.85772705 C11.1576383,8.3560791 12,7.57017008 12,7.5 C12,7.42470296 11.1576383,6.68389555 9.47291485,5.27757777 C9.33483502,5.13006534 8.86482544,5.13006534 8.72674561,5.27757777 C8.58866577,5.4250902 8.52211433,5.82830567 8.66019416,5.9758181 L10.005188,7 L5,7 C4.79288025,7 4.5,7.27873137 4.5,7.5 C4.5,7.72126863 4.79288027,7.99999998 5,8 L10.005188,8 L8.66019416,9.01708984 C8.58866577,9.25610352 8.62133789,9.50079346 8.72674561,9.64233398 Z" id="路径" fill="#414F58" fill-rule="nonzero"></path>
        </g>
    </g>
</svg>