<?xml version="1.0" encoding="UTF-8"?>
<svg width="16px" height="16px" viewBox="0 0 16 16" version="1.1" xmlns="http://www.w3.org/2000/svg" xmlns:xlink="http://www.w3.org/1999/xlink">
    <title>toolbardelete</title>
    <defs>
        <linearGradient x1="0%" y1="50%" x2="100%" y2="50%" id="linearGradient-1">
            <stop stop-color="#DEDEDE" offset="0%"></stop>
            <stop stop-color="#FFFFFF" offset="100%"></stop>
        </linearGradient>
    </defs>
    <g id="效果图" stroke="none" stroke-width="1" fill="none" fill-rule="evenodd">
        <g id="绘图工具栏" transform="translate(-333.000000, -47.000000)">
            <g id="toolbardelete" transform="translate(333.000000, 47.000000)">
                <rect id="矩形" fill="#000000" fill-rule="nonzero" opacity="0" x="0" y="0" width="16" height="16"></rect>
                <path d="M13,3 L11,3 C10.81926,2.11366 10,1 8,1 C6,1 5.18074,2.11366 5,3 L3,3 C1.92788002,3 1,3.42788 1,4.5 C1,4.60317077 1.04087725,4.70213731 1.11383002,4.77509008 C1.18678279,4.84804285 1.39682923,5.50007436 1.5,5.5 L3,5.5 L3,13 C3.00084891,13.8587491 4.14125087,14.9991511 5,15 L11,15 C11.8587491,14.9991511 12.9991511,13.8587491 13,13 L13,5 L14.5,5 C14.6031708,5.00007436 14.8132172,4.84804285 14.88617,4.77509008 C14.9591228,4.70213731 15,4.60317077 15,4.5 C15,3.42788 14.07212,3 13,3 Z" id="路径" fill="url(#linearGradient-1)"></path>
                <path d="M12,13 C11.999383,13.4293106 11.9293107,13.9994602 11.5,14 L4.5,14 C4.07063468,13.9994601 4.00053994,13.9293653 4,13.5 L4,5 L12,5 L12,13 Z" id="路径"></path>
                <path d="M13,3 L11,3 C11,2 11,1 8,1 C5,1 5,2 5,3 L3,3 C1.92788002,3 1.0000001,3.42788 1.0000001,4.5 C1.0000001,4.51895935 0.977198465,5.11268342 1.5,5.5 C1.70806992,5.65414822 2.20806992,5.82081489 3,6 L3,13 C3,14 4,15 5,15 L11,15 C11.8587491,14.9991511 12.9991511,13.8587491 13,13 L13,6 C13.7823685,5.82706868 14.2823685,5.66040201 14.5,5.5 C14.9360389,5.17862412 15.0000001,4.53933315 15.0000001,4.5 C15.0000001,3.42788 14.07212,3 13,3 Z M7,2 L9,2 C10,2 10,2.5 10,3 L6,3 C6,2.5 6,2 7,2 Z M12,12 C12,13 12,14 10,14 L6,14 C4,14 4,13 4,12 L4,5 L12,5 L12,12 Z M3,5 C2.5,5 2.50568951,4.00061468 3,4 L13,4 C13.4943105,4.00061468 13.5,5 13,5 L3,5 Z" id="形状" fill="#414F58" fill-rule="nonzero"></path>
                <path d="M6.50000003,12 C6.63263748,12.0000714 6.75986997,11.9605821 6.85365887,11.8902341 C6.94744778,11.819886 7.00009549,11.7244531 7.00000003,11.624966 L7.00000003,6.37503373 C7.00000003,6.16790832 6.77614231,6 6.50000003,6 C6.22385765,6 6.00000003,6.16790832 6.00000003,6.37503373 L6.00000003,11.625101 C5.99995226,11.7245647 6.05262107,11.8199629 6.14640479,11.8902818 C6.2401885,11.9606006 6.36739368,12.0000714 6.50000003,12 L6.50000003,12 Z M9.49999989,12 C9.63263735,12.0000714 9.75986983,11.9605821 9.85365874,11.8902341 C9.94744764,11.819886 10.0000954,11.7244531 9.99999989,11.624966 L9.99999989,6.37503373 C9.99999989,6.16790832 9.77614217,6 9.49999989,6 C9.22385751,6 8.99999989,6.16790832 8.99999989,6.37503373 L8.99999989,11.625101 C8.99995212,11.7245647 9.05262093,11.8199629 9.14640465,11.8902818 C9.24018837,11.9606006 9.36739354,12.0000714 9.49999989,12 L9.49999989,12 Z" id="形状" fill="#414F58" fill-rule="nonzero"></path>
            </g>
        </g>
    </g>
</svg>