<?xml version="1.0" encoding="UTF-8"?>
<svg width="16px" height="16px" viewBox="0 0 16 16" version="1.1" xmlns="http://www.w3.org/2000/svg" xmlns:xlink="http://www.w3.org/1999/xlink">
    <title>toolbarredo</title>
    <defs>
        <linearGradient x1="0%" y1="50%" x2="100%" y2="50%" id="linearGradient-1">
            <stop stop-color="#DEDEDE" offset="0%"></stop>
            <stop stop-color="#FFFFFF" offset="100%"></stop>
        </linearGradient>
    </defs>
    <g id="效果图" stroke="none" stroke-width="1" fill="none" fill-rule="evenodd">
        <g id="绘图工具栏" transform="translate(-173.000000, -47.000000)">
            <g id="toolbarredo" transform="translate(181.000000, 55.000000) scale(-1, 1) translate(-181.000000, -55.000000) translate(173.000000, 47.000000)">
                <rect id="矩形" fill="#000000" fill-rule="nonzero" opacity="0" x="0" y="0" width="16" height="16"></rect>
                <path d="M8.496875,2.03800367 L1.12971739,7.21063292 L8.5,12.3827611 L8.5,9.32718271 C9.35073039,9.40905795 9.90378084,9.62650522 10.4958919,9.90608114 C11.3948989,10.3287117 12.0830586,11.2771288 12.6735293,12.2714855 L14.4967676,14.3012816 C14.5008632,12.5214796 14.5010053,13.5159031 14.4975431,11.8518493 C14.5043888,11.120515 14.5098238,8.91619261 12.8384817,7.14679343 C11.7452966,5.98953414 10.3728625,5.34464463 8.496875,5.17451719 L8.496875,2.03800367 Z" id="路径" stroke="#414F58" fill="url(#linearGradient-1)"></path>
            </g>
        </g>
    </g>
</svg>