<?xml version="1.0" encoding="UTF-8"?>
<svg width="16px" height="16px" viewBox="0 0 16 16" version="1.1" xmlns="http://www.w3.org/2000/svg" xmlns:xlink="http://www.w3.org/1999/xlink">
    <title>toolbarreduce</title>
    <defs>
        <linearGradient x1="0%" y1="50%" x2="100%" y2="50%" id="linearGradient-1">
            <stop stop-color="#DEDEDE" offset="0%"></stop>
            <stop stop-color="#FFFFFF" offset="100%"></stop>
        </linearGradient>
        <filter id="filter-2">
            <feColorMatrix in="SourceGraphic" type="matrix" values="0 0 0 0 0.254902 0 0 0 0 0.309804 0 0 0 0 0.345098 0 0 0 1.000000 0"></feColorMatrix>
        </filter>
    </defs>
    <g id="效果图" stroke="none" stroke-width="1" fill="none" fill-rule="evenodd">
        <g id="绘图工具栏" transform="translate(-733.000000, -47.000000)">
            <g id="toolbarreduce" transform="translate(733.000000, 47.000000)">
                <path d="M8.48460039,3 C5.45925927,3 3,5.46081872 3,8.48460039 C3,11.5099415 5.46081872,13.9692008 8.48460039,13.9692008 C11.5083821,13.9692008 13.9692015,11.5083821 13.9692015,8.48460039 C13.9707602,5.4608187 11.5099415,3 8.48460039,3 Z" id="路径" fill="url(#linearGradient-1)"></path>
                <g>
                    <g filter="url(#filter-2)" id="缩小" opacity="0">
                        <g>
                            <rect id="矩形" fill="#000000" fill-rule="nonzero" x="0" y="0" width="16" height="16"></rect>
                        </g>
                    </g>
                    <path d="M8.48265106,2 C9.35750487,2 10.2074074,2.17153997 11.0074074,2.50994152 C11.7793372,2.83586744 12.4732943,3.3037037 13.0674464,3.8994152 C13.6615984,4.4951267 14.1294347,5.18752436 14.4569201,5.95945419 C14.7953216,6.75945419 14.9668616,7.60779727 14.9668616,8.48265108 C14.9668616,9.35750488 14.7953216,10.2074074 14.4569201,11.005848 C14.1309942,11.7777778 13.6631579,12.4717349 13.0674464,13.0658869 C12.4717349,13.6615984 11.7793372,14.1278752 11.0074074,14.4553606 C10.2074074,14.7953216 9.35750487,14.9668616 8.48265106,14.9668616 C7.60779727,14.9668616 6.75789473,14.7953216 5.95945419,14.4569201 C5.18752436,14.1309942 4.49356725,13.6631579 3.8994152,13.0674464 C3.3037037,12.4717349 2.83742691,11.7793372 2.50994152,11.0074074 C2.17153995,10.2074074 2,9.35906433 2,8.48421053 C2,7.60935673 2.17153997,6.7594542 2.50994152,5.96101364 C2.83586744,5.18908381 3.3037037,4.4951267 3.8994152,3.90097466 C4.4951267,3.30682261 5.18752436,2.83898636 5.95945419,2.51150097 C6.75945419,2.17153997 7.60779727,2 8.48265106,2 Z M8.48265106,2.99805069 C5.45730994,2.99805069 2.99805067,5.45886941 2.99805067,8.48265108 C2.99805067,11.5079922 5.45886939,13.9672515 8.48265106,13.9672515 C11.5064327,13.9672515 13.9672522,11.5064328 13.9672522,8.48265108 C13.9688109,5.45886939 11.5079922,2.99805069 8.48265106,2.99805069 Z M5.48849902,8.52483858 L11.4768031,8.52483858 M11.4768031,8.98167641 L5.48849902,8.98167641 C5.21247562,8.98167641 4.98947367,8.75867445 4.98947367,8.48265108 C4.98947367,8.2066277 5.21247562,7.98362573 5.48849902,7.98362573 L11.4768031,7.98362573 C11.7528265,7.98362573 11.9758285,8.20662769 11.9758285,8.48265108 C11.9758285,8.75867447 11.7528265,8.98167641 11.4768031,8.98167641 Z" id="形状" fill="#414F58" fill-rule="nonzero"></path>
                </g>
            </g>
        </g>
    </g>
</svg>