<?xml version="1.0" encoding="UTF-8"?>
<svg width="19px" height="15px" viewBox="0 0 19 15" version="1.1" xmlns="http://www.w3.org/2000/svg" xmlns:xlink="http://www.w3.org/1999/xlink">
    <title>topiconopen</title>
    <defs>
        <linearGradient x1="34.2322716%" y1="47.3372781%" x2="60.587651%" y2="52.6422005%" id="linearGradient-1">
            <stop stop-color="#83C8FD" offset="0%"></stop>
            <stop stop-color="#30AEE9" offset="100%"></stop>
        </linearGradient>
        <linearGradient x1="54.6031351%" y1="22.6054504%" x2="50%" y2="85.9260807%" id="linearGradient-2">
            <stop stop-color="#76C7FB" offset="0%"></stop>
            <stop stop-color="#32AEFF" offset="50.8630701%"></stop>
            <stop stop-color="#307BAC" offset="100%"></stop>
        </linearGradient>
    </defs>
    <g id="icon" stroke="none" stroke-width="1" fill="none" fill-rule="evenodd">
        <g transform="translate(-133.000000, -741.000000)" id="topiconopen">
            <g transform="translate(133.000000, 741.000000)">
                <g id="编组-34">
                    <g id="编组-30">
                        <g id="编组-29">
                            <rect id="矩形" fill="#FFFFFF" style="mix-blend-mode: screen;" x="1" y="1" width="13" height="14"></rect>
                            <path d="M14.8625001,7.71844625 L14.8625001,1.50485437 C14.8625001,0.619350504 14.2732143,0 13.430357,0 L1.77678566,0 C1.3660714,0 0.935714263,0.147304991 0.599999987,0.403414797 C0.217857147,0.694676936 0,1.09474394 0,1.50485437 L0,13.4951457 C0,14.3555403 0.966071449,15 1.83035709,15 L11.3017854,14.9983263 L11.321429,14.9983263 C12.5696433,14.9933043 14.2464289,14.6521005 14.623214,13.7077332 C15,12.7633667 14.8625001,12.4212036 14.8625001,10.7803955 C14.8625001,9.1395874 14.8625001,8.53009033 14.8625001,7.71844625 Z M1,13.5907149 L1,4.19030693 L1.00178235,1.37734495 C1.00178235,1.17617557 1.34399408,0.9375 1.63451757,0.9375 L13.2661514,0.9375 C13.4586453,0.9375 13.8788498,1.08581981 13.8788498,1.37734495 L13.8788498,4.19030693 L13.8788498,5.2831001 L13.8329393,5.2831001 L13.8788498,6.78334644 C14.1551147,8.82898048 13.8788498,8.1988908 13.8329393,10.1427755 C13.7521129,13.5650832 13.8788498,12.9265172 13.2661514,14.0305598 C13.2109852,14.1299665 12.8067778,13.9589572 12.8923309,14.0305598 L1.6862058,14.0288544 C1.36181759,14.0305598 1,13.7680162 1,13.5907149 Z" id="形状" fill="#5C6A8E"></path>
                            <polygon id="路径" fill="#2AA0D7" points="1 4 14 4 14 5 1 5"></polygon>
                        </g>
                    </g>
                    <path d="M12.713623,1 L1.63451757,1 C1.35846073,1 1,1.28019547 1,1.41275929 L1,4 L14,4 L13.8788498,1.26064886 C13.8805537,1.06742028 12.895957,1 12.713623,1 Z" id="形状" fill="url(#linearGradient-1)"></path>
                </g>
                <path d="M13.8019556,8.3663768 C13.8019556,8.57385751 13.8761156,8.78307344 14.0317917,8.95470297 L14.7792016,9.76762015 L12.7963242,9.76762015 C11.8488726,9.76762015 11.0237382,10.1575831 10.4337344,10.7999065 C9.85374379,11.4313288 9.5,12.3118639 9.5,13.6559566 C9.5,13.8893732 9.58002127,14.0865541 9.70007415,14.2281754 C9.84217887,14.3958103 10.0434081,14.5 10.2916468,14.5 C10.5398902,14.5 10.7411186,14.3958114 10.8832225,14.2281775 C11.0032704,14.0865621 11.0832936,13.8893872 11.0832936,13.3119132 C11.0832936,12.7786069 11.2742597,12.2943005 11.5954134,11.945835 C11.899194,11.6162201 12.3203056,11.4106805 12.7963242,11.4106805 L14.7647664,11.4106805 L14.0372056,12.1874917 C13.8730704,12.3683521 13.8019556,12.5727444 13.8019556,12.773331 C13.8019556,12.9739177 13.8730704,13.17831 14.0317917,13.3532967 C14.2098583,13.5496112 14.4222611,13.6280947 14.6246456,13.6283869 C14.8278749,13.6286803 15.040698,13.5501946 15.2187094,13.353941 L17.2663882,11.1465315 C17.4285226,10.9678284 17.5,10.7628736 17.5,10.5614833 C17.5,10.3443823 17.4169355,10.1231389 17.2315091,9.94026251 L13.8019556,7.36585325 L13.8019556,8.3663768 Z" id="路径" stroke="#2C79AA" fill="url(#linearGradient-2)" fill-rule="nonzero"></path>
            </g>
        </g>
    </g>
</svg>