<?xml version="1.0" encoding="UTF-8"?>
<svg width="17px" height="17px" viewBox="0 0 17 17" version="1.1" xmlns="http://www.w3.org/2000/svg" xmlns:xlink="http://www.w3.org/1999/xlink">
    <title>iconmove</title>
    <g id="效果图" stroke="none" stroke-width="1" fill="none" fill-rule="evenodd">
        <g id="制表工具栏" transform="translate(-318.000000, -58.000000)" fill-rule="nonzero">
            <g id="iconmove" transform="translate(318.000000, 58.000000)">
                <rect id="矩形" fill="#000000" opacity="0" x="0.5" y="1" width="16" height="16"></rect>
                <polygon id="路径" fill="#414F58" points="13.5 6 13 6.5 14.5 8 9 8 9 2.5 10.5 4 11 3.5 8.5555625 0.888890625 6 3.5 6.5 4 8 2.5 8 8 2.5 8 4 6.5 3.5 6 1 8.4444375 3.5 11 4 10.5 2.5 9 8 9 8 14.5 6.5 13 6 13.5 8.5555625 16 11 13.5 10.5 13 9 14.5 9 9 14.5 9 13 10.5 13.5 11 16.1111094 8.4444375"></polygon>
            </g>
        </g>
    </g>
</svg>