<?xml version="1.0" encoding="UTF-8"?>
<svg width="16px" height="16px" viewBox="0 0 16 16" version="1.1" xmlns="http://www.w3.org/2000/svg" xmlns:xlink="http://www.w3.org/1999/xlink">
    <title>iconmoveout</title>
    <defs>
        <linearGradient x1="0%" y1="50%" x2="100%" y2="50%" id="linearGradient-1">
            <stop stop-color="#DEDEDE" offset="0%"></stop>
            <stop stop-color="#FFFFFF" offset="100%"></stop>
        </linearGradient>
        <linearGradient x1="0%" y1="50%" x2="100%" y2="50%" id="linearGradient-2">
            <stop stop-color="#DEDEDE" offset="0%"></stop>
            <stop stop-color="#FFFFFF" offset="100%"></stop>
        </linearGradient>
    </defs>
    <g id="效果图" stroke="none" stroke-width="1" fill="none" fill-rule="evenodd">
        <g id="制表工具栏" transform="translate(-401.000000, -63.000000)">
            <g id="iconmoveout" transform="translate(401.000000, 63.000000)">
                <rect id="矩形" fill="#000000" fill-rule="nonzero" opacity="0" x="0" y="0" width="16" height="16"></rect>
                <path d="M1,2.375 C1,1.6875 1.6875,1 2.375,1 C3.0625,1 10.625,1 11.3125,1 C12,1 12,1.6875 12,1.6875 C12,1.6875 12,4.03427633 12,10.625 C12,10.6426418 11.5416667,11.1009751 10.625,12 L2.375,12 C1.91666667,11.5416667 1.45833333,11.0833333 1,10.625 C1,5.58333333 1,2.83333333 1,2.375 Z" id="矩形" fill="url(#linearGradient-1)"></path>
                <path d="M11.0625,12 L1.9375,12 C1.42034314,12 1,11.57961 1,11.0623955 L1,1.93760446 C1,1.42038997 1.42034314,1 1.9375,1 L11.0625,1 C11.5796569,1 12,1.42038997 12,1.93760446 L12,11.0636212 C11.9987745,11.57961 11.5796569,12 11.0625,12 Z M2,2.37507312 L2,10.6250692 C2,10.8097016 2.19039035,11 2.375,11 L10.625,11 C10.8096096,11 11,10.8097016 11,10.6250692 L11,2.37507312 C11,2.19044073 10.8096096,2 10.625,2 L2.375,2 C2.19039035,1.99895431 2,2.19044073 2,2.37507312 Z" id="形状" fill="#414F58" fill-rule="nonzero"></path>
                <path d="M1,4 L1.00367524,1.84726563 C1.00367524,1.35273438 1.2670676,1 1.78405168,1 L11.1926718,1 C11.7096559,1 12,1.35273438 12,1.84726563 L11.9767235,4 L1,4 Z M2,3 L11,3 L11,2.25 C11,2.12109375 10.8183594,2 10.625,2 L2.375,2 C2.18164063,2 2,2.12109375 2,2.25 L2,3 Z" id="形状" fill="#414F58" fill-rule="nonzero"></path>
                <g id="删除" transform="translate(6.000000, 5.000000)">
                    <path d="M8,2 L7,2 C7,1.5 7,1 4.5,1 C2,1 2,1.5 2,2 L1.00073692,2 C0.466986511,2 0,2.5 0,3 C0,3.33333333 0.342911154,3.66666667 1.02873346,4 L1.00073692,9 C1.00134329,9.61339225 2.38660776,10.9993936 3,11 L6,11 C6.61339224,10.9993936 7.99939364,9.61339225 8,9 L8,4 C8.66666667,3.53314433 9,3.199811 9,3 C9,2.5 8.34436218,2 8,2 Z" id="路径" fill="url(#linearGradient-2)"></path>
                    <path d="M7,9.33333333 C6.99953722,9.61954043 6.94698306,9.99964016 6.625,10 L2.5,10 C2.17797601,9.99964004 2.00040495,8.78624355 2,8.5 L2,4 L7,4 L7,9.33333333 Z" id="路径"></path>
                    <path d="M8,2 L7,2 C7,1 7,-3.63797881e-12 4.5,-3.63797881e-12 C2,-3.63797881e-12 2,1 2,2 L1,2 C0.5,2 -1.09139364e-11,2 -1.09139364e-11,3 C-1.09139364e-11,3.66666667 0.333333333,4 1,4 L1,9 C1,10 1.5,11 2.5,11 L6,11 C7.5,11 8,10 8,9 L8,4 C8.66666667,4 9,3.66666667 9,3 C9,2 8.5,2 8,2 Z M3.95237097,1 L5,1 C5.5,1 6,1.5 6,2 L3,2 C3,1.78571429 3,1 3.95237097,1 Z M7,8 C7,9 7,10 5,10 L4,10 C2.5,10 2,9.5 2,8 L2,4 L7,4 L7,8 Z M1.375,4 C0.875,4 0.875,3 1.375,3 L7.375,3 C7.875,3 7.875,4 7.375,4 L1.375,4 Z" id="形状" fill="#414F58" fill-rule="nonzero"></path>
                    <path d="M5.50000078,8 C6.00000078,8 6.00010118,7.56632473 6.00000078,7.5 L6.00000078,4.5 C6.00000078,4.36191639 6.00000078,4 5.50000078,4 C5.00000078,4 5.00000078,4.36191639 5.00000078,4.5 L5.00000078,7.5 C4.99995778,7.56630914 5.00000078,8 5.50000078,8 Z" id="形状" fill="#414F58" fill-rule="nonzero"></path>
                    <path d="M3.50000078,8 C4.00000078,8 4.00010118,7.56632473 4.00000078,7.5 L4.00000078,4.5 C4.00000078,4.36191639 4.00000078,4 3.50000078,4 C3.00000078,4 3.00000078,4.36191639 3.00000078,4.5 L3.00000078,7.5 C2.99995778,7.56630914 3.00000078,8 3.50000078,8 Z" id="形状" fill="#414F58" fill-rule="nonzero"></path>
                </g>
            </g>
        </g>
    </g>
</svg>