<?xml version="1.0" encoding="UTF-8"?>
<svg width="16px" height="16px" viewBox="0 0 16 16" version="1.1" xmlns="http://www.w3.org/2000/svg" xmlns:xlink="http://www.w3.org/1999/xlink">
    <title>iconchoose</title>
    <g id="效果图" stroke="none" stroke-width="1" fill="none" fill-rule="evenodd">
        <g id="制表工具栏" transform="translate(-178.000000, -58.000000)" fill="#414F58" fill-rule="nonzero">
            <g id="iconchoose" transform="translate(178.000000, 58.000000)">
                <g id="编组-31">
                    <g id="编组-32">
                        <path d="M3.46922216,3.92213439 L3.47726498,3.92213439 C3.48664826,3.92213439 4.36867731,3.91027668 5.67161382,3.90790514 C5.87268427,4.53754941 6.52817394,5 7.30430588,5 C8.2399537,5 9,4.32648221 9,3.5 C9,2.67351779 8.23861323,2 7.30296541,2 C6.53353582,2 5.88206756,2.45533597 5.67563523,3.07786561 C4.36197496,3.08023715 3.4719031,3.09209486 3.46117934,3.09209486 C3.20246869,3.09565217 2.99603637,3.28418972 3,3.51422925 C3.00407918,3.74071146 3.21319245,3.92213439 3.46922216,3.92213439 Z M7.5,3 C7.7761062,3 8,3.22477876 8,3.5 C8,3.77522124 7.7761062,4 7.5,4 C7.22389381,4 7,3.77522124 7,3.5 C7,3.22477876 7.22389381,3 7.5,3 Z M9.41916168,4 L13.5808383,4 C13.8119761,4 14,3.77571429 14,3.5 C14,3.22428571 13.8119761,3 13.5808383,3 L9.41916168,3 C9.18802396,3 9,3.22428571 9,3.5 C9,3.77571429 9.18802396,4 9.41916168,4 Z M13.5782621,8.09328063 C13.5644267,8.09328063 13.2512433,8.08023715 12.1179977,8.07786561 C11.924302,7.45533597 11.3130286,7 10.5910718,7 C9.71315236,7 9,7.67351779 9,8.5 C9,9.32766798 9.71441013,10 10.5910718,10 C11.3180596,10 11.9343641,9.53754941 12.1230288,8.90790514 C13.2185415,8.91027668 13.5342403,8.92213439 13.5417869,8.92213439 L13.5606534,8.92213439 C13.7945975,8.92213439 13.989551,8.74782609 13.9996131,8.52490119 C14.0096752,8.2972332 13.8222683,8.1027668 13.5782621,8.09328063 L13.5782621,8.09328063 Z M10.5,9 C10.2238938,9 10,8.77522124 10,8.5 C10,8.22477876 10.2247788,8 10.5,8 C10.7752212,8 11,8.22477876 11,8.5 C11,8.77522124 10.7761062,9 10.5,9 Z M8.5528109,8 L3.4471891,8 C3.20059625,8 3,8.22428571 3,8.5 C3,8.77571429 3.20059625,9 3.4471891,9 L8.5528109,9 C8.79940375,9 9,8.77571429 9,8.5 C9,8.22428571 8.79940375,8 8.5528109,8 L8.5528109,8 Z M7.3029654,11 C6.53353581,11 5.88206756,11.455336 5.67563523,12.0778656 C4.36197495,12.0802372 3.47190309,12.0920949 3.46117934,12.0920949 C3.20246869,12.0956522 2.99603636,12.2841897 3,12.5142292 C3.00407918,12.7407115 3.21319245,12.9221344 3.46922215,12.9221344 L3.47726497,12.9221344 C3.48664826,12.9221344 4.3686773,12.9102767 5.67161382,12.9079051 C5.87268427,13.5375494 6.52817393,14 7.30430587,14 C8.2399537,14 9,13.3264822 9,12.5 C8.99865953,11.6735178 8.23861323,11 7.3029654,11 Z M7.5,13 C7.22389381,13 7,12.7752212 7,12.5 C7,12.2247788 7.22477876,12 7.5,12 C7.77522124,12 8,12.2247788 8,12.5 C8,12.7752212 7.7761062,13 7.5,13 Z M13.5808383,12 L9.41916168,12 C9.18802395,12 9,12.2242857 9,12.5 C9,12.7757143 9.18802395,13 9.41916168,13 L13.5808383,13 C13.811976,13 14,12.7757143 14,12.5 C14,12.2242857 13.8131737,12 13.5808383,12 Z" id="形状"></path>
                    </g>
                </g>
            </g>
        </g>
    </g>
</svg>