<?xml version="1.0" encoding="UTF-8"?>
<svg width="16px" height="16px" viewBox="0 0 16 16" version="1.1" xmlns="http://www.w3.org/2000/svg" xmlns:xlink="http://www.w3.org/1999/xlink">
    <title>iconchooserequire</title>
    <defs>
        <linearGradient x1="0%" y1="50%" x2="100%" y2="50%" id="linearGradient-1">
            <stop stop-color="#DEDEDE" offset="0%"></stop>
            <stop stop-color="#FFFFFF" offset="100%"></stop>
        </linearGradient>
    </defs>
    <g id="效果图" stroke="none" stroke-width="1" fill="none" fill-rule="evenodd">
        <g id="制表工具栏" transform="translate(-273.000000, -64.000000)">
            <g id="iconchooserequire" transform="translate(273.000000, 64.000000)">
                <g id="编组-3">
                    <g id="表格">
                        <rect id="矩形" fill="#000000" fill-rule="nonzero" opacity="0" x="0" y="0" width="16" height="16"></rect>
                        <rect id="矩形" fill="url(#linearGradient-1)" x="1.5" y="1.5" width="12" height="12"></rect>
                        <path d="M12.8920455,14 L2.10795455,14 C1.49676916,14 1,13.5031755 1,12.891922 L1,2.10807799 C1,1.49682451 1.49676916,1 2.10795455,1 L12.8920455,1 C13.5032308,1 14,1.49682451 14,2.10807799 L14,12.8933705 C13.9985517,13.5031755 13.5032308,14 12.8920455,14 Z M1.92857143,2.39294767 L1.92857143,12.6072285 C1.92857143,12.835821 2.16429282,13.0714286 2.39285714,13.0714286 L12.6071429,13.0714286 C12.8357072,13.0714286 13.0714286,12.835821 13.0714286,12.6072285 L13.0714286,2.39294767 C13.0714286,2.16435519 12.8357072,1.92857143 12.6071429,1.92857143 L2.39285714,1.92857143 C2.16429282,1.92727677 1.92857143,2.16435519 1.92857143,2.39294767 Z" id="形状" fill="#414F58" fill-rule="nonzero"></path>
                        <path d="M1,4.55555556 L1.00434347,2.00416667 C1.00434347,1.41805556 1.31562535,1 1.92660653,1 L13.0458848,1 C13.656866,1 14,1.41805556 14,2.00416667 L13.9724914,4.55555556 L1,4.55555556 Z M1.92857143,3.66666667 L13.0714286,3.66666667 L13.0714286,2.33333333 C13.0714286,2.10416667 12.8465402,1.88888889 12.6071429,1.88888889 L2.39285714,1.88888889 C2.15345982,1.88888889 1.92857143,2.10416667 1.92857143,2.33333333 L1.92857143,3.66666667 Z" id="形状" fill="#414F58" fill-rule="nonzero"></path>
                    </g>
                </g>
                <path d="M3,8.24958289 L3.77412206,7.69372398 L5.51999181,8.91981394 C6.2357801,8.1585857 6.80835967,7.20209986 9,6 L9,6.55555556 C6.98836183,8.20960784 6.54165178,9.80957919 6.01922056,11 L3,8.24958289 Z" id="路径" fill="#414F58" fill-rule="nonzero"></path>
                <g transform="translate(8.500000, 8.000000)" fill="#414F58" fill-rule="nonzero" id="形状">
                    <path d="M3,3 L-1.87183602e-12,3 L-1.87183602e-12,2 L3,2 L3,3 Z M0.0458532695,1 L0.0458532695,0 L3,0 L3,1 L0.0458532695,1 Z"></path>
                </g>
            </g>
        </g>
    </g>
</svg>