<?xml version="1.0" encoding="UTF-8"?>
<svg width="16px" height="16px" viewBox="0 0 16 16" version="1.1" xmlns="http://www.w3.org/2000/svg" xmlns:xlink="http://www.w3.org/1999/xlink">
    <title>icontreelocation</title>
    <defs>
        <linearGradient x1="0%" y1="50%" x2="100%" y2="50%" id="linearGradient-1">
            <stop stop-color="#DEDEDE" offset="0%"></stop>
            <stop stop-color="#FFFFFF" offset="100%"></stop>
        </linearGradient>
        <linearGradient x1="0%" y1="50%" x2="100%" y2="50%" id="linearGradient-2">
            <stop stop-color="#DEDEDE" offset="0%"></stop>
            <stop stop-color="#FFFFFF" offset="100%"></stop>
        </linearGradient>
    </defs>
    <g id="效果图" stroke="none" stroke-width="1" fill="none" fill-rule="evenodd">
        <g id="制表工具栏" transform="translate(-137.000000, -64.000000)">
            <g id="icontreelocation" transform="translate(137.000000, 64.000000)">
                <rect id="矩形" fill="#000000" fill-rule="nonzero" opacity="0" x="0" y="0" width="16" height="16"></rect>
                <path d="M13.5,10 C13.75,10 14,9.8 14,9.5 L14,7.5 C14,7.25 13.8,7 13.5,7 L5,7 L5,5 L11,5 C11.5,5 12,4.5 12,4 L12,2 C12,1.5 11.5,1 11,1 L3,1 C2.5,1 2,1.5 2,2 C2,2.01819014 2,2.68485681 2,4 C2,4.5 2.5,5 3,5 L4,5 L4,13 C4,13.5 4.5,14 5,14 L13,14 C13.5,14 14,13.5 14,13 L14,11.5 C14,11.25 13.8,11 13.5,11 L5,11 L5,10 L13.5,10 Z M13,8 L13,9 L5,9 L5,8 L13,8 Z M13,12 L13,13 L5,13 L5,12 L13,12 Z M3,4 L3,2 L11,2 L11,4 L3,4 Z" id="形状" fill="#414F58"></path>
                <polygon id="路径" fill="url(#linearGradient-1)" points="13 8 13 9 5 9 5 8"></polygon>
                <polygon id="路径" fill="url(#linearGradient-1)" points="13 12 13 13 5 13 5 12"></polygon>
                <polygon id="路径" fill="url(#linearGradient-2)" points="3 4 3 2 11 2 11 4"></polygon>
            </g>
        </g>
    </g>
</svg>