<svg version="1.1" id="Layer_1" xmlns:x="&amp;ns_extend;" xmlns:i="&amp;ns_ai;" xmlns:graph="&amp;ns_graphs;" xmlns="http://www.w3.org/2000/svg" xmlns:xlink="http://www.w3.org/1999/xlink" x="0px" y="0px" width="64" height="64" viewBox="0 0 24 24" enable-background="new 0 0 24 24" xml:space="preserve" style="width: 1em; height: 1em; vertical-align: middle; fill: currentcolor; overflow: hidden; font-size: 64px;">
<metadata>
	<sfw xmlns="&amp;ns_sfw;">
		<slices></slices>
		<slicesourcebounds width="505" height="984" bottomleftorigin="true" x="0" y="-984"></slicesourcebounds>
	</sfw>
</metadata>
<g>
	<g>
		<g>
			<path d="M12,24c-3.2,0-6.2-1.2-8.5-3.5c-4.7-4.7-4.7-12.3,0-17C5.8,1.2,8.8,0,12,0s6.2,1.2,8.5,3.5c4.7,4.7,4.7,12.3,0,17
				C18.2,22.8,15.2,24,12,24z M12,2C9.3,2,6.8,3,4.9,4.9C1,8.8,1,15.2,4.9,19.1C6.8,21,9.3,22,12,22s5.2-1,7.1-2.9
				c3.9-3.9,3.9-10.2,0-14.1C17.2,3,14.7,2,12,2z"></path>
		</g>
	</g>
	<g>
		<g>
			<path d="M12,18c-0.6,0-1-0.4-1-1V7c0-0.6,0.4-1,1-1s1,0.4,1,1v10C13,17.6,12.6,18,12,18z"></path>
		</g>
	</g>
	<g>
		<g>
			<path d="M17,13H7c-0.6,0-1-0.4-1-1s0.4-1,1-1h10c0.6,0,1,0.4,1,1S17.6,13,17,13z"></path>
		</g>
	</g>
</g>
</svg>