<svg version="1.1" id="Layer_1" xmlns="http://www.w3.org/2000/svg" xmlns:xlink="http://www.w3.org/1999/xlink" x="0px" y="0px" width="64" height="64" viewBox="0 0 64 64" enable-background="new 0 0 64 64" xml:space="preserve" style="width: 1em; height: 1em; vertical-align: middle; fill: currentcolor; overflow: hidden; font-size: 64px;">
<g id="SQUARE__x2F__REMOVE_1_" enable-background="new    ">
	<g id="SQUARE__x2F__REMOVE">
		<g>
			<path d="M61,0H3C1.343,0,0,1.343,0,3v58c0,1.657,1.343,3,3,3h58c1.657,0,3-1.343,3-3V3C64,1.343,62.657,0,61,0z M58,58H6V6h52V58
				z M19,35h26c1.657,0,3-1.343,3-3s-1.343-3-3-3H19c-1.657,0-3,1.343-3,3S17.343,35,19,35z"></path>
		</g>
	</g>
</g>
</svg>